G04 #@! TF.GenerationSoftware,KiCad,Pcbnew,(5.1.9)-1*
G04 #@! TF.CreationDate,2022-01-14T23:32:11+03:00*
G04 #@! TF.ProjectId,HW,48572e6b-6963-4616-945f-706362585858,rev?*
G04 #@! TF.SameCoordinates,Original*
G04 #@! TF.FileFunction,Legend,Top*
G04 #@! TF.FilePolarity,Positive*
%FSLAX46Y46*%
G04 Gerber Fmt 4.6, Leading zero omitted, Abs format (unit mm)*
G04 Created by KiCad (PCBNEW (5.1.9)-1) date 2022-01-14 23:32:11*
%MOMM*%
%LPD*%
G01*
G04 APERTURE LIST*
%ADD10C,0.152400*%
%ADD11C,0.500000*%
%ADD12C,0.150000*%
%ADD13C,0.120000*%
%ADD14C,0.100000*%
%ADD15R,1.200000X0.900000*%
%ADD16R,1.500000X2.000000*%
%ADD17R,3.800000X2.000000*%
%ADD18R,1.800000X2.000000*%
%ADD19C,1.850000*%
%ADD20R,1.850000X1.850000*%
%ADD21O,1.700000X1.700000*%
%ADD22R,1.700000X1.700000*%
%ADD23R,3.500000X3.500000*%
%ADD24R,5.080000X1.500000*%
G04 APERTURE END LIST*
D10*
X175258285Y-65678571D02*
X174987352Y-64964285D01*
X174793828Y-65678571D02*
X174793828Y-64178571D01*
X175103466Y-64178571D01*
X175180876Y-64250000D01*
X175219580Y-64321428D01*
X175258285Y-64464285D01*
X175258285Y-64678571D01*
X175219580Y-64821428D01*
X175180876Y-64892857D01*
X175103466Y-64964285D01*
X174793828Y-64964285D01*
X175606628Y-64892857D02*
X175877561Y-64892857D01*
X175993676Y-65678571D02*
X175606628Y-65678571D01*
X175606628Y-64178571D01*
X175993676Y-64178571D01*
X176225904Y-64178571D02*
X176496838Y-65678571D01*
X176767771Y-64178571D01*
X177812800Y-64178571D02*
X177890209Y-64178571D01*
X177967619Y-64250000D01*
X178006323Y-64321428D01*
X178045028Y-64464285D01*
X178083733Y-64750000D01*
X178083733Y-65107142D01*
X178045028Y-65392857D01*
X178006323Y-65535714D01*
X177967619Y-65607142D01*
X177890209Y-65678571D01*
X177812800Y-65678571D01*
X177735390Y-65607142D01*
X177696685Y-65535714D01*
X177657980Y-65392857D01*
X177619276Y-65107142D01*
X177619276Y-64750000D01*
X177657980Y-64464285D01*
X177696685Y-64321428D01*
X177735390Y-64250000D01*
X177812800Y-64178571D01*
X178432076Y-65535714D02*
X178470780Y-65607142D01*
X178432076Y-65678571D01*
X178393371Y-65607142D01*
X178432076Y-65535714D01*
X178432076Y-65678571D01*
X179244876Y-65678571D02*
X178780419Y-65678571D01*
X179012647Y-65678571D02*
X179012647Y-64178571D01*
X178935238Y-64392857D01*
X178857828Y-64535714D01*
X178780419Y-64607142D01*
X121285123Y-110024171D02*
X121780361Y-110024171D01*
X121513695Y-110595600D01*
X121627980Y-110595600D01*
X121704171Y-110667028D01*
X121742266Y-110738457D01*
X121780361Y-110881314D01*
X121780361Y-111238457D01*
X121742266Y-111381314D01*
X121704171Y-111452742D01*
X121627980Y-111524171D01*
X121399409Y-111524171D01*
X121323219Y-111452742D01*
X121285123Y-111381314D01*
X122008933Y-110024171D02*
X122275600Y-111524171D01*
X122542266Y-110024171D01*
X122732742Y-110024171D02*
X123227980Y-110024171D01*
X122961314Y-110595600D01*
X123075600Y-110595600D01*
X123151790Y-110667028D01*
X123189885Y-110738457D01*
X123227980Y-110881314D01*
X123227980Y-111238457D01*
X123189885Y-111381314D01*
X123151790Y-111452742D01*
X123075600Y-111524171D01*
X122847028Y-111524171D01*
X122770838Y-111452742D01*
X122732742Y-111381314D01*
X112776019Y-110049571D02*
X112395066Y-110049571D01*
X112356971Y-110763857D01*
X112395066Y-110692428D01*
X112471257Y-110621000D01*
X112661733Y-110621000D01*
X112737923Y-110692428D01*
X112776019Y-110763857D01*
X112814114Y-110906714D01*
X112814114Y-111263857D01*
X112776019Y-111406714D01*
X112737923Y-111478142D01*
X112661733Y-111549571D01*
X112471257Y-111549571D01*
X112395066Y-111478142D01*
X112356971Y-111406714D01*
X113042685Y-110049571D02*
X113309352Y-111549571D01*
X113576019Y-110049571D01*
X118618000Y-65532000D02*
X119634000Y-65532000D01*
X112649000Y-65532000D02*
X113665000Y-65532000D01*
X113157000Y-64897000D02*
X113157000Y-66167000D01*
X183769000Y-85725000D02*
X183769000Y-81534000D01*
X185293000Y-85725000D02*
X183769000Y-85725000D01*
X185293000Y-89789000D02*
X185293000Y-85725000D01*
X189230000Y-89789000D02*
X185293000Y-89789000D01*
X189357000Y-81534000D02*
X189230000Y-89789000D01*
X183769000Y-81534000D02*
X189357000Y-81534000D01*
X179705000Y-78613000D02*
X183515000Y-78613000D01*
X179705000Y-85471000D02*
X179705000Y-78613000D01*
X183515000Y-85471000D02*
X179705000Y-85471000D01*
X183515000Y-78613000D02*
X183515000Y-85471000D01*
X171831000Y-78105000D02*
X171831000Y-78359000D01*
X168021000Y-78105000D02*
X171831000Y-78105000D01*
X168021000Y-87630000D02*
X168021000Y-78105000D01*
X171831000Y-87630000D02*
X168021000Y-87630000D01*
X171831000Y-78359000D02*
X171831000Y-87630000D01*
X168148000Y-63754000D02*
X164084000Y-63754000D01*
X168148000Y-76835000D02*
X168148000Y-63754000D01*
X164084000Y-76835000D02*
X168148000Y-76835000D01*
X164084000Y-63754000D02*
X164084000Y-76835000D01*
X152019000Y-63754000D02*
X155829000Y-63754000D01*
X152019000Y-76835000D02*
X152019000Y-63754000D01*
X155829000Y-76835000D02*
X152019000Y-76835000D01*
X155829000Y-63754000D02*
X155829000Y-76835000D01*
D11*
X116380000Y-65584000D02*
G75*
G03*
X116380000Y-65584000I-175000J0D01*
G01*
D12*
X114130000Y-65584000D02*
G75*
G03*
X114130000Y-65584000I-925000J0D01*
G01*
X120130000Y-65584000D02*
G75*
G03*
X120130000Y-65584000I-925000J0D01*
G01*
X118205000Y-65584000D02*
X117305000Y-65584000D01*
X116205000Y-65584000D02*
X114205000Y-65584000D01*
X115530000Y-66334000D02*
G75*
G03*
X115455000Y-64909000I675000J750000D01*
G01*
D13*
X164462000Y-89200000D02*
X164462000Y-88600000D01*
X166562000Y-89900000D02*
X165162000Y-89900000D01*
X167262000Y-88600000D02*
X167262000Y-89200000D01*
X165162000Y-87900000D02*
X166562000Y-87900000D01*
X164462000Y-88600000D02*
G75*
G02*
X165162000Y-87900000I700000J0D01*
G01*
X165162000Y-89900000D02*
G75*
G02*
X164462000Y-89200000I0J700000D01*
G01*
X167262000Y-89200000D02*
G75*
G02*
X166562000Y-89900000I-700000J0D01*
G01*
X166562000Y-87900000D02*
G75*
G02*
X167262000Y-88600000I0J-700000D01*
G01*
X182102000Y-86142000D02*
X180102000Y-86142000D01*
X180102000Y-86142000D02*
X180102000Y-90042000D01*
X182102000Y-86142000D02*
X182102000Y-90042000D01*
X182896000Y-90642000D02*
X184896000Y-90642000D01*
X184896000Y-90642000D02*
X184896000Y-86742000D01*
X182896000Y-90642000D02*
X182896000Y-86742000D01*
X164084000Y-90658000D02*
X160634000Y-90658000D01*
X164084000Y-90658000D02*
X166034000Y-90658000D01*
X164084000Y-95778000D02*
X162134000Y-95778000D01*
X164084000Y-95778000D02*
X166034000Y-95778000D01*
X125838000Y-97246000D02*
X125838000Y-103256000D01*
X119018000Y-99496000D02*
X119018000Y-103256000D01*
X125838000Y-103256000D02*
X124578000Y-103256000D01*
X119018000Y-103256000D02*
X120278000Y-103256000D01*
X116503500Y-97246000D02*
X116503500Y-103256000D01*
X109683500Y-99496000D02*
X109683500Y-103256000D01*
X116503500Y-103256000D02*
X115243500Y-103256000D01*
X109683500Y-103256000D02*
X110943500Y-103256000D01*
X154432000Y-81832000D02*
X150832000Y-81832000D01*
X154432000Y-81832000D02*
X156632000Y-81832000D01*
X154432000Y-88602000D02*
X152232000Y-88602000D01*
X154432000Y-88602000D02*
X156632000Y-88602000D01*
X143002000Y-77895000D02*
X139402000Y-77895000D01*
X143002000Y-77895000D02*
X145202000Y-77895000D01*
X143002000Y-84665000D02*
X140802000Y-84665000D01*
X143002000Y-84665000D02*
X145202000Y-84665000D01*
X164084000Y-87142000D02*
X167534000Y-87142000D01*
X164084000Y-87142000D02*
X162134000Y-87142000D01*
X164084000Y-82022000D02*
X166034000Y-82022000D01*
X164084000Y-82022000D02*
X162134000Y-82022000D01*
X175768000Y-87142000D02*
X179218000Y-87142000D01*
X175768000Y-87142000D02*
X173818000Y-87142000D01*
X175768000Y-82022000D02*
X177718000Y-82022000D01*
X175768000Y-82022000D02*
X173818000Y-82022000D01*
X172212000Y-70338000D02*
X168762000Y-70338000D01*
X172212000Y-70338000D02*
X174162000Y-70338000D01*
X172212000Y-75458000D02*
X170262000Y-75458000D01*
X172212000Y-75458000D02*
X174162000Y-75458000D01*
X160020000Y-70338000D02*
X156570000Y-70338000D01*
X160020000Y-70338000D02*
X161970000Y-70338000D01*
X160020000Y-75458000D02*
X158070000Y-75458000D01*
X160020000Y-75458000D02*
X161970000Y-75458000D01*
X132164000Y-83789500D02*
X132164000Y-84389500D01*
X135044000Y-83789500D02*
X132164000Y-83789500D01*
X129904000Y-78389500D02*
X129964000Y-78389500D01*
X129904000Y-83789500D02*
X129904000Y-78389500D01*
X129964000Y-83789500D02*
X129904000Y-83789500D01*
X129964000Y-84389500D02*
X129964000Y-83789500D01*
X132164000Y-78389500D02*
X135044000Y-78389500D01*
X137304000Y-83789500D02*
X137244000Y-83789500D01*
X137304000Y-78389500D02*
X137304000Y-83789500D01*
X137244000Y-78389500D02*
X137304000Y-78389500D01*
X143002000Y-69513000D02*
X139402000Y-69513000D01*
X143002000Y-69513000D02*
X145202000Y-69513000D01*
X143002000Y-76283000D02*
X140802000Y-76283000D01*
X143002000Y-76283000D02*
X145202000Y-76283000D01*
X116346500Y-108331724D02*
X116346500Y-107822276D01*
X115301500Y-108331724D02*
X115301500Y-107822276D01*
X125744500Y-108331724D02*
X125744500Y-107822276D01*
X124699500Y-108331724D02*
X124699500Y-107822276D01*
X145415724Y-85329500D02*
X144906276Y-85329500D01*
X145415724Y-86374500D02*
X144906276Y-86374500D01*
X186463000Y-83408936D02*
X186463000Y-83863064D01*
X187933000Y-83408936D02*
X187933000Y-83863064D01*
X184219000Y-83408936D02*
X184219000Y-83863064D01*
X185689000Y-83408936D02*
X185689000Y-83863064D01*
X170180724Y-84059500D02*
X169671276Y-84059500D01*
X170180724Y-85104500D02*
X169671276Y-85104500D01*
X181864724Y-82027500D02*
X181355276Y-82027500D01*
X181864724Y-83072500D02*
X181355276Y-83072500D01*
X177560500Y-89662724D02*
X177560500Y-89153276D01*
X176515500Y-89662724D02*
X176515500Y-89153276D01*
X170180724Y-82281500D02*
X169671276Y-82281500D01*
X170180724Y-83326500D02*
X169671276Y-83326500D01*
X181864724Y-83805500D02*
X181355276Y-83805500D01*
X181864724Y-84850500D02*
X181355276Y-84850500D01*
X178293500Y-89153276D02*
X178293500Y-89662724D01*
X179338500Y-89153276D02*
X179338500Y-89662724D01*
X148843276Y-70626500D02*
X149352724Y-70626500D01*
X148843276Y-69581500D02*
X149352724Y-69581500D01*
X148843276Y-72404500D02*
X149352724Y-72404500D01*
X148843276Y-71359500D02*
X149352724Y-71359500D01*
X165861276Y-74182500D02*
X166370724Y-74182500D01*
X165861276Y-73137500D02*
X166370724Y-73137500D01*
X166370724Y-69581500D02*
X165861276Y-69581500D01*
X166370724Y-70626500D02*
X165861276Y-70626500D01*
X154178724Y-73137500D02*
X153669276Y-73137500D01*
X154178724Y-74182500D02*
X153669276Y-74182500D01*
X154178724Y-69581500D02*
X153669276Y-69581500D01*
X154178724Y-70626500D02*
X153669276Y-70626500D01*
X136651276Y-70626500D02*
X137160724Y-70626500D01*
X136651276Y-69581500D02*
X137160724Y-69581500D01*
X128743000Y-105692000D02*
X129993000Y-105692000D01*
X128743000Y-104442000D02*
X128743000Y-105692000D01*
X129043000Y-99582000D02*
X129043000Y-105392000D01*
X148063000Y-99582000D02*
X129043000Y-99582000D01*
X148063000Y-105392000D02*
X148063000Y-99582000D01*
X129043000Y-105392000D02*
X148063000Y-105392000D01*
X141672000Y-65084000D02*
X141672000Y-63754000D01*
X143002000Y-65084000D02*
X141672000Y-65084000D01*
X144272000Y-65084000D02*
X144272000Y-62424000D01*
X144272000Y-62424000D02*
X151952000Y-62424000D01*
X144272000Y-65084000D02*
X151952000Y-65084000D01*
X151952000Y-65084000D02*
X151952000Y-62424000D01*
X127829000Y-65084000D02*
X127829000Y-63754000D01*
X129159000Y-65084000D02*
X127829000Y-65084000D01*
X130429000Y-65084000D02*
X130429000Y-62424000D01*
X130429000Y-62424000D02*
X138109000Y-62424000D01*
X130429000Y-65084000D02*
X138109000Y-65084000D01*
X138109000Y-65084000D02*
X138109000Y-62424000D01*
X115708000Y-69822000D02*
X115708000Y-72422000D01*
X101008000Y-69822000D02*
X115708000Y-69822000D01*
X115708000Y-79022000D02*
X113808000Y-79022000D01*
X115708000Y-76322000D02*
X115708000Y-79022000D01*
X101008000Y-79022000D02*
X101008000Y-69822000D01*
X109808000Y-79022000D02*
X101008000Y-79022000D01*
X114858000Y-69622000D02*
X115908000Y-69622000D01*
X115908000Y-70672000D02*
X115908000Y-69622000D01*
X183734000Y-75692000D02*
X183234000Y-75442000D01*
X183234000Y-75442000D02*
X183234000Y-75942000D01*
X183234000Y-75942000D02*
X183734000Y-75692000D01*
X113765000Y-109737000D02*
X113765000Y-107277000D01*
X112295000Y-109737000D02*
X113765000Y-109737000D01*
X112295000Y-107277000D02*
X112295000Y-109737000D01*
X123163000Y-109737000D02*
X123163000Y-107277000D01*
X121693000Y-109737000D02*
X123163000Y-109737000D01*
X121693000Y-107277000D02*
X121693000Y-109737000D01*
X146821000Y-86895000D02*
X144361000Y-86895000D01*
X146821000Y-88365000D02*
X146821000Y-86895000D01*
X144361000Y-88365000D02*
X146821000Y-88365000D01*
X137793000Y-81641733D02*
X137793000Y-81934267D01*
X138813000Y-81641733D02*
X138813000Y-81934267D01*
X131743233Y-77154500D02*
X132035767Y-77154500D01*
X131743233Y-76134500D02*
X132035767Y-76134500D01*
X147572000Y-81297733D02*
X147572000Y-81590267D01*
X148592000Y-81297733D02*
X148592000Y-81590267D01*
X117282500Y-106089233D02*
X117282500Y-106381767D01*
X118302500Y-106089233D02*
X118302500Y-106381767D01*
X118366000Y-97174267D02*
X118366000Y-96881733D01*
X117346000Y-97174267D02*
X117346000Y-96881733D01*
X161690267Y-68578000D02*
X161397733Y-68578000D01*
X161690267Y-69598000D02*
X161397733Y-69598000D01*
X174097733Y-88902000D02*
X174390267Y-88902000D01*
X174097733Y-87882000D02*
X174390267Y-87882000D01*
X177802000Y-71520267D02*
X177802000Y-71227733D01*
X176782000Y-71520267D02*
X176782000Y-71227733D01*
X142767267Y-102868000D02*
X142474733Y-102868000D01*
X142767267Y-103888000D02*
X142474733Y-103888000D01*
X158684500Y-93325733D02*
X158684500Y-93618267D01*
X159704500Y-93325733D02*
X159704500Y-93618267D01*
X124773563Y-94342000D02*
X125838000Y-93277563D01*
X120082437Y-94342000D02*
X119018000Y-93277563D01*
X120082437Y-94342000D02*
X121368000Y-94342000D01*
X124773563Y-94342000D02*
X123488000Y-94342000D01*
X125838000Y-93277563D02*
X125838000Y-87522000D01*
X119018000Y-93277563D02*
X119018000Y-87522000D01*
X119018000Y-87522000D02*
X121368000Y-87522000D01*
X125838000Y-87522000D02*
X123488000Y-87522000D01*
X109874000Y-93277563D02*
X110938437Y-94342000D01*
X109874000Y-88586437D02*
X110938437Y-87522000D01*
X109874000Y-88586437D02*
X109874000Y-89872000D01*
X109874000Y-93277563D02*
X109874000Y-91992000D01*
X110938437Y-94342000D02*
X116694000Y-94342000D01*
X110938437Y-87522000D02*
X116694000Y-87522000D01*
X116694000Y-87522000D02*
X116694000Y-89872000D01*
X116694000Y-94342000D02*
X116694000Y-91992000D01*
X158349733Y-77218000D02*
X158642267Y-77218000D01*
X158349733Y-76198000D02*
X158642267Y-76198000D01*
X177438267Y-80262000D02*
X177145733Y-80262000D01*
X177438267Y-81282000D02*
X177145733Y-81282000D01*
X170541733Y-77218000D02*
X170834267Y-77218000D01*
X170541733Y-76198000D02*
X170834267Y-76198000D01*
X138918733Y-103888000D02*
X139211267Y-103888000D01*
X138918733Y-102868000D02*
X139211267Y-102868000D01*
X169779733Y-86870000D02*
X170072267Y-86870000D01*
X169779733Y-85850000D02*
X170072267Y-85850000D01*
X165969733Y-75948000D02*
X166262267Y-75948000D01*
X165969733Y-74928000D02*
X166262267Y-74928000D01*
X154070267Y-74928000D02*
X153777733Y-74928000D01*
X154070267Y-75948000D02*
X153777733Y-75948000D01*
X165969733Y-72392000D02*
X166262267Y-72392000D01*
X165969733Y-71372000D02*
X166262267Y-71372000D01*
X154070267Y-71372000D02*
X153777733Y-71372000D01*
X154070267Y-72392000D02*
X153777733Y-72392000D01*
X136759733Y-72392000D02*
X137052267Y-72392000D01*
X136759733Y-71372000D02*
X137052267Y-71372000D01*
X137052267Y-73150000D02*
X136759733Y-73150000D01*
X137052267Y-74170000D02*
X136759733Y-74170000D01*
X137052267Y-74928000D02*
X136759733Y-74928000D01*
X137052267Y-75948000D02*
X136759733Y-75948000D01*
D12*
X168076666Y-88352380D02*
X168076666Y-89066666D01*
X168029047Y-89209523D01*
X167933809Y-89304761D01*
X167790952Y-89352380D01*
X167695714Y-89352380D01*
X168552857Y-89352380D02*
X168552857Y-88352380D01*
X168933809Y-88352380D01*
X169029047Y-88400000D01*
X169076666Y-88447619D01*
X169124285Y-88542857D01*
X169124285Y-88685714D01*
X169076666Y-88780952D01*
X169029047Y-88828571D01*
X168933809Y-88876190D01*
X168552857Y-88876190D01*
X170076666Y-89352380D02*
X169505238Y-89352380D01*
X169790952Y-89352380D02*
X169790952Y-88352380D01*
X169695714Y-88495238D01*
X169600476Y-88590476D01*
X169505238Y-88638095D01*
X181554380Y-92686095D02*
X180554380Y-92686095D01*
X180554380Y-92448000D01*
X180602000Y-92305142D01*
X180697238Y-92209904D01*
X180792476Y-92162285D01*
X180982952Y-92114666D01*
X181125809Y-92114666D01*
X181316285Y-92162285D01*
X181411523Y-92209904D01*
X181506761Y-92305142D01*
X181554380Y-92448000D01*
X181554380Y-92686095D01*
X180649619Y-91733714D02*
X180602000Y-91686095D01*
X180554380Y-91590857D01*
X180554380Y-91352761D01*
X180602000Y-91257523D01*
X180649619Y-91209904D01*
X180744857Y-91162285D01*
X180840095Y-91162285D01*
X180982952Y-91209904D01*
X181554380Y-91781333D01*
X181554380Y-91162285D01*
X184348380Y-92686095D02*
X183348380Y-92686095D01*
X183348380Y-92448000D01*
X183396000Y-92305142D01*
X183491238Y-92209904D01*
X183586476Y-92162285D01*
X183776952Y-92114666D01*
X183919809Y-92114666D01*
X184110285Y-92162285D01*
X184205523Y-92209904D01*
X184300761Y-92305142D01*
X184348380Y-92448000D01*
X184348380Y-92686095D01*
X184348380Y-91162285D02*
X184348380Y-91733714D01*
X184348380Y-91448000D02*
X183348380Y-91448000D01*
X183491238Y-91543238D01*
X183586476Y-91638476D01*
X183634095Y-91733714D01*
X160559904Y-89270380D02*
X160559904Y-90079904D01*
X160607523Y-90175142D01*
X160655142Y-90222761D01*
X160750380Y-90270380D01*
X160940857Y-90270380D01*
X161036095Y-90222761D01*
X161083714Y-90175142D01*
X161131333Y-90079904D01*
X161131333Y-89270380D01*
X162131333Y-90270380D02*
X161559904Y-90270380D01*
X161845619Y-90270380D02*
X161845619Y-89270380D01*
X161750380Y-89413238D01*
X161655142Y-89508476D01*
X161559904Y-89556095D01*
X163083714Y-90270380D02*
X162512285Y-90270380D01*
X162798000Y-90270380D02*
X162798000Y-89270380D01*
X162702761Y-89413238D01*
X162607523Y-89508476D01*
X162512285Y-89556095D01*
X126380380Y-102584095D02*
X127189904Y-102584095D01*
X127285142Y-102536476D01*
X127332761Y-102488857D01*
X127380380Y-102393619D01*
X127380380Y-102203142D01*
X127332761Y-102107904D01*
X127285142Y-102060285D01*
X127189904Y-102012666D01*
X126380380Y-102012666D01*
X127380380Y-101012666D02*
X127380380Y-101584095D01*
X127380380Y-101298380D02*
X126380380Y-101298380D01*
X126523238Y-101393619D01*
X126618476Y-101488857D01*
X126666095Y-101584095D01*
X126380380Y-100393619D02*
X126380380Y-100298380D01*
X126428000Y-100203142D01*
X126475619Y-100155523D01*
X126570857Y-100107904D01*
X126761333Y-100060285D01*
X126999428Y-100060285D01*
X127189904Y-100107904D01*
X127285142Y-100155523D01*
X127332761Y-100203142D01*
X127380380Y-100298380D01*
X127380380Y-100393619D01*
X127332761Y-100488857D01*
X127285142Y-100536476D01*
X127189904Y-100584095D01*
X126999428Y-100631714D01*
X126761333Y-100631714D01*
X126570857Y-100584095D01*
X126475619Y-100536476D01*
X126428000Y-100488857D01*
X126380380Y-100393619D01*
X108291380Y-102107904D02*
X109100904Y-102107904D01*
X109196142Y-102060285D01*
X109243761Y-102012666D01*
X109291380Y-101917428D01*
X109291380Y-101726952D01*
X109243761Y-101631714D01*
X109196142Y-101584095D01*
X109100904Y-101536476D01*
X108291380Y-101536476D01*
X109291380Y-101012666D02*
X109291380Y-100822190D01*
X109243761Y-100726952D01*
X109196142Y-100679333D01*
X109053285Y-100584095D01*
X108862809Y-100536476D01*
X108481857Y-100536476D01*
X108386619Y-100584095D01*
X108339000Y-100631714D01*
X108291380Y-100726952D01*
X108291380Y-100917428D01*
X108339000Y-101012666D01*
X108386619Y-101060285D01*
X108481857Y-101107904D01*
X108719952Y-101107904D01*
X108815190Y-101060285D01*
X108862809Y-101012666D01*
X108910428Y-100917428D01*
X108910428Y-100726952D01*
X108862809Y-100631714D01*
X108815190Y-100584095D01*
X108719952Y-100536476D01*
X153670095Y-80469380D02*
X153670095Y-81278904D01*
X153717714Y-81374142D01*
X153765333Y-81421761D01*
X153860571Y-81469380D01*
X154051047Y-81469380D01*
X154146285Y-81421761D01*
X154193904Y-81374142D01*
X154241523Y-81278904D01*
X154241523Y-80469380D01*
X154860571Y-80897952D02*
X154765333Y-80850333D01*
X154717714Y-80802714D01*
X154670095Y-80707476D01*
X154670095Y-80659857D01*
X154717714Y-80564619D01*
X154765333Y-80517000D01*
X154860571Y-80469380D01*
X155051047Y-80469380D01*
X155146285Y-80517000D01*
X155193904Y-80564619D01*
X155241523Y-80659857D01*
X155241523Y-80707476D01*
X155193904Y-80802714D01*
X155146285Y-80850333D01*
X155051047Y-80897952D01*
X154860571Y-80897952D01*
X154765333Y-80945571D01*
X154717714Y-80993190D01*
X154670095Y-81088428D01*
X154670095Y-81278904D01*
X154717714Y-81374142D01*
X154765333Y-81421761D01*
X154860571Y-81469380D01*
X155051047Y-81469380D01*
X155146285Y-81421761D01*
X155193904Y-81374142D01*
X155241523Y-81278904D01*
X155241523Y-81088428D01*
X155193904Y-80993190D01*
X155146285Y-80945571D01*
X155051047Y-80897952D01*
X142240095Y-76532380D02*
X142240095Y-77341904D01*
X142287714Y-77437142D01*
X142335333Y-77484761D01*
X142430571Y-77532380D01*
X142621047Y-77532380D01*
X142716285Y-77484761D01*
X142763904Y-77437142D01*
X142811523Y-77341904D01*
X142811523Y-76532380D01*
X143192476Y-76532380D02*
X143859142Y-76532380D01*
X143430571Y-77532380D01*
X160655095Y-80605380D02*
X160655095Y-81414904D01*
X160702714Y-81510142D01*
X160750333Y-81557761D01*
X160845571Y-81605380D01*
X161036047Y-81605380D01*
X161131285Y-81557761D01*
X161178904Y-81510142D01*
X161226523Y-81414904D01*
X161226523Y-80605380D01*
X162131285Y-80605380D02*
X161940809Y-80605380D01*
X161845571Y-80653000D01*
X161797952Y-80700619D01*
X161702714Y-80843476D01*
X161655095Y-81033952D01*
X161655095Y-81414904D01*
X161702714Y-81510142D01*
X161750333Y-81557761D01*
X161845571Y-81605380D01*
X162036047Y-81605380D01*
X162131285Y-81557761D01*
X162178904Y-81510142D01*
X162226523Y-81414904D01*
X162226523Y-81176809D01*
X162178904Y-81081571D01*
X162131285Y-81033952D01*
X162036047Y-80986333D01*
X161845571Y-80986333D01*
X161750333Y-81033952D01*
X161702714Y-81081571D01*
X161655095Y-81176809D01*
X172720095Y-80605380D02*
X172720095Y-81414904D01*
X172767714Y-81510142D01*
X172815333Y-81557761D01*
X172910571Y-81605380D01*
X173101047Y-81605380D01*
X173196285Y-81557761D01*
X173243904Y-81510142D01*
X173291523Y-81414904D01*
X173291523Y-80605380D01*
X174243904Y-80605380D02*
X173767714Y-80605380D01*
X173720095Y-81081571D01*
X173767714Y-81033952D01*
X173862952Y-80986333D01*
X174101047Y-80986333D01*
X174196285Y-81033952D01*
X174243904Y-81081571D01*
X174291523Y-81176809D01*
X174291523Y-81414904D01*
X174243904Y-81510142D01*
X174196285Y-81557761D01*
X174101047Y-81605380D01*
X173862952Y-81605380D01*
X173767714Y-81557761D01*
X173720095Y-81510142D01*
X171450095Y-68950380D02*
X171450095Y-69759904D01*
X171497714Y-69855142D01*
X171545333Y-69902761D01*
X171640571Y-69950380D01*
X171831047Y-69950380D01*
X171926285Y-69902761D01*
X171973904Y-69855142D01*
X172021523Y-69759904D01*
X172021523Y-68950380D01*
X172926285Y-69283714D02*
X172926285Y-69950380D01*
X172688190Y-68902761D02*
X172450095Y-69617047D01*
X173069142Y-69617047D01*
X156591095Y-68921380D02*
X156591095Y-69730904D01*
X156638714Y-69826142D01*
X156686333Y-69873761D01*
X156781571Y-69921380D01*
X156972047Y-69921380D01*
X157067285Y-69873761D01*
X157114904Y-69826142D01*
X157162523Y-69730904D01*
X157162523Y-68921380D01*
X157543476Y-68921380D02*
X158162523Y-68921380D01*
X157829190Y-69302333D01*
X157972047Y-69302333D01*
X158067285Y-69349952D01*
X158114904Y-69397571D01*
X158162523Y-69492809D01*
X158162523Y-69730904D01*
X158114904Y-69826142D01*
X158067285Y-69873761D01*
X157972047Y-69921380D01*
X157686333Y-69921380D01*
X157591095Y-69873761D01*
X157543476Y-69826142D01*
X132842095Y-84796380D02*
X132842095Y-85605904D01*
X132889714Y-85701142D01*
X132937333Y-85748761D01*
X133032571Y-85796380D01*
X133223047Y-85796380D01*
X133318285Y-85748761D01*
X133365904Y-85701142D01*
X133413523Y-85605904D01*
X133413523Y-84796380D01*
X133842095Y-84891619D02*
X133889714Y-84844000D01*
X133984952Y-84796380D01*
X134223047Y-84796380D01*
X134318285Y-84844000D01*
X134365904Y-84891619D01*
X134413523Y-84986857D01*
X134413523Y-85082095D01*
X134365904Y-85224952D01*
X133794476Y-85796380D01*
X134413523Y-85796380D01*
X142240095Y-68150380D02*
X142240095Y-68959904D01*
X142287714Y-69055142D01*
X142335333Y-69102761D01*
X142430571Y-69150380D01*
X142621047Y-69150380D01*
X142716285Y-69102761D01*
X142763904Y-69055142D01*
X142811523Y-68959904D01*
X142811523Y-68150380D01*
X143811523Y-69150380D02*
X143240095Y-69150380D01*
X143525809Y-69150380D02*
X143525809Y-68150380D01*
X143430571Y-68293238D01*
X143335333Y-68388476D01*
X143240095Y-68436095D01*
X114846380Y-108719857D02*
X114370190Y-109053190D01*
X114846380Y-109291285D02*
X113846380Y-109291285D01*
X113846380Y-108910333D01*
X113894000Y-108815095D01*
X113941619Y-108767476D01*
X114036857Y-108719857D01*
X114179714Y-108719857D01*
X114274952Y-108767476D01*
X114322571Y-108815095D01*
X114370190Y-108910333D01*
X114370190Y-109291285D01*
X114846380Y-107767476D02*
X114846380Y-108338904D01*
X114846380Y-108053190D02*
X113846380Y-108053190D01*
X113989238Y-108148428D01*
X114084476Y-108243666D01*
X114132095Y-108338904D01*
X114274952Y-107196047D02*
X114227333Y-107291285D01*
X114179714Y-107338904D01*
X114084476Y-107386523D01*
X114036857Y-107386523D01*
X113941619Y-107338904D01*
X113894000Y-107291285D01*
X113846380Y-107196047D01*
X113846380Y-107005571D01*
X113894000Y-106910333D01*
X113941619Y-106862714D01*
X114036857Y-106815095D01*
X114084476Y-106815095D01*
X114179714Y-106862714D01*
X114227333Y-106910333D01*
X114274952Y-107005571D01*
X114274952Y-107196047D01*
X114322571Y-107291285D01*
X114370190Y-107338904D01*
X114465428Y-107386523D01*
X114655904Y-107386523D01*
X114751142Y-107338904D01*
X114798761Y-107291285D01*
X114846380Y-107196047D01*
X114846380Y-107005571D01*
X114798761Y-106910333D01*
X114751142Y-106862714D01*
X114655904Y-106815095D01*
X114465428Y-106815095D01*
X114370190Y-106862714D01*
X114322571Y-106910333D01*
X114274952Y-107005571D01*
X124244380Y-108719857D02*
X123768190Y-109053190D01*
X124244380Y-109291285D02*
X123244380Y-109291285D01*
X123244380Y-108910333D01*
X123292000Y-108815095D01*
X123339619Y-108767476D01*
X123434857Y-108719857D01*
X123577714Y-108719857D01*
X123672952Y-108767476D01*
X123720571Y-108815095D01*
X123768190Y-108910333D01*
X123768190Y-109291285D01*
X124244380Y-107767476D02*
X124244380Y-108338904D01*
X124244380Y-108053190D02*
X123244380Y-108053190D01*
X123387238Y-108148428D01*
X123482476Y-108243666D01*
X123530095Y-108338904D01*
X123244380Y-107434142D02*
X123244380Y-106767476D01*
X124244380Y-107196047D01*
X147566142Y-86304380D02*
X147232809Y-85828190D01*
X146994714Y-86304380D02*
X146994714Y-85304380D01*
X147375666Y-85304380D01*
X147470904Y-85352000D01*
X147518523Y-85399619D01*
X147566142Y-85494857D01*
X147566142Y-85637714D01*
X147518523Y-85732952D01*
X147470904Y-85780571D01*
X147375666Y-85828190D01*
X146994714Y-85828190D01*
X148518523Y-86304380D02*
X147947095Y-86304380D01*
X148232809Y-86304380D02*
X148232809Y-85304380D01*
X148137571Y-85447238D01*
X148042333Y-85542476D01*
X147947095Y-85590095D01*
X149375666Y-85304380D02*
X149185190Y-85304380D01*
X149089952Y-85352000D01*
X149042333Y-85399619D01*
X148947095Y-85542476D01*
X148899476Y-85732952D01*
X148899476Y-86113904D01*
X148947095Y-86209142D01*
X148994714Y-86256761D01*
X149089952Y-86304380D01*
X149280428Y-86304380D01*
X149375666Y-86256761D01*
X149423285Y-86209142D01*
X149470904Y-86113904D01*
X149470904Y-85875809D01*
X149423285Y-85780571D01*
X149375666Y-85732952D01*
X149280428Y-85685333D01*
X149089952Y-85685333D01*
X148994714Y-85732952D01*
X148947095Y-85780571D01*
X148899476Y-85875809D01*
X188793380Y-88526857D02*
X188317190Y-88860190D01*
X188793380Y-89098285D02*
X187793380Y-89098285D01*
X187793380Y-88717333D01*
X187841000Y-88622095D01*
X187888619Y-88574476D01*
X187983857Y-88526857D01*
X188126714Y-88526857D01*
X188221952Y-88574476D01*
X188269571Y-88622095D01*
X188317190Y-88717333D01*
X188317190Y-89098285D01*
X188793380Y-87574476D02*
X188793380Y-88145904D01*
X188793380Y-87860190D02*
X187793380Y-87860190D01*
X187936238Y-87955428D01*
X188031476Y-88050666D01*
X188079095Y-88145904D01*
X187793380Y-86669714D02*
X187793380Y-87145904D01*
X188269571Y-87193523D01*
X188221952Y-87145904D01*
X188174333Y-87050666D01*
X188174333Y-86812571D01*
X188221952Y-86717333D01*
X188269571Y-86669714D01*
X188364809Y-86622095D01*
X188602904Y-86622095D01*
X188698142Y-86669714D01*
X188745761Y-86717333D01*
X188793380Y-86812571D01*
X188793380Y-87050666D01*
X188745761Y-87145904D01*
X188698142Y-87193523D01*
X187142380Y-88526857D02*
X186666190Y-88860190D01*
X187142380Y-89098285D02*
X186142380Y-89098285D01*
X186142380Y-88717333D01*
X186190000Y-88622095D01*
X186237619Y-88574476D01*
X186332857Y-88526857D01*
X186475714Y-88526857D01*
X186570952Y-88574476D01*
X186618571Y-88622095D01*
X186666190Y-88717333D01*
X186666190Y-89098285D01*
X187142380Y-87574476D02*
X187142380Y-88145904D01*
X187142380Y-87860190D02*
X186142380Y-87860190D01*
X186285238Y-87955428D01*
X186380476Y-88050666D01*
X186428095Y-88145904D01*
X186475714Y-86717333D02*
X187142380Y-86717333D01*
X186094761Y-86955428D02*
X186809047Y-87193523D01*
X186809047Y-86574476D01*
X169283142Y-80716380D02*
X168949809Y-80240190D01*
X168711714Y-80716380D02*
X168711714Y-79716380D01*
X169092666Y-79716380D01*
X169187904Y-79764000D01*
X169235523Y-79811619D01*
X169283142Y-79906857D01*
X169283142Y-80049714D01*
X169235523Y-80144952D01*
X169187904Y-80192571D01*
X169092666Y-80240190D01*
X168711714Y-80240190D01*
X170235523Y-80716380D02*
X169664095Y-80716380D01*
X169949809Y-80716380D02*
X169949809Y-79716380D01*
X169854571Y-79859238D01*
X169759333Y-79954476D01*
X169664095Y-80002095D01*
X170568857Y-79716380D02*
X171187904Y-79716380D01*
X170854571Y-80097333D01*
X170997428Y-80097333D01*
X171092666Y-80144952D01*
X171140285Y-80192571D01*
X171187904Y-80287809D01*
X171187904Y-80525904D01*
X171140285Y-80621142D01*
X171092666Y-80668761D01*
X170997428Y-80716380D01*
X170711714Y-80716380D01*
X170616476Y-80668761D01*
X170568857Y-80621142D01*
X180967142Y-79954380D02*
X180633809Y-79478190D01*
X180395714Y-79954380D02*
X180395714Y-78954380D01*
X180776666Y-78954380D01*
X180871904Y-79002000D01*
X180919523Y-79049619D01*
X180967142Y-79144857D01*
X180967142Y-79287714D01*
X180919523Y-79382952D01*
X180871904Y-79430571D01*
X180776666Y-79478190D01*
X180395714Y-79478190D01*
X181919523Y-79954380D02*
X181348095Y-79954380D01*
X181633809Y-79954380D02*
X181633809Y-78954380D01*
X181538571Y-79097238D01*
X181443333Y-79192476D01*
X181348095Y-79240095D01*
X182300476Y-79049619D02*
X182348095Y-79002000D01*
X182443333Y-78954380D01*
X182681428Y-78954380D01*
X182776666Y-79002000D01*
X182824285Y-79049619D01*
X182871904Y-79144857D01*
X182871904Y-79240095D01*
X182824285Y-79382952D01*
X182252857Y-79954380D01*
X182871904Y-79954380D01*
X177490380Y-93098857D02*
X177014190Y-93432190D01*
X177490380Y-93670285D02*
X176490380Y-93670285D01*
X176490380Y-93289333D01*
X176538000Y-93194095D01*
X176585619Y-93146476D01*
X176680857Y-93098857D01*
X176823714Y-93098857D01*
X176918952Y-93146476D01*
X176966571Y-93194095D01*
X177014190Y-93289333D01*
X177014190Y-93670285D01*
X177490380Y-92146476D02*
X177490380Y-92717904D01*
X177490380Y-92432190D02*
X176490380Y-92432190D01*
X176633238Y-92527428D01*
X176728476Y-92622666D01*
X176776095Y-92717904D01*
X177490380Y-91194095D02*
X177490380Y-91765523D01*
X177490380Y-91479809D02*
X176490380Y-91479809D01*
X176633238Y-91575047D01*
X176728476Y-91670285D01*
X176776095Y-91765523D01*
X169283142Y-79446380D02*
X168949809Y-78970190D01*
X168711714Y-79446380D02*
X168711714Y-78446380D01*
X169092666Y-78446380D01*
X169187904Y-78494000D01*
X169235523Y-78541619D01*
X169283142Y-78636857D01*
X169283142Y-78779714D01*
X169235523Y-78874952D01*
X169187904Y-78922571D01*
X169092666Y-78970190D01*
X168711714Y-78970190D01*
X170235523Y-79446380D02*
X169664095Y-79446380D01*
X169949809Y-79446380D02*
X169949809Y-78446380D01*
X169854571Y-78589238D01*
X169759333Y-78684476D01*
X169664095Y-78732095D01*
X170854571Y-78446380D02*
X170949809Y-78446380D01*
X171045047Y-78494000D01*
X171092666Y-78541619D01*
X171140285Y-78636857D01*
X171187904Y-78827333D01*
X171187904Y-79065428D01*
X171140285Y-79255904D01*
X171092666Y-79351142D01*
X171045047Y-79398761D01*
X170949809Y-79446380D01*
X170854571Y-79446380D01*
X170759333Y-79398761D01*
X170711714Y-79351142D01*
X170664095Y-79255904D01*
X170616476Y-79065428D01*
X170616476Y-78827333D01*
X170664095Y-78636857D01*
X170711714Y-78541619D01*
X170759333Y-78494000D01*
X170854571Y-78446380D01*
X181443333Y-81351380D02*
X181110000Y-80875190D01*
X180871904Y-81351380D02*
X180871904Y-80351380D01*
X181252857Y-80351380D01*
X181348095Y-80399000D01*
X181395714Y-80446619D01*
X181443333Y-80541857D01*
X181443333Y-80684714D01*
X181395714Y-80779952D01*
X181348095Y-80827571D01*
X181252857Y-80875190D01*
X180871904Y-80875190D01*
X181919523Y-81351380D02*
X182110000Y-81351380D01*
X182205238Y-81303761D01*
X182252857Y-81256142D01*
X182348095Y-81113285D01*
X182395714Y-80922809D01*
X182395714Y-80541857D01*
X182348095Y-80446619D01*
X182300476Y-80399000D01*
X182205238Y-80351380D01*
X182014761Y-80351380D01*
X181919523Y-80399000D01*
X181871904Y-80446619D01*
X181824285Y-80541857D01*
X181824285Y-80779952D01*
X181871904Y-80875190D01*
X181919523Y-80922809D01*
X182014761Y-80970428D01*
X182205238Y-80970428D01*
X182300476Y-80922809D01*
X182348095Y-80875190D01*
X182395714Y-80779952D01*
X179395380Y-92622666D02*
X178919190Y-92956000D01*
X179395380Y-93194095D02*
X178395380Y-93194095D01*
X178395380Y-92813142D01*
X178443000Y-92717904D01*
X178490619Y-92670285D01*
X178585857Y-92622666D01*
X178728714Y-92622666D01*
X178823952Y-92670285D01*
X178871571Y-92717904D01*
X178919190Y-92813142D01*
X178919190Y-93194095D01*
X178823952Y-92051238D02*
X178776333Y-92146476D01*
X178728714Y-92194095D01*
X178633476Y-92241714D01*
X178585857Y-92241714D01*
X178490619Y-92194095D01*
X178443000Y-92146476D01*
X178395380Y-92051238D01*
X178395380Y-91860761D01*
X178443000Y-91765523D01*
X178490619Y-91717904D01*
X178585857Y-91670285D01*
X178633476Y-91670285D01*
X178728714Y-91717904D01*
X178776333Y-91765523D01*
X178823952Y-91860761D01*
X178823952Y-92051238D01*
X178871571Y-92146476D01*
X178919190Y-92194095D01*
X179014428Y-92241714D01*
X179204904Y-92241714D01*
X179300142Y-92194095D01*
X179347761Y-92146476D01*
X179395380Y-92051238D01*
X179395380Y-91860761D01*
X179347761Y-91765523D01*
X179300142Y-91717904D01*
X179204904Y-91670285D01*
X179014428Y-91670285D01*
X178919190Y-91717904D01*
X178871571Y-91765523D01*
X178823952Y-91860761D01*
X148931333Y-69126380D02*
X148598000Y-68650190D01*
X148359904Y-69126380D02*
X148359904Y-68126380D01*
X148740857Y-68126380D01*
X148836095Y-68174000D01*
X148883714Y-68221619D01*
X148931333Y-68316857D01*
X148931333Y-68459714D01*
X148883714Y-68554952D01*
X148836095Y-68602571D01*
X148740857Y-68650190D01*
X148359904Y-68650190D01*
X149264666Y-68126380D02*
X149931333Y-68126380D01*
X149502761Y-69126380D01*
X148931333Y-73858380D02*
X148598000Y-73382190D01*
X148359904Y-73858380D02*
X148359904Y-72858380D01*
X148740857Y-72858380D01*
X148836095Y-72906000D01*
X148883714Y-72953619D01*
X148931333Y-73048857D01*
X148931333Y-73191714D01*
X148883714Y-73286952D01*
X148836095Y-73334571D01*
X148740857Y-73382190D01*
X148359904Y-73382190D01*
X149788476Y-72858380D02*
X149598000Y-72858380D01*
X149502761Y-72906000D01*
X149455142Y-72953619D01*
X149359904Y-73096476D01*
X149312285Y-73286952D01*
X149312285Y-73667904D01*
X149359904Y-73763142D01*
X149407523Y-73810761D01*
X149502761Y-73858380D01*
X149693238Y-73858380D01*
X149788476Y-73810761D01*
X149836095Y-73763142D01*
X149883714Y-73667904D01*
X149883714Y-73429809D01*
X149836095Y-73334571D01*
X149788476Y-73286952D01*
X149693238Y-73239333D01*
X149502761Y-73239333D01*
X149407523Y-73286952D01*
X149359904Y-73334571D01*
X149312285Y-73429809D01*
X165949333Y-66492380D02*
X165616000Y-66016190D01*
X165377904Y-66492380D02*
X165377904Y-65492380D01*
X165758857Y-65492380D01*
X165854095Y-65540000D01*
X165901714Y-65587619D01*
X165949333Y-65682857D01*
X165949333Y-65825714D01*
X165901714Y-65920952D01*
X165854095Y-65968571D01*
X165758857Y-66016190D01*
X165377904Y-66016190D01*
X166854095Y-65492380D02*
X166377904Y-65492380D01*
X166330285Y-65968571D01*
X166377904Y-65920952D01*
X166473142Y-65873333D01*
X166711238Y-65873333D01*
X166806476Y-65920952D01*
X166854095Y-65968571D01*
X166901714Y-66063809D01*
X166901714Y-66301904D01*
X166854095Y-66397142D01*
X166806476Y-66444761D01*
X166711238Y-66492380D01*
X166473142Y-66492380D01*
X166377904Y-66444761D01*
X166330285Y-66397142D01*
X165949333Y-67762380D02*
X165616000Y-67286190D01*
X165377904Y-67762380D02*
X165377904Y-66762380D01*
X165758857Y-66762380D01*
X165854095Y-66810000D01*
X165901714Y-66857619D01*
X165949333Y-66952857D01*
X165949333Y-67095714D01*
X165901714Y-67190952D01*
X165854095Y-67238571D01*
X165758857Y-67286190D01*
X165377904Y-67286190D01*
X166806476Y-67095714D02*
X166806476Y-67762380D01*
X166568380Y-66714761D02*
X166330285Y-67429047D01*
X166949333Y-67429047D01*
X153757333Y-67635380D02*
X153424000Y-67159190D01*
X153185904Y-67635380D02*
X153185904Y-66635380D01*
X153566857Y-66635380D01*
X153662095Y-66683000D01*
X153709714Y-66730619D01*
X153757333Y-66825857D01*
X153757333Y-66968714D01*
X153709714Y-67063952D01*
X153662095Y-67111571D01*
X153566857Y-67159190D01*
X153185904Y-67159190D01*
X154090666Y-66635380D02*
X154709714Y-66635380D01*
X154376380Y-67016333D01*
X154519238Y-67016333D01*
X154614476Y-67063952D01*
X154662095Y-67111571D01*
X154709714Y-67206809D01*
X154709714Y-67444904D01*
X154662095Y-67540142D01*
X154614476Y-67587761D01*
X154519238Y-67635380D01*
X154233523Y-67635380D01*
X154138285Y-67587761D01*
X154090666Y-67540142D01*
X153757333Y-65095380D02*
X153424000Y-64619190D01*
X153185904Y-65095380D02*
X153185904Y-64095380D01*
X153566857Y-64095380D01*
X153662095Y-64143000D01*
X153709714Y-64190619D01*
X153757333Y-64285857D01*
X153757333Y-64428714D01*
X153709714Y-64523952D01*
X153662095Y-64571571D01*
X153566857Y-64619190D01*
X153185904Y-64619190D01*
X154138285Y-64190619D02*
X154185904Y-64143000D01*
X154281142Y-64095380D01*
X154519238Y-64095380D01*
X154614476Y-64143000D01*
X154662095Y-64190619D01*
X154709714Y-64285857D01*
X154709714Y-64381095D01*
X154662095Y-64523952D01*
X154090666Y-65095380D01*
X154709714Y-65095380D01*
X133056333Y-70556380D02*
X132723000Y-70080190D01*
X132484904Y-70556380D02*
X132484904Y-69556380D01*
X132865857Y-69556380D01*
X132961095Y-69604000D01*
X133008714Y-69651619D01*
X133056333Y-69746857D01*
X133056333Y-69889714D01*
X133008714Y-69984952D01*
X132961095Y-70032571D01*
X132865857Y-70080190D01*
X132484904Y-70080190D01*
X134008714Y-70556380D02*
X133437285Y-70556380D01*
X133723000Y-70556380D02*
X133723000Y-69556380D01*
X133627761Y-69699238D01*
X133532523Y-69794476D01*
X133437285Y-69842095D01*
X129341714Y-107132380D02*
X129341714Y-106132380D01*
X129722666Y-106132380D01*
X129817904Y-106180000D01*
X129865523Y-106227619D01*
X129913142Y-106322857D01*
X129913142Y-106465714D01*
X129865523Y-106560952D01*
X129817904Y-106608571D01*
X129722666Y-106656190D01*
X129341714Y-106656190D01*
X130294095Y-107084761D02*
X130436952Y-107132380D01*
X130675047Y-107132380D01*
X130770285Y-107084761D01*
X130817904Y-107037142D01*
X130865523Y-106941904D01*
X130865523Y-106846666D01*
X130817904Y-106751428D01*
X130770285Y-106703809D01*
X130675047Y-106656190D01*
X130484571Y-106608571D01*
X130389333Y-106560952D01*
X130341714Y-106513333D01*
X130294095Y-106418095D01*
X130294095Y-106322857D01*
X130341714Y-106227619D01*
X130389333Y-106180000D01*
X130484571Y-106132380D01*
X130722666Y-106132380D01*
X130865523Y-106180000D01*
X131817904Y-107132380D02*
X131246476Y-107132380D01*
X131532190Y-107132380D02*
X131532190Y-106132380D01*
X131436952Y-106275238D01*
X131341714Y-106370476D01*
X131246476Y-106418095D01*
X140124380Y-64087333D02*
X140838666Y-64087333D01*
X140981523Y-64134952D01*
X141076761Y-64230190D01*
X141124380Y-64373047D01*
X141124380Y-64468285D01*
X140457714Y-63182571D02*
X141124380Y-63182571D01*
X140076761Y-63420666D02*
X140791047Y-63658761D01*
X140791047Y-63039714D01*
X126281380Y-64087333D02*
X126995666Y-64087333D01*
X127138523Y-64134952D01*
X127233761Y-64230190D01*
X127281380Y-64373047D01*
X127281380Y-64468285D01*
X126281380Y-63706380D02*
X126281380Y-63087333D01*
X126662333Y-63420666D01*
X126662333Y-63277809D01*
X126709952Y-63182571D01*
X126757571Y-63134952D01*
X126852809Y-63087333D01*
X127090904Y-63087333D01*
X127186142Y-63134952D01*
X127233761Y-63182571D01*
X127281380Y-63277809D01*
X127281380Y-63563523D01*
X127233761Y-63658761D01*
X127186142Y-63706380D01*
X106024666Y-79624380D02*
X106024666Y-80338666D01*
X105977047Y-80481523D01*
X105881809Y-80576761D01*
X105738952Y-80624380D01*
X105643714Y-80624380D01*
X106453238Y-79719619D02*
X106500857Y-79672000D01*
X106596095Y-79624380D01*
X106834190Y-79624380D01*
X106929428Y-79672000D01*
X106977047Y-79719619D01*
X107024666Y-79814857D01*
X107024666Y-79910095D01*
X106977047Y-80052952D01*
X106405619Y-80624380D01*
X107024666Y-80624380D01*
X186610666Y-68794380D02*
X186610666Y-69508666D01*
X186563047Y-69651523D01*
X186467809Y-69746761D01*
X186324952Y-69794380D01*
X186229714Y-69794380D01*
X187610666Y-69794380D02*
X187039238Y-69794380D01*
X187324952Y-69794380D02*
X187324952Y-68794380D01*
X187229714Y-68937238D01*
X187134476Y-69032476D01*
X187039238Y-69080095D01*
X112052380Y-108815095D02*
X111052380Y-108815095D01*
X111052380Y-108577000D01*
X111100000Y-108434142D01*
X111195238Y-108338904D01*
X111290476Y-108291285D01*
X111480952Y-108243666D01*
X111623809Y-108243666D01*
X111814285Y-108291285D01*
X111909523Y-108338904D01*
X112004761Y-108434142D01*
X112052380Y-108577000D01*
X112052380Y-108815095D01*
X111052380Y-107338904D02*
X111052380Y-107815095D01*
X111528571Y-107862714D01*
X111480952Y-107815095D01*
X111433333Y-107719857D01*
X111433333Y-107481761D01*
X111480952Y-107386523D01*
X111528571Y-107338904D01*
X111623809Y-107291285D01*
X111861904Y-107291285D01*
X111957142Y-107338904D01*
X112004761Y-107386523D01*
X112052380Y-107481761D01*
X112052380Y-107719857D01*
X112004761Y-107815095D01*
X111957142Y-107862714D01*
X121450380Y-108815095D02*
X120450380Y-108815095D01*
X120450380Y-108577000D01*
X120498000Y-108434142D01*
X120593238Y-108338904D01*
X120688476Y-108291285D01*
X120878952Y-108243666D01*
X121021809Y-108243666D01*
X121212285Y-108291285D01*
X121307523Y-108338904D01*
X121402761Y-108434142D01*
X121450380Y-108577000D01*
X121450380Y-108815095D01*
X120783714Y-107386523D02*
X121450380Y-107386523D01*
X120402761Y-107624619D02*
X121117047Y-107862714D01*
X121117047Y-107243666D01*
X147089904Y-88082380D02*
X147089904Y-87082380D01*
X147328000Y-87082380D01*
X147470857Y-87130000D01*
X147566095Y-87225238D01*
X147613714Y-87320476D01*
X147661333Y-87510952D01*
X147661333Y-87653809D01*
X147613714Y-87844285D01*
X147566095Y-87939523D01*
X147470857Y-88034761D01*
X147328000Y-88082380D01*
X147089904Y-88082380D01*
X147994666Y-87082380D02*
X148613714Y-87082380D01*
X148280380Y-87463333D01*
X148423238Y-87463333D01*
X148518476Y-87510952D01*
X148566095Y-87558571D01*
X148613714Y-87653809D01*
X148613714Y-87891904D01*
X148566095Y-87987142D01*
X148518476Y-88034761D01*
X148423238Y-88082380D01*
X148137523Y-88082380D01*
X148042285Y-88034761D01*
X147994666Y-87987142D01*
X138660142Y-86875857D02*
X138707761Y-86923476D01*
X138755380Y-87066333D01*
X138755380Y-87161571D01*
X138707761Y-87304428D01*
X138612523Y-87399666D01*
X138517285Y-87447285D01*
X138326809Y-87494904D01*
X138183952Y-87494904D01*
X137993476Y-87447285D01*
X137898238Y-87399666D01*
X137803000Y-87304428D01*
X137755380Y-87161571D01*
X137755380Y-87066333D01*
X137803000Y-86923476D01*
X137850619Y-86875857D01*
X137850619Y-86494904D02*
X137803000Y-86447285D01*
X137755380Y-86352047D01*
X137755380Y-86113952D01*
X137803000Y-86018714D01*
X137850619Y-85971095D01*
X137945857Y-85923476D01*
X138041095Y-85923476D01*
X138183952Y-85971095D01*
X138755380Y-86542523D01*
X138755380Y-85923476D01*
X137755380Y-85066333D02*
X137755380Y-85256809D01*
X137803000Y-85352047D01*
X137850619Y-85399666D01*
X137993476Y-85494904D01*
X138183952Y-85542523D01*
X138564904Y-85542523D01*
X138660142Y-85494904D01*
X138707761Y-85447285D01*
X138755380Y-85352047D01*
X138755380Y-85161571D01*
X138707761Y-85066333D01*
X138660142Y-85018714D01*
X138564904Y-84971095D01*
X138326809Y-84971095D01*
X138231571Y-85018714D01*
X138183952Y-85066333D01*
X138136333Y-85161571D01*
X138136333Y-85352047D01*
X138183952Y-85447285D01*
X138231571Y-85494904D01*
X138326809Y-85542523D01*
X128008142Y-77065142D02*
X127960523Y-77112761D01*
X127817666Y-77160380D01*
X127722428Y-77160380D01*
X127579571Y-77112761D01*
X127484333Y-77017523D01*
X127436714Y-76922285D01*
X127389095Y-76731809D01*
X127389095Y-76588952D01*
X127436714Y-76398476D01*
X127484333Y-76303238D01*
X127579571Y-76208000D01*
X127722428Y-76160380D01*
X127817666Y-76160380D01*
X127960523Y-76208000D01*
X128008142Y-76255619D01*
X128389095Y-76255619D02*
X128436714Y-76208000D01*
X128531952Y-76160380D01*
X128770047Y-76160380D01*
X128865285Y-76208000D01*
X128912904Y-76255619D01*
X128960523Y-76350857D01*
X128960523Y-76446095D01*
X128912904Y-76588952D01*
X128341476Y-77160380D01*
X128960523Y-77160380D01*
X129865285Y-76160380D02*
X129389095Y-76160380D01*
X129341476Y-76636571D01*
X129389095Y-76588952D01*
X129484333Y-76541333D01*
X129722428Y-76541333D01*
X129817666Y-76588952D01*
X129865285Y-76636571D01*
X129912904Y-76731809D01*
X129912904Y-76969904D01*
X129865285Y-77065142D01*
X129817666Y-77112761D01*
X129722428Y-77160380D01*
X129484333Y-77160380D01*
X129389095Y-77112761D01*
X129341476Y-77065142D01*
X149869142Y-82086857D02*
X149916761Y-82134476D01*
X149964380Y-82277333D01*
X149964380Y-82372571D01*
X149916761Y-82515428D01*
X149821523Y-82610666D01*
X149726285Y-82658285D01*
X149535809Y-82705904D01*
X149392952Y-82705904D01*
X149202476Y-82658285D01*
X149107238Y-82610666D01*
X149012000Y-82515428D01*
X148964380Y-82372571D01*
X148964380Y-82277333D01*
X149012000Y-82134476D01*
X149059619Y-82086857D01*
X149059619Y-81705904D02*
X149012000Y-81658285D01*
X148964380Y-81563047D01*
X148964380Y-81324952D01*
X149012000Y-81229714D01*
X149059619Y-81182095D01*
X149154857Y-81134476D01*
X149250095Y-81134476D01*
X149392952Y-81182095D01*
X149964380Y-81753523D01*
X149964380Y-81134476D01*
X149297714Y-80277333D02*
X149964380Y-80277333D01*
X148916761Y-80515428D02*
X149631047Y-80753523D01*
X149631047Y-80134476D01*
X119737142Y-108719857D02*
X119784761Y-108767476D01*
X119832380Y-108910333D01*
X119832380Y-109005571D01*
X119784761Y-109148428D01*
X119689523Y-109243666D01*
X119594285Y-109291285D01*
X119403809Y-109338904D01*
X119260952Y-109338904D01*
X119070476Y-109291285D01*
X118975238Y-109243666D01*
X118880000Y-109148428D01*
X118832380Y-109005571D01*
X118832380Y-108910333D01*
X118880000Y-108767476D01*
X118927619Y-108719857D01*
X118927619Y-108338904D02*
X118880000Y-108291285D01*
X118832380Y-108196047D01*
X118832380Y-107957952D01*
X118880000Y-107862714D01*
X118927619Y-107815095D01*
X119022857Y-107767476D01*
X119118095Y-107767476D01*
X119260952Y-107815095D01*
X119832380Y-108386523D01*
X119832380Y-107767476D01*
X118832380Y-107434142D02*
X118832380Y-106815095D01*
X119213333Y-107148428D01*
X119213333Y-107005571D01*
X119260952Y-106910333D01*
X119308571Y-106862714D01*
X119403809Y-106815095D01*
X119641904Y-106815095D01*
X119737142Y-106862714D01*
X119784761Y-106910333D01*
X119832380Y-107005571D01*
X119832380Y-107291285D01*
X119784761Y-107386523D01*
X119737142Y-107434142D01*
X119372142Y-96496142D02*
X119324523Y-96543761D01*
X119181666Y-96591380D01*
X119086428Y-96591380D01*
X118943571Y-96543761D01*
X118848333Y-96448523D01*
X118800714Y-96353285D01*
X118753095Y-96162809D01*
X118753095Y-96019952D01*
X118800714Y-95829476D01*
X118848333Y-95734238D01*
X118943571Y-95639000D01*
X119086428Y-95591380D01*
X119181666Y-95591380D01*
X119324523Y-95639000D01*
X119372142Y-95686619D01*
X119753095Y-95686619D02*
X119800714Y-95639000D01*
X119895952Y-95591380D01*
X120134047Y-95591380D01*
X120229285Y-95639000D01*
X120276904Y-95686619D01*
X120324523Y-95781857D01*
X120324523Y-95877095D01*
X120276904Y-96019952D01*
X119705476Y-96591380D01*
X120324523Y-96591380D01*
X120705476Y-95686619D02*
X120753095Y-95639000D01*
X120848333Y-95591380D01*
X121086428Y-95591380D01*
X121181666Y-95639000D01*
X121229285Y-95686619D01*
X121276904Y-95781857D01*
X121276904Y-95877095D01*
X121229285Y-96019952D01*
X120657857Y-96591380D01*
X121276904Y-96591380D01*
X159885142Y-68048142D02*
X159837523Y-68095761D01*
X159694666Y-68143380D01*
X159599428Y-68143380D01*
X159456571Y-68095761D01*
X159361333Y-68000523D01*
X159313714Y-67905285D01*
X159266095Y-67714809D01*
X159266095Y-67571952D01*
X159313714Y-67381476D01*
X159361333Y-67286238D01*
X159456571Y-67191000D01*
X159599428Y-67143380D01*
X159694666Y-67143380D01*
X159837523Y-67191000D01*
X159885142Y-67238619D01*
X160266095Y-67238619D02*
X160313714Y-67191000D01*
X160408952Y-67143380D01*
X160647047Y-67143380D01*
X160742285Y-67191000D01*
X160789904Y-67238619D01*
X160837523Y-67333857D01*
X160837523Y-67429095D01*
X160789904Y-67571952D01*
X160218476Y-68143380D01*
X160837523Y-68143380D01*
X161789904Y-68143380D02*
X161218476Y-68143380D01*
X161504190Y-68143380D02*
X161504190Y-67143380D01*
X161408952Y-67286238D01*
X161313714Y-67381476D01*
X161218476Y-67429095D01*
X173855142Y-91162142D02*
X173807523Y-91209761D01*
X173664666Y-91257380D01*
X173569428Y-91257380D01*
X173426571Y-91209761D01*
X173331333Y-91114523D01*
X173283714Y-91019285D01*
X173236095Y-90828809D01*
X173236095Y-90685952D01*
X173283714Y-90495476D01*
X173331333Y-90400238D01*
X173426571Y-90305000D01*
X173569428Y-90257380D01*
X173664666Y-90257380D01*
X173807523Y-90305000D01*
X173855142Y-90352619D01*
X174236095Y-90352619D02*
X174283714Y-90305000D01*
X174378952Y-90257380D01*
X174617047Y-90257380D01*
X174712285Y-90305000D01*
X174759904Y-90352619D01*
X174807523Y-90447857D01*
X174807523Y-90543095D01*
X174759904Y-90685952D01*
X174188476Y-91257380D01*
X174807523Y-91257380D01*
X175426571Y-90257380D02*
X175521809Y-90257380D01*
X175617047Y-90305000D01*
X175664666Y-90352619D01*
X175712285Y-90447857D01*
X175759904Y-90638333D01*
X175759904Y-90876428D01*
X175712285Y-91066904D01*
X175664666Y-91162142D01*
X175617047Y-91209761D01*
X175521809Y-91257380D01*
X175426571Y-91257380D01*
X175331333Y-91209761D01*
X175283714Y-91162142D01*
X175236095Y-91066904D01*
X175188476Y-90876428D01*
X175188476Y-90638333D01*
X175236095Y-90447857D01*
X175283714Y-90352619D01*
X175331333Y-90305000D01*
X175426571Y-90257380D01*
X177649142Y-68714857D02*
X177696761Y-68762476D01*
X177744380Y-68905333D01*
X177744380Y-69000571D01*
X177696761Y-69143428D01*
X177601523Y-69238666D01*
X177506285Y-69286285D01*
X177315809Y-69333904D01*
X177172952Y-69333904D01*
X176982476Y-69286285D01*
X176887238Y-69238666D01*
X176792000Y-69143428D01*
X176744380Y-69000571D01*
X176744380Y-68905333D01*
X176792000Y-68762476D01*
X176839619Y-68714857D01*
X177744380Y-67762476D02*
X177744380Y-68333904D01*
X177744380Y-68048190D02*
X176744380Y-68048190D01*
X176887238Y-68143428D01*
X176982476Y-68238666D01*
X177030095Y-68333904D01*
X177744380Y-67286285D02*
X177744380Y-67095809D01*
X177696761Y-67000571D01*
X177649142Y-66952952D01*
X177506285Y-66857714D01*
X177315809Y-66810095D01*
X176934857Y-66810095D01*
X176839619Y-66857714D01*
X176792000Y-66905333D01*
X176744380Y-67000571D01*
X176744380Y-67191047D01*
X176792000Y-67286285D01*
X176839619Y-67333904D01*
X176934857Y-67381523D01*
X177172952Y-67381523D01*
X177268190Y-67333904D01*
X177315809Y-67286285D01*
X177363428Y-67191047D01*
X177363428Y-67000571D01*
X177315809Y-66905333D01*
X177268190Y-66857714D01*
X177172952Y-66810095D01*
X141978142Y-105005142D02*
X141930523Y-105052761D01*
X141787666Y-105100380D01*
X141692428Y-105100380D01*
X141549571Y-105052761D01*
X141454333Y-104957523D01*
X141406714Y-104862285D01*
X141359095Y-104671809D01*
X141359095Y-104528952D01*
X141406714Y-104338476D01*
X141454333Y-104243238D01*
X141549571Y-104148000D01*
X141692428Y-104100380D01*
X141787666Y-104100380D01*
X141930523Y-104148000D01*
X141978142Y-104195619D01*
X142930523Y-105100380D02*
X142359095Y-105100380D01*
X142644809Y-105100380D02*
X142644809Y-104100380D01*
X142549571Y-104243238D01*
X142454333Y-104338476D01*
X142359095Y-104386095D01*
X143501952Y-104528952D02*
X143406714Y-104481333D01*
X143359095Y-104433714D01*
X143311476Y-104338476D01*
X143311476Y-104290857D01*
X143359095Y-104195619D01*
X143406714Y-104148000D01*
X143501952Y-104100380D01*
X143692428Y-104100380D01*
X143787666Y-104148000D01*
X143835285Y-104195619D01*
X143882904Y-104290857D01*
X143882904Y-104338476D01*
X143835285Y-104433714D01*
X143787666Y-104481333D01*
X143692428Y-104528952D01*
X143501952Y-104528952D01*
X143406714Y-104576571D01*
X143359095Y-104624190D01*
X143311476Y-104719428D01*
X143311476Y-104909904D01*
X143359095Y-105005142D01*
X143406714Y-105052761D01*
X143501952Y-105100380D01*
X143692428Y-105100380D01*
X143787666Y-105052761D01*
X143835285Y-105005142D01*
X143882904Y-104909904D01*
X143882904Y-104719428D01*
X143835285Y-104624190D01*
X143787666Y-104576571D01*
X143692428Y-104528952D01*
X156948142Y-94114857D02*
X156995761Y-94162476D01*
X157043380Y-94305333D01*
X157043380Y-94400571D01*
X156995761Y-94543428D01*
X156900523Y-94638666D01*
X156805285Y-94686285D01*
X156614809Y-94733904D01*
X156471952Y-94733904D01*
X156281476Y-94686285D01*
X156186238Y-94638666D01*
X156091000Y-94543428D01*
X156043380Y-94400571D01*
X156043380Y-94305333D01*
X156091000Y-94162476D01*
X156138619Y-94114857D01*
X157043380Y-93162476D02*
X157043380Y-93733904D01*
X157043380Y-93448190D02*
X156043380Y-93448190D01*
X156186238Y-93543428D01*
X156281476Y-93638666D01*
X156329095Y-93733904D01*
X156043380Y-92829142D02*
X156043380Y-92162476D01*
X157043380Y-92591047D01*
X123817142Y-86971142D02*
X123769523Y-87018761D01*
X123626666Y-87066380D01*
X123531428Y-87066380D01*
X123388571Y-87018761D01*
X123293333Y-86923523D01*
X123245714Y-86828285D01*
X123198095Y-86637809D01*
X123198095Y-86494952D01*
X123245714Y-86304476D01*
X123293333Y-86209238D01*
X123388571Y-86114000D01*
X123531428Y-86066380D01*
X123626666Y-86066380D01*
X123769523Y-86114000D01*
X123817142Y-86161619D01*
X124769523Y-87066380D02*
X124198095Y-87066380D01*
X124483809Y-87066380D02*
X124483809Y-86066380D01*
X124388571Y-86209238D01*
X124293333Y-86304476D01*
X124198095Y-86352095D01*
X125626666Y-86066380D02*
X125436190Y-86066380D01*
X125340952Y-86114000D01*
X125293333Y-86161619D01*
X125198095Y-86304476D01*
X125150476Y-86494952D01*
X125150476Y-86875904D01*
X125198095Y-86971142D01*
X125245714Y-87018761D01*
X125340952Y-87066380D01*
X125531428Y-87066380D01*
X125626666Y-87018761D01*
X125674285Y-86971142D01*
X125721904Y-86875904D01*
X125721904Y-86637809D01*
X125674285Y-86542571D01*
X125626666Y-86494952D01*
X125531428Y-86447333D01*
X125340952Y-86447333D01*
X125245714Y-86494952D01*
X125198095Y-86542571D01*
X125150476Y-86637809D01*
X114546142Y-86971142D02*
X114498523Y-87018761D01*
X114355666Y-87066380D01*
X114260428Y-87066380D01*
X114117571Y-87018761D01*
X114022333Y-86923523D01*
X113974714Y-86828285D01*
X113927095Y-86637809D01*
X113927095Y-86494952D01*
X113974714Y-86304476D01*
X114022333Y-86209238D01*
X114117571Y-86114000D01*
X114260428Y-86066380D01*
X114355666Y-86066380D01*
X114498523Y-86114000D01*
X114546142Y-86161619D01*
X115498523Y-87066380D02*
X114927095Y-87066380D01*
X115212809Y-87066380D02*
X115212809Y-86066380D01*
X115117571Y-86209238D01*
X115022333Y-86304476D01*
X114927095Y-86352095D01*
X116403285Y-86066380D02*
X115927095Y-86066380D01*
X115879476Y-86542571D01*
X115927095Y-86494952D01*
X116022333Y-86447333D01*
X116260428Y-86447333D01*
X116355666Y-86494952D01*
X116403285Y-86542571D01*
X116450904Y-86637809D01*
X116450904Y-86875904D01*
X116403285Y-86971142D01*
X116355666Y-87018761D01*
X116260428Y-87066380D01*
X116022333Y-87066380D01*
X115927095Y-87018761D01*
X115879476Y-86971142D01*
X157853142Y-79351142D02*
X157805523Y-79398761D01*
X157662666Y-79446380D01*
X157567428Y-79446380D01*
X157424571Y-79398761D01*
X157329333Y-79303523D01*
X157281714Y-79208285D01*
X157234095Y-79017809D01*
X157234095Y-78874952D01*
X157281714Y-78684476D01*
X157329333Y-78589238D01*
X157424571Y-78494000D01*
X157567428Y-78446380D01*
X157662666Y-78446380D01*
X157805523Y-78494000D01*
X157853142Y-78541619D01*
X158805523Y-79446380D02*
X158234095Y-79446380D01*
X158519809Y-79446380D02*
X158519809Y-78446380D01*
X158424571Y-78589238D01*
X158329333Y-78684476D01*
X158234095Y-78732095D01*
X159662666Y-78779714D02*
X159662666Y-79446380D01*
X159424571Y-78398761D02*
X159186476Y-79113047D01*
X159805523Y-79113047D01*
X176649142Y-78716142D02*
X176601523Y-78763761D01*
X176458666Y-78811380D01*
X176363428Y-78811380D01*
X176220571Y-78763761D01*
X176125333Y-78668523D01*
X176077714Y-78573285D01*
X176030095Y-78382809D01*
X176030095Y-78239952D01*
X176077714Y-78049476D01*
X176125333Y-77954238D01*
X176220571Y-77859000D01*
X176363428Y-77811380D01*
X176458666Y-77811380D01*
X176601523Y-77859000D01*
X176649142Y-77906619D01*
X177601523Y-78811380D02*
X177030095Y-78811380D01*
X177315809Y-78811380D02*
X177315809Y-77811380D01*
X177220571Y-77954238D01*
X177125333Y-78049476D01*
X177030095Y-78097095D01*
X177934857Y-77811380D02*
X178553904Y-77811380D01*
X178220571Y-78192333D01*
X178363428Y-78192333D01*
X178458666Y-78239952D01*
X178506285Y-78287571D01*
X178553904Y-78382809D01*
X178553904Y-78620904D01*
X178506285Y-78716142D01*
X178458666Y-78763761D01*
X178363428Y-78811380D01*
X178077714Y-78811380D01*
X177982476Y-78763761D01*
X177934857Y-78716142D01*
X173347142Y-77065142D02*
X173299523Y-77112761D01*
X173156666Y-77160380D01*
X173061428Y-77160380D01*
X172918571Y-77112761D01*
X172823333Y-77017523D01*
X172775714Y-76922285D01*
X172728095Y-76731809D01*
X172728095Y-76588952D01*
X172775714Y-76398476D01*
X172823333Y-76303238D01*
X172918571Y-76208000D01*
X173061428Y-76160380D01*
X173156666Y-76160380D01*
X173299523Y-76208000D01*
X173347142Y-76255619D01*
X174299523Y-77160380D02*
X173728095Y-77160380D01*
X174013809Y-77160380D02*
X174013809Y-76160380D01*
X173918571Y-76303238D01*
X173823333Y-76398476D01*
X173728095Y-76446095D01*
X174680476Y-76255619D02*
X174728095Y-76208000D01*
X174823333Y-76160380D01*
X175061428Y-76160380D01*
X175156666Y-76208000D01*
X175204285Y-76255619D01*
X175251904Y-76350857D01*
X175251904Y-76446095D01*
X175204285Y-76588952D01*
X174632857Y-77160380D01*
X175251904Y-77160380D01*
X138422142Y-105005142D02*
X138374523Y-105052761D01*
X138231666Y-105100380D01*
X138136428Y-105100380D01*
X137993571Y-105052761D01*
X137898333Y-104957523D01*
X137850714Y-104862285D01*
X137803095Y-104671809D01*
X137803095Y-104528952D01*
X137850714Y-104338476D01*
X137898333Y-104243238D01*
X137993571Y-104148000D01*
X138136428Y-104100380D01*
X138231666Y-104100380D01*
X138374523Y-104148000D01*
X138422142Y-104195619D01*
X139374523Y-105100380D02*
X138803095Y-105100380D01*
X139088809Y-105100380D02*
X139088809Y-104100380D01*
X138993571Y-104243238D01*
X138898333Y-104338476D01*
X138803095Y-104386095D01*
X140326904Y-105100380D02*
X139755476Y-105100380D01*
X140041190Y-105100380D02*
X140041190Y-104100380D01*
X139945952Y-104243238D01*
X139850714Y-104338476D01*
X139755476Y-104386095D01*
X169283142Y-81891142D02*
X169235523Y-81938761D01*
X169092666Y-81986380D01*
X168997428Y-81986380D01*
X168854571Y-81938761D01*
X168759333Y-81843523D01*
X168711714Y-81748285D01*
X168664095Y-81557809D01*
X168664095Y-81414952D01*
X168711714Y-81224476D01*
X168759333Y-81129238D01*
X168854571Y-81034000D01*
X168997428Y-80986380D01*
X169092666Y-80986380D01*
X169235523Y-81034000D01*
X169283142Y-81081619D01*
X170235523Y-81986380D02*
X169664095Y-81986380D01*
X169949809Y-81986380D02*
X169949809Y-80986380D01*
X169854571Y-81129238D01*
X169759333Y-81224476D01*
X169664095Y-81272095D01*
X170854571Y-80986380D02*
X170949809Y-80986380D01*
X171045047Y-81034000D01*
X171092666Y-81081619D01*
X171140285Y-81176857D01*
X171187904Y-81367333D01*
X171187904Y-81605428D01*
X171140285Y-81795904D01*
X171092666Y-81891142D01*
X171045047Y-81938761D01*
X170949809Y-81986380D01*
X170854571Y-81986380D01*
X170759333Y-81938761D01*
X170711714Y-81891142D01*
X170664095Y-81795904D01*
X170616476Y-81605428D01*
X170616476Y-81367333D01*
X170664095Y-81176857D01*
X170711714Y-81081619D01*
X170759333Y-81034000D01*
X170854571Y-80986380D01*
X165949333Y-68937142D02*
X165901714Y-68984761D01*
X165758857Y-69032380D01*
X165663619Y-69032380D01*
X165520761Y-68984761D01*
X165425523Y-68889523D01*
X165377904Y-68794285D01*
X165330285Y-68603809D01*
X165330285Y-68460952D01*
X165377904Y-68270476D01*
X165425523Y-68175238D01*
X165520761Y-68080000D01*
X165663619Y-68032380D01*
X165758857Y-68032380D01*
X165901714Y-68080000D01*
X165949333Y-68127619D01*
X166282666Y-68032380D02*
X166949333Y-68032380D01*
X166520761Y-69032380D01*
X153757333Y-68810142D02*
X153709714Y-68857761D01*
X153566857Y-68905380D01*
X153471619Y-68905380D01*
X153328761Y-68857761D01*
X153233523Y-68762523D01*
X153185904Y-68667285D01*
X153138285Y-68476809D01*
X153138285Y-68333952D01*
X153185904Y-68143476D01*
X153233523Y-68048238D01*
X153328761Y-67953000D01*
X153471619Y-67905380D01*
X153566857Y-67905380D01*
X153709714Y-67953000D01*
X153757333Y-68000619D01*
X154614476Y-67905380D02*
X154424000Y-67905380D01*
X154328761Y-67953000D01*
X154281142Y-68000619D01*
X154185904Y-68143476D01*
X154138285Y-68333952D01*
X154138285Y-68714904D01*
X154185904Y-68810142D01*
X154233523Y-68857761D01*
X154328761Y-68905380D01*
X154519238Y-68905380D01*
X154614476Y-68857761D01*
X154662095Y-68810142D01*
X154709714Y-68714904D01*
X154709714Y-68476809D01*
X154662095Y-68381571D01*
X154614476Y-68333952D01*
X154519238Y-68286333D01*
X154328761Y-68286333D01*
X154233523Y-68333952D01*
X154185904Y-68381571D01*
X154138285Y-68476809D01*
X165949333Y-65127142D02*
X165901714Y-65174761D01*
X165758857Y-65222380D01*
X165663619Y-65222380D01*
X165520761Y-65174761D01*
X165425523Y-65079523D01*
X165377904Y-64984285D01*
X165330285Y-64793809D01*
X165330285Y-64650952D01*
X165377904Y-64460476D01*
X165425523Y-64365238D01*
X165520761Y-64270000D01*
X165663619Y-64222380D01*
X165758857Y-64222380D01*
X165901714Y-64270000D01*
X165949333Y-64317619D01*
X166854095Y-64222380D02*
X166377904Y-64222380D01*
X166330285Y-64698571D01*
X166377904Y-64650952D01*
X166473142Y-64603333D01*
X166711238Y-64603333D01*
X166806476Y-64650952D01*
X166854095Y-64698571D01*
X166901714Y-64793809D01*
X166901714Y-65031904D01*
X166854095Y-65127142D01*
X166806476Y-65174761D01*
X166711238Y-65222380D01*
X166473142Y-65222380D01*
X166377904Y-65174761D01*
X166330285Y-65127142D01*
X153757333Y-66270142D02*
X153709714Y-66317761D01*
X153566857Y-66365380D01*
X153471619Y-66365380D01*
X153328761Y-66317761D01*
X153233523Y-66222523D01*
X153185904Y-66127285D01*
X153138285Y-65936809D01*
X153138285Y-65793952D01*
X153185904Y-65603476D01*
X153233523Y-65508238D01*
X153328761Y-65413000D01*
X153471619Y-65365380D01*
X153566857Y-65365380D01*
X153709714Y-65413000D01*
X153757333Y-65460619D01*
X154614476Y-65698714D02*
X154614476Y-66365380D01*
X154376380Y-65317761D02*
X154138285Y-66032047D01*
X154757333Y-66032047D01*
X133056333Y-72239142D02*
X133008714Y-72286761D01*
X132865857Y-72334380D01*
X132770619Y-72334380D01*
X132627761Y-72286761D01*
X132532523Y-72191523D01*
X132484904Y-72096285D01*
X132437285Y-71905809D01*
X132437285Y-71762952D01*
X132484904Y-71572476D01*
X132532523Y-71477238D01*
X132627761Y-71382000D01*
X132770619Y-71334380D01*
X132865857Y-71334380D01*
X133008714Y-71382000D01*
X133056333Y-71429619D01*
X133389666Y-71334380D02*
X134008714Y-71334380D01*
X133675380Y-71715333D01*
X133818238Y-71715333D01*
X133913476Y-71762952D01*
X133961095Y-71810571D01*
X134008714Y-71905809D01*
X134008714Y-72143904D01*
X133961095Y-72239142D01*
X133913476Y-72286761D01*
X133818238Y-72334380D01*
X133532523Y-72334380D01*
X133437285Y-72286761D01*
X133389666Y-72239142D01*
X133056333Y-74017142D02*
X133008714Y-74064761D01*
X132865857Y-74112380D01*
X132770619Y-74112380D01*
X132627761Y-74064761D01*
X132532523Y-73969523D01*
X132484904Y-73874285D01*
X132437285Y-73683809D01*
X132437285Y-73540952D01*
X132484904Y-73350476D01*
X132532523Y-73255238D01*
X132627761Y-73160000D01*
X132770619Y-73112380D01*
X132865857Y-73112380D01*
X133008714Y-73160000D01*
X133056333Y-73207619D01*
X133437285Y-73207619D02*
X133484904Y-73160000D01*
X133580142Y-73112380D01*
X133818238Y-73112380D01*
X133913476Y-73160000D01*
X133961095Y-73207619D01*
X134008714Y-73302857D01*
X134008714Y-73398095D01*
X133961095Y-73540952D01*
X133389666Y-74112380D01*
X134008714Y-74112380D01*
X136739333Y-77225142D02*
X136691714Y-77272761D01*
X136548857Y-77320380D01*
X136453619Y-77320380D01*
X136310761Y-77272761D01*
X136215523Y-77177523D01*
X136167904Y-77082285D01*
X136120285Y-76891809D01*
X136120285Y-76748952D01*
X136167904Y-76558476D01*
X136215523Y-76463238D01*
X136310761Y-76368000D01*
X136453619Y-76320380D01*
X136548857Y-76320380D01*
X136691714Y-76368000D01*
X136739333Y-76415619D01*
X137691714Y-77320380D02*
X137120285Y-77320380D01*
X137406000Y-77320380D02*
X137406000Y-76320380D01*
X137310761Y-76463238D01*
X137215523Y-76558476D01*
X137120285Y-76606095D01*
%LPC*%
D14*
G36*
X166512000Y-88150602D02*
G01*
X166536534Y-88150602D01*
X166585365Y-88155412D01*
X166633490Y-88164984D01*
X166680445Y-88179228D01*
X166725778Y-88198005D01*
X166769051Y-88221136D01*
X166809850Y-88248396D01*
X166847779Y-88279524D01*
X166882476Y-88314221D01*
X166913604Y-88352150D01*
X166940864Y-88392949D01*
X166963995Y-88436222D01*
X166982772Y-88481555D01*
X166997016Y-88528510D01*
X167006588Y-88576635D01*
X167011398Y-88625466D01*
X167011398Y-88650000D01*
X167012000Y-88650000D01*
X167012000Y-89150000D01*
X167011398Y-89150000D01*
X167011398Y-89174534D01*
X167006588Y-89223365D01*
X166997016Y-89271490D01*
X166982772Y-89318445D01*
X166963995Y-89363778D01*
X166940864Y-89407051D01*
X166913604Y-89447850D01*
X166882476Y-89485779D01*
X166847779Y-89520476D01*
X166809850Y-89551604D01*
X166769051Y-89578864D01*
X166725778Y-89601995D01*
X166680445Y-89620772D01*
X166633490Y-89635016D01*
X166585365Y-89644588D01*
X166536534Y-89649398D01*
X166512000Y-89649398D01*
X166512000Y-89650000D01*
X166012000Y-89650000D01*
X166012000Y-88150000D01*
X166512000Y-88150000D01*
X166512000Y-88150602D01*
G37*
G36*
X165712000Y-89650000D02*
G01*
X165212000Y-89650000D01*
X165212000Y-89649398D01*
X165187466Y-89649398D01*
X165138635Y-89644588D01*
X165090510Y-89635016D01*
X165043555Y-89620772D01*
X164998222Y-89601995D01*
X164954949Y-89578864D01*
X164914150Y-89551604D01*
X164876221Y-89520476D01*
X164841524Y-89485779D01*
X164810396Y-89447850D01*
X164783136Y-89407051D01*
X164760005Y-89363778D01*
X164741228Y-89318445D01*
X164726984Y-89271490D01*
X164717412Y-89223365D01*
X164712602Y-89174534D01*
X164712602Y-89150000D01*
X164712000Y-89150000D01*
X164712000Y-88650000D01*
X164712602Y-88650000D01*
X164712602Y-88625466D01*
X164717412Y-88576635D01*
X164726984Y-88528510D01*
X164741228Y-88481555D01*
X164760005Y-88436222D01*
X164783136Y-88392949D01*
X164810396Y-88352150D01*
X164841524Y-88314221D01*
X164876221Y-88279524D01*
X164914150Y-88248396D01*
X164954949Y-88221136D01*
X164998222Y-88198005D01*
X165043555Y-88179228D01*
X165090510Y-88164984D01*
X165138635Y-88155412D01*
X165187466Y-88150602D01*
X165212000Y-88150602D01*
X165212000Y-88150000D01*
X165712000Y-88150000D01*
X165712000Y-89650000D01*
G37*
D15*
X181102000Y-90042000D03*
X181102000Y-86742000D03*
X183896000Y-86742000D03*
X183896000Y-90042000D03*
G36*
G01*
X165584000Y-91463000D02*
X165584000Y-91163000D01*
G75*
G02*
X165734000Y-91013000I150000J0D01*
G01*
X167384000Y-91013000D01*
G75*
G02*
X167534000Y-91163000I0J-150000D01*
G01*
X167534000Y-91463000D01*
G75*
G02*
X167384000Y-91613000I-150000J0D01*
G01*
X165734000Y-91613000D01*
G75*
G02*
X165584000Y-91463000I0J150000D01*
G01*
G37*
G36*
G01*
X165584000Y-92733000D02*
X165584000Y-92433000D01*
G75*
G02*
X165734000Y-92283000I150000J0D01*
G01*
X167384000Y-92283000D01*
G75*
G02*
X167534000Y-92433000I0J-150000D01*
G01*
X167534000Y-92733000D01*
G75*
G02*
X167384000Y-92883000I-150000J0D01*
G01*
X165734000Y-92883000D01*
G75*
G02*
X165584000Y-92733000I0J150000D01*
G01*
G37*
G36*
G01*
X165584000Y-94003000D02*
X165584000Y-93703000D01*
G75*
G02*
X165734000Y-93553000I150000J0D01*
G01*
X167384000Y-93553000D01*
G75*
G02*
X167534000Y-93703000I0J-150000D01*
G01*
X167534000Y-94003000D01*
G75*
G02*
X167384000Y-94153000I-150000J0D01*
G01*
X165734000Y-94153000D01*
G75*
G02*
X165584000Y-94003000I0J150000D01*
G01*
G37*
G36*
G01*
X165584000Y-95273000D02*
X165584000Y-94973000D01*
G75*
G02*
X165734000Y-94823000I150000J0D01*
G01*
X167384000Y-94823000D01*
G75*
G02*
X167534000Y-94973000I0J-150000D01*
G01*
X167534000Y-95273000D01*
G75*
G02*
X167384000Y-95423000I-150000J0D01*
G01*
X165734000Y-95423000D01*
G75*
G02*
X165584000Y-95273000I0J150000D01*
G01*
G37*
G36*
G01*
X160634000Y-95273000D02*
X160634000Y-94973000D01*
G75*
G02*
X160784000Y-94823000I150000J0D01*
G01*
X162434000Y-94823000D01*
G75*
G02*
X162584000Y-94973000I0J-150000D01*
G01*
X162584000Y-95273000D01*
G75*
G02*
X162434000Y-95423000I-150000J0D01*
G01*
X160784000Y-95423000D01*
G75*
G02*
X160634000Y-95273000I0J150000D01*
G01*
G37*
G36*
G01*
X160634000Y-94003000D02*
X160634000Y-93703000D01*
G75*
G02*
X160784000Y-93553000I150000J0D01*
G01*
X162434000Y-93553000D01*
G75*
G02*
X162584000Y-93703000I0J-150000D01*
G01*
X162584000Y-94003000D01*
G75*
G02*
X162434000Y-94153000I-150000J0D01*
G01*
X160784000Y-94153000D01*
G75*
G02*
X160634000Y-94003000I0J150000D01*
G01*
G37*
G36*
G01*
X160634000Y-92733000D02*
X160634000Y-92433000D01*
G75*
G02*
X160784000Y-92283000I150000J0D01*
G01*
X162434000Y-92283000D01*
G75*
G02*
X162584000Y-92433000I0J-150000D01*
G01*
X162584000Y-92733000D01*
G75*
G02*
X162434000Y-92883000I-150000J0D01*
G01*
X160784000Y-92883000D01*
G75*
G02*
X160634000Y-92733000I0J150000D01*
G01*
G37*
G36*
G01*
X160634000Y-91463000D02*
X160634000Y-91163000D01*
G75*
G02*
X160784000Y-91013000I150000J0D01*
G01*
X162434000Y-91013000D01*
G75*
G02*
X162584000Y-91163000I0J-150000D01*
G01*
X162584000Y-91463000D01*
G75*
G02*
X162434000Y-91613000I-150000J0D01*
G01*
X160784000Y-91613000D01*
G75*
G02*
X160634000Y-91463000I0J150000D01*
G01*
G37*
D16*
X124728000Y-98196000D03*
X120128000Y-98196000D03*
X122428000Y-98196000D03*
D17*
X122428000Y-104496000D03*
D16*
X115393500Y-98196000D03*
X110793500Y-98196000D03*
X113093500Y-98196000D03*
D17*
X113093500Y-104496000D03*
G36*
G01*
X156557000Y-82392000D02*
X156557000Y-82192000D01*
G75*
G02*
X156657000Y-82092000I100000J0D01*
G01*
X157932000Y-82092000D01*
G75*
G02*
X158032000Y-82192000I0J-100000D01*
G01*
X158032000Y-82392000D01*
G75*
G02*
X157932000Y-82492000I-100000J0D01*
G01*
X156657000Y-82492000D01*
G75*
G02*
X156557000Y-82392000I0J100000D01*
G01*
G37*
G36*
G01*
X156557000Y-83042000D02*
X156557000Y-82842000D01*
G75*
G02*
X156657000Y-82742000I100000J0D01*
G01*
X157932000Y-82742000D01*
G75*
G02*
X158032000Y-82842000I0J-100000D01*
G01*
X158032000Y-83042000D01*
G75*
G02*
X157932000Y-83142000I-100000J0D01*
G01*
X156657000Y-83142000D01*
G75*
G02*
X156557000Y-83042000I0J100000D01*
G01*
G37*
G36*
G01*
X156557000Y-83692000D02*
X156557000Y-83492000D01*
G75*
G02*
X156657000Y-83392000I100000J0D01*
G01*
X157932000Y-83392000D01*
G75*
G02*
X158032000Y-83492000I0J-100000D01*
G01*
X158032000Y-83692000D01*
G75*
G02*
X157932000Y-83792000I-100000J0D01*
G01*
X156657000Y-83792000D01*
G75*
G02*
X156557000Y-83692000I0J100000D01*
G01*
G37*
G36*
G01*
X156557000Y-84342000D02*
X156557000Y-84142000D01*
G75*
G02*
X156657000Y-84042000I100000J0D01*
G01*
X157932000Y-84042000D01*
G75*
G02*
X158032000Y-84142000I0J-100000D01*
G01*
X158032000Y-84342000D01*
G75*
G02*
X157932000Y-84442000I-100000J0D01*
G01*
X156657000Y-84442000D01*
G75*
G02*
X156557000Y-84342000I0J100000D01*
G01*
G37*
G36*
G01*
X156557000Y-84992000D02*
X156557000Y-84792000D01*
G75*
G02*
X156657000Y-84692000I100000J0D01*
G01*
X157932000Y-84692000D01*
G75*
G02*
X158032000Y-84792000I0J-100000D01*
G01*
X158032000Y-84992000D01*
G75*
G02*
X157932000Y-85092000I-100000J0D01*
G01*
X156657000Y-85092000D01*
G75*
G02*
X156557000Y-84992000I0J100000D01*
G01*
G37*
G36*
G01*
X156557000Y-85642000D02*
X156557000Y-85442000D01*
G75*
G02*
X156657000Y-85342000I100000J0D01*
G01*
X157932000Y-85342000D01*
G75*
G02*
X158032000Y-85442000I0J-100000D01*
G01*
X158032000Y-85642000D01*
G75*
G02*
X157932000Y-85742000I-100000J0D01*
G01*
X156657000Y-85742000D01*
G75*
G02*
X156557000Y-85642000I0J100000D01*
G01*
G37*
G36*
G01*
X156557000Y-86292000D02*
X156557000Y-86092000D01*
G75*
G02*
X156657000Y-85992000I100000J0D01*
G01*
X157932000Y-85992000D01*
G75*
G02*
X158032000Y-86092000I0J-100000D01*
G01*
X158032000Y-86292000D01*
G75*
G02*
X157932000Y-86392000I-100000J0D01*
G01*
X156657000Y-86392000D01*
G75*
G02*
X156557000Y-86292000I0J100000D01*
G01*
G37*
G36*
G01*
X156557000Y-86942000D02*
X156557000Y-86742000D01*
G75*
G02*
X156657000Y-86642000I100000J0D01*
G01*
X157932000Y-86642000D01*
G75*
G02*
X158032000Y-86742000I0J-100000D01*
G01*
X158032000Y-86942000D01*
G75*
G02*
X157932000Y-87042000I-100000J0D01*
G01*
X156657000Y-87042000D01*
G75*
G02*
X156557000Y-86942000I0J100000D01*
G01*
G37*
G36*
G01*
X156557000Y-87592000D02*
X156557000Y-87392000D01*
G75*
G02*
X156657000Y-87292000I100000J0D01*
G01*
X157932000Y-87292000D01*
G75*
G02*
X158032000Y-87392000I0J-100000D01*
G01*
X158032000Y-87592000D01*
G75*
G02*
X157932000Y-87692000I-100000J0D01*
G01*
X156657000Y-87692000D01*
G75*
G02*
X156557000Y-87592000I0J100000D01*
G01*
G37*
G36*
G01*
X156557000Y-88242000D02*
X156557000Y-88042000D01*
G75*
G02*
X156657000Y-87942000I100000J0D01*
G01*
X157932000Y-87942000D01*
G75*
G02*
X158032000Y-88042000I0J-100000D01*
G01*
X158032000Y-88242000D01*
G75*
G02*
X157932000Y-88342000I-100000J0D01*
G01*
X156657000Y-88342000D01*
G75*
G02*
X156557000Y-88242000I0J100000D01*
G01*
G37*
G36*
G01*
X150832000Y-88242000D02*
X150832000Y-88042000D01*
G75*
G02*
X150932000Y-87942000I100000J0D01*
G01*
X152207000Y-87942000D01*
G75*
G02*
X152307000Y-88042000I0J-100000D01*
G01*
X152307000Y-88242000D01*
G75*
G02*
X152207000Y-88342000I-100000J0D01*
G01*
X150932000Y-88342000D01*
G75*
G02*
X150832000Y-88242000I0J100000D01*
G01*
G37*
G36*
G01*
X150832000Y-87592000D02*
X150832000Y-87392000D01*
G75*
G02*
X150932000Y-87292000I100000J0D01*
G01*
X152207000Y-87292000D01*
G75*
G02*
X152307000Y-87392000I0J-100000D01*
G01*
X152307000Y-87592000D01*
G75*
G02*
X152207000Y-87692000I-100000J0D01*
G01*
X150932000Y-87692000D01*
G75*
G02*
X150832000Y-87592000I0J100000D01*
G01*
G37*
G36*
G01*
X150832000Y-86942000D02*
X150832000Y-86742000D01*
G75*
G02*
X150932000Y-86642000I100000J0D01*
G01*
X152207000Y-86642000D01*
G75*
G02*
X152307000Y-86742000I0J-100000D01*
G01*
X152307000Y-86942000D01*
G75*
G02*
X152207000Y-87042000I-100000J0D01*
G01*
X150932000Y-87042000D01*
G75*
G02*
X150832000Y-86942000I0J100000D01*
G01*
G37*
G36*
G01*
X150832000Y-86292000D02*
X150832000Y-86092000D01*
G75*
G02*
X150932000Y-85992000I100000J0D01*
G01*
X152207000Y-85992000D01*
G75*
G02*
X152307000Y-86092000I0J-100000D01*
G01*
X152307000Y-86292000D01*
G75*
G02*
X152207000Y-86392000I-100000J0D01*
G01*
X150932000Y-86392000D01*
G75*
G02*
X150832000Y-86292000I0J100000D01*
G01*
G37*
G36*
G01*
X150832000Y-85642000D02*
X150832000Y-85442000D01*
G75*
G02*
X150932000Y-85342000I100000J0D01*
G01*
X152207000Y-85342000D01*
G75*
G02*
X152307000Y-85442000I0J-100000D01*
G01*
X152307000Y-85642000D01*
G75*
G02*
X152207000Y-85742000I-100000J0D01*
G01*
X150932000Y-85742000D01*
G75*
G02*
X150832000Y-85642000I0J100000D01*
G01*
G37*
G36*
G01*
X150832000Y-84992000D02*
X150832000Y-84792000D01*
G75*
G02*
X150932000Y-84692000I100000J0D01*
G01*
X152207000Y-84692000D01*
G75*
G02*
X152307000Y-84792000I0J-100000D01*
G01*
X152307000Y-84992000D01*
G75*
G02*
X152207000Y-85092000I-100000J0D01*
G01*
X150932000Y-85092000D01*
G75*
G02*
X150832000Y-84992000I0J100000D01*
G01*
G37*
G36*
G01*
X150832000Y-84342000D02*
X150832000Y-84142000D01*
G75*
G02*
X150932000Y-84042000I100000J0D01*
G01*
X152207000Y-84042000D01*
G75*
G02*
X152307000Y-84142000I0J-100000D01*
G01*
X152307000Y-84342000D01*
G75*
G02*
X152207000Y-84442000I-100000J0D01*
G01*
X150932000Y-84442000D01*
G75*
G02*
X150832000Y-84342000I0J100000D01*
G01*
G37*
G36*
G01*
X150832000Y-83692000D02*
X150832000Y-83492000D01*
G75*
G02*
X150932000Y-83392000I100000J0D01*
G01*
X152207000Y-83392000D01*
G75*
G02*
X152307000Y-83492000I0J-100000D01*
G01*
X152307000Y-83692000D01*
G75*
G02*
X152207000Y-83792000I-100000J0D01*
G01*
X150932000Y-83792000D01*
G75*
G02*
X150832000Y-83692000I0J100000D01*
G01*
G37*
G36*
G01*
X150832000Y-83042000D02*
X150832000Y-82842000D01*
G75*
G02*
X150932000Y-82742000I100000J0D01*
G01*
X152207000Y-82742000D01*
G75*
G02*
X152307000Y-82842000I0J-100000D01*
G01*
X152307000Y-83042000D01*
G75*
G02*
X152207000Y-83142000I-100000J0D01*
G01*
X150932000Y-83142000D01*
G75*
G02*
X150832000Y-83042000I0J100000D01*
G01*
G37*
G36*
G01*
X150832000Y-82392000D02*
X150832000Y-82192000D01*
G75*
G02*
X150932000Y-82092000I100000J0D01*
G01*
X152207000Y-82092000D01*
G75*
G02*
X152307000Y-82192000I0J-100000D01*
G01*
X152307000Y-82392000D01*
G75*
G02*
X152207000Y-82492000I-100000J0D01*
G01*
X150932000Y-82492000D01*
G75*
G02*
X150832000Y-82392000I0J100000D01*
G01*
G37*
G36*
G01*
X145127000Y-78455000D02*
X145127000Y-78255000D01*
G75*
G02*
X145227000Y-78155000I100000J0D01*
G01*
X146502000Y-78155000D01*
G75*
G02*
X146602000Y-78255000I0J-100000D01*
G01*
X146602000Y-78455000D01*
G75*
G02*
X146502000Y-78555000I-100000J0D01*
G01*
X145227000Y-78555000D01*
G75*
G02*
X145127000Y-78455000I0J100000D01*
G01*
G37*
G36*
G01*
X145127000Y-79105000D02*
X145127000Y-78905000D01*
G75*
G02*
X145227000Y-78805000I100000J0D01*
G01*
X146502000Y-78805000D01*
G75*
G02*
X146602000Y-78905000I0J-100000D01*
G01*
X146602000Y-79105000D01*
G75*
G02*
X146502000Y-79205000I-100000J0D01*
G01*
X145227000Y-79205000D01*
G75*
G02*
X145127000Y-79105000I0J100000D01*
G01*
G37*
G36*
G01*
X145127000Y-79755000D02*
X145127000Y-79555000D01*
G75*
G02*
X145227000Y-79455000I100000J0D01*
G01*
X146502000Y-79455000D01*
G75*
G02*
X146602000Y-79555000I0J-100000D01*
G01*
X146602000Y-79755000D01*
G75*
G02*
X146502000Y-79855000I-100000J0D01*
G01*
X145227000Y-79855000D01*
G75*
G02*
X145127000Y-79755000I0J100000D01*
G01*
G37*
G36*
G01*
X145127000Y-80405000D02*
X145127000Y-80205000D01*
G75*
G02*
X145227000Y-80105000I100000J0D01*
G01*
X146502000Y-80105000D01*
G75*
G02*
X146602000Y-80205000I0J-100000D01*
G01*
X146602000Y-80405000D01*
G75*
G02*
X146502000Y-80505000I-100000J0D01*
G01*
X145227000Y-80505000D01*
G75*
G02*
X145127000Y-80405000I0J100000D01*
G01*
G37*
G36*
G01*
X145127000Y-81055000D02*
X145127000Y-80855000D01*
G75*
G02*
X145227000Y-80755000I100000J0D01*
G01*
X146502000Y-80755000D01*
G75*
G02*
X146602000Y-80855000I0J-100000D01*
G01*
X146602000Y-81055000D01*
G75*
G02*
X146502000Y-81155000I-100000J0D01*
G01*
X145227000Y-81155000D01*
G75*
G02*
X145127000Y-81055000I0J100000D01*
G01*
G37*
G36*
G01*
X145127000Y-81705000D02*
X145127000Y-81505000D01*
G75*
G02*
X145227000Y-81405000I100000J0D01*
G01*
X146502000Y-81405000D01*
G75*
G02*
X146602000Y-81505000I0J-100000D01*
G01*
X146602000Y-81705000D01*
G75*
G02*
X146502000Y-81805000I-100000J0D01*
G01*
X145227000Y-81805000D01*
G75*
G02*
X145127000Y-81705000I0J100000D01*
G01*
G37*
G36*
G01*
X145127000Y-82355000D02*
X145127000Y-82155000D01*
G75*
G02*
X145227000Y-82055000I100000J0D01*
G01*
X146502000Y-82055000D01*
G75*
G02*
X146602000Y-82155000I0J-100000D01*
G01*
X146602000Y-82355000D01*
G75*
G02*
X146502000Y-82455000I-100000J0D01*
G01*
X145227000Y-82455000D01*
G75*
G02*
X145127000Y-82355000I0J100000D01*
G01*
G37*
G36*
G01*
X145127000Y-83005000D02*
X145127000Y-82805000D01*
G75*
G02*
X145227000Y-82705000I100000J0D01*
G01*
X146502000Y-82705000D01*
G75*
G02*
X146602000Y-82805000I0J-100000D01*
G01*
X146602000Y-83005000D01*
G75*
G02*
X146502000Y-83105000I-100000J0D01*
G01*
X145227000Y-83105000D01*
G75*
G02*
X145127000Y-83005000I0J100000D01*
G01*
G37*
G36*
G01*
X145127000Y-83655000D02*
X145127000Y-83455000D01*
G75*
G02*
X145227000Y-83355000I100000J0D01*
G01*
X146502000Y-83355000D01*
G75*
G02*
X146602000Y-83455000I0J-100000D01*
G01*
X146602000Y-83655000D01*
G75*
G02*
X146502000Y-83755000I-100000J0D01*
G01*
X145227000Y-83755000D01*
G75*
G02*
X145127000Y-83655000I0J100000D01*
G01*
G37*
G36*
G01*
X145127000Y-84305000D02*
X145127000Y-84105000D01*
G75*
G02*
X145227000Y-84005000I100000J0D01*
G01*
X146502000Y-84005000D01*
G75*
G02*
X146602000Y-84105000I0J-100000D01*
G01*
X146602000Y-84305000D01*
G75*
G02*
X146502000Y-84405000I-100000J0D01*
G01*
X145227000Y-84405000D01*
G75*
G02*
X145127000Y-84305000I0J100000D01*
G01*
G37*
G36*
G01*
X139402000Y-84305000D02*
X139402000Y-84105000D01*
G75*
G02*
X139502000Y-84005000I100000J0D01*
G01*
X140777000Y-84005000D01*
G75*
G02*
X140877000Y-84105000I0J-100000D01*
G01*
X140877000Y-84305000D01*
G75*
G02*
X140777000Y-84405000I-100000J0D01*
G01*
X139502000Y-84405000D01*
G75*
G02*
X139402000Y-84305000I0J100000D01*
G01*
G37*
G36*
G01*
X139402000Y-83655000D02*
X139402000Y-83455000D01*
G75*
G02*
X139502000Y-83355000I100000J0D01*
G01*
X140777000Y-83355000D01*
G75*
G02*
X140877000Y-83455000I0J-100000D01*
G01*
X140877000Y-83655000D01*
G75*
G02*
X140777000Y-83755000I-100000J0D01*
G01*
X139502000Y-83755000D01*
G75*
G02*
X139402000Y-83655000I0J100000D01*
G01*
G37*
G36*
G01*
X139402000Y-83005000D02*
X139402000Y-82805000D01*
G75*
G02*
X139502000Y-82705000I100000J0D01*
G01*
X140777000Y-82705000D01*
G75*
G02*
X140877000Y-82805000I0J-100000D01*
G01*
X140877000Y-83005000D01*
G75*
G02*
X140777000Y-83105000I-100000J0D01*
G01*
X139502000Y-83105000D01*
G75*
G02*
X139402000Y-83005000I0J100000D01*
G01*
G37*
G36*
G01*
X139402000Y-82355000D02*
X139402000Y-82155000D01*
G75*
G02*
X139502000Y-82055000I100000J0D01*
G01*
X140777000Y-82055000D01*
G75*
G02*
X140877000Y-82155000I0J-100000D01*
G01*
X140877000Y-82355000D01*
G75*
G02*
X140777000Y-82455000I-100000J0D01*
G01*
X139502000Y-82455000D01*
G75*
G02*
X139402000Y-82355000I0J100000D01*
G01*
G37*
G36*
G01*
X139402000Y-81705000D02*
X139402000Y-81505000D01*
G75*
G02*
X139502000Y-81405000I100000J0D01*
G01*
X140777000Y-81405000D01*
G75*
G02*
X140877000Y-81505000I0J-100000D01*
G01*
X140877000Y-81705000D01*
G75*
G02*
X140777000Y-81805000I-100000J0D01*
G01*
X139502000Y-81805000D01*
G75*
G02*
X139402000Y-81705000I0J100000D01*
G01*
G37*
G36*
G01*
X139402000Y-81055000D02*
X139402000Y-80855000D01*
G75*
G02*
X139502000Y-80755000I100000J0D01*
G01*
X140777000Y-80755000D01*
G75*
G02*
X140877000Y-80855000I0J-100000D01*
G01*
X140877000Y-81055000D01*
G75*
G02*
X140777000Y-81155000I-100000J0D01*
G01*
X139502000Y-81155000D01*
G75*
G02*
X139402000Y-81055000I0J100000D01*
G01*
G37*
G36*
G01*
X139402000Y-80405000D02*
X139402000Y-80205000D01*
G75*
G02*
X139502000Y-80105000I100000J0D01*
G01*
X140777000Y-80105000D01*
G75*
G02*
X140877000Y-80205000I0J-100000D01*
G01*
X140877000Y-80405000D01*
G75*
G02*
X140777000Y-80505000I-100000J0D01*
G01*
X139502000Y-80505000D01*
G75*
G02*
X139402000Y-80405000I0J100000D01*
G01*
G37*
G36*
G01*
X139402000Y-79755000D02*
X139402000Y-79555000D01*
G75*
G02*
X139502000Y-79455000I100000J0D01*
G01*
X140777000Y-79455000D01*
G75*
G02*
X140877000Y-79555000I0J-100000D01*
G01*
X140877000Y-79755000D01*
G75*
G02*
X140777000Y-79855000I-100000J0D01*
G01*
X139502000Y-79855000D01*
G75*
G02*
X139402000Y-79755000I0J100000D01*
G01*
G37*
G36*
G01*
X139402000Y-79105000D02*
X139402000Y-78905000D01*
G75*
G02*
X139502000Y-78805000I100000J0D01*
G01*
X140777000Y-78805000D01*
G75*
G02*
X140877000Y-78905000I0J-100000D01*
G01*
X140877000Y-79105000D01*
G75*
G02*
X140777000Y-79205000I-100000J0D01*
G01*
X139502000Y-79205000D01*
G75*
G02*
X139402000Y-79105000I0J100000D01*
G01*
G37*
G36*
G01*
X139402000Y-78455000D02*
X139402000Y-78255000D01*
G75*
G02*
X139502000Y-78155000I100000J0D01*
G01*
X140777000Y-78155000D01*
G75*
G02*
X140877000Y-78255000I0J-100000D01*
G01*
X140877000Y-78455000D01*
G75*
G02*
X140777000Y-78555000I-100000J0D01*
G01*
X139502000Y-78555000D01*
G75*
G02*
X139402000Y-78455000I0J100000D01*
G01*
G37*
G36*
G01*
X162584000Y-86337000D02*
X162584000Y-86637000D01*
G75*
G02*
X162434000Y-86787000I-150000J0D01*
G01*
X160784000Y-86787000D01*
G75*
G02*
X160634000Y-86637000I0J150000D01*
G01*
X160634000Y-86337000D01*
G75*
G02*
X160784000Y-86187000I150000J0D01*
G01*
X162434000Y-86187000D01*
G75*
G02*
X162584000Y-86337000I0J-150000D01*
G01*
G37*
G36*
G01*
X162584000Y-85067000D02*
X162584000Y-85367000D01*
G75*
G02*
X162434000Y-85517000I-150000J0D01*
G01*
X160784000Y-85517000D01*
G75*
G02*
X160634000Y-85367000I0J150000D01*
G01*
X160634000Y-85067000D01*
G75*
G02*
X160784000Y-84917000I150000J0D01*
G01*
X162434000Y-84917000D01*
G75*
G02*
X162584000Y-85067000I0J-150000D01*
G01*
G37*
G36*
G01*
X162584000Y-83797000D02*
X162584000Y-84097000D01*
G75*
G02*
X162434000Y-84247000I-150000J0D01*
G01*
X160784000Y-84247000D01*
G75*
G02*
X160634000Y-84097000I0J150000D01*
G01*
X160634000Y-83797000D01*
G75*
G02*
X160784000Y-83647000I150000J0D01*
G01*
X162434000Y-83647000D01*
G75*
G02*
X162584000Y-83797000I0J-150000D01*
G01*
G37*
G36*
G01*
X162584000Y-82527000D02*
X162584000Y-82827000D01*
G75*
G02*
X162434000Y-82977000I-150000J0D01*
G01*
X160784000Y-82977000D01*
G75*
G02*
X160634000Y-82827000I0J150000D01*
G01*
X160634000Y-82527000D01*
G75*
G02*
X160784000Y-82377000I150000J0D01*
G01*
X162434000Y-82377000D01*
G75*
G02*
X162584000Y-82527000I0J-150000D01*
G01*
G37*
G36*
G01*
X167534000Y-82527000D02*
X167534000Y-82827000D01*
G75*
G02*
X167384000Y-82977000I-150000J0D01*
G01*
X165734000Y-82977000D01*
G75*
G02*
X165584000Y-82827000I0J150000D01*
G01*
X165584000Y-82527000D01*
G75*
G02*
X165734000Y-82377000I150000J0D01*
G01*
X167384000Y-82377000D01*
G75*
G02*
X167534000Y-82527000I0J-150000D01*
G01*
G37*
G36*
G01*
X167534000Y-83797000D02*
X167534000Y-84097000D01*
G75*
G02*
X167384000Y-84247000I-150000J0D01*
G01*
X165734000Y-84247000D01*
G75*
G02*
X165584000Y-84097000I0J150000D01*
G01*
X165584000Y-83797000D01*
G75*
G02*
X165734000Y-83647000I150000J0D01*
G01*
X167384000Y-83647000D01*
G75*
G02*
X167534000Y-83797000I0J-150000D01*
G01*
G37*
G36*
G01*
X167534000Y-85067000D02*
X167534000Y-85367000D01*
G75*
G02*
X167384000Y-85517000I-150000J0D01*
G01*
X165734000Y-85517000D01*
G75*
G02*
X165584000Y-85367000I0J150000D01*
G01*
X165584000Y-85067000D01*
G75*
G02*
X165734000Y-84917000I150000J0D01*
G01*
X167384000Y-84917000D01*
G75*
G02*
X167534000Y-85067000I0J-150000D01*
G01*
G37*
G36*
G01*
X167534000Y-86337000D02*
X167534000Y-86637000D01*
G75*
G02*
X167384000Y-86787000I-150000J0D01*
G01*
X165734000Y-86787000D01*
G75*
G02*
X165584000Y-86637000I0J150000D01*
G01*
X165584000Y-86337000D01*
G75*
G02*
X165734000Y-86187000I150000J0D01*
G01*
X167384000Y-86187000D01*
G75*
G02*
X167534000Y-86337000I0J-150000D01*
G01*
G37*
G36*
G01*
X174268000Y-86337000D02*
X174268000Y-86637000D01*
G75*
G02*
X174118000Y-86787000I-150000J0D01*
G01*
X172468000Y-86787000D01*
G75*
G02*
X172318000Y-86637000I0J150000D01*
G01*
X172318000Y-86337000D01*
G75*
G02*
X172468000Y-86187000I150000J0D01*
G01*
X174118000Y-86187000D01*
G75*
G02*
X174268000Y-86337000I0J-150000D01*
G01*
G37*
G36*
G01*
X174268000Y-85067000D02*
X174268000Y-85367000D01*
G75*
G02*
X174118000Y-85517000I-150000J0D01*
G01*
X172468000Y-85517000D01*
G75*
G02*
X172318000Y-85367000I0J150000D01*
G01*
X172318000Y-85067000D01*
G75*
G02*
X172468000Y-84917000I150000J0D01*
G01*
X174118000Y-84917000D01*
G75*
G02*
X174268000Y-85067000I0J-150000D01*
G01*
G37*
G36*
G01*
X174268000Y-83797000D02*
X174268000Y-84097000D01*
G75*
G02*
X174118000Y-84247000I-150000J0D01*
G01*
X172468000Y-84247000D01*
G75*
G02*
X172318000Y-84097000I0J150000D01*
G01*
X172318000Y-83797000D01*
G75*
G02*
X172468000Y-83647000I150000J0D01*
G01*
X174118000Y-83647000D01*
G75*
G02*
X174268000Y-83797000I0J-150000D01*
G01*
G37*
G36*
G01*
X174268000Y-82527000D02*
X174268000Y-82827000D01*
G75*
G02*
X174118000Y-82977000I-150000J0D01*
G01*
X172468000Y-82977000D01*
G75*
G02*
X172318000Y-82827000I0J150000D01*
G01*
X172318000Y-82527000D01*
G75*
G02*
X172468000Y-82377000I150000J0D01*
G01*
X174118000Y-82377000D01*
G75*
G02*
X174268000Y-82527000I0J-150000D01*
G01*
G37*
G36*
G01*
X179218000Y-82527000D02*
X179218000Y-82827000D01*
G75*
G02*
X179068000Y-82977000I-150000J0D01*
G01*
X177418000Y-82977000D01*
G75*
G02*
X177268000Y-82827000I0J150000D01*
G01*
X177268000Y-82527000D01*
G75*
G02*
X177418000Y-82377000I150000J0D01*
G01*
X179068000Y-82377000D01*
G75*
G02*
X179218000Y-82527000I0J-150000D01*
G01*
G37*
G36*
G01*
X179218000Y-83797000D02*
X179218000Y-84097000D01*
G75*
G02*
X179068000Y-84247000I-150000J0D01*
G01*
X177418000Y-84247000D01*
G75*
G02*
X177268000Y-84097000I0J150000D01*
G01*
X177268000Y-83797000D01*
G75*
G02*
X177418000Y-83647000I150000J0D01*
G01*
X179068000Y-83647000D01*
G75*
G02*
X179218000Y-83797000I0J-150000D01*
G01*
G37*
G36*
G01*
X179218000Y-85067000D02*
X179218000Y-85367000D01*
G75*
G02*
X179068000Y-85517000I-150000J0D01*
G01*
X177418000Y-85517000D01*
G75*
G02*
X177268000Y-85367000I0J150000D01*
G01*
X177268000Y-85067000D01*
G75*
G02*
X177418000Y-84917000I150000J0D01*
G01*
X179068000Y-84917000D01*
G75*
G02*
X179218000Y-85067000I0J-150000D01*
G01*
G37*
G36*
G01*
X179218000Y-86337000D02*
X179218000Y-86637000D01*
G75*
G02*
X179068000Y-86787000I-150000J0D01*
G01*
X177418000Y-86787000D01*
G75*
G02*
X177268000Y-86637000I0J150000D01*
G01*
X177268000Y-86337000D01*
G75*
G02*
X177418000Y-86187000I150000J0D01*
G01*
X179068000Y-86187000D01*
G75*
G02*
X179218000Y-86337000I0J-150000D01*
G01*
G37*
G36*
G01*
X173712000Y-71143000D02*
X173712000Y-70843000D01*
G75*
G02*
X173862000Y-70693000I150000J0D01*
G01*
X175512000Y-70693000D01*
G75*
G02*
X175662000Y-70843000I0J-150000D01*
G01*
X175662000Y-71143000D01*
G75*
G02*
X175512000Y-71293000I-150000J0D01*
G01*
X173862000Y-71293000D01*
G75*
G02*
X173712000Y-71143000I0J150000D01*
G01*
G37*
G36*
G01*
X173712000Y-72413000D02*
X173712000Y-72113000D01*
G75*
G02*
X173862000Y-71963000I150000J0D01*
G01*
X175512000Y-71963000D01*
G75*
G02*
X175662000Y-72113000I0J-150000D01*
G01*
X175662000Y-72413000D01*
G75*
G02*
X175512000Y-72563000I-150000J0D01*
G01*
X173862000Y-72563000D01*
G75*
G02*
X173712000Y-72413000I0J150000D01*
G01*
G37*
G36*
G01*
X173712000Y-73683000D02*
X173712000Y-73383000D01*
G75*
G02*
X173862000Y-73233000I150000J0D01*
G01*
X175512000Y-73233000D01*
G75*
G02*
X175662000Y-73383000I0J-150000D01*
G01*
X175662000Y-73683000D01*
G75*
G02*
X175512000Y-73833000I-150000J0D01*
G01*
X173862000Y-73833000D01*
G75*
G02*
X173712000Y-73683000I0J150000D01*
G01*
G37*
G36*
G01*
X173712000Y-74953000D02*
X173712000Y-74653000D01*
G75*
G02*
X173862000Y-74503000I150000J0D01*
G01*
X175512000Y-74503000D01*
G75*
G02*
X175662000Y-74653000I0J-150000D01*
G01*
X175662000Y-74953000D01*
G75*
G02*
X175512000Y-75103000I-150000J0D01*
G01*
X173862000Y-75103000D01*
G75*
G02*
X173712000Y-74953000I0J150000D01*
G01*
G37*
G36*
G01*
X168762000Y-74953000D02*
X168762000Y-74653000D01*
G75*
G02*
X168912000Y-74503000I150000J0D01*
G01*
X170562000Y-74503000D01*
G75*
G02*
X170712000Y-74653000I0J-150000D01*
G01*
X170712000Y-74953000D01*
G75*
G02*
X170562000Y-75103000I-150000J0D01*
G01*
X168912000Y-75103000D01*
G75*
G02*
X168762000Y-74953000I0J150000D01*
G01*
G37*
G36*
G01*
X168762000Y-73683000D02*
X168762000Y-73383000D01*
G75*
G02*
X168912000Y-73233000I150000J0D01*
G01*
X170562000Y-73233000D01*
G75*
G02*
X170712000Y-73383000I0J-150000D01*
G01*
X170712000Y-73683000D01*
G75*
G02*
X170562000Y-73833000I-150000J0D01*
G01*
X168912000Y-73833000D01*
G75*
G02*
X168762000Y-73683000I0J150000D01*
G01*
G37*
G36*
G01*
X168762000Y-72413000D02*
X168762000Y-72113000D01*
G75*
G02*
X168912000Y-71963000I150000J0D01*
G01*
X170562000Y-71963000D01*
G75*
G02*
X170712000Y-72113000I0J-150000D01*
G01*
X170712000Y-72413000D01*
G75*
G02*
X170562000Y-72563000I-150000J0D01*
G01*
X168912000Y-72563000D01*
G75*
G02*
X168762000Y-72413000I0J150000D01*
G01*
G37*
G36*
G01*
X168762000Y-71143000D02*
X168762000Y-70843000D01*
G75*
G02*
X168912000Y-70693000I150000J0D01*
G01*
X170562000Y-70693000D01*
G75*
G02*
X170712000Y-70843000I0J-150000D01*
G01*
X170712000Y-71143000D01*
G75*
G02*
X170562000Y-71293000I-150000J0D01*
G01*
X168912000Y-71293000D01*
G75*
G02*
X168762000Y-71143000I0J150000D01*
G01*
G37*
G36*
G01*
X161520000Y-71143000D02*
X161520000Y-70843000D01*
G75*
G02*
X161670000Y-70693000I150000J0D01*
G01*
X163320000Y-70693000D01*
G75*
G02*
X163470000Y-70843000I0J-150000D01*
G01*
X163470000Y-71143000D01*
G75*
G02*
X163320000Y-71293000I-150000J0D01*
G01*
X161670000Y-71293000D01*
G75*
G02*
X161520000Y-71143000I0J150000D01*
G01*
G37*
G36*
G01*
X161520000Y-72413000D02*
X161520000Y-72113000D01*
G75*
G02*
X161670000Y-71963000I150000J0D01*
G01*
X163320000Y-71963000D01*
G75*
G02*
X163470000Y-72113000I0J-150000D01*
G01*
X163470000Y-72413000D01*
G75*
G02*
X163320000Y-72563000I-150000J0D01*
G01*
X161670000Y-72563000D01*
G75*
G02*
X161520000Y-72413000I0J150000D01*
G01*
G37*
G36*
G01*
X161520000Y-73683000D02*
X161520000Y-73383000D01*
G75*
G02*
X161670000Y-73233000I150000J0D01*
G01*
X163320000Y-73233000D01*
G75*
G02*
X163470000Y-73383000I0J-150000D01*
G01*
X163470000Y-73683000D01*
G75*
G02*
X163320000Y-73833000I-150000J0D01*
G01*
X161670000Y-73833000D01*
G75*
G02*
X161520000Y-73683000I0J150000D01*
G01*
G37*
G36*
G01*
X161520000Y-74953000D02*
X161520000Y-74653000D01*
G75*
G02*
X161670000Y-74503000I150000J0D01*
G01*
X163320000Y-74503000D01*
G75*
G02*
X163470000Y-74653000I0J-150000D01*
G01*
X163470000Y-74953000D01*
G75*
G02*
X163320000Y-75103000I-150000J0D01*
G01*
X161670000Y-75103000D01*
G75*
G02*
X161520000Y-74953000I0J150000D01*
G01*
G37*
G36*
G01*
X156570000Y-74953000D02*
X156570000Y-74653000D01*
G75*
G02*
X156720000Y-74503000I150000J0D01*
G01*
X158370000Y-74503000D01*
G75*
G02*
X158520000Y-74653000I0J-150000D01*
G01*
X158520000Y-74953000D01*
G75*
G02*
X158370000Y-75103000I-150000J0D01*
G01*
X156720000Y-75103000D01*
G75*
G02*
X156570000Y-74953000I0J150000D01*
G01*
G37*
G36*
G01*
X156570000Y-73683000D02*
X156570000Y-73383000D01*
G75*
G02*
X156720000Y-73233000I150000J0D01*
G01*
X158370000Y-73233000D01*
G75*
G02*
X158520000Y-73383000I0J-150000D01*
G01*
X158520000Y-73683000D01*
G75*
G02*
X158370000Y-73833000I-150000J0D01*
G01*
X156720000Y-73833000D01*
G75*
G02*
X156570000Y-73683000I0J150000D01*
G01*
G37*
G36*
G01*
X156570000Y-72413000D02*
X156570000Y-72113000D01*
G75*
G02*
X156720000Y-71963000I150000J0D01*
G01*
X158370000Y-71963000D01*
G75*
G02*
X158520000Y-72113000I0J-150000D01*
G01*
X158520000Y-72413000D01*
G75*
G02*
X158370000Y-72563000I-150000J0D01*
G01*
X156720000Y-72563000D01*
G75*
G02*
X156570000Y-72413000I0J150000D01*
G01*
G37*
G36*
G01*
X156570000Y-71143000D02*
X156570000Y-70843000D01*
G75*
G02*
X156720000Y-70693000I150000J0D01*
G01*
X158370000Y-70693000D01*
G75*
G02*
X158520000Y-70843000I0J-150000D01*
G01*
X158520000Y-71143000D01*
G75*
G02*
X158370000Y-71293000I-150000J0D01*
G01*
X156720000Y-71293000D01*
G75*
G02*
X156570000Y-71143000I0J150000D01*
G01*
G37*
D18*
X131064000Y-78989500D03*
X136144000Y-78989500D03*
X136144000Y-83189500D03*
X131064000Y-83189500D03*
G36*
G01*
X145127000Y-70073000D02*
X145127000Y-69873000D01*
G75*
G02*
X145227000Y-69773000I100000J0D01*
G01*
X146502000Y-69773000D01*
G75*
G02*
X146602000Y-69873000I0J-100000D01*
G01*
X146602000Y-70073000D01*
G75*
G02*
X146502000Y-70173000I-100000J0D01*
G01*
X145227000Y-70173000D01*
G75*
G02*
X145127000Y-70073000I0J100000D01*
G01*
G37*
G36*
G01*
X145127000Y-70723000D02*
X145127000Y-70523000D01*
G75*
G02*
X145227000Y-70423000I100000J0D01*
G01*
X146502000Y-70423000D01*
G75*
G02*
X146602000Y-70523000I0J-100000D01*
G01*
X146602000Y-70723000D01*
G75*
G02*
X146502000Y-70823000I-100000J0D01*
G01*
X145227000Y-70823000D01*
G75*
G02*
X145127000Y-70723000I0J100000D01*
G01*
G37*
G36*
G01*
X145127000Y-71373000D02*
X145127000Y-71173000D01*
G75*
G02*
X145227000Y-71073000I100000J0D01*
G01*
X146502000Y-71073000D01*
G75*
G02*
X146602000Y-71173000I0J-100000D01*
G01*
X146602000Y-71373000D01*
G75*
G02*
X146502000Y-71473000I-100000J0D01*
G01*
X145227000Y-71473000D01*
G75*
G02*
X145127000Y-71373000I0J100000D01*
G01*
G37*
G36*
G01*
X145127000Y-72023000D02*
X145127000Y-71823000D01*
G75*
G02*
X145227000Y-71723000I100000J0D01*
G01*
X146502000Y-71723000D01*
G75*
G02*
X146602000Y-71823000I0J-100000D01*
G01*
X146602000Y-72023000D01*
G75*
G02*
X146502000Y-72123000I-100000J0D01*
G01*
X145227000Y-72123000D01*
G75*
G02*
X145127000Y-72023000I0J100000D01*
G01*
G37*
G36*
G01*
X145127000Y-72673000D02*
X145127000Y-72473000D01*
G75*
G02*
X145227000Y-72373000I100000J0D01*
G01*
X146502000Y-72373000D01*
G75*
G02*
X146602000Y-72473000I0J-100000D01*
G01*
X146602000Y-72673000D01*
G75*
G02*
X146502000Y-72773000I-100000J0D01*
G01*
X145227000Y-72773000D01*
G75*
G02*
X145127000Y-72673000I0J100000D01*
G01*
G37*
G36*
G01*
X145127000Y-73323000D02*
X145127000Y-73123000D01*
G75*
G02*
X145227000Y-73023000I100000J0D01*
G01*
X146502000Y-73023000D01*
G75*
G02*
X146602000Y-73123000I0J-100000D01*
G01*
X146602000Y-73323000D01*
G75*
G02*
X146502000Y-73423000I-100000J0D01*
G01*
X145227000Y-73423000D01*
G75*
G02*
X145127000Y-73323000I0J100000D01*
G01*
G37*
G36*
G01*
X145127000Y-73973000D02*
X145127000Y-73773000D01*
G75*
G02*
X145227000Y-73673000I100000J0D01*
G01*
X146502000Y-73673000D01*
G75*
G02*
X146602000Y-73773000I0J-100000D01*
G01*
X146602000Y-73973000D01*
G75*
G02*
X146502000Y-74073000I-100000J0D01*
G01*
X145227000Y-74073000D01*
G75*
G02*
X145127000Y-73973000I0J100000D01*
G01*
G37*
G36*
G01*
X145127000Y-74623000D02*
X145127000Y-74423000D01*
G75*
G02*
X145227000Y-74323000I100000J0D01*
G01*
X146502000Y-74323000D01*
G75*
G02*
X146602000Y-74423000I0J-100000D01*
G01*
X146602000Y-74623000D01*
G75*
G02*
X146502000Y-74723000I-100000J0D01*
G01*
X145227000Y-74723000D01*
G75*
G02*
X145127000Y-74623000I0J100000D01*
G01*
G37*
G36*
G01*
X145127000Y-75273000D02*
X145127000Y-75073000D01*
G75*
G02*
X145227000Y-74973000I100000J0D01*
G01*
X146502000Y-74973000D01*
G75*
G02*
X146602000Y-75073000I0J-100000D01*
G01*
X146602000Y-75273000D01*
G75*
G02*
X146502000Y-75373000I-100000J0D01*
G01*
X145227000Y-75373000D01*
G75*
G02*
X145127000Y-75273000I0J100000D01*
G01*
G37*
G36*
G01*
X145127000Y-75923000D02*
X145127000Y-75723000D01*
G75*
G02*
X145227000Y-75623000I100000J0D01*
G01*
X146502000Y-75623000D01*
G75*
G02*
X146602000Y-75723000I0J-100000D01*
G01*
X146602000Y-75923000D01*
G75*
G02*
X146502000Y-76023000I-100000J0D01*
G01*
X145227000Y-76023000D01*
G75*
G02*
X145127000Y-75923000I0J100000D01*
G01*
G37*
G36*
G01*
X139402000Y-75923000D02*
X139402000Y-75723000D01*
G75*
G02*
X139502000Y-75623000I100000J0D01*
G01*
X140777000Y-75623000D01*
G75*
G02*
X140877000Y-75723000I0J-100000D01*
G01*
X140877000Y-75923000D01*
G75*
G02*
X140777000Y-76023000I-100000J0D01*
G01*
X139502000Y-76023000D01*
G75*
G02*
X139402000Y-75923000I0J100000D01*
G01*
G37*
G36*
G01*
X139402000Y-75273000D02*
X139402000Y-75073000D01*
G75*
G02*
X139502000Y-74973000I100000J0D01*
G01*
X140777000Y-74973000D01*
G75*
G02*
X140877000Y-75073000I0J-100000D01*
G01*
X140877000Y-75273000D01*
G75*
G02*
X140777000Y-75373000I-100000J0D01*
G01*
X139502000Y-75373000D01*
G75*
G02*
X139402000Y-75273000I0J100000D01*
G01*
G37*
G36*
G01*
X139402000Y-74623000D02*
X139402000Y-74423000D01*
G75*
G02*
X139502000Y-74323000I100000J0D01*
G01*
X140777000Y-74323000D01*
G75*
G02*
X140877000Y-74423000I0J-100000D01*
G01*
X140877000Y-74623000D01*
G75*
G02*
X140777000Y-74723000I-100000J0D01*
G01*
X139502000Y-74723000D01*
G75*
G02*
X139402000Y-74623000I0J100000D01*
G01*
G37*
G36*
G01*
X139402000Y-73973000D02*
X139402000Y-73773000D01*
G75*
G02*
X139502000Y-73673000I100000J0D01*
G01*
X140777000Y-73673000D01*
G75*
G02*
X140877000Y-73773000I0J-100000D01*
G01*
X140877000Y-73973000D01*
G75*
G02*
X140777000Y-74073000I-100000J0D01*
G01*
X139502000Y-74073000D01*
G75*
G02*
X139402000Y-73973000I0J100000D01*
G01*
G37*
G36*
G01*
X139402000Y-73323000D02*
X139402000Y-73123000D01*
G75*
G02*
X139502000Y-73023000I100000J0D01*
G01*
X140777000Y-73023000D01*
G75*
G02*
X140877000Y-73123000I0J-100000D01*
G01*
X140877000Y-73323000D01*
G75*
G02*
X140777000Y-73423000I-100000J0D01*
G01*
X139502000Y-73423000D01*
G75*
G02*
X139402000Y-73323000I0J100000D01*
G01*
G37*
G36*
G01*
X139402000Y-72673000D02*
X139402000Y-72473000D01*
G75*
G02*
X139502000Y-72373000I100000J0D01*
G01*
X140777000Y-72373000D01*
G75*
G02*
X140877000Y-72473000I0J-100000D01*
G01*
X140877000Y-72673000D01*
G75*
G02*
X140777000Y-72773000I-100000J0D01*
G01*
X139502000Y-72773000D01*
G75*
G02*
X139402000Y-72673000I0J100000D01*
G01*
G37*
G36*
G01*
X139402000Y-72023000D02*
X139402000Y-71823000D01*
G75*
G02*
X139502000Y-71723000I100000J0D01*
G01*
X140777000Y-71723000D01*
G75*
G02*
X140877000Y-71823000I0J-100000D01*
G01*
X140877000Y-72023000D01*
G75*
G02*
X140777000Y-72123000I-100000J0D01*
G01*
X139502000Y-72123000D01*
G75*
G02*
X139402000Y-72023000I0J100000D01*
G01*
G37*
G36*
G01*
X139402000Y-71373000D02*
X139402000Y-71173000D01*
G75*
G02*
X139502000Y-71073000I100000J0D01*
G01*
X140777000Y-71073000D01*
G75*
G02*
X140877000Y-71173000I0J-100000D01*
G01*
X140877000Y-71373000D01*
G75*
G02*
X140777000Y-71473000I-100000J0D01*
G01*
X139502000Y-71473000D01*
G75*
G02*
X139402000Y-71373000I0J100000D01*
G01*
G37*
G36*
G01*
X139402000Y-70723000D02*
X139402000Y-70523000D01*
G75*
G02*
X139502000Y-70423000I100000J0D01*
G01*
X140777000Y-70423000D01*
G75*
G02*
X140877000Y-70523000I0J-100000D01*
G01*
X140877000Y-70723000D01*
G75*
G02*
X140777000Y-70823000I-100000J0D01*
G01*
X139502000Y-70823000D01*
G75*
G02*
X139402000Y-70723000I0J100000D01*
G01*
G37*
G36*
G01*
X139402000Y-70073000D02*
X139402000Y-69873000D01*
G75*
G02*
X139502000Y-69773000I100000J0D01*
G01*
X140777000Y-69773000D01*
G75*
G02*
X140877000Y-69873000I0J-100000D01*
G01*
X140877000Y-70073000D01*
G75*
G02*
X140777000Y-70173000I-100000J0D01*
G01*
X139502000Y-70173000D01*
G75*
G02*
X139402000Y-70073000I0J100000D01*
G01*
G37*
G36*
G01*
X116061500Y-107652000D02*
X115586500Y-107652000D01*
G75*
G02*
X115349000Y-107414500I0J237500D01*
G01*
X115349000Y-106914500D01*
G75*
G02*
X115586500Y-106677000I237500J0D01*
G01*
X116061500Y-106677000D01*
G75*
G02*
X116299000Y-106914500I0J-237500D01*
G01*
X116299000Y-107414500D01*
G75*
G02*
X116061500Y-107652000I-237500J0D01*
G01*
G37*
G36*
G01*
X116061500Y-109477000D02*
X115586500Y-109477000D01*
G75*
G02*
X115349000Y-109239500I0J237500D01*
G01*
X115349000Y-108739500D01*
G75*
G02*
X115586500Y-108502000I237500J0D01*
G01*
X116061500Y-108502000D01*
G75*
G02*
X116299000Y-108739500I0J-237500D01*
G01*
X116299000Y-109239500D01*
G75*
G02*
X116061500Y-109477000I-237500J0D01*
G01*
G37*
G36*
G01*
X125459500Y-107652000D02*
X124984500Y-107652000D01*
G75*
G02*
X124747000Y-107414500I0J237500D01*
G01*
X124747000Y-106914500D01*
G75*
G02*
X124984500Y-106677000I237500J0D01*
G01*
X125459500Y-106677000D01*
G75*
G02*
X125697000Y-106914500I0J-237500D01*
G01*
X125697000Y-107414500D01*
G75*
G02*
X125459500Y-107652000I-237500J0D01*
G01*
G37*
G36*
G01*
X125459500Y-109477000D02*
X124984500Y-109477000D01*
G75*
G02*
X124747000Y-109239500I0J237500D01*
G01*
X124747000Y-108739500D01*
G75*
G02*
X124984500Y-108502000I237500J0D01*
G01*
X125459500Y-108502000D01*
G75*
G02*
X125697000Y-108739500I0J-237500D01*
G01*
X125697000Y-109239500D01*
G75*
G02*
X125459500Y-109477000I-237500J0D01*
G01*
G37*
G36*
G01*
X144736000Y-85614500D02*
X144736000Y-86089500D01*
G75*
G02*
X144498500Y-86327000I-237500J0D01*
G01*
X143998500Y-86327000D01*
G75*
G02*
X143761000Y-86089500I0J237500D01*
G01*
X143761000Y-85614500D01*
G75*
G02*
X143998500Y-85377000I237500J0D01*
G01*
X144498500Y-85377000D01*
G75*
G02*
X144736000Y-85614500I0J-237500D01*
G01*
G37*
G36*
G01*
X146561000Y-85614500D02*
X146561000Y-86089500D01*
G75*
G02*
X146323500Y-86327000I-237500J0D01*
G01*
X145823500Y-86327000D01*
G75*
G02*
X145586000Y-86089500I0J237500D01*
G01*
X145586000Y-85614500D01*
G75*
G02*
X145823500Y-85377000I237500J0D01*
G01*
X146323500Y-85377000D01*
G75*
G02*
X146561000Y-85614500I0J-237500D01*
G01*
G37*
G36*
G01*
X186747999Y-84036000D02*
X187648001Y-84036000D01*
G75*
G02*
X187898000Y-84285999I0J-249999D01*
G01*
X187898000Y-84986001D01*
G75*
G02*
X187648001Y-85236000I-249999J0D01*
G01*
X186747999Y-85236000D01*
G75*
G02*
X186498000Y-84986001I0J249999D01*
G01*
X186498000Y-84285999D01*
G75*
G02*
X186747999Y-84036000I249999J0D01*
G01*
G37*
G36*
G01*
X186747999Y-82036000D02*
X187648001Y-82036000D01*
G75*
G02*
X187898000Y-82285999I0J-249999D01*
G01*
X187898000Y-82986001D01*
G75*
G02*
X187648001Y-83236000I-249999J0D01*
G01*
X186747999Y-83236000D01*
G75*
G02*
X186498000Y-82986001I0J249999D01*
G01*
X186498000Y-82285999D01*
G75*
G02*
X186747999Y-82036000I249999J0D01*
G01*
G37*
G36*
G01*
X184503999Y-84036000D02*
X185404001Y-84036000D01*
G75*
G02*
X185654000Y-84285999I0J-249999D01*
G01*
X185654000Y-84986001D01*
G75*
G02*
X185404001Y-85236000I-249999J0D01*
G01*
X184503999Y-85236000D01*
G75*
G02*
X184254000Y-84986001I0J249999D01*
G01*
X184254000Y-84285999D01*
G75*
G02*
X184503999Y-84036000I249999J0D01*
G01*
G37*
G36*
G01*
X184503999Y-82036000D02*
X185404001Y-82036000D01*
G75*
G02*
X185654000Y-82285999I0J-249999D01*
G01*
X185654000Y-82986001D01*
G75*
G02*
X185404001Y-83236000I-249999J0D01*
G01*
X184503999Y-83236000D01*
G75*
G02*
X184254000Y-82986001I0J249999D01*
G01*
X184254000Y-82285999D01*
G75*
G02*
X184503999Y-82036000I249999J0D01*
G01*
G37*
G36*
G01*
X169501000Y-84344500D02*
X169501000Y-84819500D01*
G75*
G02*
X169263500Y-85057000I-237500J0D01*
G01*
X168763500Y-85057000D01*
G75*
G02*
X168526000Y-84819500I0J237500D01*
G01*
X168526000Y-84344500D01*
G75*
G02*
X168763500Y-84107000I237500J0D01*
G01*
X169263500Y-84107000D01*
G75*
G02*
X169501000Y-84344500I0J-237500D01*
G01*
G37*
G36*
G01*
X171326000Y-84344500D02*
X171326000Y-84819500D01*
G75*
G02*
X171088500Y-85057000I-237500J0D01*
G01*
X170588500Y-85057000D01*
G75*
G02*
X170351000Y-84819500I0J237500D01*
G01*
X170351000Y-84344500D01*
G75*
G02*
X170588500Y-84107000I237500J0D01*
G01*
X171088500Y-84107000D01*
G75*
G02*
X171326000Y-84344500I0J-237500D01*
G01*
G37*
G36*
G01*
X181185000Y-82312500D02*
X181185000Y-82787500D01*
G75*
G02*
X180947500Y-83025000I-237500J0D01*
G01*
X180447500Y-83025000D01*
G75*
G02*
X180210000Y-82787500I0J237500D01*
G01*
X180210000Y-82312500D01*
G75*
G02*
X180447500Y-82075000I237500J0D01*
G01*
X180947500Y-82075000D01*
G75*
G02*
X181185000Y-82312500I0J-237500D01*
G01*
G37*
G36*
G01*
X183010000Y-82312500D02*
X183010000Y-82787500D01*
G75*
G02*
X182772500Y-83025000I-237500J0D01*
G01*
X182272500Y-83025000D01*
G75*
G02*
X182035000Y-82787500I0J237500D01*
G01*
X182035000Y-82312500D01*
G75*
G02*
X182272500Y-82075000I237500J0D01*
G01*
X182772500Y-82075000D01*
G75*
G02*
X183010000Y-82312500I0J-237500D01*
G01*
G37*
G36*
G01*
X177275500Y-88983000D02*
X176800500Y-88983000D01*
G75*
G02*
X176563000Y-88745500I0J237500D01*
G01*
X176563000Y-88245500D01*
G75*
G02*
X176800500Y-88008000I237500J0D01*
G01*
X177275500Y-88008000D01*
G75*
G02*
X177513000Y-88245500I0J-237500D01*
G01*
X177513000Y-88745500D01*
G75*
G02*
X177275500Y-88983000I-237500J0D01*
G01*
G37*
G36*
G01*
X177275500Y-90808000D02*
X176800500Y-90808000D01*
G75*
G02*
X176563000Y-90570500I0J237500D01*
G01*
X176563000Y-90070500D01*
G75*
G02*
X176800500Y-89833000I237500J0D01*
G01*
X177275500Y-89833000D01*
G75*
G02*
X177513000Y-90070500I0J-237500D01*
G01*
X177513000Y-90570500D01*
G75*
G02*
X177275500Y-90808000I-237500J0D01*
G01*
G37*
G36*
G01*
X169501000Y-82566500D02*
X169501000Y-83041500D01*
G75*
G02*
X169263500Y-83279000I-237500J0D01*
G01*
X168763500Y-83279000D01*
G75*
G02*
X168526000Y-83041500I0J237500D01*
G01*
X168526000Y-82566500D01*
G75*
G02*
X168763500Y-82329000I237500J0D01*
G01*
X169263500Y-82329000D01*
G75*
G02*
X169501000Y-82566500I0J-237500D01*
G01*
G37*
G36*
G01*
X171326000Y-82566500D02*
X171326000Y-83041500D01*
G75*
G02*
X171088500Y-83279000I-237500J0D01*
G01*
X170588500Y-83279000D01*
G75*
G02*
X170351000Y-83041500I0J237500D01*
G01*
X170351000Y-82566500D01*
G75*
G02*
X170588500Y-82329000I237500J0D01*
G01*
X171088500Y-82329000D01*
G75*
G02*
X171326000Y-82566500I0J-237500D01*
G01*
G37*
G36*
G01*
X181185000Y-84090500D02*
X181185000Y-84565500D01*
G75*
G02*
X180947500Y-84803000I-237500J0D01*
G01*
X180447500Y-84803000D01*
G75*
G02*
X180210000Y-84565500I0J237500D01*
G01*
X180210000Y-84090500D01*
G75*
G02*
X180447500Y-83853000I237500J0D01*
G01*
X180947500Y-83853000D01*
G75*
G02*
X181185000Y-84090500I0J-237500D01*
G01*
G37*
G36*
G01*
X183010000Y-84090500D02*
X183010000Y-84565500D01*
G75*
G02*
X182772500Y-84803000I-237500J0D01*
G01*
X182272500Y-84803000D01*
G75*
G02*
X182035000Y-84565500I0J237500D01*
G01*
X182035000Y-84090500D01*
G75*
G02*
X182272500Y-83853000I237500J0D01*
G01*
X182772500Y-83853000D01*
G75*
G02*
X183010000Y-84090500I0J-237500D01*
G01*
G37*
G36*
G01*
X178578500Y-89833000D02*
X179053500Y-89833000D01*
G75*
G02*
X179291000Y-90070500I0J-237500D01*
G01*
X179291000Y-90570500D01*
G75*
G02*
X179053500Y-90808000I-237500J0D01*
G01*
X178578500Y-90808000D01*
G75*
G02*
X178341000Y-90570500I0J237500D01*
G01*
X178341000Y-90070500D01*
G75*
G02*
X178578500Y-89833000I237500J0D01*
G01*
G37*
G36*
G01*
X178578500Y-88008000D02*
X179053500Y-88008000D01*
G75*
G02*
X179291000Y-88245500I0J-237500D01*
G01*
X179291000Y-88745500D01*
G75*
G02*
X179053500Y-88983000I-237500J0D01*
G01*
X178578500Y-88983000D01*
G75*
G02*
X178341000Y-88745500I0J237500D01*
G01*
X178341000Y-88245500D01*
G75*
G02*
X178578500Y-88008000I237500J0D01*
G01*
G37*
G36*
G01*
X149523000Y-70341500D02*
X149523000Y-69866500D01*
G75*
G02*
X149760500Y-69629000I237500J0D01*
G01*
X150260500Y-69629000D01*
G75*
G02*
X150498000Y-69866500I0J-237500D01*
G01*
X150498000Y-70341500D01*
G75*
G02*
X150260500Y-70579000I-237500J0D01*
G01*
X149760500Y-70579000D01*
G75*
G02*
X149523000Y-70341500I0J237500D01*
G01*
G37*
G36*
G01*
X147698000Y-70341500D02*
X147698000Y-69866500D01*
G75*
G02*
X147935500Y-69629000I237500J0D01*
G01*
X148435500Y-69629000D01*
G75*
G02*
X148673000Y-69866500I0J-237500D01*
G01*
X148673000Y-70341500D01*
G75*
G02*
X148435500Y-70579000I-237500J0D01*
G01*
X147935500Y-70579000D01*
G75*
G02*
X147698000Y-70341500I0J237500D01*
G01*
G37*
G36*
G01*
X149523000Y-72119500D02*
X149523000Y-71644500D01*
G75*
G02*
X149760500Y-71407000I237500J0D01*
G01*
X150260500Y-71407000D01*
G75*
G02*
X150498000Y-71644500I0J-237500D01*
G01*
X150498000Y-72119500D01*
G75*
G02*
X150260500Y-72357000I-237500J0D01*
G01*
X149760500Y-72357000D01*
G75*
G02*
X149523000Y-72119500I0J237500D01*
G01*
G37*
G36*
G01*
X147698000Y-72119500D02*
X147698000Y-71644500D01*
G75*
G02*
X147935500Y-71407000I237500J0D01*
G01*
X148435500Y-71407000D01*
G75*
G02*
X148673000Y-71644500I0J-237500D01*
G01*
X148673000Y-72119500D01*
G75*
G02*
X148435500Y-72357000I-237500J0D01*
G01*
X147935500Y-72357000D01*
G75*
G02*
X147698000Y-72119500I0J237500D01*
G01*
G37*
G36*
G01*
X166541000Y-73897500D02*
X166541000Y-73422500D01*
G75*
G02*
X166778500Y-73185000I237500J0D01*
G01*
X167278500Y-73185000D01*
G75*
G02*
X167516000Y-73422500I0J-237500D01*
G01*
X167516000Y-73897500D01*
G75*
G02*
X167278500Y-74135000I-237500J0D01*
G01*
X166778500Y-74135000D01*
G75*
G02*
X166541000Y-73897500I0J237500D01*
G01*
G37*
G36*
G01*
X164716000Y-73897500D02*
X164716000Y-73422500D01*
G75*
G02*
X164953500Y-73185000I237500J0D01*
G01*
X165453500Y-73185000D01*
G75*
G02*
X165691000Y-73422500I0J-237500D01*
G01*
X165691000Y-73897500D01*
G75*
G02*
X165453500Y-74135000I-237500J0D01*
G01*
X164953500Y-74135000D01*
G75*
G02*
X164716000Y-73897500I0J237500D01*
G01*
G37*
G36*
G01*
X165691000Y-69866500D02*
X165691000Y-70341500D01*
G75*
G02*
X165453500Y-70579000I-237500J0D01*
G01*
X164953500Y-70579000D01*
G75*
G02*
X164716000Y-70341500I0J237500D01*
G01*
X164716000Y-69866500D01*
G75*
G02*
X164953500Y-69629000I237500J0D01*
G01*
X165453500Y-69629000D01*
G75*
G02*
X165691000Y-69866500I0J-237500D01*
G01*
G37*
G36*
G01*
X167516000Y-69866500D02*
X167516000Y-70341500D01*
G75*
G02*
X167278500Y-70579000I-237500J0D01*
G01*
X166778500Y-70579000D01*
G75*
G02*
X166541000Y-70341500I0J237500D01*
G01*
X166541000Y-69866500D01*
G75*
G02*
X166778500Y-69629000I237500J0D01*
G01*
X167278500Y-69629000D01*
G75*
G02*
X167516000Y-69866500I0J-237500D01*
G01*
G37*
G36*
G01*
X153499000Y-73422500D02*
X153499000Y-73897500D01*
G75*
G02*
X153261500Y-74135000I-237500J0D01*
G01*
X152761500Y-74135000D01*
G75*
G02*
X152524000Y-73897500I0J237500D01*
G01*
X152524000Y-73422500D01*
G75*
G02*
X152761500Y-73185000I237500J0D01*
G01*
X153261500Y-73185000D01*
G75*
G02*
X153499000Y-73422500I0J-237500D01*
G01*
G37*
G36*
G01*
X155324000Y-73422500D02*
X155324000Y-73897500D01*
G75*
G02*
X155086500Y-74135000I-237500J0D01*
G01*
X154586500Y-74135000D01*
G75*
G02*
X154349000Y-73897500I0J237500D01*
G01*
X154349000Y-73422500D01*
G75*
G02*
X154586500Y-73185000I237500J0D01*
G01*
X155086500Y-73185000D01*
G75*
G02*
X155324000Y-73422500I0J-237500D01*
G01*
G37*
G36*
G01*
X153499000Y-69866500D02*
X153499000Y-70341500D01*
G75*
G02*
X153261500Y-70579000I-237500J0D01*
G01*
X152761500Y-70579000D01*
G75*
G02*
X152524000Y-70341500I0J237500D01*
G01*
X152524000Y-69866500D01*
G75*
G02*
X152761500Y-69629000I237500J0D01*
G01*
X153261500Y-69629000D01*
G75*
G02*
X153499000Y-69866500I0J-237500D01*
G01*
G37*
G36*
G01*
X155324000Y-69866500D02*
X155324000Y-70341500D01*
G75*
G02*
X155086500Y-70579000I-237500J0D01*
G01*
X154586500Y-70579000D01*
G75*
G02*
X154349000Y-70341500I0J237500D01*
G01*
X154349000Y-69866500D01*
G75*
G02*
X154586500Y-69629000I237500J0D01*
G01*
X155086500Y-69629000D01*
G75*
G02*
X155324000Y-69866500I0J-237500D01*
G01*
G37*
G36*
G01*
X137331000Y-70341500D02*
X137331000Y-69866500D01*
G75*
G02*
X137568500Y-69629000I237500J0D01*
G01*
X138068500Y-69629000D01*
G75*
G02*
X138306000Y-69866500I0J-237500D01*
G01*
X138306000Y-70341500D01*
G75*
G02*
X138068500Y-70579000I-237500J0D01*
G01*
X137568500Y-70579000D01*
G75*
G02*
X137331000Y-70341500I0J237500D01*
G01*
G37*
G36*
G01*
X135506000Y-70341500D02*
X135506000Y-69866500D01*
G75*
G02*
X135743500Y-69629000I237500J0D01*
G01*
X136243500Y-69629000D01*
G75*
G02*
X136481000Y-69866500I0J-237500D01*
G01*
X136481000Y-70341500D01*
G75*
G02*
X136243500Y-70579000I-237500J0D01*
G01*
X135743500Y-70579000D01*
G75*
G02*
X135506000Y-70341500I0J237500D01*
G01*
G37*
D19*
X143383000Y-101092000D03*
X140843000Y-101092000D03*
X138303000Y-101092000D03*
X133223000Y-101092000D03*
D20*
X130683000Y-101092000D03*
D21*
X150622000Y-63754000D03*
X148082000Y-63754000D03*
X145542000Y-63754000D03*
D22*
X143002000Y-63754000D03*
D21*
X136779000Y-63754000D03*
X134239000Y-63754000D03*
X131699000Y-63754000D03*
D22*
X129159000Y-63754000D03*
G36*
G01*
X110058000Y-79997000D02*
X110058000Y-78247000D01*
G75*
G02*
X110933000Y-77372000I875000J0D01*
G01*
X112683000Y-77372000D01*
G75*
G02*
X113558000Y-78247000I0J-875000D01*
G01*
X113558000Y-79997000D01*
G75*
G02*
X112683000Y-80872000I-875000J0D01*
G01*
X110933000Y-80872000D01*
G75*
G02*
X110058000Y-79997000I0J875000D01*
G01*
G37*
G36*
G01*
X107308000Y-75422000D02*
X107308000Y-73422000D01*
G75*
G02*
X108058000Y-72672000I750000J0D01*
G01*
X109558000Y-72672000D01*
G75*
G02*
X110308000Y-73422000I0J-750000D01*
G01*
X110308000Y-75422000D01*
G75*
G02*
X109558000Y-76172000I-750000J0D01*
G01*
X108058000Y-76172000D01*
G75*
G02*
X107308000Y-75422000I0J750000D01*
G01*
G37*
D23*
X114808000Y-74422000D03*
D24*
X186944000Y-75692000D03*
X186944000Y-71442000D03*
X186944000Y-79942000D03*
G36*
G01*
X113267500Y-107727000D02*
X112792500Y-107727000D01*
G75*
G02*
X112555000Y-107489500I0J237500D01*
G01*
X112555000Y-106914500D01*
G75*
G02*
X112792500Y-106677000I237500J0D01*
G01*
X113267500Y-106677000D01*
G75*
G02*
X113505000Y-106914500I0J-237500D01*
G01*
X113505000Y-107489500D01*
G75*
G02*
X113267500Y-107727000I-237500J0D01*
G01*
G37*
G36*
G01*
X113267500Y-109477000D02*
X112792500Y-109477000D01*
G75*
G02*
X112555000Y-109239500I0J237500D01*
G01*
X112555000Y-108664500D01*
G75*
G02*
X112792500Y-108427000I237500J0D01*
G01*
X113267500Y-108427000D01*
G75*
G02*
X113505000Y-108664500I0J-237500D01*
G01*
X113505000Y-109239500D01*
G75*
G02*
X113267500Y-109477000I-237500J0D01*
G01*
G37*
G36*
G01*
X122665500Y-107727000D02*
X122190500Y-107727000D01*
G75*
G02*
X121953000Y-107489500I0J237500D01*
G01*
X121953000Y-106914500D01*
G75*
G02*
X122190500Y-106677000I237500J0D01*
G01*
X122665500Y-106677000D01*
G75*
G02*
X122903000Y-106914500I0J-237500D01*
G01*
X122903000Y-107489500D01*
G75*
G02*
X122665500Y-107727000I-237500J0D01*
G01*
G37*
G36*
G01*
X122665500Y-109477000D02*
X122190500Y-109477000D01*
G75*
G02*
X121953000Y-109239500I0J237500D01*
G01*
X121953000Y-108664500D01*
G75*
G02*
X122190500Y-108427000I237500J0D01*
G01*
X122665500Y-108427000D01*
G75*
G02*
X122903000Y-108664500I0J-237500D01*
G01*
X122903000Y-109239500D01*
G75*
G02*
X122665500Y-109477000I-237500J0D01*
G01*
G37*
G36*
G01*
X144811000Y-87392500D02*
X144811000Y-87867500D01*
G75*
G02*
X144573500Y-88105000I-237500J0D01*
G01*
X143998500Y-88105000D01*
G75*
G02*
X143761000Y-87867500I0J237500D01*
G01*
X143761000Y-87392500D01*
G75*
G02*
X143998500Y-87155000I237500J0D01*
G01*
X144573500Y-87155000D01*
G75*
G02*
X144811000Y-87392500I0J-237500D01*
G01*
G37*
G36*
G01*
X146561000Y-87392500D02*
X146561000Y-87867500D01*
G75*
G02*
X146323500Y-88105000I-237500J0D01*
G01*
X145748500Y-88105000D01*
G75*
G02*
X145511000Y-87867500I0J237500D01*
G01*
X145511000Y-87392500D01*
G75*
G02*
X145748500Y-87155000I237500J0D01*
G01*
X146323500Y-87155000D01*
G75*
G02*
X146561000Y-87392500I0J-237500D01*
G01*
G37*
G36*
G01*
X138065500Y-82113000D02*
X138540500Y-82113000D01*
G75*
G02*
X138778000Y-82350500I0J-237500D01*
G01*
X138778000Y-82950500D01*
G75*
G02*
X138540500Y-83188000I-237500J0D01*
G01*
X138065500Y-83188000D01*
G75*
G02*
X137828000Y-82950500I0J237500D01*
G01*
X137828000Y-82350500D01*
G75*
G02*
X138065500Y-82113000I237500J0D01*
G01*
G37*
G36*
G01*
X138065500Y-80388000D02*
X138540500Y-80388000D01*
G75*
G02*
X138778000Y-80625500I0J-237500D01*
G01*
X138778000Y-81225500D01*
G75*
G02*
X138540500Y-81463000I-237500J0D01*
G01*
X138065500Y-81463000D01*
G75*
G02*
X137828000Y-81225500I0J237500D01*
G01*
X137828000Y-80625500D01*
G75*
G02*
X138065500Y-80388000I237500J0D01*
G01*
G37*
G36*
G01*
X132214500Y-76882000D02*
X132214500Y-76407000D01*
G75*
G02*
X132452000Y-76169500I237500J0D01*
G01*
X133052000Y-76169500D01*
G75*
G02*
X133289500Y-76407000I0J-237500D01*
G01*
X133289500Y-76882000D01*
G75*
G02*
X133052000Y-77119500I-237500J0D01*
G01*
X132452000Y-77119500D01*
G75*
G02*
X132214500Y-76882000I0J237500D01*
G01*
G37*
G36*
G01*
X130489500Y-76882000D02*
X130489500Y-76407000D01*
G75*
G02*
X130727000Y-76169500I237500J0D01*
G01*
X131327000Y-76169500D01*
G75*
G02*
X131564500Y-76407000I0J-237500D01*
G01*
X131564500Y-76882000D01*
G75*
G02*
X131327000Y-77119500I-237500J0D01*
G01*
X130727000Y-77119500D01*
G75*
G02*
X130489500Y-76882000I0J237500D01*
G01*
G37*
G36*
G01*
X147844500Y-81769000D02*
X148319500Y-81769000D01*
G75*
G02*
X148557000Y-82006500I0J-237500D01*
G01*
X148557000Y-82606500D01*
G75*
G02*
X148319500Y-82844000I-237500J0D01*
G01*
X147844500Y-82844000D01*
G75*
G02*
X147607000Y-82606500I0J237500D01*
G01*
X147607000Y-82006500D01*
G75*
G02*
X147844500Y-81769000I237500J0D01*
G01*
G37*
G36*
G01*
X147844500Y-80044000D02*
X148319500Y-80044000D01*
G75*
G02*
X148557000Y-80281500I0J-237500D01*
G01*
X148557000Y-80881500D01*
G75*
G02*
X148319500Y-81119000I-237500J0D01*
G01*
X147844500Y-81119000D01*
G75*
G02*
X147607000Y-80881500I0J237500D01*
G01*
X147607000Y-80281500D01*
G75*
G02*
X147844500Y-80044000I237500J0D01*
G01*
G37*
G36*
G01*
X117555000Y-106560500D02*
X118030000Y-106560500D01*
G75*
G02*
X118267500Y-106798000I0J-237500D01*
G01*
X118267500Y-107398000D01*
G75*
G02*
X118030000Y-107635500I-237500J0D01*
G01*
X117555000Y-107635500D01*
G75*
G02*
X117317500Y-107398000I0J237500D01*
G01*
X117317500Y-106798000D01*
G75*
G02*
X117555000Y-106560500I237500J0D01*
G01*
G37*
G36*
G01*
X117555000Y-104835500D02*
X118030000Y-104835500D01*
G75*
G02*
X118267500Y-105073000I0J-237500D01*
G01*
X118267500Y-105673000D01*
G75*
G02*
X118030000Y-105910500I-237500J0D01*
G01*
X117555000Y-105910500D01*
G75*
G02*
X117317500Y-105673000I0J237500D01*
G01*
X117317500Y-105073000D01*
G75*
G02*
X117555000Y-104835500I237500J0D01*
G01*
G37*
G36*
G01*
X118093500Y-96703000D02*
X117618500Y-96703000D01*
G75*
G02*
X117381000Y-96465500I0J237500D01*
G01*
X117381000Y-95865500D01*
G75*
G02*
X117618500Y-95628000I237500J0D01*
G01*
X118093500Y-95628000D01*
G75*
G02*
X118331000Y-95865500I0J-237500D01*
G01*
X118331000Y-96465500D01*
G75*
G02*
X118093500Y-96703000I-237500J0D01*
G01*
G37*
G36*
G01*
X118093500Y-98428000D02*
X117618500Y-98428000D01*
G75*
G02*
X117381000Y-98190500I0J237500D01*
G01*
X117381000Y-97590500D01*
G75*
G02*
X117618500Y-97353000I237500J0D01*
G01*
X118093500Y-97353000D01*
G75*
G02*
X118331000Y-97590500I0J-237500D01*
G01*
X118331000Y-98190500D01*
G75*
G02*
X118093500Y-98428000I-237500J0D01*
G01*
G37*
G36*
G01*
X161219000Y-68850500D02*
X161219000Y-69325500D01*
G75*
G02*
X160981500Y-69563000I-237500J0D01*
G01*
X160381500Y-69563000D01*
G75*
G02*
X160144000Y-69325500I0J237500D01*
G01*
X160144000Y-68850500D01*
G75*
G02*
X160381500Y-68613000I237500J0D01*
G01*
X160981500Y-68613000D01*
G75*
G02*
X161219000Y-68850500I0J-237500D01*
G01*
G37*
G36*
G01*
X162944000Y-68850500D02*
X162944000Y-69325500D01*
G75*
G02*
X162706500Y-69563000I-237500J0D01*
G01*
X162106500Y-69563000D01*
G75*
G02*
X161869000Y-69325500I0J237500D01*
G01*
X161869000Y-68850500D01*
G75*
G02*
X162106500Y-68613000I237500J0D01*
G01*
X162706500Y-68613000D01*
G75*
G02*
X162944000Y-68850500I0J-237500D01*
G01*
G37*
G36*
G01*
X174569000Y-88629500D02*
X174569000Y-88154500D01*
G75*
G02*
X174806500Y-87917000I237500J0D01*
G01*
X175406500Y-87917000D01*
G75*
G02*
X175644000Y-88154500I0J-237500D01*
G01*
X175644000Y-88629500D01*
G75*
G02*
X175406500Y-88867000I-237500J0D01*
G01*
X174806500Y-88867000D01*
G75*
G02*
X174569000Y-88629500I0J237500D01*
G01*
G37*
G36*
G01*
X172844000Y-88629500D02*
X172844000Y-88154500D01*
G75*
G02*
X173081500Y-87917000I237500J0D01*
G01*
X173681500Y-87917000D01*
G75*
G02*
X173919000Y-88154500I0J-237500D01*
G01*
X173919000Y-88629500D01*
G75*
G02*
X173681500Y-88867000I-237500J0D01*
G01*
X173081500Y-88867000D01*
G75*
G02*
X172844000Y-88629500I0J237500D01*
G01*
G37*
G36*
G01*
X177529500Y-71049000D02*
X177054500Y-71049000D01*
G75*
G02*
X176817000Y-70811500I0J237500D01*
G01*
X176817000Y-70211500D01*
G75*
G02*
X177054500Y-69974000I237500J0D01*
G01*
X177529500Y-69974000D01*
G75*
G02*
X177767000Y-70211500I0J-237500D01*
G01*
X177767000Y-70811500D01*
G75*
G02*
X177529500Y-71049000I-237500J0D01*
G01*
G37*
G36*
G01*
X177529500Y-72774000D02*
X177054500Y-72774000D01*
G75*
G02*
X176817000Y-72536500I0J237500D01*
G01*
X176817000Y-71936500D01*
G75*
G02*
X177054500Y-71699000I237500J0D01*
G01*
X177529500Y-71699000D01*
G75*
G02*
X177767000Y-71936500I0J-237500D01*
G01*
X177767000Y-72536500D01*
G75*
G02*
X177529500Y-72774000I-237500J0D01*
G01*
G37*
G36*
G01*
X142296000Y-103140500D02*
X142296000Y-103615500D01*
G75*
G02*
X142058500Y-103853000I-237500J0D01*
G01*
X141458500Y-103853000D01*
G75*
G02*
X141221000Y-103615500I0J237500D01*
G01*
X141221000Y-103140500D01*
G75*
G02*
X141458500Y-102903000I237500J0D01*
G01*
X142058500Y-102903000D01*
G75*
G02*
X142296000Y-103140500I0J-237500D01*
G01*
G37*
G36*
G01*
X144021000Y-103140500D02*
X144021000Y-103615500D01*
G75*
G02*
X143783500Y-103853000I-237500J0D01*
G01*
X143183500Y-103853000D01*
G75*
G02*
X142946000Y-103615500I0J237500D01*
G01*
X142946000Y-103140500D01*
G75*
G02*
X143183500Y-102903000I237500J0D01*
G01*
X143783500Y-102903000D01*
G75*
G02*
X144021000Y-103140500I0J-237500D01*
G01*
G37*
G36*
G01*
X158957000Y-93797000D02*
X159432000Y-93797000D01*
G75*
G02*
X159669500Y-94034500I0J-237500D01*
G01*
X159669500Y-94634500D01*
G75*
G02*
X159432000Y-94872000I-237500J0D01*
G01*
X158957000Y-94872000D01*
G75*
G02*
X158719500Y-94634500I0J237500D01*
G01*
X158719500Y-94034500D01*
G75*
G02*
X158957000Y-93797000I237500J0D01*
G01*
G37*
G36*
G01*
X158957000Y-92072000D02*
X159432000Y-92072000D01*
G75*
G02*
X159669500Y-92309500I0J-237500D01*
G01*
X159669500Y-92909500D01*
G75*
G02*
X159432000Y-93147000I-237500J0D01*
G01*
X158957000Y-93147000D01*
G75*
G02*
X158719500Y-92909500I0J237500D01*
G01*
X158719500Y-92309500D01*
G75*
G02*
X158957000Y-92072000I237500J0D01*
G01*
G37*
G36*
G01*
X122978000Y-90057000D02*
X121878000Y-90057000D01*
G75*
G02*
X121628000Y-89807000I0J250000D01*
G01*
X121628000Y-86982000D01*
G75*
G02*
X121878000Y-86732000I250000J0D01*
G01*
X122978000Y-86732000D01*
G75*
G02*
X123228000Y-86982000I0J-250000D01*
G01*
X123228000Y-89807000D01*
G75*
G02*
X122978000Y-90057000I-250000J0D01*
G01*
G37*
G36*
G01*
X122978000Y-95132000D02*
X121878000Y-95132000D01*
G75*
G02*
X121628000Y-94882000I0J250000D01*
G01*
X121628000Y-92057000D01*
G75*
G02*
X121878000Y-91807000I250000J0D01*
G01*
X122978000Y-91807000D01*
G75*
G02*
X123228000Y-92057000I0J-250000D01*
G01*
X123228000Y-94882000D01*
G75*
G02*
X122978000Y-95132000I-250000J0D01*
G01*
G37*
G36*
G01*
X114159000Y-91482000D02*
X114159000Y-90382000D01*
G75*
G02*
X114409000Y-90132000I250000J0D01*
G01*
X117234000Y-90132000D01*
G75*
G02*
X117484000Y-90382000I0J-250000D01*
G01*
X117484000Y-91482000D01*
G75*
G02*
X117234000Y-91732000I-250000J0D01*
G01*
X114409000Y-91732000D01*
G75*
G02*
X114159000Y-91482000I0J250000D01*
G01*
G37*
G36*
G01*
X109084000Y-91482000D02*
X109084000Y-90382000D01*
G75*
G02*
X109334000Y-90132000I250000J0D01*
G01*
X112159000Y-90132000D01*
G75*
G02*
X112409000Y-90382000I0J-250000D01*
G01*
X112409000Y-91482000D01*
G75*
G02*
X112159000Y-91732000I-250000J0D01*
G01*
X109334000Y-91732000D01*
G75*
G02*
X109084000Y-91482000I0J250000D01*
G01*
G37*
G36*
G01*
X158821000Y-76945500D02*
X158821000Y-76470500D01*
G75*
G02*
X159058500Y-76233000I237500J0D01*
G01*
X159658500Y-76233000D01*
G75*
G02*
X159896000Y-76470500I0J-237500D01*
G01*
X159896000Y-76945500D01*
G75*
G02*
X159658500Y-77183000I-237500J0D01*
G01*
X159058500Y-77183000D01*
G75*
G02*
X158821000Y-76945500I0J237500D01*
G01*
G37*
G36*
G01*
X157096000Y-76945500D02*
X157096000Y-76470500D01*
G75*
G02*
X157333500Y-76233000I237500J0D01*
G01*
X157933500Y-76233000D01*
G75*
G02*
X158171000Y-76470500I0J-237500D01*
G01*
X158171000Y-76945500D01*
G75*
G02*
X157933500Y-77183000I-237500J0D01*
G01*
X157333500Y-77183000D01*
G75*
G02*
X157096000Y-76945500I0J237500D01*
G01*
G37*
G36*
G01*
X176967000Y-80534500D02*
X176967000Y-81009500D01*
G75*
G02*
X176729500Y-81247000I-237500J0D01*
G01*
X176129500Y-81247000D01*
G75*
G02*
X175892000Y-81009500I0J237500D01*
G01*
X175892000Y-80534500D01*
G75*
G02*
X176129500Y-80297000I237500J0D01*
G01*
X176729500Y-80297000D01*
G75*
G02*
X176967000Y-80534500I0J-237500D01*
G01*
G37*
G36*
G01*
X178692000Y-80534500D02*
X178692000Y-81009500D01*
G75*
G02*
X178454500Y-81247000I-237500J0D01*
G01*
X177854500Y-81247000D01*
G75*
G02*
X177617000Y-81009500I0J237500D01*
G01*
X177617000Y-80534500D01*
G75*
G02*
X177854500Y-80297000I237500J0D01*
G01*
X178454500Y-80297000D01*
G75*
G02*
X178692000Y-80534500I0J-237500D01*
G01*
G37*
G36*
G01*
X171013000Y-76945500D02*
X171013000Y-76470500D01*
G75*
G02*
X171250500Y-76233000I237500J0D01*
G01*
X171850500Y-76233000D01*
G75*
G02*
X172088000Y-76470500I0J-237500D01*
G01*
X172088000Y-76945500D01*
G75*
G02*
X171850500Y-77183000I-237500J0D01*
G01*
X171250500Y-77183000D01*
G75*
G02*
X171013000Y-76945500I0J237500D01*
G01*
G37*
G36*
G01*
X169288000Y-76945500D02*
X169288000Y-76470500D01*
G75*
G02*
X169525500Y-76233000I237500J0D01*
G01*
X170125500Y-76233000D01*
G75*
G02*
X170363000Y-76470500I0J-237500D01*
G01*
X170363000Y-76945500D01*
G75*
G02*
X170125500Y-77183000I-237500J0D01*
G01*
X169525500Y-77183000D01*
G75*
G02*
X169288000Y-76945500I0J237500D01*
G01*
G37*
G36*
G01*
X139390000Y-103615500D02*
X139390000Y-103140500D01*
G75*
G02*
X139627500Y-102903000I237500J0D01*
G01*
X140227500Y-102903000D01*
G75*
G02*
X140465000Y-103140500I0J-237500D01*
G01*
X140465000Y-103615500D01*
G75*
G02*
X140227500Y-103853000I-237500J0D01*
G01*
X139627500Y-103853000D01*
G75*
G02*
X139390000Y-103615500I0J237500D01*
G01*
G37*
G36*
G01*
X137665000Y-103615500D02*
X137665000Y-103140500D01*
G75*
G02*
X137902500Y-102903000I237500J0D01*
G01*
X138502500Y-102903000D01*
G75*
G02*
X138740000Y-103140500I0J-237500D01*
G01*
X138740000Y-103615500D01*
G75*
G02*
X138502500Y-103853000I-237500J0D01*
G01*
X137902500Y-103853000D01*
G75*
G02*
X137665000Y-103615500I0J237500D01*
G01*
G37*
G36*
G01*
X170251000Y-86597500D02*
X170251000Y-86122500D01*
G75*
G02*
X170488500Y-85885000I237500J0D01*
G01*
X171088500Y-85885000D01*
G75*
G02*
X171326000Y-86122500I0J-237500D01*
G01*
X171326000Y-86597500D01*
G75*
G02*
X171088500Y-86835000I-237500J0D01*
G01*
X170488500Y-86835000D01*
G75*
G02*
X170251000Y-86597500I0J237500D01*
G01*
G37*
G36*
G01*
X168526000Y-86597500D02*
X168526000Y-86122500D01*
G75*
G02*
X168763500Y-85885000I237500J0D01*
G01*
X169363500Y-85885000D01*
G75*
G02*
X169601000Y-86122500I0J-237500D01*
G01*
X169601000Y-86597500D01*
G75*
G02*
X169363500Y-86835000I-237500J0D01*
G01*
X168763500Y-86835000D01*
G75*
G02*
X168526000Y-86597500I0J237500D01*
G01*
G37*
G36*
G01*
X166441000Y-75675500D02*
X166441000Y-75200500D01*
G75*
G02*
X166678500Y-74963000I237500J0D01*
G01*
X167278500Y-74963000D01*
G75*
G02*
X167516000Y-75200500I0J-237500D01*
G01*
X167516000Y-75675500D01*
G75*
G02*
X167278500Y-75913000I-237500J0D01*
G01*
X166678500Y-75913000D01*
G75*
G02*
X166441000Y-75675500I0J237500D01*
G01*
G37*
G36*
G01*
X164716000Y-75675500D02*
X164716000Y-75200500D01*
G75*
G02*
X164953500Y-74963000I237500J0D01*
G01*
X165553500Y-74963000D01*
G75*
G02*
X165791000Y-75200500I0J-237500D01*
G01*
X165791000Y-75675500D01*
G75*
G02*
X165553500Y-75913000I-237500J0D01*
G01*
X164953500Y-75913000D01*
G75*
G02*
X164716000Y-75675500I0J237500D01*
G01*
G37*
G36*
G01*
X153599000Y-75200500D02*
X153599000Y-75675500D01*
G75*
G02*
X153361500Y-75913000I-237500J0D01*
G01*
X152761500Y-75913000D01*
G75*
G02*
X152524000Y-75675500I0J237500D01*
G01*
X152524000Y-75200500D01*
G75*
G02*
X152761500Y-74963000I237500J0D01*
G01*
X153361500Y-74963000D01*
G75*
G02*
X153599000Y-75200500I0J-237500D01*
G01*
G37*
G36*
G01*
X155324000Y-75200500D02*
X155324000Y-75675500D01*
G75*
G02*
X155086500Y-75913000I-237500J0D01*
G01*
X154486500Y-75913000D01*
G75*
G02*
X154249000Y-75675500I0J237500D01*
G01*
X154249000Y-75200500D01*
G75*
G02*
X154486500Y-74963000I237500J0D01*
G01*
X155086500Y-74963000D01*
G75*
G02*
X155324000Y-75200500I0J-237500D01*
G01*
G37*
G36*
G01*
X166441000Y-72119500D02*
X166441000Y-71644500D01*
G75*
G02*
X166678500Y-71407000I237500J0D01*
G01*
X167278500Y-71407000D01*
G75*
G02*
X167516000Y-71644500I0J-237500D01*
G01*
X167516000Y-72119500D01*
G75*
G02*
X167278500Y-72357000I-237500J0D01*
G01*
X166678500Y-72357000D01*
G75*
G02*
X166441000Y-72119500I0J237500D01*
G01*
G37*
G36*
G01*
X164716000Y-72119500D02*
X164716000Y-71644500D01*
G75*
G02*
X164953500Y-71407000I237500J0D01*
G01*
X165553500Y-71407000D01*
G75*
G02*
X165791000Y-71644500I0J-237500D01*
G01*
X165791000Y-72119500D01*
G75*
G02*
X165553500Y-72357000I-237500J0D01*
G01*
X164953500Y-72357000D01*
G75*
G02*
X164716000Y-72119500I0J237500D01*
G01*
G37*
G36*
G01*
X153599000Y-71644500D02*
X153599000Y-72119500D01*
G75*
G02*
X153361500Y-72357000I-237500J0D01*
G01*
X152761500Y-72357000D01*
G75*
G02*
X152524000Y-72119500I0J237500D01*
G01*
X152524000Y-71644500D01*
G75*
G02*
X152761500Y-71407000I237500J0D01*
G01*
X153361500Y-71407000D01*
G75*
G02*
X153599000Y-71644500I0J-237500D01*
G01*
G37*
G36*
G01*
X155324000Y-71644500D02*
X155324000Y-72119500D01*
G75*
G02*
X155086500Y-72357000I-237500J0D01*
G01*
X154486500Y-72357000D01*
G75*
G02*
X154249000Y-72119500I0J237500D01*
G01*
X154249000Y-71644500D01*
G75*
G02*
X154486500Y-71407000I237500J0D01*
G01*
X155086500Y-71407000D01*
G75*
G02*
X155324000Y-71644500I0J-237500D01*
G01*
G37*
G36*
G01*
X137231000Y-72119500D02*
X137231000Y-71644500D01*
G75*
G02*
X137468500Y-71407000I237500J0D01*
G01*
X138068500Y-71407000D01*
G75*
G02*
X138306000Y-71644500I0J-237500D01*
G01*
X138306000Y-72119500D01*
G75*
G02*
X138068500Y-72357000I-237500J0D01*
G01*
X137468500Y-72357000D01*
G75*
G02*
X137231000Y-72119500I0J237500D01*
G01*
G37*
G36*
G01*
X135506000Y-72119500D02*
X135506000Y-71644500D01*
G75*
G02*
X135743500Y-71407000I237500J0D01*
G01*
X136343500Y-71407000D01*
G75*
G02*
X136581000Y-71644500I0J-237500D01*
G01*
X136581000Y-72119500D01*
G75*
G02*
X136343500Y-72357000I-237500J0D01*
G01*
X135743500Y-72357000D01*
G75*
G02*
X135506000Y-72119500I0J237500D01*
G01*
G37*
G36*
G01*
X136581000Y-73422500D02*
X136581000Y-73897500D01*
G75*
G02*
X136343500Y-74135000I-237500J0D01*
G01*
X135743500Y-74135000D01*
G75*
G02*
X135506000Y-73897500I0J237500D01*
G01*
X135506000Y-73422500D01*
G75*
G02*
X135743500Y-73185000I237500J0D01*
G01*
X136343500Y-73185000D01*
G75*
G02*
X136581000Y-73422500I0J-237500D01*
G01*
G37*
G36*
G01*
X138306000Y-73422500D02*
X138306000Y-73897500D01*
G75*
G02*
X138068500Y-74135000I-237500J0D01*
G01*
X137468500Y-74135000D01*
G75*
G02*
X137231000Y-73897500I0J237500D01*
G01*
X137231000Y-73422500D01*
G75*
G02*
X137468500Y-73185000I237500J0D01*
G01*
X138068500Y-73185000D01*
G75*
G02*
X138306000Y-73422500I0J-237500D01*
G01*
G37*
G36*
G01*
X136581000Y-75200500D02*
X136581000Y-75675500D01*
G75*
G02*
X136343500Y-75913000I-237500J0D01*
G01*
X135743500Y-75913000D01*
G75*
G02*
X135506000Y-75675500I0J237500D01*
G01*
X135506000Y-75200500D01*
G75*
G02*
X135743500Y-74963000I237500J0D01*
G01*
X136343500Y-74963000D01*
G75*
G02*
X136581000Y-75200500I0J-237500D01*
G01*
G37*
G36*
G01*
X138306000Y-75200500D02*
X138306000Y-75675500D01*
G75*
G02*
X138068500Y-75913000I-237500J0D01*
G01*
X137468500Y-75913000D01*
G75*
G02*
X137231000Y-75675500I0J237500D01*
G01*
X137231000Y-75200500D01*
G75*
G02*
X137468500Y-74963000I237500J0D01*
G01*
X138068500Y-74963000D01*
G75*
G02*
X138306000Y-75200500I0J-237500D01*
G01*
G37*
M02*
