G04 #@! TF.GenerationSoftware,KiCad,Pcbnew,(5.1.9)-1*
G04 #@! TF.CreationDate,2022-01-14T23:32:10+03:00*
G04 #@! TF.ProjectId,HW,48572e6b-6963-4616-945f-706362585858,rev?*
G04 #@! TF.SameCoordinates,Original*
G04 #@! TF.FileFunction,Copper,L1,Top*
G04 #@! TF.FilePolarity,Positive*
%FSLAX46Y46*%
G04 Gerber Fmt 4.6, Leading zero omitted, Abs format (unit mm)*
G04 Created by KiCad (PCBNEW (5.1.9)-1) date 2022-01-14 23:32:10*
%MOMM*%
%LPD*%
G01*
G04 APERTURE LIST*
G04 #@! TA.AperFunction,SMDPad,CuDef*
%ADD10C,0.100000*%
G04 #@! TD*
G04 #@! TA.AperFunction,SMDPad,CuDef*
%ADD11R,1.200000X0.900000*%
G04 #@! TD*
G04 #@! TA.AperFunction,SMDPad,CuDef*
%ADD12R,1.500000X2.000000*%
G04 #@! TD*
G04 #@! TA.AperFunction,SMDPad,CuDef*
%ADD13R,3.800000X2.000000*%
G04 #@! TD*
G04 #@! TA.AperFunction,SMDPad,CuDef*
%ADD14R,1.800000X2.000000*%
G04 #@! TD*
G04 #@! TA.AperFunction,ComponentPad*
%ADD15C,1.850000*%
G04 #@! TD*
G04 #@! TA.AperFunction,ComponentPad*
%ADD16R,1.850000X1.850000*%
G04 #@! TD*
G04 #@! TA.AperFunction,ComponentPad*
%ADD17O,1.700000X1.700000*%
G04 #@! TD*
G04 #@! TA.AperFunction,ComponentPad*
%ADD18R,1.700000X1.700000*%
G04 #@! TD*
G04 #@! TA.AperFunction,ComponentPad*
%ADD19R,3.500000X3.500000*%
G04 #@! TD*
G04 #@! TA.AperFunction,SMDPad,CuDef*
%ADD20R,5.080000X1.500000*%
G04 #@! TD*
G04 #@! TA.AperFunction,ViaPad*
%ADD21C,1.000000*%
G04 #@! TD*
G04 #@! TA.AperFunction,ViaPad*
%ADD22C,0.800000*%
G04 #@! TD*
G04 #@! TA.AperFunction,Conductor*
%ADD23C,0.508000*%
G04 #@! TD*
G04 #@! TA.AperFunction,Conductor*
%ADD24C,0.254000*%
G04 #@! TD*
G04 #@! TA.AperFunction,Conductor*
%ADD25C,1.000000*%
G04 #@! TD*
G04 #@! TA.AperFunction,Conductor*
%ADD26C,0.100000*%
G04 #@! TD*
G04 APERTURE END LIST*
G04 #@! TA.AperFunction,SMDPad,CuDef*
D10*
G36*
X166512000Y-88150602D02*
G01*
X166536534Y-88150602D01*
X166585365Y-88155412D01*
X166633490Y-88164984D01*
X166680445Y-88179228D01*
X166725778Y-88198005D01*
X166769051Y-88221136D01*
X166809850Y-88248396D01*
X166847779Y-88279524D01*
X166882476Y-88314221D01*
X166913604Y-88352150D01*
X166940864Y-88392949D01*
X166963995Y-88436222D01*
X166982772Y-88481555D01*
X166997016Y-88528510D01*
X167006588Y-88576635D01*
X167011398Y-88625466D01*
X167011398Y-88650000D01*
X167012000Y-88650000D01*
X167012000Y-89150000D01*
X167011398Y-89150000D01*
X167011398Y-89174534D01*
X167006588Y-89223365D01*
X166997016Y-89271490D01*
X166982772Y-89318445D01*
X166963995Y-89363778D01*
X166940864Y-89407051D01*
X166913604Y-89447850D01*
X166882476Y-89485779D01*
X166847779Y-89520476D01*
X166809850Y-89551604D01*
X166769051Y-89578864D01*
X166725778Y-89601995D01*
X166680445Y-89620772D01*
X166633490Y-89635016D01*
X166585365Y-89644588D01*
X166536534Y-89649398D01*
X166512000Y-89649398D01*
X166512000Y-89650000D01*
X166012000Y-89650000D01*
X166012000Y-88150000D01*
X166512000Y-88150000D01*
X166512000Y-88150602D01*
G37*
G04 #@! TD.AperFunction*
G04 #@! TA.AperFunction,SMDPad,CuDef*
G36*
X165712000Y-89650000D02*
G01*
X165212000Y-89650000D01*
X165212000Y-89649398D01*
X165187466Y-89649398D01*
X165138635Y-89644588D01*
X165090510Y-89635016D01*
X165043555Y-89620772D01*
X164998222Y-89601995D01*
X164954949Y-89578864D01*
X164914150Y-89551604D01*
X164876221Y-89520476D01*
X164841524Y-89485779D01*
X164810396Y-89447850D01*
X164783136Y-89407051D01*
X164760005Y-89363778D01*
X164741228Y-89318445D01*
X164726984Y-89271490D01*
X164717412Y-89223365D01*
X164712602Y-89174534D01*
X164712602Y-89150000D01*
X164712000Y-89150000D01*
X164712000Y-88650000D01*
X164712602Y-88650000D01*
X164712602Y-88625466D01*
X164717412Y-88576635D01*
X164726984Y-88528510D01*
X164741228Y-88481555D01*
X164760005Y-88436222D01*
X164783136Y-88392949D01*
X164810396Y-88352150D01*
X164841524Y-88314221D01*
X164876221Y-88279524D01*
X164914150Y-88248396D01*
X164954949Y-88221136D01*
X164998222Y-88198005D01*
X165043555Y-88179228D01*
X165090510Y-88164984D01*
X165138635Y-88155412D01*
X165187466Y-88150602D01*
X165212000Y-88150602D01*
X165212000Y-88150000D01*
X165712000Y-88150000D01*
X165712000Y-89650000D01*
G37*
G04 #@! TD.AperFunction*
D11*
X181102000Y-90042000D03*
X181102000Y-86742000D03*
X183896000Y-86742000D03*
X183896000Y-90042000D03*
G04 #@! TA.AperFunction,SMDPad,CuDef*
G36*
G01*
X165584000Y-91463000D02*
X165584000Y-91163000D01*
G75*
G02*
X165734000Y-91013000I150000J0D01*
G01*
X167384000Y-91013000D01*
G75*
G02*
X167534000Y-91163000I0J-150000D01*
G01*
X167534000Y-91463000D01*
G75*
G02*
X167384000Y-91613000I-150000J0D01*
G01*
X165734000Y-91613000D01*
G75*
G02*
X165584000Y-91463000I0J150000D01*
G01*
G37*
G04 #@! TD.AperFunction*
G04 #@! TA.AperFunction,SMDPad,CuDef*
G36*
G01*
X165584000Y-92733000D02*
X165584000Y-92433000D01*
G75*
G02*
X165734000Y-92283000I150000J0D01*
G01*
X167384000Y-92283000D01*
G75*
G02*
X167534000Y-92433000I0J-150000D01*
G01*
X167534000Y-92733000D01*
G75*
G02*
X167384000Y-92883000I-150000J0D01*
G01*
X165734000Y-92883000D01*
G75*
G02*
X165584000Y-92733000I0J150000D01*
G01*
G37*
G04 #@! TD.AperFunction*
G04 #@! TA.AperFunction,SMDPad,CuDef*
G36*
G01*
X165584000Y-94003000D02*
X165584000Y-93703000D01*
G75*
G02*
X165734000Y-93553000I150000J0D01*
G01*
X167384000Y-93553000D01*
G75*
G02*
X167534000Y-93703000I0J-150000D01*
G01*
X167534000Y-94003000D01*
G75*
G02*
X167384000Y-94153000I-150000J0D01*
G01*
X165734000Y-94153000D01*
G75*
G02*
X165584000Y-94003000I0J150000D01*
G01*
G37*
G04 #@! TD.AperFunction*
G04 #@! TA.AperFunction,SMDPad,CuDef*
G36*
G01*
X165584000Y-95273000D02*
X165584000Y-94973000D01*
G75*
G02*
X165734000Y-94823000I150000J0D01*
G01*
X167384000Y-94823000D01*
G75*
G02*
X167534000Y-94973000I0J-150000D01*
G01*
X167534000Y-95273000D01*
G75*
G02*
X167384000Y-95423000I-150000J0D01*
G01*
X165734000Y-95423000D01*
G75*
G02*
X165584000Y-95273000I0J150000D01*
G01*
G37*
G04 #@! TD.AperFunction*
G04 #@! TA.AperFunction,SMDPad,CuDef*
G36*
G01*
X160634000Y-95273000D02*
X160634000Y-94973000D01*
G75*
G02*
X160784000Y-94823000I150000J0D01*
G01*
X162434000Y-94823000D01*
G75*
G02*
X162584000Y-94973000I0J-150000D01*
G01*
X162584000Y-95273000D01*
G75*
G02*
X162434000Y-95423000I-150000J0D01*
G01*
X160784000Y-95423000D01*
G75*
G02*
X160634000Y-95273000I0J150000D01*
G01*
G37*
G04 #@! TD.AperFunction*
G04 #@! TA.AperFunction,SMDPad,CuDef*
G36*
G01*
X160634000Y-94003000D02*
X160634000Y-93703000D01*
G75*
G02*
X160784000Y-93553000I150000J0D01*
G01*
X162434000Y-93553000D01*
G75*
G02*
X162584000Y-93703000I0J-150000D01*
G01*
X162584000Y-94003000D01*
G75*
G02*
X162434000Y-94153000I-150000J0D01*
G01*
X160784000Y-94153000D01*
G75*
G02*
X160634000Y-94003000I0J150000D01*
G01*
G37*
G04 #@! TD.AperFunction*
G04 #@! TA.AperFunction,SMDPad,CuDef*
G36*
G01*
X160634000Y-92733000D02*
X160634000Y-92433000D01*
G75*
G02*
X160784000Y-92283000I150000J0D01*
G01*
X162434000Y-92283000D01*
G75*
G02*
X162584000Y-92433000I0J-150000D01*
G01*
X162584000Y-92733000D01*
G75*
G02*
X162434000Y-92883000I-150000J0D01*
G01*
X160784000Y-92883000D01*
G75*
G02*
X160634000Y-92733000I0J150000D01*
G01*
G37*
G04 #@! TD.AperFunction*
G04 #@! TA.AperFunction,SMDPad,CuDef*
G36*
G01*
X160634000Y-91463000D02*
X160634000Y-91163000D01*
G75*
G02*
X160784000Y-91013000I150000J0D01*
G01*
X162434000Y-91013000D01*
G75*
G02*
X162584000Y-91163000I0J-150000D01*
G01*
X162584000Y-91463000D01*
G75*
G02*
X162434000Y-91613000I-150000J0D01*
G01*
X160784000Y-91613000D01*
G75*
G02*
X160634000Y-91463000I0J150000D01*
G01*
G37*
G04 #@! TD.AperFunction*
D12*
X124728000Y-98196000D03*
X120128000Y-98196000D03*
X122428000Y-98196000D03*
D13*
X122428000Y-104496000D03*
D12*
X115393500Y-98196000D03*
X110793500Y-98196000D03*
X113093500Y-98196000D03*
D13*
X113093500Y-104496000D03*
G04 #@! TA.AperFunction,SMDPad,CuDef*
G36*
G01*
X156557000Y-82392000D02*
X156557000Y-82192000D01*
G75*
G02*
X156657000Y-82092000I100000J0D01*
G01*
X157932000Y-82092000D01*
G75*
G02*
X158032000Y-82192000I0J-100000D01*
G01*
X158032000Y-82392000D01*
G75*
G02*
X157932000Y-82492000I-100000J0D01*
G01*
X156657000Y-82492000D01*
G75*
G02*
X156557000Y-82392000I0J100000D01*
G01*
G37*
G04 #@! TD.AperFunction*
G04 #@! TA.AperFunction,SMDPad,CuDef*
G36*
G01*
X156557000Y-83042000D02*
X156557000Y-82842000D01*
G75*
G02*
X156657000Y-82742000I100000J0D01*
G01*
X157932000Y-82742000D01*
G75*
G02*
X158032000Y-82842000I0J-100000D01*
G01*
X158032000Y-83042000D01*
G75*
G02*
X157932000Y-83142000I-100000J0D01*
G01*
X156657000Y-83142000D01*
G75*
G02*
X156557000Y-83042000I0J100000D01*
G01*
G37*
G04 #@! TD.AperFunction*
G04 #@! TA.AperFunction,SMDPad,CuDef*
G36*
G01*
X156557000Y-83692000D02*
X156557000Y-83492000D01*
G75*
G02*
X156657000Y-83392000I100000J0D01*
G01*
X157932000Y-83392000D01*
G75*
G02*
X158032000Y-83492000I0J-100000D01*
G01*
X158032000Y-83692000D01*
G75*
G02*
X157932000Y-83792000I-100000J0D01*
G01*
X156657000Y-83792000D01*
G75*
G02*
X156557000Y-83692000I0J100000D01*
G01*
G37*
G04 #@! TD.AperFunction*
G04 #@! TA.AperFunction,SMDPad,CuDef*
G36*
G01*
X156557000Y-84342000D02*
X156557000Y-84142000D01*
G75*
G02*
X156657000Y-84042000I100000J0D01*
G01*
X157932000Y-84042000D01*
G75*
G02*
X158032000Y-84142000I0J-100000D01*
G01*
X158032000Y-84342000D01*
G75*
G02*
X157932000Y-84442000I-100000J0D01*
G01*
X156657000Y-84442000D01*
G75*
G02*
X156557000Y-84342000I0J100000D01*
G01*
G37*
G04 #@! TD.AperFunction*
G04 #@! TA.AperFunction,SMDPad,CuDef*
G36*
G01*
X156557000Y-84992000D02*
X156557000Y-84792000D01*
G75*
G02*
X156657000Y-84692000I100000J0D01*
G01*
X157932000Y-84692000D01*
G75*
G02*
X158032000Y-84792000I0J-100000D01*
G01*
X158032000Y-84992000D01*
G75*
G02*
X157932000Y-85092000I-100000J0D01*
G01*
X156657000Y-85092000D01*
G75*
G02*
X156557000Y-84992000I0J100000D01*
G01*
G37*
G04 #@! TD.AperFunction*
G04 #@! TA.AperFunction,SMDPad,CuDef*
G36*
G01*
X156557000Y-85642000D02*
X156557000Y-85442000D01*
G75*
G02*
X156657000Y-85342000I100000J0D01*
G01*
X157932000Y-85342000D01*
G75*
G02*
X158032000Y-85442000I0J-100000D01*
G01*
X158032000Y-85642000D01*
G75*
G02*
X157932000Y-85742000I-100000J0D01*
G01*
X156657000Y-85742000D01*
G75*
G02*
X156557000Y-85642000I0J100000D01*
G01*
G37*
G04 #@! TD.AperFunction*
G04 #@! TA.AperFunction,SMDPad,CuDef*
G36*
G01*
X156557000Y-86292000D02*
X156557000Y-86092000D01*
G75*
G02*
X156657000Y-85992000I100000J0D01*
G01*
X157932000Y-85992000D01*
G75*
G02*
X158032000Y-86092000I0J-100000D01*
G01*
X158032000Y-86292000D01*
G75*
G02*
X157932000Y-86392000I-100000J0D01*
G01*
X156657000Y-86392000D01*
G75*
G02*
X156557000Y-86292000I0J100000D01*
G01*
G37*
G04 #@! TD.AperFunction*
G04 #@! TA.AperFunction,SMDPad,CuDef*
G36*
G01*
X156557000Y-86942000D02*
X156557000Y-86742000D01*
G75*
G02*
X156657000Y-86642000I100000J0D01*
G01*
X157932000Y-86642000D01*
G75*
G02*
X158032000Y-86742000I0J-100000D01*
G01*
X158032000Y-86942000D01*
G75*
G02*
X157932000Y-87042000I-100000J0D01*
G01*
X156657000Y-87042000D01*
G75*
G02*
X156557000Y-86942000I0J100000D01*
G01*
G37*
G04 #@! TD.AperFunction*
G04 #@! TA.AperFunction,SMDPad,CuDef*
G36*
G01*
X156557000Y-87592000D02*
X156557000Y-87392000D01*
G75*
G02*
X156657000Y-87292000I100000J0D01*
G01*
X157932000Y-87292000D01*
G75*
G02*
X158032000Y-87392000I0J-100000D01*
G01*
X158032000Y-87592000D01*
G75*
G02*
X157932000Y-87692000I-100000J0D01*
G01*
X156657000Y-87692000D01*
G75*
G02*
X156557000Y-87592000I0J100000D01*
G01*
G37*
G04 #@! TD.AperFunction*
G04 #@! TA.AperFunction,SMDPad,CuDef*
G36*
G01*
X156557000Y-88242000D02*
X156557000Y-88042000D01*
G75*
G02*
X156657000Y-87942000I100000J0D01*
G01*
X157932000Y-87942000D01*
G75*
G02*
X158032000Y-88042000I0J-100000D01*
G01*
X158032000Y-88242000D01*
G75*
G02*
X157932000Y-88342000I-100000J0D01*
G01*
X156657000Y-88342000D01*
G75*
G02*
X156557000Y-88242000I0J100000D01*
G01*
G37*
G04 #@! TD.AperFunction*
G04 #@! TA.AperFunction,SMDPad,CuDef*
G36*
G01*
X150832000Y-88242000D02*
X150832000Y-88042000D01*
G75*
G02*
X150932000Y-87942000I100000J0D01*
G01*
X152207000Y-87942000D01*
G75*
G02*
X152307000Y-88042000I0J-100000D01*
G01*
X152307000Y-88242000D01*
G75*
G02*
X152207000Y-88342000I-100000J0D01*
G01*
X150932000Y-88342000D01*
G75*
G02*
X150832000Y-88242000I0J100000D01*
G01*
G37*
G04 #@! TD.AperFunction*
G04 #@! TA.AperFunction,SMDPad,CuDef*
G36*
G01*
X150832000Y-87592000D02*
X150832000Y-87392000D01*
G75*
G02*
X150932000Y-87292000I100000J0D01*
G01*
X152207000Y-87292000D01*
G75*
G02*
X152307000Y-87392000I0J-100000D01*
G01*
X152307000Y-87592000D01*
G75*
G02*
X152207000Y-87692000I-100000J0D01*
G01*
X150932000Y-87692000D01*
G75*
G02*
X150832000Y-87592000I0J100000D01*
G01*
G37*
G04 #@! TD.AperFunction*
G04 #@! TA.AperFunction,SMDPad,CuDef*
G36*
G01*
X150832000Y-86942000D02*
X150832000Y-86742000D01*
G75*
G02*
X150932000Y-86642000I100000J0D01*
G01*
X152207000Y-86642000D01*
G75*
G02*
X152307000Y-86742000I0J-100000D01*
G01*
X152307000Y-86942000D01*
G75*
G02*
X152207000Y-87042000I-100000J0D01*
G01*
X150932000Y-87042000D01*
G75*
G02*
X150832000Y-86942000I0J100000D01*
G01*
G37*
G04 #@! TD.AperFunction*
G04 #@! TA.AperFunction,SMDPad,CuDef*
G36*
G01*
X150832000Y-86292000D02*
X150832000Y-86092000D01*
G75*
G02*
X150932000Y-85992000I100000J0D01*
G01*
X152207000Y-85992000D01*
G75*
G02*
X152307000Y-86092000I0J-100000D01*
G01*
X152307000Y-86292000D01*
G75*
G02*
X152207000Y-86392000I-100000J0D01*
G01*
X150932000Y-86392000D01*
G75*
G02*
X150832000Y-86292000I0J100000D01*
G01*
G37*
G04 #@! TD.AperFunction*
G04 #@! TA.AperFunction,SMDPad,CuDef*
G36*
G01*
X150832000Y-85642000D02*
X150832000Y-85442000D01*
G75*
G02*
X150932000Y-85342000I100000J0D01*
G01*
X152207000Y-85342000D01*
G75*
G02*
X152307000Y-85442000I0J-100000D01*
G01*
X152307000Y-85642000D01*
G75*
G02*
X152207000Y-85742000I-100000J0D01*
G01*
X150932000Y-85742000D01*
G75*
G02*
X150832000Y-85642000I0J100000D01*
G01*
G37*
G04 #@! TD.AperFunction*
G04 #@! TA.AperFunction,SMDPad,CuDef*
G36*
G01*
X150832000Y-84992000D02*
X150832000Y-84792000D01*
G75*
G02*
X150932000Y-84692000I100000J0D01*
G01*
X152207000Y-84692000D01*
G75*
G02*
X152307000Y-84792000I0J-100000D01*
G01*
X152307000Y-84992000D01*
G75*
G02*
X152207000Y-85092000I-100000J0D01*
G01*
X150932000Y-85092000D01*
G75*
G02*
X150832000Y-84992000I0J100000D01*
G01*
G37*
G04 #@! TD.AperFunction*
G04 #@! TA.AperFunction,SMDPad,CuDef*
G36*
G01*
X150832000Y-84342000D02*
X150832000Y-84142000D01*
G75*
G02*
X150932000Y-84042000I100000J0D01*
G01*
X152207000Y-84042000D01*
G75*
G02*
X152307000Y-84142000I0J-100000D01*
G01*
X152307000Y-84342000D01*
G75*
G02*
X152207000Y-84442000I-100000J0D01*
G01*
X150932000Y-84442000D01*
G75*
G02*
X150832000Y-84342000I0J100000D01*
G01*
G37*
G04 #@! TD.AperFunction*
G04 #@! TA.AperFunction,SMDPad,CuDef*
G36*
G01*
X150832000Y-83692000D02*
X150832000Y-83492000D01*
G75*
G02*
X150932000Y-83392000I100000J0D01*
G01*
X152207000Y-83392000D01*
G75*
G02*
X152307000Y-83492000I0J-100000D01*
G01*
X152307000Y-83692000D01*
G75*
G02*
X152207000Y-83792000I-100000J0D01*
G01*
X150932000Y-83792000D01*
G75*
G02*
X150832000Y-83692000I0J100000D01*
G01*
G37*
G04 #@! TD.AperFunction*
G04 #@! TA.AperFunction,SMDPad,CuDef*
G36*
G01*
X150832000Y-83042000D02*
X150832000Y-82842000D01*
G75*
G02*
X150932000Y-82742000I100000J0D01*
G01*
X152207000Y-82742000D01*
G75*
G02*
X152307000Y-82842000I0J-100000D01*
G01*
X152307000Y-83042000D01*
G75*
G02*
X152207000Y-83142000I-100000J0D01*
G01*
X150932000Y-83142000D01*
G75*
G02*
X150832000Y-83042000I0J100000D01*
G01*
G37*
G04 #@! TD.AperFunction*
G04 #@! TA.AperFunction,SMDPad,CuDef*
G36*
G01*
X150832000Y-82392000D02*
X150832000Y-82192000D01*
G75*
G02*
X150932000Y-82092000I100000J0D01*
G01*
X152207000Y-82092000D01*
G75*
G02*
X152307000Y-82192000I0J-100000D01*
G01*
X152307000Y-82392000D01*
G75*
G02*
X152207000Y-82492000I-100000J0D01*
G01*
X150932000Y-82492000D01*
G75*
G02*
X150832000Y-82392000I0J100000D01*
G01*
G37*
G04 #@! TD.AperFunction*
G04 #@! TA.AperFunction,SMDPad,CuDef*
G36*
G01*
X145127000Y-78455000D02*
X145127000Y-78255000D01*
G75*
G02*
X145227000Y-78155000I100000J0D01*
G01*
X146502000Y-78155000D01*
G75*
G02*
X146602000Y-78255000I0J-100000D01*
G01*
X146602000Y-78455000D01*
G75*
G02*
X146502000Y-78555000I-100000J0D01*
G01*
X145227000Y-78555000D01*
G75*
G02*
X145127000Y-78455000I0J100000D01*
G01*
G37*
G04 #@! TD.AperFunction*
G04 #@! TA.AperFunction,SMDPad,CuDef*
G36*
G01*
X145127000Y-79105000D02*
X145127000Y-78905000D01*
G75*
G02*
X145227000Y-78805000I100000J0D01*
G01*
X146502000Y-78805000D01*
G75*
G02*
X146602000Y-78905000I0J-100000D01*
G01*
X146602000Y-79105000D01*
G75*
G02*
X146502000Y-79205000I-100000J0D01*
G01*
X145227000Y-79205000D01*
G75*
G02*
X145127000Y-79105000I0J100000D01*
G01*
G37*
G04 #@! TD.AperFunction*
G04 #@! TA.AperFunction,SMDPad,CuDef*
G36*
G01*
X145127000Y-79755000D02*
X145127000Y-79555000D01*
G75*
G02*
X145227000Y-79455000I100000J0D01*
G01*
X146502000Y-79455000D01*
G75*
G02*
X146602000Y-79555000I0J-100000D01*
G01*
X146602000Y-79755000D01*
G75*
G02*
X146502000Y-79855000I-100000J0D01*
G01*
X145227000Y-79855000D01*
G75*
G02*
X145127000Y-79755000I0J100000D01*
G01*
G37*
G04 #@! TD.AperFunction*
G04 #@! TA.AperFunction,SMDPad,CuDef*
G36*
G01*
X145127000Y-80405000D02*
X145127000Y-80205000D01*
G75*
G02*
X145227000Y-80105000I100000J0D01*
G01*
X146502000Y-80105000D01*
G75*
G02*
X146602000Y-80205000I0J-100000D01*
G01*
X146602000Y-80405000D01*
G75*
G02*
X146502000Y-80505000I-100000J0D01*
G01*
X145227000Y-80505000D01*
G75*
G02*
X145127000Y-80405000I0J100000D01*
G01*
G37*
G04 #@! TD.AperFunction*
G04 #@! TA.AperFunction,SMDPad,CuDef*
G36*
G01*
X145127000Y-81055000D02*
X145127000Y-80855000D01*
G75*
G02*
X145227000Y-80755000I100000J0D01*
G01*
X146502000Y-80755000D01*
G75*
G02*
X146602000Y-80855000I0J-100000D01*
G01*
X146602000Y-81055000D01*
G75*
G02*
X146502000Y-81155000I-100000J0D01*
G01*
X145227000Y-81155000D01*
G75*
G02*
X145127000Y-81055000I0J100000D01*
G01*
G37*
G04 #@! TD.AperFunction*
G04 #@! TA.AperFunction,SMDPad,CuDef*
G36*
G01*
X145127000Y-81705000D02*
X145127000Y-81505000D01*
G75*
G02*
X145227000Y-81405000I100000J0D01*
G01*
X146502000Y-81405000D01*
G75*
G02*
X146602000Y-81505000I0J-100000D01*
G01*
X146602000Y-81705000D01*
G75*
G02*
X146502000Y-81805000I-100000J0D01*
G01*
X145227000Y-81805000D01*
G75*
G02*
X145127000Y-81705000I0J100000D01*
G01*
G37*
G04 #@! TD.AperFunction*
G04 #@! TA.AperFunction,SMDPad,CuDef*
G36*
G01*
X145127000Y-82355000D02*
X145127000Y-82155000D01*
G75*
G02*
X145227000Y-82055000I100000J0D01*
G01*
X146502000Y-82055000D01*
G75*
G02*
X146602000Y-82155000I0J-100000D01*
G01*
X146602000Y-82355000D01*
G75*
G02*
X146502000Y-82455000I-100000J0D01*
G01*
X145227000Y-82455000D01*
G75*
G02*
X145127000Y-82355000I0J100000D01*
G01*
G37*
G04 #@! TD.AperFunction*
G04 #@! TA.AperFunction,SMDPad,CuDef*
G36*
G01*
X145127000Y-83005000D02*
X145127000Y-82805000D01*
G75*
G02*
X145227000Y-82705000I100000J0D01*
G01*
X146502000Y-82705000D01*
G75*
G02*
X146602000Y-82805000I0J-100000D01*
G01*
X146602000Y-83005000D01*
G75*
G02*
X146502000Y-83105000I-100000J0D01*
G01*
X145227000Y-83105000D01*
G75*
G02*
X145127000Y-83005000I0J100000D01*
G01*
G37*
G04 #@! TD.AperFunction*
G04 #@! TA.AperFunction,SMDPad,CuDef*
G36*
G01*
X145127000Y-83655000D02*
X145127000Y-83455000D01*
G75*
G02*
X145227000Y-83355000I100000J0D01*
G01*
X146502000Y-83355000D01*
G75*
G02*
X146602000Y-83455000I0J-100000D01*
G01*
X146602000Y-83655000D01*
G75*
G02*
X146502000Y-83755000I-100000J0D01*
G01*
X145227000Y-83755000D01*
G75*
G02*
X145127000Y-83655000I0J100000D01*
G01*
G37*
G04 #@! TD.AperFunction*
G04 #@! TA.AperFunction,SMDPad,CuDef*
G36*
G01*
X145127000Y-84305000D02*
X145127000Y-84105000D01*
G75*
G02*
X145227000Y-84005000I100000J0D01*
G01*
X146502000Y-84005000D01*
G75*
G02*
X146602000Y-84105000I0J-100000D01*
G01*
X146602000Y-84305000D01*
G75*
G02*
X146502000Y-84405000I-100000J0D01*
G01*
X145227000Y-84405000D01*
G75*
G02*
X145127000Y-84305000I0J100000D01*
G01*
G37*
G04 #@! TD.AperFunction*
G04 #@! TA.AperFunction,SMDPad,CuDef*
G36*
G01*
X139402000Y-84305000D02*
X139402000Y-84105000D01*
G75*
G02*
X139502000Y-84005000I100000J0D01*
G01*
X140777000Y-84005000D01*
G75*
G02*
X140877000Y-84105000I0J-100000D01*
G01*
X140877000Y-84305000D01*
G75*
G02*
X140777000Y-84405000I-100000J0D01*
G01*
X139502000Y-84405000D01*
G75*
G02*
X139402000Y-84305000I0J100000D01*
G01*
G37*
G04 #@! TD.AperFunction*
G04 #@! TA.AperFunction,SMDPad,CuDef*
G36*
G01*
X139402000Y-83655000D02*
X139402000Y-83455000D01*
G75*
G02*
X139502000Y-83355000I100000J0D01*
G01*
X140777000Y-83355000D01*
G75*
G02*
X140877000Y-83455000I0J-100000D01*
G01*
X140877000Y-83655000D01*
G75*
G02*
X140777000Y-83755000I-100000J0D01*
G01*
X139502000Y-83755000D01*
G75*
G02*
X139402000Y-83655000I0J100000D01*
G01*
G37*
G04 #@! TD.AperFunction*
G04 #@! TA.AperFunction,SMDPad,CuDef*
G36*
G01*
X139402000Y-83005000D02*
X139402000Y-82805000D01*
G75*
G02*
X139502000Y-82705000I100000J0D01*
G01*
X140777000Y-82705000D01*
G75*
G02*
X140877000Y-82805000I0J-100000D01*
G01*
X140877000Y-83005000D01*
G75*
G02*
X140777000Y-83105000I-100000J0D01*
G01*
X139502000Y-83105000D01*
G75*
G02*
X139402000Y-83005000I0J100000D01*
G01*
G37*
G04 #@! TD.AperFunction*
G04 #@! TA.AperFunction,SMDPad,CuDef*
G36*
G01*
X139402000Y-82355000D02*
X139402000Y-82155000D01*
G75*
G02*
X139502000Y-82055000I100000J0D01*
G01*
X140777000Y-82055000D01*
G75*
G02*
X140877000Y-82155000I0J-100000D01*
G01*
X140877000Y-82355000D01*
G75*
G02*
X140777000Y-82455000I-100000J0D01*
G01*
X139502000Y-82455000D01*
G75*
G02*
X139402000Y-82355000I0J100000D01*
G01*
G37*
G04 #@! TD.AperFunction*
G04 #@! TA.AperFunction,SMDPad,CuDef*
G36*
G01*
X139402000Y-81705000D02*
X139402000Y-81505000D01*
G75*
G02*
X139502000Y-81405000I100000J0D01*
G01*
X140777000Y-81405000D01*
G75*
G02*
X140877000Y-81505000I0J-100000D01*
G01*
X140877000Y-81705000D01*
G75*
G02*
X140777000Y-81805000I-100000J0D01*
G01*
X139502000Y-81805000D01*
G75*
G02*
X139402000Y-81705000I0J100000D01*
G01*
G37*
G04 #@! TD.AperFunction*
G04 #@! TA.AperFunction,SMDPad,CuDef*
G36*
G01*
X139402000Y-81055000D02*
X139402000Y-80855000D01*
G75*
G02*
X139502000Y-80755000I100000J0D01*
G01*
X140777000Y-80755000D01*
G75*
G02*
X140877000Y-80855000I0J-100000D01*
G01*
X140877000Y-81055000D01*
G75*
G02*
X140777000Y-81155000I-100000J0D01*
G01*
X139502000Y-81155000D01*
G75*
G02*
X139402000Y-81055000I0J100000D01*
G01*
G37*
G04 #@! TD.AperFunction*
G04 #@! TA.AperFunction,SMDPad,CuDef*
G36*
G01*
X139402000Y-80405000D02*
X139402000Y-80205000D01*
G75*
G02*
X139502000Y-80105000I100000J0D01*
G01*
X140777000Y-80105000D01*
G75*
G02*
X140877000Y-80205000I0J-100000D01*
G01*
X140877000Y-80405000D01*
G75*
G02*
X140777000Y-80505000I-100000J0D01*
G01*
X139502000Y-80505000D01*
G75*
G02*
X139402000Y-80405000I0J100000D01*
G01*
G37*
G04 #@! TD.AperFunction*
G04 #@! TA.AperFunction,SMDPad,CuDef*
G36*
G01*
X139402000Y-79755000D02*
X139402000Y-79555000D01*
G75*
G02*
X139502000Y-79455000I100000J0D01*
G01*
X140777000Y-79455000D01*
G75*
G02*
X140877000Y-79555000I0J-100000D01*
G01*
X140877000Y-79755000D01*
G75*
G02*
X140777000Y-79855000I-100000J0D01*
G01*
X139502000Y-79855000D01*
G75*
G02*
X139402000Y-79755000I0J100000D01*
G01*
G37*
G04 #@! TD.AperFunction*
G04 #@! TA.AperFunction,SMDPad,CuDef*
G36*
G01*
X139402000Y-79105000D02*
X139402000Y-78905000D01*
G75*
G02*
X139502000Y-78805000I100000J0D01*
G01*
X140777000Y-78805000D01*
G75*
G02*
X140877000Y-78905000I0J-100000D01*
G01*
X140877000Y-79105000D01*
G75*
G02*
X140777000Y-79205000I-100000J0D01*
G01*
X139502000Y-79205000D01*
G75*
G02*
X139402000Y-79105000I0J100000D01*
G01*
G37*
G04 #@! TD.AperFunction*
G04 #@! TA.AperFunction,SMDPad,CuDef*
G36*
G01*
X139402000Y-78455000D02*
X139402000Y-78255000D01*
G75*
G02*
X139502000Y-78155000I100000J0D01*
G01*
X140777000Y-78155000D01*
G75*
G02*
X140877000Y-78255000I0J-100000D01*
G01*
X140877000Y-78455000D01*
G75*
G02*
X140777000Y-78555000I-100000J0D01*
G01*
X139502000Y-78555000D01*
G75*
G02*
X139402000Y-78455000I0J100000D01*
G01*
G37*
G04 #@! TD.AperFunction*
G04 #@! TA.AperFunction,SMDPad,CuDef*
G36*
G01*
X162584000Y-86337000D02*
X162584000Y-86637000D01*
G75*
G02*
X162434000Y-86787000I-150000J0D01*
G01*
X160784000Y-86787000D01*
G75*
G02*
X160634000Y-86637000I0J150000D01*
G01*
X160634000Y-86337000D01*
G75*
G02*
X160784000Y-86187000I150000J0D01*
G01*
X162434000Y-86187000D01*
G75*
G02*
X162584000Y-86337000I0J-150000D01*
G01*
G37*
G04 #@! TD.AperFunction*
G04 #@! TA.AperFunction,SMDPad,CuDef*
G36*
G01*
X162584000Y-85067000D02*
X162584000Y-85367000D01*
G75*
G02*
X162434000Y-85517000I-150000J0D01*
G01*
X160784000Y-85517000D01*
G75*
G02*
X160634000Y-85367000I0J150000D01*
G01*
X160634000Y-85067000D01*
G75*
G02*
X160784000Y-84917000I150000J0D01*
G01*
X162434000Y-84917000D01*
G75*
G02*
X162584000Y-85067000I0J-150000D01*
G01*
G37*
G04 #@! TD.AperFunction*
G04 #@! TA.AperFunction,SMDPad,CuDef*
G36*
G01*
X162584000Y-83797000D02*
X162584000Y-84097000D01*
G75*
G02*
X162434000Y-84247000I-150000J0D01*
G01*
X160784000Y-84247000D01*
G75*
G02*
X160634000Y-84097000I0J150000D01*
G01*
X160634000Y-83797000D01*
G75*
G02*
X160784000Y-83647000I150000J0D01*
G01*
X162434000Y-83647000D01*
G75*
G02*
X162584000Y-83797000I0J-150000D01*
G01*
G37*
G04 #@! TD.AperFunction*
G04 #@! TA.AperFunction,SMDPad,CuDef*
G36*
G01*
X162584000Y-82527000D02*
X162584000Y-82827000D01*
G75*
G02*
X162434000Y-82977000I-150000J0D01*
G01*
X160784000Y-82977000D01*
G75*
G02*
X160634000Y-82827000I0J150000D01*
G01*
X160634000Y-82527000D01*
G75*
G02*
X160784000Y-82377000I150000J0D01*
G01*
X162434000Y-82377000D01*
G75*
G02*
X162584000Y-82527000I0J-150000D01*
G01*
G37*
G04 #@! TD.AperFunction*
G04 #@! TA.AperFunction,SMDPad,CuDef*
G36*
G01*
X167534000Y-82527000D02*
X167534000Y-82827000D01*
G75*
G02*
X167384000Y-82977000I-150000J0D01*
G01*
X165734000Y-82977000D01*
G75*
G02*
X165584000Y-82827000I0J150000D01*
G01*
X165584000Y-82527000D01*
G75*
G02*
X165734000Y-82377000I150000J0D01*
G01*
X167384000Y-82377000D01*
G75*
G02*
X167534000Y-82527000I0J-150000D01*
G01*
G37*
G04 #@! TD.AperFunction*
G04 #@! TA.AperFunction,SMDPad,CuDef*
G36*
G01*
X167534000Y-83797000D02*
X167534000Y-84097000D01*
G75*
G02*
X167384000Y-84247000I-150000J0D01*
G01*
X165734000Y-84247000D01*
G75*
G02*
X165584000Y-84097000I0J150000D01*
G01*
X165584000Y-83797000D01*
G75*
G02*
X165734000Y-83647000I150000J0D01*
G01*
X167384000Y-83647000D01*
G75*
G02*
X167534000Y-83797000I0J-150000D01*
G01*
G37*
G04 #@! TD.AperFunction*
G04 #@! TA.AperFunction,SMDPad,CuDef*
G36*
G01*
X167534000Y-85067000D02*
X167534000Y-85367000D01*
G75*
G02*
X167384000Y-85517000I-150000J0D01*
G01*
X165734000Y-85517000D01*
G75*
G02*
X165584000Y-85367000I0J150000D01*
G01*
X165584000Y-85067000D01*
G75*
G02*
X165734000Y-84917000I150000J0D01*
G01*
X167384000Y-84917000D01*
G75*
G02*
X167534000Y-85067000I0J-150000D01*
G01*
G37*
G04 #@! TD.AperFunction*
G04 #@! TA.AperFunction,SMDPad,CuDef*
G36*
G01*
X167534000Y-86337000D02*
X167534000Y-86637000D01*
G75*
G02*
X167384000Y-86787000I-150000J0D01*
G01*
X165734000Y-86787000D01*
G75*
G02*
X165584000Y-86637000I0J150000D01*
G01*
X165584000Y-86337000D01*
G75*
G02*
X165734000Y-86187000I150000J0D01*
G01*
X167384000Y-86187000D01*
G75*
G02*
X167534000Y-86337000I0J-150000D01*
G01*
G37*
G04 #@! TD.AperFunction*
G04 #@! TA.AperFunction,SMDPad,CuDef*
G36*
G01*
X174268000Y-86337000D02*
X174268000Y-86637000D01*
G75*
G02*
X174118000Y-86787000I-150000J0D01*
G01*
X172468000Y-86787000D01*
G75*
G02*
X172318000Y-86637000I0J150000D01*
G01*
X172318000Y-86337000D01*
G75*
G02*
X172468000Y-86187000I150000J0D01*
G01*
X174118000Y-86187000D01*
G75*
G02*
X174268000Y-86337000I0J-150000D01*
G01*
G37*
G04 #@! TD.AperFunction*
G04 #@! TA.AperFunction,SMDPad,CuDef*
G36*
G01*
X174268000Y-85067000D02*
X174268000Y-85367000D01*
G75*
G02*
X174118000Y-85517000I-150000J0D01*
G01*
X172468000Y-85517000D01*
G75*
G02*
X172318000Y-85367000I0J150000D01*
G01*
X172318000Y-85067000D01*
G75*
G02*
X172468000Y-84917000I150000J0D01*
G01*
X174118000Y-84917000D01*
G75*
G02*
X174268000Y-85067000I0J-150000D01*
G01*
G37*
G04 #@! TD.AperFunction*
G04 #@! TA.AperFunction,SMDPad,CuDef*
G36*
G01*
X174268000Y-83797000D02*
X174268000Y-84097000D01*
G75*
G02*
X174118000Y-84247000I-150000J0D01*
G01*
X172468000Y-84247000D01*
G75*
G02*
X172318000Y-84097000I0J150000D01*
G01*
X172318000Y-83797000D01*
G75*
G02*
X172468000Y-83647000I150000J0D01*
G01*
X174118000Y-83647000D01*
G75*
G02*
X174268000Y-83797000I0J-150000D01*
G01*
G37*
G04 #@! TD.AperFunction*
G04 #@! TA.AperFunction,SMDPad,CuDef*
G36*
G01*
X174268000Y-82527000D02*
X174268000Y-82827000D01*
G75*
G02*
X174118000Y-82977000I-150000J0D01*
G01*
X172468000Y-82977000D01*
G75*
G02*
X172318000Y-82827000I0J150000D01*
G01*
X172318000Y-82527000D01*
G75*
G02*
X172468000Y-82377000I150000J0D01*
G01*
X174118000Y-82377000D01*
G75*
G02*
X174268000Y-82527000I0J-150000D01*
G01*
G37*
G04 #@! TD.AperFunction*
G04 #@! TA.AperFunction,SMDPad,CuDef*
G36*
G01*
X179218000Y-82527000D02*
X179218000Y-82827000D01*
G75*
G02*
X179068000Y-82977000I-150000J0D01*
G01*
X177418000Y-82977000D01*
G75*
G02*
X177268000Y-82827000I0J150000D01*
G01*
X177268000Y-82527000D01*
G75*
G02*
X177418000Y-82377000I150000J0D01*
G01*
X179068000Y-82377000D01*
G75*
G02*
X179218000Y-82527000I0J-150000D01*
G01*
G37*
G04 #@! TD.AperFunction*
G04 #@! TA.AperFunction,SMDPad,CuDef*
G36*
G01*
X179218000Y-83797000D02*
X179218000Y-84097000D01*
G75*
G02*
X179068000Y-84247000I-150000J0D01*
G01*
X177418000Y-84247000D01*
G75*
G02*
X177268000Y-84097000I0J150000D01*
G01*
X177268000Y-83797000D01*
G75*
G02*
X177418000Y-83647000I150000J0D01*
G01*
X179068000Y-83647000D01*
G75*
G02*
X179218000Y-83797000I0J-150000D01*
G01*
G37*
G04 #@! TD.AperFunction*
G04 #@! TA.AperFunction,SMDPad,CuDef*
G36*
G01*
X179218000Y-85067000D02*
X179218000Y-85367000D01*
G75*
G02*
X179068000Y-85517000I-150000J0D01*
G01*
X177418000Y-85517000D01*
G75*
G02*
X177268000Y-85367000I0J150000D01*
G01*
X177268000Y-85067000D01*
G75*
G02*
X177418000Y-84917000I150000J0D01*
G01*
X179068000Y-84917000D01*
G75*
G02*
X179218000Y-85067000I0J-150000D01*
G01*
G37*
G04 #@! TD.AperFunction*
G04 #@! TA.AperFunction,SMDPad,CuDef*
G36*
G01*
X179218000Y-86337000D02*
X179218000Y-86637000D01*
G75*
G02*
X179068000Y-86787000I-150000J0D01*
G01*
X177418000Y-86787000D01*
G75*
G02*
X177268000Y-86637000I0J150000D01*
G01*
X177268000Y-86337000D01*
G75*
G02*
X177418000Y-86187000I150000J0D01*
G01*
X179068000Y-86187000D01*
G75*
G02*
X179218000Y-86337000I0J-150000D01*
G01*
G37*
G04 #@! TD.AperFunction*
G04 #@! TA.AperFunction,SMDPad,CuDef*
G36*
G01*
X173712000Y-71143000D02*
X173712000Y-70843000D01*
G75*
G02*
X173862000Y-70693000I150000J0D01*
G01*
X175512000Y-70693000D01*
G75*
G02*
X175662000Y-70843000I0J-150000D01*
G01*
X175662000Y-71143000D01*
G75*
G02*
X175512000Y-71293000I-150000J0D01*
G01*
X173862000Y-71293000D01*
G75*
G02*
X173712000Y-71143000I0J150000D01*
G01*
G37*
G04 #@! TD.AperFunction*
G04 #@! TA.AperFunction,SMDPad,CuDef*
G36*
G01*
X173712000Y-72413000D02*
X173712000Y-72113000D01*
G75*
G02*
X173862000Y-71963000I150000J0D01*
G01*
X175512000Y-71963000D01*
G75*
G02*
X175662000Y-72113000I0J-150000D01*
G01*
X175662000Y-72413000D01*
G75*
G02*
X175512000Y-72563000I-150000J0D01*
G01*
X173862000Y-72563000D01*
G75*
G02*
X173712000Y-72413000I0J150000D01*
G01*
G37*
G04 #@! TD.AperFunction*
G04 #@! TA.AperFunction,SMDPad,CuDef*
G36*
G01*
X173712000Y-73683000D02*
X173712000Y-73383000D01*
G75*
G02*
X173862000Y-73233000I150000J0D01*
G01*
X175512000Y-73233000D01*
G75*
G02*
X175662000Y-73383000I0J-150000D01*
G01*
X175662000Y-73683000D01*
G75*
G02*
X175512000Y-73833000I-150000J0D01*
G01*
X173862000Y-73833000D01*
G75*
G02*
X173712000Y-73683000I0J150000D01*
G01*
G37*
G04 #@! TD.AperFunction*
G04 #@! TA.AperFunction,SMDPad,CuDef*
G36*
G01*
X173712000Y-74953000D02*
X173712000Y-74653000D01*
G75*
G02*
X173862000Y-74503000I150000J0D01*
G01*
X175512000Y-74503000D01*
G75*
G02*
X175662000Y-74653000I0J-150000D01*
G01*
X175662000Y-74953000D01*
G75*
G02*
X175512000Y-75103000I-150000J0D01*
G01*
X173862000Y-75103000D01*
G75*
G02*
X173712000Y-74953000I0J150000D01*
G01*
G37*
G04 #@! TD.AperFunction*
G04 #@! TA.AperFunction,SMDPad,CuDef*
G36*
G01*
X168762000Y-74953000D02*
X168762000Y-74653000D01*
G75*
G02*
X168912000Y-74503000I150000J0D01*
G01*
X170562000Y-74503000D01*
G75*
G02*
X170712000Y-74653000I0J-150000D01*
G01*
X170712000Y-74953000D01*
G75*
G02*
X170562000Y-75103000I-150000J0D01*
G01*
X168912000Y-75103000D01*
G75*
G02*
X168762000Y-74953000I0J150000D01*
G01*
G37*
G04 #@! TD.AperFunction*
G04 #@! TA.AperFunction,SMDPad,CuDef*
G36*
G01*
X168762000Y-73683000D02*
X168762000Y-73383000D01*
G75*
G02*
X168912000Y-73233000I150000J0D01*
G01*
X170562000Y-73233000D01*
G75*
G02*
X170712000Y-73383000I0J-150000D01*
G01*
X170712000Y-73683000D01*
G75*
G02*
X170562000Y-73833000I-150000J0D01*
G01*
X168912000Y-73833000D01*
G75*
G02*
X168762000Y-73683000I0J150000D01*
G01*
G37*
G04 #@! TD.AperFunction*
G04 #@! TA.AperFunction,SMDPad,CuDef*
G36*
G01*
X168762000Y-72413000D02*
X168762000Y-72113000D01*
G75*
G02*
X168912000Y-71963000I150000J0D01*
G01*
X170562000Y-71963000D01*
G75*
G02*
X170712000Y-72113000I0J-150000D01*
G01*
X170712000Y-72413000D01*
G75*
G02*
X170562000Y-72563000I-150000J0D01*
G01*
X168912000Y-72563000D01*
G75*
G02*
X168762000Y-72413000I0J150000D01*
G01*
G37*
G04 #@! TD.AperFunction*
G04 #@! TA.AperFunction,SMDPad,CuDef*
G36*
G01*
X168762000Y-71143000D02*
X168762000Y-70843000D01*
G75*
G02*
X168912000Y-70693000I150000J0D01*
G01*
X170562000Y-70693000D01*
G75*
G02*
X170712000Y-70843000I0J-150000D01*
G01*
X170712000Y-71143000D01*
G75*
G02*
X170562000Y-71293000I-150000J0D01*
G01*
X168912000Y-71293000D01*
G75*
G02*
X168762000Y-71143000I0J150000D01*
G01*
G37*
G04 #@! TD.AperFunction*
G04 #@! TA.AperFunction,SMDPad,CuDef*
G36*
G01*
X161520000Y-71143000D02*
X161520000Y-70843000D01*
G75*
G02*
X161670000Y-70693000I150000J0D01*
G01*
X163320000Y-70693000D01*
G75*
G02*
X163470000Y-70843000I0J-150000D01*
G01*
X163470000Y-71143000D01*
G75*
G02*
X163320000Y-71293000I-150000J0D01*
G01*
X161670000Y-71293000D01*
G75*
G02*
X161520000Y-71143000I0J150000D01*
G01*
G37*
G04 #@! TD.AperFunction*
G04 #@! TA.AperFunction,SMDPad,CuDef*
G36*
G01*
X161520000Y-72413000D02*
X161520000Y-72113000D01*
G75*
G02*
X161670000Y-71963000I150000J0D01*
G01*
X163320000Y-71963000D01*
G75*
G02*
X163470000Y-72113000I0J-150000D01*
G01*
X163470000Y-72413000D01*
G75*
G02*
X163320000Y-72563000I-150000J0D01*
G01*
X161670000Y-72563000D01*
G75*
G02*
X161520000Y-72413000I0J150000D01*
G01*
G37*
G04 #@! TD.AperFunction*
G04 #@! TA.AperFunction,SMDPad,CuDef*
G36*
G01*
X161520000Y-73683000D02*
X161520000Y-73383000D01*
G75*
G02*
X161670000Y-73233000I150000J0D01*
G01*
X163320000Y-73233000D01*
G75*
G02*
X163470000Y-73383000I0J-150000D01*
G01*
X163470000Y-73683000D01*
G75*
G02*
X163320000Y-73833000I-150000J0D01*
G01*
X161670000Y-73833000D01*
G75*
G02*
X161520000Y-73683000I0J150000D01*
G01*
G37*
G04 #@! TD.AperFunction*
G04 #@! TA.AperFunction,SMDPad,CuDef*
G36*
G01*
X161520000Y-74953000D02*
X161520000Y-74653000D01*
G75*
G02*
X161670000Y-74503000I150000J0D01*
G01*
X163320000Y-74503000D01*
G75*
G02*
X163470000Y-74653000I0J-150000D01*
G01*
X163470000Y-74953000D01*
G75*
G02*
X163320000Y-75103000I-150000J0D01*
G01*
X161670000Y-75103000D01*
G75*
G02*
X161520000Y-74953000I0J150000D01*
G01*
G37*
G04 #@! TD.AperFunction*
G04 #@! TA.AperFunction,SMDPad,CuDef*
G36*
G01*
X156570000Y-74953000D02*
X156570000Y-74653000D01*
G75*
G02*
X156720000Y-74503000I150000J0D01*
G01*
X158370000Y-74503000D01*
G75*
G02*
X158520000Y-74653000I0J-150000D01*
G01*
X158520000Y-74953000D01*
G75*
G02*
X158370000Y-75103000I-150000J0D01*
G01*
X156720000Y-75103000D01*
G75*
G02*
X156570000Y-74953000I0J150000D01*
G01*
G37*
G04 #@! TD.AperFunction*
G04 #@! TA.AperFunction,SMDPad,CuDef*
G36*
G01*
X156570000Y-73683000D02*
X156570000Y-73383000D01*
G75*
G02*
X156720000Y-73233000I150000J0D01*
G01*
X158370000Y-73233000D01*
G75*
G02*
X158520000Y-73383000I0J-150000D01*
G01*
X158520000Y-73683000D01*
G75*
G02*
X158370000Y-73833000I-150000J0D01*
G01*
X156720000Y-73833000D01*
G75*
G02*
X156570000Y-73683000I0J150000D01*
G01*
G37*
G04 #@! TD.AperFunction*
G04 #@! TA.AperFunction,SMDPad,CuDef*
G36*
G01*
X156570000Y-72413000D02*
X156570000Y-72113000D01*
G75*
G02*
X156720000Y-71963000I150000J0D01*
G01*
X158370000Y-71963000D01*
G75*
G02*
X158520000Y-72113000I0J-150000D01*
G01*
X158520000Y-72413000D01*
G75*
G02*
X158370000Y-72563000I-150000J0D01*
G01*
X156720000Y-72563000D01*
G75*
G02*
X156570000Y-72413000I0J150000D01*
G01*
G37*
G04 #@! TD.AperFunction*
G04 #@! TA.AperFunction,SMDPad,CuDef*
G36*
G01*
X156570000Y-71143000D02*
X156570000Y-70843000D01*
G75*
G02*
X156720000Y-70693000I150000J0D01*
G01*
X158370000Y-70693000D01*
G75*
G02*
X158520000Y-70843000I0J-150000D01*
G01*
X158520000Y-71143000D01*
G75*
G02*
X158370000Y-71293000I-150000J0D01*
G01*
X156720000Y-71293000D01*
G75*
G02*
X156570000Y-71143000I0J150000D01*
G01*
G37*
G04 #@! TD.AperFunction*
D14*
X131064000Y-78989500D03*
X136144000Y-78989500D03*
X136144000Y-83189500D03*
X131064000Y-83189500D03*
G04 #@! TA.AperFunction,SMDPad,CuDef*
G36*
G01*
X145127000Y-70073000D02*
X145127000Y-69873000D01*
G75*
G02*
X145227000Y-69773000I100000J0D01*
G01*
X146502000Y-69773000D01*
G75*
G02*
X146602000Y-69873000I0J-100000D01*
G01*
X146602000Y-70073000D01*
G75*
G02*
X146502000Y-70173000I-100000J0D01*
G01*
X145227000Y-70173000D01*
G75*
G02*
X145127000Y-70073000I0J100000D01*
G01*
G37*
G04 #@! TD.AperFunction*
G04 #@! TA.AperFunction,SMDPad,CuDef*
G36*
G01*
X145127000Y-70723000D02*
X145127000Y-70523000D01*
G75*
G02*
X145227000Y-70423000I100000J0D01*
G01*
X146502000Y-70423000D01*
G75*
G02*
X146602000Y-70523000I0J-100000D01*
G01*
X146602000Y-70723000D01*
G75*
G02*
X146502000Y-70823000I-100000J0D01*
G01*
X145227000Y-70823000D01*
G75*
G02*
X145127000Y-70723000I0J100000D01*
G01*
G37*
G04 #@! TD.AperFunction*
G04 #@! TA.AperFunction,SMDPad,CuDef*
G36*
G01*
X145127000Y-71373000D02*
X145127000Y-71173000D01*
G75*
G02*
X145227000Y-71073000I100000J0D01*
G01*
X146502000Y-71073000D01*
G75*
G02*
X146602000Y-71173000I0J-100000D01*
G01*
X146602000Y-71373000D01*
G75*
G02*
X146502000Y-71473000I-100000J0D01*
G01*
X145227000Y-71473000D01*
G75*
G02*
X145127000Y-71373000I0J100000D01*
G01*
G37*
G04 #@! TD.AperFunction*
G04 #@! TA.AperFunction,SMDPad,CuDef*
G36*
G01*
X145127000Y-72023000D02*
X145127000Y-71823000D01*
G75*
G02*
X145227000Y-71723000I100000J0D01*
G01*
X146502000Y-71723000D01*
G75*
G02*
X146602000Y-71823000I0J-100000D01*
G01*
X146602000Y-72023000D01*
G75*
G02*
X146502000Y-72123000I-100000J0D01*
G01*
X145227000Y-72123000D01*
G75*
G02*
X145127000Y-72023000I0J100000D01*
G01*
G37*
G04 #@! TD.AperFunction*
G04 #@! TA.AperFunction,SMDPad,CuDef*
G36*
G01*
X145127000Y-72673000D02*
X145127000Y-72473000D01*
G75*
G02*
X145227000Y-72373000I100000J0D01*
G01*
X146502000Y-72373000D01*
G75*
G02*
X146602000Y-72473000I0J-100000D01*
G01*
X146602000Y-72673000D01*
G75*
G02*
X146502000Y-72773000I-100000J0D01*
G01*
X145227000Y-72773000D01*
G75*
G02*
X145127000Y-72673000I0J100000D01*
G01*
G37*
G04 #@! TD.AperFunction*
G04 #@! TA.AperFunction,SMDPad,CuDef*
G36*
G01*
X145127000Y-73323000D02*
X145127000Y-73123000D01*
G75*
G02*
X145227000Y-73023000I100000J0D01*
G01*
X146502000Y-73023000D01*
G75*
G02*
X146602000Y-73123000I0J-100000D01*
G01*
X146602000Y-73323000D01*
G75*
G02*
X146502000Y-73423000I-100000J0D01*
G01*
X145227000Y-73423000D01*
G75*
G02*
X145127000Y-73323000I0J100000D01*
G01*
G37*
G04 #@! TD.AperFunction*
G04 #@! TA.AperFunction,SMDPad,CuDef*
G36*
G01*
X145127000Y-73973000D02*
X145127000Y-73773000D01*
G75*
G02*
X145227000Y-73673000I100000J0D01*
G01*
X146502000Y-73673000D01*
G75*
G02*
X146602000Y-73773000I0J-100000D01*
G01*
X146602000Y-73973000D01*
G75*
G02*
X146502000Y-74073000I-100000J0D01*
G01*
X145227000Y-74073000D01*
G75*
G02*
X145127000Y-73973000I0J100000D01*
G01*
G37*
G04 #@! TD.AperFunction*
G04 #@! TA.AperFunction,SMDPad,CuDef*
G36*
G01*
X145127000Y-74623000D02*
X145127000Y-74423000D01*
G75*
G02*
X145227000Y-74323000I100000J0D01*
G01*
X146502000Y-74323000D01*
G75*
G02*
X146602000Y-74423000I0J-100000D01*
G01*
X146602000Y-74623000D01*
G75*
G02*
X146502000Y-74723000I-100000J0D01*
G01*
X145227000Y-74723000D01*
G75*
G02*
X145127000Y-74623000I0J100000D01*
G01*
G37*
G04 #@! TD.AperFunction*
G04 #@! TA.AperFunction,SMDPad,CuDef*
G36*
G01*
X145127000Y-75273000D02*
X145127000Y-75073000D01*
G75*
G02*
X145227000Y-74973000I100000J0D01*
G01*
X146502000Y-74973000D01*
G75*
G02*
X146602000Y-75073000I0J-100000D01*
G01*
X146602000Y-75273000D01*
G75*
G02*
X146502000Y-75373000I-100000J0D01*
G01*
X145227000Y-75373000D01*
G75*
G02*
X145127000Y-75273000I0J100000D01*
G01*
G37*
G04 #@! TD.AperFunction*
G04 #@! TA.AperFunction,SMDPad,CuDef*
G36*
G01*
X145127000Y-75923000D02*
X145127000Y-75723000D01*
G75*
G02*
X145227000Y-75623000I100000J0D01*
G01*
X146502000Y-75623000D01*
G75*
G02*
X146602000Y-75723000I0J-100000D01*
G01*
X146602000Y-75923000D01*
G75*
G02*
X146502000Y-76023000I-100000J0D01*
G01*
X145227000Y-76023000D01*
G75*
G02*
X145127000Y-75923000I0J100000D01*
G01*
G37*
G04 #@! TD.AperFunction*
G04 #@! TA.AperFunction,SMDPad,CuDef*
G36*
G01*
X139402000Y-75923000D02*
X139402000Y-75723000D01*
G75*
G02*
X139502000Y-75623000I100000J0D01*
G01*
X140777000Y-75623000D01*
G75*
G02*
X140877000Y-75723000I0J-100000D01*
G01*
X140877000Y-75923000D01*
G75*
G02*
X140777000Y-76023000I-100000J0D01*
G01*
X139502000Y-76023000D01*
G75*
G02*
X139402000Y-75923000I0J100000D01*
G01*
G37*
G04 #@! TD.AperFunction*
G04 #@! TA.AperFunction,SMDPad,CuDef*
G36*
G01*
X139402000Y-75273000D02*
X139402000Y-75073000D01*
G75*
G02*
X139502000Y-74973000I100000J0D01*
G01*
X140777000Y-74973000D01*
G75*
G02*
X140877000Y-75073000I0J-100000D01*
G01*
X140877000Y-75273000D01*
G75*
G02*
X140777000Y-75373000I-100000J0D01*
G01*
X139502000Y-75373000D01*
G75*
G02*
X139402000Y-75273000I0J100000D01*
G01*
G37*
G04 #@! TD.AperFunction*
G04 #@! TA.AperFunction,SMDPad,CuDef*
G36*
G01*
X139402000Y-74623000D02*
X139402000Y-74423000D01*
G75*
G02*
X139502000Y-74323000I100000J0D01*
G01*
X140777000Y-74323000D01*
G75*
G02*
X140877000Y-74423000I0J-100000D01*
G01*
X140877000Y-74623000D01*
G75*
G02*
X140777000Y-74723000I-100000J0D01*
G01*
X139502000Y-74723000D01*
G75*
G02*
X139402000Y-74623000I0J100000D01*
G01*
G37*
G04 #@! TD.AperFunction*
G04 #@! TA.AperFunction,SMDPad,CuDef*
G36*
G01*
X139402000Y-73973000D02*
X139402000Y-73773000D01*
G75*
G02*
X139502000Y-73673000I100000J0D01*
G01*
X140777000Y-73673000D01*
G75*
G02*
X140877000Y-73773000I0J-100000D01*
G01*
X140877000Y-73973000D01*
G75*
G02*
X140777000Y-74073000I-100000J0D01*
G01*
X139502000Y-74073000D01*
G75*
G02*
X139402000Y-73973000I0J100000D01*
G01*
G37*
G04 #@! TD.AperFunction*
G04 #@! TA.AperFunction,SMDPad,CuDef*
G36*
G01*
X139402000Y-73323000D02*
X139402000Y-73123000D01*
G75*
G02*
X139502000Y-73023000I100000J0D01*
G01*
X140777000Y-73023000D01*
G75*
G02*
X140877000Y-73123000I0J-100000D01*
G01*
X140877000Y-73323000D01*
G75*
G02*
X140777000Y-73423000I-100000J0D01*
G01*
X139502000Y-73423000D01*
G75*
G02*
X139402000Y-73323000I0J100000D01*
G01*
G37*
G04 #@! TD.AperFunction*
G04 #@! TA.AperFunction,SMDPad,CuDef*
G36*
G01*
X139402000Y-72673000D02*
X139402000Y-72473000D01*
G75*
G02*
X139502000Y-72373000I100000J0D01*
G01*
X140777000Y-72373000D01*
G75*
G02*
X140877000Y-72473000I0J-100000D01*
G01*
X140877000Y-72673000D01*
G75*
G02*
X140777000Y-72773000I-100000J0D01*
G01*
X139502000Y-72773000D01*
G75*
G02*
X139402000Y-72673000I0J100000D01*
G01*
G37*
G04 #@! TD.AperFunction*
G04 #@! TA.AperFunction,SMDPad,CuDef*
G36*
G01*
X139402000Y-72023000D02*
X139402000Y-71823000D01*
G75*
G02*
X139502000Y-71723000I100000J0D01*
G01*
X140777000Y-71723000D01*
G75*
G02*
X140877000Y-71823000I0J-100000D01*
G01*
X140877000Y-72023000D01*
G75*
G02*
X140777000Y-72123000I-100000J0D01*
G01*
X139502000Y-72123000D01*
G75*
G02*
X139402000Y-72023000I0J100000D01*
G01*
G37*
G04 #@! TD.AperFunction*
G04 #@! TA.AperFunction,SMDPad,CuDef*
G36*
G01*
X139402000Y-71373000D02*
X139402000Y-71173000D01*
G75*
G02*
X139502000Y-71073000I100000J0D01*
G01*
X140777000Y-71073000D01*
G75*
G02*
X140877000Y-71173000I0J-100000D01*
G01*
X140877000Y-71373000D01*
G75*
G02*
X140777000Y-71473000I-100000J0D01*
G01*
X139502000Y-71473000D01*
G75*
G02*
X139402000Y-71373000I0J100000D01*
G01*
G37*
G04 #@! TD.AperFunction*
G04 #@! TA.AperFunction,SMDPad,CuDef*
G36*
G01*
X139402000Y-70723000D02*
X139402000Y-70523000D01*
G75*
G02*
X139502000Y-70423000I100000J0D01*
G01*
X140777000Y-70423000D01*
G75*
G02*
X140877000Y-70523000I0J-100000D01*
G01*
X140877000Y-70723000D01*
G75*
G02*
X140777000Y-70823000I-100000J0D01*
G01*
X139502000Y-70823000D01*
G75*
G02*
X139402000Y-70723000I0J100000D01*
G01*
G37*
G04 #@! TD.AperFunction*
G04 #@! TA.AperFunction,SMDPad,CuDef*
G36*
G01*
X139402000Y-70073000D02*
X139402000Y-69873000D01*
G75*
G02*
X139502000Y-69773000I100000J0D01*
G01*
X140777000Y-69773000D01*
G75*
G02*
X140877000Y-69873000I0J-100000D01*
G01*
X140877000Y-70073000D01*
G75*
G02*
X140777000Y-70173000I-100000J0D01*
G01*
X139502000Y-70173000D01*
G75*
G02*
X139402000Y-70073000I0J100000D01*
G01*
G37*
G04 #@! TD.AperFunction*
G04 #@! TA.AperFunction,SMDPad,CuDef*
G36*
G01*
X116061500Y-107652000D02*
X115586500Y-107652000D01*
G75*
G02*
X115349000Y-107414500I0J237500D01*
G01*
X115349000Y-106914500D01*
G75*
G02*
X115586500Y-106677000I237500J0D01*
G01*
X116061500Y-106677000D01*
G75*
G02*
X116299000Y-106914500I0J-237500D01*
G01*
X116299000Y-107414500D01*
G75*
G02*
X116061500Y-107652000I-237500J0D01*
G01*
G37*
G04 #@! TD.AperFunction*
G04 #@! TA.AperFunction,SMDPad,CuDef*
G36*
G01*
X116061500Y-109477000D02*
X115586500Y-109477000D01*
G75*
G02*
X115349000Y-109239500I0J237500D01*
G01*
X115349000Y-108739500D01*
G75*
G02*
X115586500Y-108502000I237500J0D01*
G01*
X116061500Y-108502000D01*
G75*
G02*
X116299000Y-108739500I0J-237500D01*
G01*
X116299000Y-109239500D01*
G75*
G02*
X116061500Y-109477000I-237500J0D01*
G01*
G37*
G04 #@! TD.AperFunction*
G04 #@! TA.AperFunction,SMDPad,CuDef*
G36*
G01*
X125459500Y-107652000D02*
X124984500Y-107652000D01*
G75*
G02*
X124747000Y-107414500I0J237500D01*
G01*
X124747000Y-106914500D01*
G75*
G02*
X124984500Y-106677000I237500J0D01*
G01*
X125459500Y-106677000D01*
G75*
G02*
X125697000Y-106914500I0J-237500D01*
G01*
X125697000Y-107414500D01*
G75*
G02*
X125459500Y-107652000I-237500J0D01*
G01*
G37*
G04 #@! TD.AperFunction*
G04 #@! TA.AperFunction,SMDPad,CuDef*
G36*
G01*
X125459500Y-109477000D02*
X124984500Y-109477000D01*
G75*
G02*
X124747000Y-109239500I0J237500D01*
G01*
X124747000Y-108739500D01*
G75*
G02*
X124984500Y-108502000I237500J0D01*
G01*
X125459500Y-108502000D01*
G75*
G02*
X125697000Y-108739500I0J-237500D01*
G01*
X125697000Y-109239500D01*
G75*
G02*
X125459500Y-109477000I-237500J0D01*
G01*
G37*
G04 #@! TD.AperFunction*
G04 #@! TA.AperFunction,SMDPad,CuDef*
G36*
G01*
X144736000Y-85614500D02*
X144736000Y-86089500D01*
G75*
G02*
X144498500Y-86327000I-237500J0D01*
G01*
X143998500Y-86327000D01*
G75*
G02*
X143761000Y-86089500I0J237500D01*
G01*
X143761000Y-85614500D01*
G75*
G02*
X143998500Y-85377000I237500J0D01*
G01*
X144498500Y-85377000D01*
G75*
G02*
X144736000Y-85614500I0J-237500D01*
G01*
G37*
G04 #@! TD.AperFunction*
G04 #@! TA.AperFunction,SMDPad,CuDef*
G36*
G01*
X146561000Y-85614500D02*
X146561000Y-86089500D01*
G75*
G02*
X146323500Y-86327000I-237500J0D01*
G01*
X145823500Y-86327000D01*
G75*
G02*
X145586000Y-86089500I0J237500D01*
G01*
X145586000Y-85614500D01*
G75*
G02*
X145823500Y-85377000I237500J0D01*
G01*
X146323500Y-85377000D01*
G75*
G02*
X146561000Y-85614500I0J-237500D01*
G01*
G37*
G04 #@! TD.AperFunction*
G04 #@! TA.AperFunction,SMDPad,CuDef*
G36*
G01*
X186747999Y-84036000D02*
X187648001Y-84036000D01*
G75*
G02*
X187898000Y-84285999I0J-249999D01*
G01*
X187898000Y-84986001D01*
G75*
G02*
X187648001Y-85236000I-249999J0D01*
G01*
X186747999Y-85236000D01*
G75*
G02*
X186498000Y-84986001I0J249999D01*
G01*
X186498000Y-84285999D01*
G75*
G02*
X186747999Y-84036000I249999J0D01*
G01*
G37*
G04 #@! TD.AperFunction*
G04 #@! TA.AperFunction,SMDPad,CuDef*
G36*
G01*
X186747999Y-82036000D02*
X187648001Y-82036000D01*
G75*
G02*
X187898000Y-82285999I0J-249999D01*
G01*
X187898000Y-82986001D01*
G75*
G02*
X187648001Y-83236000I-249999J0D01*
G01*
X186747999Y-83236000D01*
G75*
G02*
X186498000Y-82986001I0J249999D01*
G01*
X186498000Y-82285999D01*
G75*
G02*
X186747999Y-82036000I249999J0D01*
G01*
G37*
G04 #@! TD.AperFunction*
G04 #@! TA.AperFunction,SMDPad,CuDef*
G36*
G01*
X184503999Y-84036000D02*
X185404001Y-84036000D01*
G75*
G02*
X185654000Y-84285999I0J-249999D01*
G01*
X185654000Y-84986001D01*
G75*
G02*
X185404001Y-85236000I-249999J0D01*
G01*
X184503999Y-85236000D01*
G75*
G02*
X184254000Y-84986001I0J249999D01*
G01*
X184254000Y-84285999D01*
G75*
G02*
X184503999Y-84036000I249999J0D01*
G01*
G37*
G04 #@! TD.AperFunction*
G04 #@! TA.AperFunction,SMDPad,CuDef*
G36*
G01*
X184503999Y-82036000D02*
X185404001Y-82036000D01*
G75*
G02*
X185654000Y-82285999I0J-249999D01*
G01*
X185654000Y-82986001D01*
G75*
G02*
X185404001Y-83236000I-249999J0D01*
G01*
X184503999Y-83236000D01*
G75*
G02*
X184254000Y-82986001I0J249999D01*
G01*
X184254000Y-82285999D01*
G75*
G02*
X184503999Y-82036000I249999J0D01*
G01*
G37*
G04 #@! TD.AperFunction*
G04 #@! TA.AperFunction,SMDPad,CuDef*
G36*
G01*
X169501000Y-84344500D02*
X169501000Y-84819500D01*
G75*
G02*
X169263500Y-85057000I-237500J0D01*
G01*
X168763500Y-85057000D01*
G75*
G02*
X168526000Y-84819500I0J237500D01*
G01*
X168526000Y-84344500D01*
G75*
G02*
X168763500Y-84107000I237500J0D01*
G01*
X169263500Y-84107000D01*
G75*
G02*
X169501000Y-84344500I0J-237500D01*
G01*
G37*
G04 #@! TD.AperFunction*
G04 #@! TA.AperFunction,SMDPad,CuDef*
G36*
G01*
X171326000Y-84344500D02*
X171326000Y-84819500D01*
G75*
G02*
X171088500Y-85057000I-237500J0D01*
G01*
X170588500Y-85057000D01*
G75*
G02*
X170351000Y-84819500I0J237500D01*
G01*
X170351000Y-84344500D01*
G75*
G02*
X170588500Y-84107000I237500J0D01*
G01*
X171088500Y-84107000D01*
G75*
G02*
X171326000Y-84344500I0J-237500D01*
G01*
G37*
G04 #@! TD.AperFunction*
G04 #@! TA.AperFunction,SMDPad,CuDef*
G36*
G01*
X181185000Y-82312500D02*
X181185000Y-82787500D01*
G75*
G02*
X180947500Y-83025000I-237500J0D01*
G01*
X180447500Y-83025000D01*
G75*
G02*
X180210000Y-82787500I0J237500D01*
G01*
X180210000Y-82312500D01*
G75*
G02*
X180447500Y-82075000I237500J0D01*
G01*
X180947500Y-82075000D01*
G75*
G02*
X181185000Y-82312500I0J-237500D01*
G01*
G37*
G04 #@! TD.AperFunction*
G04 #@! TA.AperFunction,SMDPad,CuDef*
G36*
G01*
X183010000Y-82312500D02*
X183010000Y-82787500D01*
G75*
G02*
X182772500Y-83025000I-237500J0D01*
G01*
X182272500Y-83025000D01*
G75*
G02*
X182035000Y-82787500I0J237500D01*
G01*
X182035000Y-82312500D01*
G75*
G02*
X182272500Y-82075000I237500J0D01*
G01*
X182772500Y-82075000D01*
G75*
G02*
X183010000Y-82312500I0J-237500D01*
G01*
G37*
G04 #@! TD.AperFunction*
G04 #@! TA.AperFunction,SMDPad,CuDef*
G36*
G01*
X177275500Y-88983000D02*
X176800500Y-88983000D01*
G75*
G02*
X176563000Y-88745500I0J237500D01*
G01*
X176563000Y-88245500D01*
G75*
G02*
X176800500Y-88008000I237500J0D01*
G01*
X177275500Y-88008000D01*
G75*
G02*
X177513000Y-88245500I0J-237500D01*
G01*
X177513000Y-88745500D01*
G75*
G02*
X177275500Y-88983000I-237500J0D01*
G01*
G37*
G04 #@! TD.AperFunction*
G04 #@! TA.AperFunction,SMDPad,CuDef*
G36*
G01*
X177275500Y-90808000D02*
X176800500Y-90808000D01*
G75*
G02*
X176563000Y-90570500I0J237500D01*
G01*
X176563000Y-90070500D01*
G75*
G02*
X176800500Y-89833000I237500J0D01*
G01*
X177275500Y-89833000D01*
G75*
G02*
X177513000Y-90070500I0J-237500D01*
G01*
X177513000Y-90570500D01*
G75*
G02*
X177275500Y-90808000I-237500J0D01*
G01*
G37*
G04 #@! TD.AperFunction*
G04 #@! TA.AperFunction,SMDPad,CuDef*
G36*
G01*
X169501000Y-82566500D02*
X169501000Y-83041500D01*
G75*
G02*
X169263500Y-83279000I-237500J0D01*
G01*
X168763500Y-83279000D01*
G75*
G02*
X168526000Y-83041500I0J237500D01*
G01*
X168526000Y-82566500D01*
G75*
G02*
X168763500Y-82329000I237500J0D01*
G01*
X169263500Y-82329000D01*
G75*
G02*
X169501000Y-82566500I0J-237500D01*
G01*
G37*
G04 #@! TD.AperFunction*
G04 #@! TA.AperFunction,SMDPad,CuDef*
G36*
G01*
X171326000Y-82566500D02*
X171326000Y-83041500D01*
G75*
G02*
X171088500Y-83279000I-237500J0D01*
G01*
X170588500Y-83279000D01*
G75*
G02*
X170351000Y-83041500I0J237500D01*
G01*
X170351000Y-82566500D01*
G75*
G02*
X170588500Y-82329000I237500J0D01*
G01*
X171088500Y-82329000D01*
G75*
G02*
X171326000Y-82566500I0J-237500D01*
G01*
G37*
G04 #@! TD.AperFunction*
G04 #@! TA.AperFunction,SMDPad,CuDef*
G36*
G01*
X181185000Y-84090500D02*
X181185000Y-84565500D01*
G75*
G02*
X180947500Y-84803000I-237500J0D01*
G01*
X180447500Y-84803000D01*
G75*
G02*
X180210000Y-84565500I0J237500D01*
G01*
X180210000Y-84090500D01*
G75*
G02*
X180447500Y-83853000I237500J0D01*
G01*
X180947500Y-83853000D01*
G75*
G02*
X181185000Y-84090500I0J-237500D01*
G01*
G37*
G04 #@! TD.AperFunction*
G04 #@! TA.AperFunction,SMDPad,CuDef*
G36*
G01*
X183010000Y-84090500D02*
X183010000Y-84565500D01*
G75*
G02*
X182772500Y-84803000I-237500J0D01*
G01*
X182272500Y-84803000D01*
G75*
G02*
X182035000Y-84565500I0J237500D01*
G01*
X182035000Y-84090500D01*
G75*
G02*
X182272500Y-83853000I237500J0D01*
G01*
X182772500Y-83853000D01*
G75*
G02*
X183010000Y-84090500I0J-237500D01*
G01*
G37*
G04 #@! TD.AperFunction*
G04 #@! TA.AperFunction,SMDPad,CuDef*
G36*
G01*
X178578500Y-89833000D02*
X179053500Y-89833000D01*
G75*
G02*
X179291000Y-90070500I0J-237500D01*
G01*
X179291000Y-90570500D01*
G75*
G02*
X179053500Y-90808000I-237500J0D01*
G01*
X178578500Y-90808000D01*
G75*
G02*
X178341000Y-90570500I0J237500D01*
G01*
X178341000Y-90070500D01*
G75*
G02*
X178578500Y-89833000I237500J0D01*
G01*
G37*
G04 #@! TD.AperFunction*
G04 #@! TA.AperFunction,SMDPad,CuDef*
G36*
G01*
X178578500Y-88008000D02*
X179053500Y-88008000D01*
G75*
G02*
X179291000Y-88245500I0J-237500D01*
G01*
X179291000Y-88745500D01*
G75*
G02*
X179053500Y-88983000I-237500J0D01*
G01*
X178578500Y-88983000D01*
G75*
G02*
X178341000Y-88745500I0J237500D01*
G01*
X178341000Y-88245500D01*
G75*
G02*
X178578500Y-88008000I237500J0D01*
G01*
G37*
G04 #@! TD.AperFunction*
G04 #@! TA.AperFunction,SMDPad,CuDef*
G36*
G01*
X149523000Y-70341500D02*
X149523000Y-69866500D01*
G75*
G02*
X149760500Y-69629000I237500J0D01*
G01*
X150260500Y-69629000D01*
G75*
G02*
X150498000Y-69866500I0J-237500D01*
G01*
X150498000Y-70341500D01*
G75*
G02*
X150260500Y-70579000I-237500J0D01*
G01*
X149760500Y-70579000D01*
G75*
G02*
X149523000Y-70341500I0J237500D01*
G01*
G37*
G04 #@! TD.AperFunction*
G04 #@! TA.AperFunction,SMDPad,CuDef*
G36*
G01*
X147698000Y-70341500D02*
X147698000Y-69866500D01*
G75*
G02*
X147935500Y-69629000I237500J0D01*
G01*
X148435500Y-69629000D01*
G75*
G02*
X148673000Y-69866500I0J-237500D01*
G01*
X148673000Y-70341500D01*
G75*
G02*
X148435500Y-70579000I-237500J0D01*
G01*
X147935500Y-70579000D01*
G75*
G02*
X147698000Y-70341500I0J237500D01*
G01*
G37*
G04 #@! TD.AperFunction*
G04 #@! TA.AperFunction,SMDPad,CuDef*
G36*
G01*
X149523000Y-72119500D02*
X149523000Y-71644500D01*
G75*
G02*
X149760500Y-71407000I237500J0D01*
G01*
X150260500Y-71407000D01*
G75*
G02*
X150498000Y-71644500I0J-237500D01*
G01*
X150498000Y-72119500D01*
G75*
G02*
X150260500Y-72357000I-237500J0D01*
G01*
X149760500Y-72357000D01*
G75*
G02*
X149523000Y-72119500I0J237500D01*
G01*
G37*
G04 #@! TD.AperFunction*
G04 #@! TA.AperFunction,SMDPad,CuDef*
G36*
G01*
X147698000Y-72119500D02*
X147698000Y-71644500D01*
G75*
G02*
X147935500Y-71407000I237500J0D01*
G01*
X148435500Y-71407000D01*
G75*
G02*
X148673000Y-71644500I0J-237500D01*
G01*
X148673000Y-72119500D01*
G75*
G02*
X148435500Y-72357000I-237500J0D01*
G01*
X147935500Y-72357000D01*
G75*
G02*
X147698000Y-72119500I0J237500D01*
G01*
G37*
G04 #@! TD.AperFunction*
G04 #@! TA.AperFunction,SMDPad,CuDef*
G36*
G01*
X166541000Y-73897500D02*
X166541000Y-73422500D01*
G75*
G02*
X166778500Y-73185000I237500J0D01*
G01*
X167278500Y-73185000D01*
G75*
G02*
X167516000Y-73422500I0J-237500D01*
G01*
X167516000Y-73897500D01*
G75*
G02*
X167278500Y-74135000I-237500J0D01*
G01*
X166778500Y-74135000D01*
G75*
G02*
X166541000Y-73897500I0J237500D01*
G01*
G37*
G04 #@! TD.AperFunction*
G04 #@! TA.AperFunction,SMDPad,CuDef*
G36*
G01*
X164716000Y-73897500D02*
X164716000Y-73422500D01*
G75*
G02*
X164953500Y-73185000I237500J0D01*
G01*
X165453500Y-73185000D01*
G75*
G02*
X165691000Y-73422500I0J-237500D01*
G01*
X165691000Y-73897500D01*
G75*
G02*
X165453500Y-74135000I-237500J0D01*
G01*
X164953500Y-74135000D01*
G75*
G02*
X164716000Y-73897500I0J237500D01*
G01*
G37*
G04 #@! TD.AperFunction*
G04 #@! TA.AperFunction,SMDPad,CuDef*
G36*
G01*
X165691000Y-69866500D02*
X165691000Y-70341500D01*
G75*
G02*
X165453500Y-70579000I-237500J0D01*
G01*
X164953500Y-70579000D01*
G75*
G02*
X164716000Y-70341500I0J237500D01*
G01*
X164716000Y-69866500D01*
G75*
G02*
X164953500Y-69629000I237500J0D01*
G01*
X165453500Y-69629000D01*
G75*
G02*
X165691000Y-69866500I0J-237500D01*
G01*
G37*
G04 #@! TD.AperFunction*
G04 #@! TA.AperFunction,SMDPad,CuDef*
G36*
G01*
X167516000Y-69866500D02*
X167516000Y-70341500D01*
G75*
G02*
X167278500Y-70579000I-237500J0D01*
G01*
X166778500Y-70579000D01*
G75*
G02*
X166541000Y-70341500I0J237500D01*
G01*
X166541000Y-69866500D01*
G75*
G02*
X166778500Y-69629000I237500J0D01*
G01*
X167278500Y-69629000D01*
G75*
G02*
X167516000Y-69866500I0J-237500D01*
G01*
G37*
G04 #@! TD.AperFunction*
G04 #@! TA.AperFunction,SMDPad,CuDef*
G36*
G01*
X153499000Y-73422500D02*
X153499000Y-73897500D01*
G75*
G02*
X153261500Y-74135000I-237500J0D01*
G01*
X152761500Y-74135000D01*
G75*
G02*
X152524000Y-73897500I0J237500D01*
G01*
X152524000Y-73422500D01*
G75*
G02*
X152761500Y-73185000I237500J0D01*
G01*
X153261500Y-73185000D01*
G75*
G02*
X153499000Y-73422500I0J-237500D01*
G01*
G37*
G04 #@! TD.AperFunction*
G04 #@! TA.AperFunction,SMDPad,CuDef*
G36*
G01*
X155324000Y-73422500D02*
X155324000Y-73897500D01*
G75*
G02*
X155086500Y-74135000I-237500J0D01*
G01*
X154586500Y-74135000D01*
G75*
G02*
X154349000Y-73897500I0J237500D01*
G01*
X154349000Y-73422500D01*
G75*
G02*
X154586500Y-73185000I237500J0D01*
G01*
X155086500Y-73185000D01*
G75*
G02*
X155324000Y-73422500I0J-237500D01*
G01*
G37*
G04 #@! TD.AperFunction*
G04 #@! TA.AperFunction,SMDPad,CuDef*
G36*
G01*
X153499000Y-69866500D02*
X153499000Y-70341500D01*
G75*
G02*
X153261500Y-70579000I-237500J0D01*
G01*
X152761500Y-70579000D01*
G75*
G02*
X152524000Y-70341500I0J237500D01*
G01*
X152524000Y-69866500D01*
G75*
G02*
X152761500Y-69629000I237500J0D01*
G01*
X153261500Y-69629000D01*
G75*
G02*
X153499000Y-69866500I0J-237500D01*
G01*
G37*
G04 #@! TD.AperFunction*
G04 #@! TA.AperFunction,SMDPad,CuDef*
G36*
G01*
X155324000Y-69866500D02*
X155324000Y-70341500D01*
G75*
G02*
X155086500Y-70579000I-237500J0D01*
G01*
X154586500Y-70579000D01*
G75*
G02*
X154349000Y-70341500I0J237500D01*
G01*
X154349000Y-69866500D01*
G75*
G02*
X154586500Y-69629000I237500J0D01*
G01*
X155086500Y-69629000D01*
G75*
G02*
X155324000Y-69866500I0J-237500D01*
G01*
G37*
G04 #@! TD.AperFunction*
G04 #@! TA.AperFunction,SMDPad,CuDef*
G36*
G01*
X137331000Y-70341500D02*
X137331000Y-69866500D01*
G75*
G02*
X137568500Y-69629000I237500J0D01*
G01*
X138068500Y-69629000D01*
G75*
G02*
X138306000Y-69866500I0J-237500D01*
G01*
X138306000Y-70341500D01*
G75*
G02*
X138068500Y-70579000I-237500J0D01*
G01*
X137568500Y-70579000D01*
G75*
G02*
X137331000Y-70341500I0J237500D01*
G01*
G37*
G04 #@! TD.AperFunction*
G04 #@! TA.AperFunction,SMDPad,CuDef*
G36*
G01*
X135506000Y-70341500D02*
X135506000Y-69866500D01*
G75*
G02*
X135743500Y-69629000I237500J0D01*
G01*
X136243500Y-69629000D01*
G75*
G02*
X136481000Y-69866500I0J-237500D01*
G01*
X136481000Y-70341500D01*
G75*
G02*
X136243500Y-70579000I-237500J0D01*
G01*
X135743500Y-70579000D01*
G75*
G02*
X135506000Y-70341500I0J237500D01*
G01*
G37*
G04 #@! TD.AperFunction*
D15*
X143383000Y-101092000D03*
X140843000Y-101092000D03*
X138303000Y-101092000D03*
X133223000Y-101092000D03*
D16*
X130683000Y-101092000D03*
D17*
X150622000Y-63754000D03*
X148082000Y-63754000D03*
X145542000Y-63754000D03*
D18*
X143002000Y-63754000D03*
D17*
X136779000Y-63754000D03*
X134239000Y-63754000D03*
X131699000Y-63754000D03*
D18*
X129159000Y-63754000D03*
G04 #@! TA.AperFunction,ComponentPad*
G36*
G01*
X110058000Y-79997000D02*
X110058000Y-78247000D01*
G75*
G02*
X110933000Y-77372000I875000J0D01*
G01*
X112683000Y-77372000D01*
G75*
G02*
X113558000Y-78247000I0J-875000D01*
G01*
X113558000Y-79997000D01*
G75*
G02*
X112683000Y-80872000I-875000J0D01*
G01*
X110933000Y-80872000D01*
G75*
G02*
X110058000Y-79997000I0J875000D01*
G01*
G37*
G04 #@! TD.AperFunction*
G04 #@! TA.AperFunction,ComponentPad*
G36*
G01*
X107308000Y-75422000D02*
X107308000Y-73422000D01*
G75*
G02*
X108058000Y-72672000I750000J0D01*
G01*
X109558000Y-72672000D01*
G75*
G02*
X110308000Y-73422000I0J-750000D01*
G01*
X110308000Y-75422000D01*
G75*
G02*
X109558000Y-76172000I-750000J0D01*
G01*
X108058000Y-76172000D01*
G75*
G02*
X107308000Y-75422000I0J750000D01*
G01*
G37*
G04 #@! TD.AperFunction*
D19*
X114808000Y-74422000D03*
D20*
X186944000Y-75692000D03*
X186944000Y-71442000D03*
X186944000Y-79942000D03*
G04 #@! TA.AperFunction,SMDPad,CuDef*
G36*
G01*
X113267500Y-107727000D02*
X112792500Y-107727000D01*
G75*
G02*
X112555000Y-107489500I0J237500D01*
G01*
X112555000Y-106914500D01*
G75*
G02*
X112792500Y-106677000I237500J0D01*
G01*
X113267500Y-106677000D01*
G75*
G02*
X113505000Y-106914500I0J-237500D01*
G01*
X113505000Y-107489500D01*
G75*
G02*
X113267500Y-107727000I-237500J0D01*
G01*
G37*
G04 #@! TD.AperFunction*
G04 #@! TA.AperFunction,SMDPad,CuDef*
G36*
G01*
X113267500Y-109477000D02*
X112792500Y-109477000D01*
G75*
G02*
X112555000Y-109239500I0J237500D01*
G01*
X112555000Y-108664500D01*
G75*
G02*
X112792500Y-108427000I237500J0D01*
G01*
X113267500Y-108427000D01*
G75*
G02*
X113505000Y-108664500I0J-237500D01*
G01*
X113505000Y-109239500D01*
G75*
G02*
X113267500Y-109477000I-237500J0D01*
G01*
G37*
G04 #@! TD.AperFunction*
G04 #@! TA.AperFunction,SMDPad,CuDef*
G36*
G01*
X122665500Y-107727000D02*
X122190500Y-107727000D01*
G75*
G02*
X121953000Y-107489500I0J237500D01*
G01*
X121953000Y-106914500D01*
G75*
G02*
X122190500Y-106677000I237500J0D01*
G01*
X122665500Y-106677000D01*
G75*
G02*
X122903000Y-106914500I0J-237500D01*
G01*
X122903000Y-107489500D01*
G75*
G02*
X122665500Y-107727000I-237500J0D01*
G01*
G37*
G04 #@! TD.AperFunction*
G04 #@! TA.AperFunction,SMDPad,CuDef*
G36*
G01*
X122665500Y-109477000D02*
X122190500Y-109477000D01*
G75*
G02*
X121953000Y-109239500I0J237500D01*
G01*
X121953000Y-108664500D01*
G75*
G02*
X122190500Y-108427000I237500J0D01*
G01*
X122665500Y-108427000D01*
G75*
G02*
X122903000Y-108664500I0J-237500D01*
G01*
X122903000Y-109239500D01*
G75*
G02*
X122665500Y-109477000I-237500J0D01*
G01*
G37*
G04 #@! TD.AperFunction*
G04 #@! TA.AperFunction,SMDPad,CuDef*
G36*
G01*
X144811000Y-87392500D02*
X144811000Y-87867500D01*
G75*
G02*
X144573500Y-88105000I-237500J0D01*
G01*
X143998500Y-88105000D01*
G75*
G02*
X143761000Y-87867500I0J237500D01*
G01*
X143761000Y-87392500D01*
G75*
G02*
X143998500Y-87155000I237500J0D01*
G01*
X144573500Y-87155000D01*
G75*
G02*
X144811000Y-87392500I0J-237500D01*
G01*
G37*
G04 #@! TD.AperFunction*
G04 #@! TA.AperFunction,SMDPad,CuDef*
G36*
G01*
X146561000Y-87392500D02*
X146561000Y-87867500D01*
G75*
G02*
X146323500Y-88105000I-237500J0D01*
G01*
X145748500Y-88105000D01*
G75*
G02*
X145511000Y-87867500I0J237500D01*
G01*
X145511000Y-87392500D01*
G75*
G02*
X145748500Y-87155000I237500J0D01*
G01*
X146323500Y-87155000D01*
G75*
G02*
X146561000Y-87392500I0J-237500D01*
G01*
G37*
G04 #@! TD.AperFunction*
G04 #@! TA.AperFunction,SMDPad,CuDef*
G36*
G01*
X138065500Y-82113000D02*
X138540500Y-82113000D01*
G75*
G02*
X138778000Y-82350500I0J-237500D01*
G01*
X138778000Y-82950500D01*
G75*
G02*
X138540500Y-83188000I-237500J0D01*
G01*
X138065500Y-83188000D01*
G75*
G02*
X137828000Y-82950500I0J237500D01*
G01*
X137828000Y-82350500D01*
G75*
G02*
X138065500Y-82113000I237500J0D01*
G01*
G37*
G04 #@! TD.AperFunction*
G04 #@! TA.AperFunction,SMDPad,CuDef*
G36*
G01*
X138065500Y-80388000D02*
X138540500Y-80388000D01*
G75*
G02*
X138778000Y-80625500I0J-237500D01*
G01*
X138778000Y-81225500D01*
G75*
G02*
X138540500Y-81463000I-237500J0D01*
G01*
X138065500Y-81463000D01*
G75*
G02*
X137828000Y-81225500I0J237500D01*
G01*
X137828000Y-80625500D01*
G75*
G02*
X138065500Y-80388000I237500J0D01*
G01*
G37*
G04 #@! TD.AperFunction*
G04 #@! TA.AperFunction,SMDPad,CuDef*
G36*
G01*
X132214500Y-76882000D02*
X132214500Y-76407000D01*
G75*
G02*
X132452000Y-76169500I237500J0D01*
G01*
X133052000Y-76169500D01*
G75*
G02*
X133289500Y-76407000I0J-237500D01*
G01*
X133289500Y-76882000D01*
G75*
G02*
X133052000Y-77119500I-237500J0D01*
G01*
X132452000Y-77119500D01*
G75*
G02*
X132214500Y-76882000I0J237500D01*
G01*
G37*
G04 #@! TD.AperFunction*
G04 #@! TA.AperFunction,SMDPad,CuDef*
G36*
G01*
X130489500Y-76882000D02*
X130489500Y-76407000D01*
G75*
G02*
X130727000Y-76169500I237500J0D01*
G01*
X131327000Y-76169500D01*
G75*
G02*
X131564500Y-76407000I0J-237500D01*
G01*
X131564500Y-76882000D01*
G75*
G02*
X131327000Y-77119500I-237500J0D01*
G01*
X130727000Y-77119500D01*
G75*
G02*
X130489500Y-76882000I0J237500D01*
G01*
G37*
G04 #@! TD.AperFunction*
G04 #@! TA.AperFunction,SMDPad,CuDef*
G36*
G01*
X147844500Y-81769000D02*
X148319500Y-81769000D01*
G75*
G02*
X148557000Y-82006500I0J-237500D01*
G01*
X148557000Y-82606500D01*
G75*
G02*
X148319500Y-82844000I-237500J0D01*
G01*
X147844500Y-82844000D01*
G75*
G02*
X147607000Y-82606500I0J237500D01*
G01*
X147607000Y-82006500D01*
G75*
G02*
X147844500Y-81769000I237500J0D01*
G01*
G37*
G04 #@! TD.AperFunction*
G04 #@! TA.AperFunction,SMDPad,CuDef*
G36*
G01*
X147844500Y-80044000D02*
X148319500Y-80044000D01*
G75*
G02*
X148557000Y-80281500I0J-237500D01*
G01*
X148557000Y-80881500D01*
G75*
G02*
X148319500Y-81119000I-237500J0D01*
G01*
X147844500Y-81119000D01*
G75*
G02*
X147607000Y-80881500I0J237500D01*
G01*
X147607000Y-80281500D01*
G75*
G02*
X147844500Y-80044000I237500J0D01*
G01*
G37*
G04 #@! TD.AperFunction*
G04 #@! TA.AperFunction,SMDPad,CuDef*
G36*
G01*
X117555000Y-106560500D02*
X118030000Y-106560500D01*
G75*
G02*
X118267500Y-106798000I0J-237500D01*
G01*
X118267500Y-107398000D01*
G75*
G02*
X118030000Y-107635500I-237500J0D01*
G01*
X117555000Y-107635500D01*
G75*
G02*
X117317500Y-107398000I0J237500D01*
G01*
X117317500Y-106798000D01*
G75*
G02*
X117555000Y-106560500I237500J0D01*
G01*
G37*
G04 #@! TD.AperFunction*
G04 #@! TA.AperFunction,SMDPad,CuDef*
G36*
G01*
X117555000Y-104835500D02*
X118030000Y-104835500D01*
G75*
G02*
X118267500Y-105073000I0J-237500D01*
G01*
X118267500Y-105673000D01*
G75*
G02*
X118030000Y-105910500I-237500J0D01*
G01*
X117555000Y-105910500D01*
G75*
G02*
X117317500Y-105673000I0J237500D01*
G01*
X117317500Y-105073000D01*
G75*
G02*
X117555000Y-104835500I237500J0D01*
G01*
G37*
G04 #@! TD.AperFunction*
G04 #@! TA.AperFunction,SMDPad,CuDef*
G36*
G01*
X118093500Y-96703000D02*
X117618500Y-96703000D01*
G75*
G02*
X117381000Y-96465500I0J237500D01*
G01*
X117381000Y-95865500D01*
G75*
G02*
X117618500Y-95628000I237500J0D01*
G01*
X118093500Y-95628000D01*
G75*
G02*
X118331000Y-95865500I0J-237500D01*
G01*
X118331000Y-96465500D01*
G75*
G02*
X118093500Y-96703000I-237500J0D01*
G01*
G37*
G04 #@! TD.AperFunction*
G04 #@! TA.AperFunction,SMDPad,CuDef*
G36*
G01*
X118093500Y-98428000D02*
X117618500Y-98428000D01*
G75*
G02*
X117381000Y-98190500I0J237500D01*
G01*
X117381000Y-97590500D01*
G75*
G02*
X117618500Y-97353000I237500J0D01*
G01*
X118093500Y-97353000D01*
G75*
G02*
X118331000Y-97590500I0J-237500D01*
G01*
X118331000Y-98190500D01*
G75*
G02*
X118093500Y-98428000I-237500J0D01*
G01*
G37*
G04 #@! TD.AperFunction*
G04 #@! TA.AperFunction,SMDPad,CuDef*
G36*
G01*
X161219000Y-68850500D02*
X161219000Y-69325500D01*
G75*
G02*
X160981500Y-69563000I-237500J0D01*
G01*
X160381500Y-69563000D01*
G75*
G02*
X160144000Y-69325500I0J237500D01*
G01*
X160144000Y-68850500D01*
G75*
G02*
X160381500Y-68613000I237500J0D01*
G01*
X160981500Y-68613000D01*
G75*
G02*
X161219000Y-68850500I0J-237500D01*
G01*
G37*
G04 #@! TD.AperFunction*
G04 #@! TA.AperFunction,SMDPad,CuDef*
G36*
G01*
X162944000Y-68850500D02*
X162944000Y-69325500D01*
G75*
G02*
X162706500Y-69563000I-237500J0D01*
G01*
X162106500Y-69563000D01*
G75*
G02*
X161869000Y-69325500I0J237500D01*
G01*
X161869000Y-68850500D01*
G75*
G02*
X162106500Y-68613000I237500J0D01*
G01*
X162706500Y-68613000D01*
G75*
G02*
X162944000Y-68850500I0J-237500D01*
G01*
G37*
G04 #@! TD.AperFunction*
G04 #@! TA.AperFunction,SMDPad,CuDef*
G36*
G01*
X174569000Y-88629500D02*
X174569000Y-88154500D01*
G75*
G02*
X174806500Y-87917000I237500J0D01*
G01*
X175406500Y-87917000D01*
G75*
G02*
X175644000Y-88154500I0J-237500D01*
G01*
X175644000Y-88629500D01*
G75*
G02*
X175406500Y-88867000I-237500J0D01*
G01*
X174806500Y-88867000D01*
G75*
G02*
X174569000Y-88629500I0J237500D01*
G01*
G37*
G04 #@! TD.AperFunction*
G04 #@! TA.AperFunction,SMDPad,CuDef*
G36*
G01*
X172844000Y-88629500D02*
X172844000Y-88154500D01*
G75*
G02*
X173081500Y-87917000I237500J0D01*
G01*
X173681500Y-87917000D01*
G75*
G02*
X173919000Y-88154500I0J-237500D01*
G01*
X173919000Y-88629500D01*
G75*
G02*
X173681500Y-88867000I-237500J0D01*
G01*
X173081500Y-88867000D01*
G75*
G02*
X172844000Y-88629500I0J237500D01*
G01*
G37*
G04 #@! TD.AperFunction*
G04 #@! TA.AperFunction,SMDPad,CuDef*
G36*
G01*
X177529500Y-71049000D02*
X177054500Y-71049000D01*
G75*
G02*
X176817000Y-70811500I0J237500D01*
G01*
X176817000Y-70211500D01*
G75*
G02*
X177054500Y-69974000I237500J0D01*
G01*
X177529500Y-69974000D01*
G75*
G02*
X177767000Y-70211500I0J-237500D01*
G01*
X177767000Y-70811500D01*
G75*
G02*
X177529500Y-71049000I-237500J0D01*
G01*
G37*
G04 #@! TD.AperFunction*
G04 #@! TA.AperFunction,SMDPad,CuDef*
G36*
G01*
X177529500Y-72774000D02*
X177054500Y-72774000D01*
G75*
G02*
X176817000Y-72536500I0J237500D01*
G01*
X176817000Y-71936500D01*
G75*
G02*
X177054500Y-71699000I237500J0D01*
G01*
X177529500Y-71699000D01*
G75*
G02*
X177767000Y-71936500I0J-237500D01*
G01*
X177767000Y-72536500D01*
G75*
G02*
X177529500Y-72774000I-237500J0D01*
G01*
G37*
G04 #@! TD.AperFunction*
G04 #@! TA.AperFunction,SMDPad,CuDef*
G36*
G01*
X142296000Y-103140500D02*
X142296000Y-103615500D01*
G75*
G02*
X142058500Y-103853000I-237500J0D01*
G01*
X141458500Y-103853000D01*
G75*
G02*
X141221000Y-103615500I0J237500D01*
G01*
X141221000Y-103140500D01*
G75*
G02*
X141458500Y-102903000I237500J0D01*
G01*
X142058500Y-102903000D01*
G75*
G02*
X142296000Y-103140500I0J-237500D01*
G01*
G37*
G04 #@! TD.AperFunction*
G04 #@! TA.AperFunction,SMDPad,CuDef*
G36*
G01*
X144021000Y-103140500D02*
X144021000Y-103615500D01*
G75*
G02*
X143783500Y-103853000I-237500J0D01*
G01*
X143183500Y-103853000D01*
G75*
G02*
X142946000Y-103615500I0J237500D01*
G01*
X142946000Y-103140500D01*
G75*
G02*
X143183500Y-102903000I237500J0D01*
G01*
X143783500Y-102903000D01*
G75*
G02*
X144021000Y-103140500I0J-237500D01*
G01*
G37*
G04 #@! TD.AperFunction*
G04 #@! TA.AperFunction,SMDPad,CuDef*
G36*
G01*
X158957000Y-93797000D02*
X159432000Y-93797000D01*
G75*
G02*
X159669500Y-94034500I0J-237500D01*
G01*
X159669500Y-94634500D01*
G75*
G02*
X159432000Y-94872000I-237500J0D01*
G01*
X158957000Y-94872000D01*
G75*
G02*
X158719500Y-94634500I0J237500D01*
G01*
X158719500Y-94034500D01*
G75*
G02*
X158957000Y-93797000I237500J0D01*
G01*
G37*
G04 #@! TD.AperFunction*
G04 #@! TA.AperFunction,SMDPad,CuDef*
G36*
G01*
X158957000Y-92072000D02*
X159432000Y-92072000D01*
G75*
G02*
X159669500Y-92309500I0J-237500D01*
G01*
X159669500Y-92909500D01*
G75*
G02*
X159432000Y-93147000I-237500J0D01*
G01*
X158957000Y-93147000D01*
G75*
G02*
X158719500Y-92909500I0J237500D01*
G01*
X158719500Y-92309500D01*
G75*
G02*
X158957000Y-92072000I237500J0D01*
G01*
G37*
G04 #@! TD.AperFunction*
G04 #@! TA.AperFunction,SMDPad,CuDef*
G36*
G01*
X122978000Y-90057000D02*
X121878000Y-90057000D01*
G75*
G02*
X121628000Y-89807000I0J250000D01*
G01*
X121628000Y-86982000D01*
G75*
G02*
X121878000Y-86732000I250000J0D01*
G01*
X122978000Y-86732000D01*
G75*
G02*
X123228000Y-86982000I0J-250000D01*
G01*
X123228000Y-89807000D01*
G75*
G02*
X122978000Y-90057000I-250000J0D01*
G01*
G37*
G04 #@! TD.AperFunction*
G04 #@! TA.AperFunction,SMDPad,CuDef*
G36*
G01*
X122978000Y-95132000D02*
X121878000Y-95132000D01*
G75*
G02*
X121628000Y-94882000I0J250000D01*
G01*
X121628000Y-92057000D01*
G75*
G02*
X121878000Y-91807000I250000J0D01*
G01*
X122978000Y-91807000D01*
G75*
G02*
X123228000Y-92057000I0J-250000D01*
G01*
X123228000Y-94882000D01*
G75*
G02*
X122978000Y-95132000I-250000J0D01*
G01*
G37*
G04 #@! TD.AperFunction*
G04 #@! TA.AperFunction,SMDPad,CuDef*
G36*
G01*
X114159000Y-91482000D02*
X114159000Y-90382000D01*
G75*
G02*
X114409000Y-90132000I250000J0D01*
G01*
X117234000Y-90132000D01*
G75*
G02*
X117484000Y-90382000I0J-250000D01*
G01*
X117484000Y-91482000D01*
G75*
G02*
X117234000Y-91732000I-250000J0D01*
G01*
X114409000Y-91732000D01*
G75*
G02*
X114159000Y-91482000I0J250000D01*
G01*
G37*
G04 #@! TD.AperFunction*
G04 #@! TA.AperFunction,SMDPad,CuDef*
G36*
G01*
X109084000Y-91482000D02*
X109084000Y-90382000D01*
G75*
G02*
X109334000Y-90132000I250000J0D01*
G01*
X112159000Y-90132000D01*
G75*
G02*
X112409000Y-90382000I0J-250000D01*
G01*
X112409000Y-91482000D01*
G75*
G02*
X112159000Y-91732000I-250000J0D01*
G01*
X109334000Y-91732000D01*
G75*
G02*
X109084000Y-91482000I0J250000D01*
G01*
G37*
G04 #@! TD.AperFunction*
G04 #@! TA.AperFunction,SMDPad,CuDef*
G36*
G01*
X158821000Y-76945500D02*
X158821000Y-76470500D01*
G75*
G02*
X159058500Y-76233000I237500J0D01*
G01*
X159658500Y-76233000D01*
G75*
G02*
X159896000Y-76470500I0J-237500D01*
G01*
X159896000Y-76945500D01*
G75*
G02*
X159658500Y-77183000I-237500J0D01*
G01*
X159058500Y-77183000D01*
G75*
G02*
X158821000Y-76945500I0J237500D01*
G01*
G37*
G04 #@! TD.AperFunction*
G04 #@! TA.AperFunction,SMDPad,CuDef*
G36*
G01*
X157096000Y-76945500D02*
X157096000Y-76470500D01*
G75*
G02*
X157333500Y-76233000I237500J0D01*
G01*
X157933500Y-76233000D01*
G75*
G02*
X158171000Y-76470500I0J-237500D01*
G01*
X158171000Y-76945500D01*
G75*
G02*
X157933500Y-77183000I-237500J0D01*
G01*
X157333500Y-77183000D01*
G75*
G02*
X157096000Y-76945500I0J237500D01*
G01*
G37*
G04 #@! TD.AperFunction*
G04 #@! TA.AperFunction,SMDPad,CuDef*
G36*
G01*
X176967000Y-80534500D02*
X176967000Y-81009500D01*
G75*
G02*
X176729500Y-81247000I-237500J0D01*
G01*
X176129500Y-81247000D01*
G75*
G02*
X175892000Y-81009500I0J237500D01*
G01*
X175892000Y-80534500D01*
G75*
G02*
X176129500Y-80297000I237500J0D01*
G01*
X176729500Y-80297000D01*
G75*
G02*
X176967000Y-80534500I0J-237500D01*
G01*
G37*
G04 #@! TD.AperFunction*
G04 #@! TA.AperFunction,SMDPad,CuDef*
G36*
G01*
X178692000Y-80534500D02*
X178692000Y-81009500D01*
G75*
G02*
X178454500Y-81247000I-237500J0D01*
G01*
X177854500Y-81247000D01*
G75*
G02*
X177617000Y-81009500I0J237500D01*
G01*
X177617000Y-80534500D01*
G75*
G02*
X177854500Y-80297000I237500J0D01*
G01*
X178454500Y-80297000D01*
G75*
G02*
X178692000Y-80534500I0J-237500D01*
G01*
G37*
G04 #@! TD.AperFunction*
G04 #@! TA.AperFunction,SMDPad,CuDef*
G36*
G01*
X171013000Y-76945500D02*
X171013000Y-76470500D01*
G75*
G02*
X171250500Y-76233000I237500J0D01*
G01*
X171850500Y-76233000D01*
G75*
G02*
X172088000Y-76470500I0J-237500D01*
G01*
X172088000Y-76945500D01*
G75*
G02*
X171850500Y-77183000I-237500J0D01*
G01*
X171250500Y-77183000D01*
G75*
G02*
X171013000Y-76945500I0J237500D01*
G01*
G37*
G04 #@! TD.AperFunction*
G04 #@! TA.AperFunction,SMDPad,CuDef*
G36*
G01*
X169288000Y-76945500D02*
X169288000Y-76470500D01*
G75*
G02*
X169525500Y-76233000I237500J0D01*
G01*
X170125500Y-76233000D01*
G75*
G02*
X170363000Y-76470500I0J-237500D01*
G01*
X170363000Y-76945500D01*
G75*
G02*
X170125500Y-77183000I-237500J0D01*
G01*
X169525500Y-77183000D01*
G75*
G02*
X169288000Y-76945500I0J237500D01*
G01*
G37*
G04 #@! TD.AperFunction*
G04 #@! TA.AperFunction,SMDPad,CuDef*
G36*
G01*
X139390000Y-103615500D02*
X139390000Y-103140500D01*
G75*
G02*
X139627500Y-102903000I237500J0D01*
G01*
X140227500Y-102903000D01*
G75*
G02*
X140465000Y-103140500I0J-237500D01*
G01*
X140465000Y-103615500D01*
G75*
G02*
X140227500Y-103853000I-237500J0D01*
G01*
X139627500Y-103853000D01*
G75*
G02*
X139390000Y-103615500I0J237500D01*
G01*
G37*
G04 #@! TD.AperFunction*
G04 #@! TA.AperFunction,SMDPad,CuDef*
G36*
G01*
X137665000Y-103615500D02*
X137665000Y-103140500D01*
G75*
G02*
X137902500Y-102903000I237500J0D01*
G01*
X138502500Y-102903000D01*
G75*
G02*
X138740000Y-103140500I0J-237500D01*
G01*
X138740000Y-103615500D01*
G75*
G02*
X138502500Y-103853000I-237500J0D01*
G01*
X137902500Y-103853000D01*
G75*
G02*
X137665000Y-103615500I0J237500D01*
G01*
G37*
G04 #@! TD.AperFunction*
G04 #@! TA.AperFunction,SMDPad,CuDef*
G36*
G01*
X170251000Y-86597500D02*
X170251000Y-86122500D01*
G75*
G02*
X170488500Y-85885000I237500J0D01*
G01*
X171088500Y-85885000D01*
G75*
G02*
X171326000Y-86122500I0J-237500D01*
G01*
X171326000Y-86597500D01*
G75*
G02*
X171088500Y-86835000I-237500J0D01*
G01*
X170488500Y-86835000D01*
G75*
G02*
X170251000Y-86597500I0J237500D01*
G01*
G37*
G04 #@! TD.AperFunction*
G04 #@! TA.AperFunction,SMDPad,CuDef*
G36*
G01*
X168526000Y-86597500D02*
X168526000Y-86122500D01*
G75*
G02*
X168763500Y-85885000I237500J0D01*
G01*
X169363500Y-85885000D01*
G75*
G02*
X169601000Y-86122500I0J-237500D01*
G01*
X169601000Y-86597500D01*
G75*
G02*
X169363500Y-86835000I-237500J0D01*
G01*
X168763500Y-86835000D01*
G75*
G02*
X168526000Y-86597500I0J237500D01*
G01*
G37*
G04 #@! TD.AperFunction*
G04 #@! TA.AperFunction,SMDPad,CuDef*
G36*
G01*
X166441000Y-75675500D02*
X166441000Y-75200500D01*
G75*
G02*
X166678500Y-74963000I237500J0D01*
G01*
X167278500Y-74963000D01*
G75*
G02*
X167516000Y-75200500I0J-237500D01*
G01*
X167516000Y-75675500D01*
G75*
G02*
X167278500Y-75913000I-237500J0D01*
G01*
X166678500Y-75913000D01*
G75*
G02*
X166441000Y-75675500I0J237500D01*
G01*
G37*
G04 #@! TD.AperFunction*
G04 #@! TA.AperFunction,SMDPad,CuDef*
G36*
G01*
X164716000Y-75675500D02*
X164716000Y-75200500D01*
G75*
G02*
X164953500Y-74963000I237500J0D01*
G01*
X165553500Y-74963000D01*
G75*
G02*
X165791000Y-75200500I0J-237500D01*
G01*
X165791000Y-75675500D01*
G75*
G02*
X165553500Y-75913000I-237500J0D01*
G01*
X164953500Y-75913000D01*
G75*
G02*
X164716000Y-75675500I0J237500D01*
G01*
G37*
G04 #@! TD.AperFunction*
G04 #@! TA.AperFunction,SMDPad,CuDef*
G36*
G01*
X153599000Y-75200500D02*
X153599000Y-75675500D01*
G75*
G02*
X153361500Y-75913000I-237500J0D01*
G01*
X152761500Y-75913000D01*
G75*
G02*
X152524000Y-75675500I0J237500D01*
G01*
X152524000Y-75200500D01*
G75*
G02*
X152761500Y-74963000I237500J0D01*
G01*
X153361500Y-74963000D01*
G75*
G02*
X153599000Y-75200500I0J-237500D01*
G01*
G37*
G04 #@! TD.AperFunction*
G04 #@! TA.AperFunction,SMDPad,CuDef*
G36*
G01*
X155324000Y-75200500D02*
X155324000Y-75675500D01*
G75*
G02*
X155086500Y-75913000I-237500J0D01*
G01*
X154486500Y-75913000D01*
G75*
G02*
X154249000Y-75675500I0J237500D01*
G01*
X154249000Y-75200500D01*
G75*
G02*
X154486500Y-74963000I237500J0D01*
G01*
X155086500Y-74963000D01*
G75*
G02*
X155324000Y-75200500I0J-237500D01*
G01*
G37*
G04 #@! TD.AperFunction*
G04 #@! TA.AperFunction,SMDPad,CuDef*
G36*
G01*
X166441000Y-72119500D02*
X166441000Y-71644500D01*
G75*
G02*
X166678500Y-71407000I237500J0D01*
G01*
X167278500Y-71407000D01*
G75*
G02*
X167516000Y-71644500I0J-237500D01*
G01*
X167516000Y-72119500D01*
G75*
G02*
X167278500Y-72357000I-237500J0D01*
G01*
X166678500Y-72357000D01*
G75*
G02*
X166441000Y-72119500I0J237500D01*
G01*
G37*
G04 #@! TD.AperFunction*
G04 #@! TA.AperFunction,SMDPad,CuDef*
G36*
G01*
X164716000Y-72119500D02*
X164716000Y-71644500D01*
G75*
G02*
X164953500Y-71407000I237500J0D01*
G01*
X165553500Y-71407000D01*
G75*
G02*
X165791000Y-71644500I0J-237500D01*
G01*
X165791000Y-72119500D01*
G75*
G02*
X165553500Y-72357000I-237500J0D01*
G01*
X164953500Y-72357000D01*
G75*
G02*
X164716000Y-72119500I0J237500D01*
G01*
G37*
G04 #@! TD.AperFunction*
G04 #@! TA.AperFunction,SMDPad,CuDef*
G36*
G01*
X153599000Y-71644500D02*
X153599000Y-72119500D01*
G75*
G02*
X153361500Y-72357000I-237500J0D01*
G01*
X152761500Y-72357000D01*
G75*
G02*
X152524000Y-72119500I0J237500D01*
G01*
X152524000Y-71644500D01*
G75*
G02*
X152761500Y-71407000I237500J0D01*
G01*
X153361500Y-71407000D01*
G75*
G02*
X153599000Y-71644500I0J-237500D01*
G01*
G37*
G04 #@! TD.AperFunction*
G04 #@! TA.AperFunction,SMDPad,CuDef*
G36*
G01*
X155324000Y-71644500D02*
X155324000Y-72119500D01*
G75*
G02*
X155086500Y-72357000I-237500J0D01*
G01*
X154486500Y-72357000D01*
G75*
G02*
X154249000Y-72119500I0J237500D01*
G01*
X154249000Y-71644500D01*
G75*
G02*
X154486500Y-71407000I237500J0D01*
G01*
X155086500Y-71407000D01*
G75*
G02*
X155324000Y-71644500I0J-237500D01*
G01*
G37*
G04 #@! TD.AperFunction*
G04 #@! TA.AperFunction,SMDPad,CuDef*
G36*
G01*
X137231000Y-72119500D02*
X137231000Y-71644500D01*
G75*
G02*
X137468500Y-71407000I237500J0D01*
G01*
X138068500Y-71407000D01*
G75*
G02*
X138306000Y-71644500I0J-237500D01*
G01*
X138306000Y-72119500D01*
G75*
G02*
X138068500Y-72357000I-237500J0D01*
G01*
X137468500Y-72357000D01*
G75*
G02*
X137231000Y-72119500I0J237500D01*
G01*
G37*
G04 #@! TD.AperFunction*
G04 #@! TA.AperFunction,SMDPad,CuDef*
G36*
G01*
X135506000Y-72119500D02*
X135506000Y-71644500D01*
G75*
G02*
X135743500Y-71407000I237500J0D01*
G01*
X136343500Y-71407000D01*
G75*
G02*
X136581000Y-71644500I0J-237500D01*
G01*
X136581000Y-72119500D01*
G75*
G02*
X136343500Y-72357000I-237500J0D01*
G01*
X135743500Y-72357000D01*
G75*
G02*
X135506000Y-72119500I0J237500D01*
G01*
G37*
G04 #@! TD.AperFunction*
G04 #@! TA.AperFunction,SMDPad,CuDef*
G36*
G01*
X136581000Y-73422500D02*
X136581000Y-73897500D01*
G75*
G02*
X136343500Y-74135000I-237500J0D01*
G01*
X135743500Y-74135000D01*
G75*
G02*
X135506000Y-73897500I0J237500D01*
G01*
X135506000Y-73422500D01*
G75*
G02*
X135743500Y-73185000I237500J0D01*
G01*
X136343500Y-73185000D01*
G75*
G02*
X136581000Y-73422500I0J-237500D01*
G01*
G37*
G04 #@! TD.AperFunction*
G04 #@! TA.AperFunction,SMDPad,CuDef*
G36*
G01*
X138306000Y-73422500D02*
X138306000Y-73897500D01*
G75*
G02*
X138068500Y-74135000I-237500J0D01*
G01*
X137468500Y-74135000D01*
G75*
G02*
X137231000Y-73897500I0J237500D01*
G01*
X137231000Y-73422500D01*
G75*
G02*
X137468500Y-73185000I237500J0D01*
G01*
X138068500Y-73185000D01*
G75*
G02*
X138306000Y-73422500I0J-237500D01*
G01*
G37*
G04 #@! TD.AperFunction*
G04 #@! TA.AperFunction,SMDPad,CuDef*
G36*
G01*
X136581000Y-75200500D02*
X136581000Y-75675500D01*
G75*
G02*
X136343500Y-75913000I-237500J0D01*
G01*
X135743500Y-75913000D01*
G75*
G02*
X135506000Y-75675500I0J237500D01*
G01*
X135506000Y-75200500D01*
G75*
G02*
X135743500Y-74963000I237500J0D01*
G01*
X136343500Y-74963000D01*
G75*
G02*
X136581000Y-75200500I0J-237500D01*
G01*
G37*
G04 #@! TD.AperFunction*
G04 #@! TA.AperFunction,SMDPad,CuDef*
G36*
G01*
X138306000Y-75200500D02*
X138306000Y-75675500D01*
G75*
G02*
X138068500Y-75913000I-237500J0D01*
G01*
X137468500Y-75913000D01*
G75*
G02*
X137231000Y-75675500I0J237500D01*
G01*
X137231000Y-75200500D01*
G75*
G02*
X137468500Y-74963000I237500J0D01*
G01*
X138068500Y-74963000D01*
G75*
G02*
X138306000Y-75200500I0J-237500D01*
G01*
G37*
G04 #@! TD.AperFunction*
D21*
X171577000Y-75565000D03*
D22*
X147193000Y-76390500D03*
D21*
X163258500Y-95123000D03*
X157988000Y-94297500D03*
X155702000Y-88138000D03*
X115443000Y-99822000D03*
X124714000Y-99822000D03*
X117856000Y-108394500D03*
X134747000Y-70104000D03*
X134747000Y-71882000D03*
X134747000Y-75438000D03*
X132715000Y-75438000D03*
X138303000Y-83947000D03*
X136144000Y-84963000D03*
X115824000Y-105918000D03*
X125222000Y-105918000D03*
X141732000Y-104648000D03*
X139827000Y-104648000D03*
X178562000Y-70485000D03*
X175133000Y-89662000D03*
X170815000Y-87503000D03*
X164973000Y-83947000D03*
X164973000Y-82677000D03*
X174879000Y-82677000D03*
X176657000Y-83947000D03*
X187198000Y-85852000D03*
X185039000Y-85852000D03*
X168275000Y-75438000D03*
X151257000Y-71882000D03*
X151257000Y-70104000D03*
X159385000Y-69088000D03*
X176403000Y-79629000D03*
X159385000Y-77851000D03*
X151892000Y-75438000D03*
D22*
X147129500Y-81597500D03*
X147193000Y-72517000D03*
X141478000Y-73660000D03*
X140843000Y-76771500D03*
X114300000Y-92964000D03*
X115824000Y-92964000D03*
X117348000Y-92964000D03*
X120396000Y-88392000D03*
X120396000Y-86868000D03*
X120396000Y-89916000D03*
X114300000Y-95504000D03*
X115824000Y-95504000D03*
X118872000Y-86868000D03*
X118872000Y-88392000D03*
D21*
X143002000Y-87630000D03*
X150114000Y-88138000D03*
X134747000Y-73660000D03*
X131064000Y-75438000D03*
X138303000Y-79756000D03*
D22*
X141414500Y-72263000D03*
X150304500Y-82931000D03*
D21*
X122428000Y-100076000D03*
X122428000Y-101092000D03*
X122428000Y-102108000D03*
X119380000Y-103124000D03*
X119380000Y-104140000D03*
X119380000Y-105156000D03*
D22*
X164084000Y-70104000D03*
X159004000Y-71628000D03*
D21*
X138176000Y-104648000D03*
X178181000Y-79629000D03*
X169799000Y-77851000D03*
X157607000Y-77851000D03*
D22*
X158014500Y-92609500D03*
X111887000Y-95758000D03*
D21*
X158623000Y-82931000D03*
X159893000Y-86487000D03*
X162433000Y-67945000D03*
X143510000Y-104648000D03*
X173355000Y-89662000D03*
X178562000Y-72263000D03*
D22*
X117856000Y-99568000D03*
X117856000Y-100584000D03*
X117856000Y-101600000D03*
D21*
X124000000Y-92000000D03*
D22*
X141478000Y-68580000D03*
X149606000Y-80264000D03*
X141478000Y-83566000D03*
X148844000Y-79502000D03*
X144526000Y-84201000D03*
X148082000Y-78740000D03*
X144526000Y-82905000D03*
X153035000Y-84772500D03*
X142049500Y-85026500D03*
D23*
X171577000Y-76734500D02*
X171577000Y-75565000D01*
D24*
X147193000Y-75882500D02*
X147193000Y-76390500D01*
X147193000Y-75438000D02*
X147193000Y-75882500D01*
X145864500Y-75796500D02*
X147107000Y-75796500D01*
X145864500Y-75146500D02*
X146901500Y-75146500D01*
X146901500Y-75146500D02*
X147193000Y-75438000D01*
D23*
X162089000Y-95123000D02*
X163258500Y-95123000D01*
X159157500Y-94297500D02*
X157988000Y-94297500D01*
X156871500Y-88138000D02*
X155702000Y-88138000D01*
X115443000Y-98652500D02*
X115443000Y-99822000D01*
X124714000Y-98652500D02*
X124714000Y-99822000D01*
X117856000Y-107225000D02*
X117856000Y-108394500D01*
X135916500Y-70104000D02*
X134747000Y-70104000D01*
X135916500Y-71882000D02*
X134747000Y-71882000D01*
X135916500Y-75438000D02*
X134747000Y-75438000D01*
X132715000Y-76607500D02*
X132715000Y-75438000D01*
X138303000Y-82777500D02*
X138303000Y-83947000D01*
X136144000Y-83793500D02*
X136144000Y-84963000D01*
X115824000Y-107087500D02*
X115824000Y-105918000D01*
X125222000Y-107087500D02*
X125222000Y-105918000D01*
X141732000Y-103478500D02*
X141732000Y-104648000D01*
X139827000Y-103478500D02*
X139827000Y-104648000D01*
X177392500Y-70485000D02*
X178562000Y-70485000D01*
X175133000Y-88492500D02*
X175133000Y-89662000D01*
X170815000Y-86333500D02*
X170815000Y-87503000D01*
X166142500Y-83947000D02*
X164973000Y-83947000D01*
X166142500Y-82677000D02*
X164973000Y-82677000D01*
X173709500Y-82677000D02*
X174879000Y-82677000D01*
X177826500Y-83947000D02*
X176657000Y-83947000D01*
X187198000Y-84682500D02*
X187198000Y-85852000D01*
X185039000Y-84682500D02*
X185039000Y-85852000D01*
X167105500Y-75438000D02*
X168275000Y-75438000D01*
X150087500Y-71882000D02*
X151257000Y-71882000D01*
X150087500Y-70104000D02*
X151257000Y-70104000D01*
X160554500Y-69088000D02*
X159385000Y-69088000D01*
X176403000Y-80798500D02*
X176403000Y-79629000D01*
X159385000Y-76681500D02*
X159385000Y-77851000D01*
X153061500Y-75438000D02*
X151892000Y-75438000D01*
X147320000Y-81597500D02*
X148082000Y-82359500D01*
X145542000Y-81597500D02*
X147129500Y-81597500D01*
X147129500Y-81597500D02*
X147320000Y-81597500D01*
D24*
X145864500Y-71273000D02*
X146901500Y-71273000D01*
X147193000Y-71564500D02*
X147193000Y-72009000D01*
X146901500Y-71273000D02*
X147193000Y-71564500D01*
X147107000Y-71923000D02*
X147193000Y-72009000D01*
X145864500Y-71923000D02*
X147107000Y-71923000D01*
X147193000Y-72009000D02*
X147193000Y-72517000D01*
X140139500Y-73873000D02*
X141414500Y-73873000D01*
X141414500Y-73723500D02*
X141478000Y-73660000D01*
X141414500Y-73873000D02*
X141414500Y-73723500D01*
X140139500Y-75173000D02*
X141022500Y-75173000D01*
X141022500Y-75173000D02*
X141160500Y-75311000D01*
X141160500Y-76454000D02*
X140843000Y-76771500D01*
X141101000Y-75823000D02*
X141160500Y-75882500D01*
X140139500Y-75823000D02*
X141101000Y-75823000D01*
X141160500Y-75882500D02*
X141160500Y-76454000D01*
X141160500Y-75311000D02*
X141160500Y-75882500D01*
X140139500Y-73223000D02*
X139057500Y-73223000D01*
X138747500Y-73533000D02*
X138747500Y-75247500D01*
X139057500Y-73223000D02*
X138747500Y-73533000D01*
X138747500Y-75247500D02*
X138493500Y-75501500D01*
X138493500Y-75501500D02*
X137731500Y-75501500D01*
D23*
X144171500Y-87630000D02*
X143002000Y-87630000D01*
X151283500Y-88138000D02*
X150114000Y-88138000D01*
X135916500Y-73660000D02*
X134747000Y-73660000D01*
X131064000Y-76607500D02*
X131064000Y-75438000D01*
X138303000Y-80925500D02*
X138303000Y-79756000D01*
D24*
X140139500Y-80955000D02*
X138183500Y-80955000D01*
X138183500Y-80955000D02*
X138176000Y-80962500D01*
X146946500Y-80955000D02*
X147383500Y-80518000D01*
X147383500Y-80518000D02*
X148082000Y-80518000D01*
X145864500Y-80955000D02*
X146946500Y-80955000D01*
D23*
X122428000Y-107202000D02*
X122428000Y-104521000D01*
X131027000Y-76644500D02*
X131027000Y-79211000D01*
D24*
X140139500Y-72573000D02*
X141295000Y-72573000D01*
X141295000Y-72573000D02*
X141414500Y-72453500D01*
X141414500Y-72453500D02*
X141414500Y-72263000D01*
X141414500Y-72072500D02*
X141287500Y-71945500D01*
X141287500Y-71945500D02*
X140144500Y-71945500D01*
X141414500Y-72263000D02*
X141414500Y-72072500D01*
D23*
X150304500Y-82931000D02*
X151955500Y-82931000D01*
X149542500Y-82931000D02*
X150304500Y-82931000D01*
X149161500Y-82550000D02*
X149542500Y-82931000D01*
X149161500Y-81026000D02*
X149161500Y-82550000D01*
X148717000Y-80581500D02*
X149161500Y-81026000D01*
X148082000Y-80581500D02*
X148717000Y-80581500D01*
D24*
X140139500Y-80955000D02*
X145915500Y-80955000D01*
X138747500Y-71945500D02*
X138747500Y-72644000D01*
X139420000Y-71273000D02*
X138747500Y-71945500D01*
X138747500Y-72644000D02*
X137731500Y-73660000D01*
X140139500Y-71273000D02*
X139420000Y-71273000D01*
X137922000Y-71945500D02*
X137795000Y-71945500D01*
X139244500Y-70623000D02*
X137922000Y-71945500D01*
X140139500Y-70623000D02*
X139244500Y-70623000D01*
X153011500Y-73660000D02*
X153011500Y-71905500D01*
X153061500Y-71882000D02*
X153098500Y-71882000D01*
X154836500Y-70104000D02*
X154813000Y-70104000D01*
X154813000Y-70104000D02*
X153035000Y-71882000D01*
X158877000Y-70993000D02*
X157543500Y-70993000D01*
X159067500Y-71183500D02*
X158877000Y-70993000D01*
X158877000Y-72263000D02*
X159067500Y-72072500D01*
X159067500Y-72072500D02*
X159067500Y-71183500D01*
X157545000Y-72263000D02*
X158877000Y-72263000D01*
X157545000Y-72263000D02*
X156146500Y-72263000D01*
X156146500Y-72263000D02*
X155892500Y-72009000D01*
X155892500Y-72009000D02*
X155765500Y-71882000D01*
X155765500Y-71882000D02*
X154749500Y-71882000D01*
X165203500Y-70104000D02*
X164084000Y-70104000D01*
X167028500Y-70104000D02*
X167028500Y-73573000D01*
X167028500Y-73573000D02*
X167005000Y-73596500D01*
X161163000Y-73533000D02*
X162496500Y-73533000D01*
X162495000Y-72263000D02*
X161163000Y-72263000D01*
X161163000Y-72263000D02*
X160972500Y-72453500D01*
X160972500Y-73342500D02*
X161163000Y-73533000D01*
X160972500Y-72453500D02*
X160972500Y-73342500D01*
X164274500Y-71818500D02*
X165290500Y-71818500D01*
X163830000Y-72263000D02*
X164274500Y-71818500D01*
X163830000Y-72263000D02*
X162433000Y-72263000D01*
X169737000Y-73533000D02*
X168910000Y-73533000D01*
X166497000Y-74549000D02*
X166116000Y-74168000D01*
X166116000Y-74168000D02*
X166116000Y-72644000D01*
X166116000Y-72644000D02*
X165227000Y-71755000D01*
X166497000Y-74549000D02*
X167767000Y-74549000D01*
X167767000Y-74549000D02*
X168783000Y-73533000D01*
X168783000Y-73533000D02*
X169672000Y-73533000D01*
X154836500Y-73660000D02*
X154836500Y-75398000D01*
X157545000Y-73533000D02*
X154876500Y-73533000D01*
X165203500Y-73660000D02*
X165203500Y-75414500D01*
X165253500Y-75438000D02*
X164401500Y-75438000D01*
X164401500Y-75438000D02*
X163766500Y-74803000D01*
X163766500Y-74803000D02*
X162433000Y-74803000D01*
X166559000Y-85217000D02*
X167449500Y-85217000D01*
X167449500Y-85217000D02*
X168084500Y-84582000D01*
X168084500Y-84582000D02*
X169100500Y-84582000D01*
X169100500Y-84582000D02*
X169100500Y-86360000D01*
D23*
X138176000Y-103478500D02*
X138176000Y-104648000D01*
X178181000Y-80798500D02*
X178181000Y-79629000D01*
X169799000Y-76681500D02*
X169799000Y-77851000D01*
X157607000Y-76681500D02*
X157607000Y-77851000D01*
X157545000Y-74803000D02*
X157545000Y-76646000D01*
X169825500Y-76708000D02*
X169825500Y-74956500D01*
X178154500Y-80772000D02*
X178154500Y-82650500D01*
X138202500Y-103378000D02*
X138202500Y-101065500D01*
X161609000Y-92583000D02*
X159258000Y-92583000D01*
D25*
X159194500Y-92609500D02*
X158014500Y-92609500D01*
D23*
X157453500Y-82931000D02*
X158623000Y-82931000D01*
X161062500Y-86487000D02*
X159893000Y-86487000D01*
X162433000Y-69114500D02*
X162433000Y-67945000D01*
X143510000Y-103478500D02*
X143510000Y-104648000D01*
X173355000Y-88492500D02*
X173355000Y-89662000D01*
X177392500Y-72263000D02*
X178562000Y-72263000D01*
X162406500Y-69088000D02*
X162406500Y-70839500D01*
X174687000Y-72263000D02*
X177165000Y-72263000D01*
X173381500Y-88392000D02*
X173381500Y-86640500D01*
X165212000Y-88900000D02*
X165212000Y-87488000D01*
X165212000Y-87488000D02*
X164211000Y-86487000D01*
X164211000Y-86487000D02*
X161417000Y-86487000D01*
X143483500Y-103378000D02*
X143483500Y-101118500D01*
D25*
X122428000Y-93469500D02*
X122430500Y-93469500D01*
D24*
X178243000Y-86487000D02*
X179768500Y-86487000D01*
X179768500Y-86487000D02*
X180022500Y-86741000D01*
X180022500Y-86741000D02*
X183959500Y-86741000D01*
X180697500Y-84328000D02*
X179808500Y-85217000D01*
X179808500Y-85217000D02*
X178054000Y-85217000D01*
X178243000Y-85217000D02*
X177101500Y-85217000D01*
X177101500Y-85217000D02*
X176657000Y-85661500D01*
X176657000Y-85661500D02*
X176657000Y-86931500D01*
X176657000Y-86931500D02*
X177038000Y-87312500D01*
X177038000Y-87312500D02*
X178371500Y-87312500D01*
X178371500Y-87312500D02*
X178816000Y-87757000D01*
X178816000Y-87757000D02*
X178816000Y-88519000D01*
X178816000Y-88519000D02*
X183578500Y-88519000D01*
X183578500Y-88519000D02*
X183896000Y-88836500D01*
X183896000Y-88836500D02*
X183896000Y-90043000D01*
X181102000Y-90042000D02*
X180087000Y-90042000D01*
X180087000Y-90042000D02*
X179832000Y-90297000D01*
X179832000Y-90297000D02*
X176974500Y-90297000D01*
X146073500Y-85852000D02*
X146073500Y-87479500D01*
X122428000Y-108952000D02*
X125208000Y-108952000D01*
X113030000Y-108952000D02*
X115810000Y-108952000D01*
D23*
X182753000Y-75628500D02*
X187134500Y-75628500D01*
X180657500Y-73533000D02*
X182753000Y-75628500D01*
X173228000Y-73533000D02*
X180657500Y-73533000D01*
X171958000Y-72263000D02*
X173228000Y-73533000D01*
X169737000Y-72263000D02*
X171958000Y-72263000D01*
D24*
X187198000Y-82636000D02*
X184045500Y-82636000D01*
X184045500Y-82636000D02*
X183896000Y-82486500D01*
X183896000Y-82486500D02*
X182435500Y-82486500D01*
X182522500Y-84328000D02*
X182522500Y-82526500D01*
D23*
X187198000Y-82636000D02*
X187198000Y-81788000D01*
X187198000Y-81788000D02*
X186944000Y-81534000D01*
X186944000Y-81534000D02*
X186944000Y-79883000D01*
D24*
X134112000Y-66294000D02*
X134112000Y-63754000D01*
X141732000Y-66802000D02*
X134620000Y-66802000D01*
X143256000Y-78994000D02*
X143256000Y-68326000D01*
X134620000Y-66802000D02*
X134112000Y-66294000D01*
X143256000Y-68326000D02*
X141732000Y-66802000D01*
X143917000Y-79655000D02*
X143256000Y-78994000D01*
X145864500Y-79655000D02*
X143917000Y-79655000D01*
X145864500Y-80305000D02*
X143551000Y-80305000D01*
X143551000Y-80305000D02*
X142748000Y-79502000D01*
X142748000Y-79502000D02*
X142748000Y-68580000D01*
X142748000Y-68580000D02*
X141478000Y-67310000D01*
X141478000Y-67310000D02*
X132588000Y-67310000D01*
X132588000Y-67310000D02*
X131826000Y-66548000D01*
X131826000Y-66548000D02*
X131826000Y-63754000D01*
X148082000Y-65532000D02*
X148082000Y-63754000D01*
X147320000Y-66294000D02*
X148082000Y-65532000D01*
X145796000Y-66294000D02*
X147320000Y-66294000D01*
X144272000Y-67818000D02*
X145796000Y-66294000D01*
X144272000Y-77978000D02*
X144272000Y-67818000D01*
X144649000Y-78355000D02*
X144272000Y-77978000D01*
X145864500Y-78355000D02*
X144649000Y-78355000D01*
X145542000Y-65532000D02*
X145542000Y-63754000D01*
X143764000Y-67310000D02*
X145542000Y-65532000D01*
X144283000Y-79005000D02*
X143764000Y-78486000D01*
X143764000Y-78486000D02*
X143764000Y-67310000D01*
X145864500Y-79005000D02*
X144283000Y-79005000D01*
X140139500Y-80305000D02*
X141691000Y-80305000D01*
X141691000Y-80305000D02*
X142240000Y-79756000D01*
X142240000Y-79756000D02*
X142240000Y-69342000D01*
X142240000Y-69342000D02*
X141478000Y-68580000D01*
D23*
X166559000Y-86487000D02*
X166559000Y-88962000D01*
D24*
X166497000Y-89852500D02*
X166497000Y-88836500D01*
X167703500Y-90106500D02*
X166751000Y-90106500D01*
X166751000Y-90106500D02*
X166497000Y-89852500D01*
X168148000Y-90551000D02*
X167703500Y-90106500D01*
X168148000Y-93567250D02*
X168148000Y-90551000D01*
X167862250Y-93853000D02*
X168148000Y-93567250D01*
X166559000Y-93853000D02*
X167862250Y-93853000D01*
X140139500Y-69973000D02*
X138815000Y-69973000D01*
X138815000Y-69973000D02*
X138620500Y-70167500D01*
X138620500Y-70167500D02*
X137795000Y-70167500D01*
X145864500Y-69973000D02*
X147062000Y-69973000D01*
X147062000Y-69973000D02*
X147256500Y-70167500D01*
X147256500Y-70167500D02*
X148145500Y-70167500D01*
X148185500Y-70104000D02*
X148209000Y-70104000D01*
X148209000Y-70104000D02*
X149225000Y-69088000D01*
X149225000Y-69088000D02*
X152019000Y-69088000D01*
X152019000Y-69088000D02*
X153035000Y-70104000D01*
X145864500Y-70623000D02*
X146950000Y-70623000D01*
X146950000Y-70623000D02*
X148209000Y-71882000D01*
X173293000Y-85217000D02*
X171513500Y-85217000D01*
X171513500Y-85217000D02*
X169037000Y-82740500D01*
X172021500Y-83947000D02*
X170815000Y-82740500D01*
X175450500Y-83947000D02*
X172021500Y-83947000D01*
X176022000Y-84518500D02*
X175450500Y-83947000D01*
X176022000Y-87122000D02*
X176022000Y-84518500D01*
X177038000Y-88138000D02*
X176022000Y-87122000D01*
X177038000Y-88495500D02*
X177038000Y-88138000D01*
X175958500Y-83058000D02*
X175450500Y-83566000D01*
X175450500Y-83566000D02*
X175450500Y-83947000D01*
X177228500Y-83312000D02*
X176974500Y-83058000D01*
X176974500Y-83058000D02*
X175958500Y-83058000D01*
X179935500Y-83312000D02*
X177228500Y-83312000D01*
X180697500Y-82550000D02*
X179935500Y-83312000D01*
X141422000Y-81605000D02*
X140139500Y-81605000D01*
X142621000Y-82804000D02*
X141422000Y-81605000D01*
X142621000Y-84201000D02*
X142621000Y-82804000D01*
X144248500Y-85828500D02*
X142621000Y-84201000D01*
X144248500Y-85852000D02*
X144248500Y-85828500D01*
X145864500Y-73223000D02*
X148026000Y-73223000D01*
X148026000Y-73223000D02*
X149606000Y-74803000D01*
X149606000Y-74803000D02*
X149606000Y-80264000D01*
X141478000Y-83566000D02*
X140208000Y-83566000D01*
X145864500Y-84205000D02*
X147959000Y-84205000D01*
X147959000Y-84205000D02*
X148653500Y-84899500D01*
X148653500Y-84899500D02*
X151638000Y-84899500D01*
X145864500Y-73873000D02*
X147660000Y-73873000D01*
X148844000Y-75057000D02*
X148844000Y-79502000D01*
X147660000Y-73873000D02*
X148844000Y-75057000D01*
X144526000Y-84201000D02*
X145923000Y-84201000D01*
X145864500Y-74523000D02*
X147294000Y-74523000D01*
X147294000Y-74523000D02*
X148082000Y-75311000D01*
X148082000Y-75311000D02*
X148082000Y-78740000D01*
X145864500Y-82905000D02*
X144526000Y-82905000D01*
X141795500Y-78803500D02*
X141605000Y-78994000D01*
X141795500Y-74739500D02*
X141795500Y-78803500D01*
X141579000Y-74523000D02*
X141795500Y-74739500D01*
X141605000Y-78994000D02*
X140017500Y-78994000D01*
X140139500Y-74523000D02*
X141579000Y-74523000D01*
X140139500Y-79005000D02*
X139203000Y-79005000D01*
X139203000Y-79005000D02*
X138747500Y-78549500D01*
X138747500Y-78549500D02*
X137795000Y-78549500D01*
X137795000Y-78549500D02*
X137350500Y-78994000D01*
X137350500Y-78994000D02*
X136080500Y-78994000D01*
X145864500Y-83555000D02*
X148198000Y-83555000D01*
X148198000Y-83555000D02*
X148907500Y-84264500D01*
X148907500Y-84264500D02*
X151638000Y-84264500D01*
X151569500Y-83592000D02*
X152489500Y-83592000D01*
X152489500Y-83592000D02*
X153035000Y-84137500D01*
X153035000Y-84137500D02*
X153035000Y-84772500D01*
X141228000Y-84205000D02*
X142049500Y-85026500D01*
X140139500Y-84205000D02*
X141228000Y-84205000D01*
X157294500Y-84892000D02*
X159123500Y-84892000D01*
X159123500Y-84892000D02*
X159448500Y-85217000D01*
X159448500Y-85217000D02*
X161671000Y-85217000D01*
X157294500Y-84242000D02*
X159407500Y-84242000D01*
X159407500Y-84242000D02*
X159702500Y-83947000D01*
X159702500Y-83947000D02*
X161607500Y-83947000D01*
X157294500Y-83592000D02*
X158141000Y-83592000D01*
X158141000Y-83592000D02*
X158369000Y-83820000D01*
X158369000Y-83820000D02*
X159258000Y-83820000D01*
X160401000Y-82677000D02*
X161671000Y-82677000D01*
X159258000Y-83820000D02*
X160401000Y-82677000D01*
X116944257Y-72276769D02*
X117033955Y-72313923D01*
X117110976Y-72373024D01*
X117170077Y-72450045D01*
X117207231Y-72539743D01*
X117221000Y-72644328D01*
X117221000Y-88899672D01*
X117207231Y-89004257D01*
X117170077Y-89093955D01*
X117110976Y-89170976D01*
X117033955Y-89230077D01*
X116944257Y-89267231D01*
X116839672Y-89281000D01*
X113276000Y-89281000D01*
X113259423Y-89282086D01*
X113130013Y-89299123D01*
X113097989Y-89307704D01*
X112977399Y-89357654D01*
X112948687Y-89374232D01*
X112845134Y-89453692D01*
X112821692Y-89477134D01*
X112742232Y-89580687D01*
X112725654Y-89609399D01*
X112675704Y-89729989D01*
X112667123Y-89762013D01*
X112650086Y-89891423D01*
X112649000Y-89908000D01*
X112649000Y-95288565D01*
X112635231Y-95393150D01*
X112598078Y-95482845D01*
X112533866Y-95566528D01*
X111816644Y-96283750D01*
X111805691Y-96296240D01*
X111726231Y-96399794D01*
X111709654Y-96428506D01*
X111659704Y-96549096D01*
X111651123Y-96581120D01*
X111634086Y-96710530D01*
X111633000Y-96727107D01*
X111633000Y-99059672D01*
X111619231Y-99164257D01*
X111582077Y-99253955D01*
X111522976Y-99330976D01*
X111445955Y-99390077D01*
X111356257Y-99427231D01*
X111251672Y-99441000D01*
X109220328Y-99441000D01*
X109115743Y-99427231D01*
X109026045Y-99390077D01*
X108949024Y-99330976D01*
X108889923Y-99253955D01*
X108852769Y-99164257D01*
X108839000Y-99059672D01*
X108839000Y-82296328D01*
X108852769Y-82191743D01*
X108889923Y-82102045D01*
X108949024Y-82025024D01*
X109026045Y-81965923D01*
X109115743Y-81928769D01*
X109220328Y-81915000D01*
X112276000Y-81915000D01*
X112292577Y-81913914D01*
X112421987Y-81896877D01*
X112454011Y-81888296D01*
X112574601Y-81838346D01*
X112603313Y-81821768D01*
X112706866Y-81742308D01*
X112730308Y-81718866D01*
X112809768Y-81615313D01*
X112826346Y-81586601D01*
X112865490Y-81492098D01*
X112978186Y-81480999D01*
X113262028Y-81394896D01*
X113523618Y-81255073D01*
X113752903Y-81066903D01*
X113941073Y-80837618D01*
X114080896Y-80576028D01*
X114166999Y-80292186D01*
X114196072Y-79997000D01*
X114196072Y-78247000D01*
X114166999Y-77951814D01*
X114080896Y-77667972D01*
X113941073Y-77406382D01*
X113752903Y-77177097D01*
X113523618Y-76988927D01*
X113262028Y-76849104D01*
X112978186Y-76763001D01*
X112903000Y-76755596D01*
X112903000Y-72644328D01*
X112916769Y-72539743D01*
X112953923Y-72450045D01*
X113013024Y-72373024D01*
X113090045Y-72313923D01*
X113179743Y-72276769D01*
X113284328Y-72263000D01*
X116839672Y-72263000D01*
X116944257Y-72276769D01*
G04 #@! TA.AperFunction,Conductor*
D26*
G36*
X116944257Y-72276769D02*
G01*
X117033955Y-72313923D01*
X117110976Y-72373024D01*
X117170077Y-72450045D01*
X117207231Y-72539743D01*
X117221000Y-72644328D01*
X117221000Y-88899672D01*
X117207231Y-89004257D01*
X117170077Y-89093955D01*
X117110976Y-89170976D01*
X117033955Y-89230077D01*
X116944257Y-89267231D01*
X116839672Y-89281000D01*
X113276000Y-89281000D01*
X113259423Y-89282086D01*
X113130013Y-89299123D01*
X113097989Y-89307704D01*
X112977399Y-89357654D01*
X112948687Y-89374232D01*
X112845134Y-89453692D01*
X112821692Y-89477134D01*
X112742232Y-89580687D01*
X112725654Y-89609399D01*
X112675704Y-89729989D01*
X112667123Y-89762013D01*
X112650086Y-89891423D01*
X112649000Y-89908000D01*
X112649000Y-95288565D01*
X112635231Y-95393150D01*
X112598078Y-95482845D01*
X112533866Y-95566528D01*
X111816644Y-96283750D01*
X111805691Y-96296240D01*
X111726231Y-96399794D01*
X111709654Y-96428506D01*
X111659704Y-96549096D01*
X111651123Y-96581120D01*
X111634086Y-96710530D01*
X111633000Y-96727107D01*
X111633000Y-99059672D01*
X111619231Y-99164257D01*
X111582077Y-99253955D01*
X111522976Y-99330976D01*
X111445955Y-99390077D01*
X111356257Y-99427231D01*
X111251672Y-99441000D01*
X109220328Y-99441000D01*
X109115743Y-99427231D01*
X109026045Y-99390077D01*
X108949024Y-99330976D01*
X108889923Y-99253955D01*
X108852769Y-99164257D01*
X108839000Y-99059672D01*
X108839000Y-82296328D01*
X108852769Y-82191743D01*
X108889923Y-82102045D01*
X108949024Y-82025024D01*
X109026045Y-81965923D01*
X109115743Y-81928769D01*
X109220328Y-81915000D01*
X112276000Y-81915000D01*
X112292577Y-81913914D01*
X112421987Y-81896877D01*
X112454011Y-81888296D01*
X112574601Y-81838346D01*
X112603313Y-81821768D01*
X112706866Y-81742308D01*
X112730308Y-81718866D01*
X112809768Y-81615313D01*
X112826346Y-81586601D01*
X112865490Y-81492098D01*
X112978186Y-81480999D01*
X113262028Y-81394896D01*
X113523618Y-81255073D01*
X113752903Y-81066903D01*
X113941073Y-80837618D01*
X114080896Y-80576028D01*
X114166999Y-80292186D01*
X114196072Y-79997000D01*
X114196072Y-78247000D01*
X114166999Y-77951814D01*
X114080896Y-77667972D01*
X113941073Y-77406382D01*
X113752903Y-77177097D01*
X113523618Y-76988927D01*
X113262028Y-76849104D01*
X112978186Y-76763001D01*
X112903000Y-76755596D01*
X112903000Y-72644328D01*
X112916769Y-72539743D01*
X112953923Y-72450045D01*
X113013024Y-72373024D01*
X113090045Y-72313923D01*
X113179743Y-72276769D01*
X113284328Y-72263000D01*
X116839672Y-72263000D01*
X116944257Y-72276769D01*
G37*
G04 #@! TD.AperFunction*
D24*
X113388257Y-97168769D02*
X113477955Y-97205923D01*
X113554976Y-97265024D01*
X113614077Y-97342045D01*
X113651231Y-97431743D01*
X113665000Y-97536328D01*
X113665000Y-99068000D01*
X113666086Y-99084577D01*
X113683123Y-99213987D01*
X113691704Y-99246011D01*
X113741654Y-99366601D01*
X113758232Y-99395313D01*
X113837692Y-99498866D01*
X113861134Y-99522308D01*
X113964687Y-99601768D01*
X113993399Y-99618346D01*
X114113989Y-99668296D01*
X114146013Y-99676877D01*
X114244255Y-99689811D01*
X114289006Y-99726537D01*
X114308000Y-99736690D01*
X114308000Y-99933788D01*
X114351617Y-100153067D01*
X114437176Y-100359624D01*
X114561388Y-100545520D01*
X114719480Y-100703612D01*
X114905376Y-100827824D01*
X115111933Y-100913383D01*
X115331212Y-100957000D01*
X115554788Y-100957000D01*
X115774067Y-100913383D01*
X115980624Y-100827824D01*
X116166520Y-100703612D01*
X116324612Y-100545520D01*
X116448824Y-100359624D01*
X116534383Y-100153067D01*
X116578000Y-99933788D01*
X116578000Y-99710212D01*
X116569564Y-99667801D01*
X116594685Y-99647185D01*
X116607924Y-99631053D01*
X116638601Y-99618346D01*
X116667313Y-99601768D01*
X116770866Y-99522308D01*
X116794308Y-99498866D01*
X116873768Y-99395313D01*
X116890346Y-99366601D01*
X116940296Y-99246011D01*
X116948877Y-99213987D01*
X116965914Y-99084577D01*
X116967000Y-99068000D01*
X116967000Y-97536328D01*
X116980769Y-97431743D01*
X117017923Y-97342045D01*
X117077024Y-97265024D01*
X117154045Y-97205923D01*
X117154739Y-97205635D01*
X117283433Y-97274423D01*
X117447684Y-97324248D01*
X117618500Y-97341072D01*
X118093500Y-97341072D01*
X118264316Y-97324248D01*
X118428567Y-97274423D01*
X118579942Y-97193512D01*
X118626869Y-97155000D01*
X120395672Y-97155000D01*
X120500257Y-97168769D01*
X120589955Y-97205923D01*
X120666976Y-97265024D01*
X120726077Y-97342045D01*
X120763231Y-97431743D01*
X120777000Y-97536328D01*
X120777000Y-101599672D01*
X120763231Y-101704257D01*
X120726077Y-101793955D01*
X120666976Y-101870976D01*
X120589955Y-101930077D01*
X120500257Y-101967231D01*
X120395672Y-101981000D01*
X115816000Y-101981000D01*
X115799423Y-101982086D01*
X115670013Y-101999123D01*
X115637989Y-102007704D01*
X115517399Y-102057654D01*
X115488687Y-102074232D01*
X115385134Y-102153692D01*
X115361692Y-102177134D01*
X115282232Y-102280687D01*
X115265654Y-102309399D01*
X115215704Y-102429989D01*
X115207123Y-102462013D01*
X115190086Y-102591423D01*
X115189000Y-102608000D01*
X115189000Y-104977241D01*
X115100480Y-105036388D01*
X114942388Y-105194480D01*
X114818176Y-105380376D01*
X114732617Y-105586933D01*
X114689000Y-105806212D01*
X114689000Y-106029788D01*
X114732617Y-106249067D01*
X114818176Y-106455624D01*
X114832386Y-106476891D01*
X114777577Y-106579433D01*
X114727752Y-106743684D01*
X114710928Y-106914500D01*
X114710928Y-107414500D01*
X114726145Y-107569000D01*
X111760328Y-107569000D01*
X111655743Y-107555231D01*
X111566045Y-107518077D01*
X111489024Y-107458976D01*
X111429923Y-107381955D01*
X111392769Y-107292257D01*
X111379000Y-107187672D01*
X111379000Y-101092328D01*
X111392769Y-100987743D01*
X111429923Y-100898045D01*
X111489024Y-100821024D01*
X111566045Y-100761923D01*
X111655743Y-100724769D01*
X111760328Y-100711000D01*
X111768000Y-100711000D01*
X111784577Y-100709914D01*
X111913987Y-100692877D01*
X111946011Y-100684296D01*
X112066601Y-100634346D01*
X112095313Y-100617768D01*
X112198866Y-100538308D01*
X112222308Y-100514866D01*
X112301768Y-100411313D01*
X112318346Y-100382601D01*
X112368296Y-100262011D01*
X112376877Y-100229987D01*
X112393914Y-100100577D01*
X112395000Y-100084000D01*
X112395000Y-97536328D01*
X112408769Y-97431743D01*
X112445923Y-97342045D01*
X112505024Y-97265024D01*
X112582045Y-97205923D01*
X112671743Y-97168769D01*
X112776328Y-97155000D01*
X113283672Y-97155000D01*
X113388257Y-97168769D01*
G04 #@! TA.AperFunction,Conductor*
D26*
G36*
X113388257Y-97168769D02*
G01*
X113477955Y-97205923D01*
X113554976Y-97265024D01*
X113614077Y-97342045D01*
X113651231Y-97431743D01*
X113665000Y-97536328D01*
X113665000Y-99068000D01*
X113666086Y-99084577D01*
X113683123Y-99213987D01*
X113691704Y-99246011D01*
X113741654Y-99366601D01*
X113758232Y-99395313D01*
X113837692Y-99498866D01*
X113861134Y-99522308D01*
X113964687Y-99601768D01*
X113993399Y-99618346D01*
X114113989Y-99668296D01*
X114146013Y-99676877D01*
X114244255Y-99689811D01*
X114289006Y-99726537D01*
X114308000Y-99736690D01*
X114308000Y-99933788D01*
X114351617Y-100153067D01*
X114437176Y-100359624D01*
X114561388Y-100545520D01*
X114719480Y-100703612D01*
X114905376Y-100827824D01*
X115111933Y-100913383D01*
X115331212Y-100957000D01*
X115554788Y-100957000D01*
X115774067Y-100913383D01*
X115980624Y-100827824D01*
X116166520Y-100703612D01*
X116324612Y-100545520D01*
X116448824Y-100359624D01*
X116534383Y-100153067D01*
X116578000Y-99933788D01*
X116578000Y-99710212D01*
X116569564Y-99667801D01*
X116594685Y-99647185D01*
X116607924Y-99631053D01*
X116638601Y-99618346D01*
X116667313Y-99601768D01*
X116770866Y-99522308D01*
X116794308Y-99498866D01*
X116873768Y-99395313D01*
X116890346Y-99366601D01*
X116940296Y-99246011D01*
X116948877Y-99213987D01*
X116965914Y-99084577D01*
X116967000Y-99068000D01*
X116967000Y-97536328D01*
X116980769Y-97431743D01*
X117017923Y-97342045D01*
X117077024Y-97265024D01*
X117154045Y-97205923D01*
X117154739Y-97205635D01*
X117283433Y-97274423D01*
X117447684Y-97324248D01*
X117618500Y-97341072D01*
X118093500Y-97341072D01*
X118264316Y-97324248D01*
X118428567Y-97274423D01*
X118579942Y-97193512D01*
X118626869Y-97155000D01*
X120395672Y-97155000D01*
X120500257Y-97168769D01*
X120589955Y-97205923D01*
X120666976Y-97265024D01*
X120726077Y-97342045D01*
X120763231Y-97431743D01*
X120777000Y-97536328D01*
X120777000Y-101599672D01*
X120763231Y-101704257D01*
X120726077Y-101793955D01*
X120666976Y-101870976D01*
X120589955Y-101930077D01*
X120500257Y-101967231D01*
X120395672Y-101981000D01*
X115816000Y-101981000D01*
X115799423Y-101982086D01*
X115670013Y-101999123D01*
X115637989Y-102007704D01*
X115517399Y-102057654D01*
X115488687Y-102074232D01*
X115385134Y-102153692D01*
X115361692Y-102177134D01*
X115282232Y-102280687D01*
X115265654Y-102309399D01*
X115215704Y-102429989D01*
X115207123Y-102462013D01*
X115190086Y-102591423D01*
X115189000Y-102608000D01*
X115189000Y-104977241D01*
X115100480Y-105036388D01*
X114942388Y-105194480D01*
X114818176Y-105380376D01*
X114732617Y-105586933D01*
X114689000Y-105806212D01*
X114689000Y-106029788D01*
X114732617Y-106249067D01*
X114818176Y-106455624D01*
X114832386Y-106476891D01*
X114777577Y-106579433D01*
X114727752Y-106743684D01*
X114710928Y-106914500D01*
X114710928Y-107414500D01*
X114726145Y-107569000D01*
X111760328Y-107569000D01*
X111655743Y-107555231D01*
X111566045Y-107518077D01*
X111489024Y-107458976D01*
X111429923Y-107381955D01*
X111392769Y-107292257D01*
X111379000Y-107187672D01*
X111379000Y-101092328D01*
X111392769Y-100987743D01*
X111429923Y-100898045D01*
X111489024Y-100821024D01*
X111566045Y-100761923D01*
X111655743Y-100724769D01*
X111760328Y-100711000D01*
X111768000Y-100711000D01*
X111784577Y-100709914D01*
X111913987Y-100692877D01*
X111946011Y-100684296D01*
X112066601Y-100634346D01*
X112095313Y-100617768D01*
X112198866Y-100538308D01*
X112222308Y-100514866D01*
X112301768Y-100411313D01*
X112318346Y-100382601D01*
X112368296Y-100262011D01*
X112376877Y-100229987D01*
X112393914Y-100100577D01*
X112395000Y-100084000D01*
X112395000Y-97536328D01*
X112408769Y-97431743D01*
X112445923Y-97342045D01*
X112505024Y-97265024D01*
X112582045Y-97205923D01*
X112671743Y-97168769D01*
X112776328Y-97155000D01*
X113283672Y-97155000D01*
X113388257Y-97168769D01*
G37*
G04 #@! TD.AperFunction*
D24*
X131168257Y-91580769D02*
X131257955Y-91617923D01*
X131334976Y-91677024D01*
X131394077Y-91754045D01*
X131431231Y-91843743D01*
X131445000Y-91948328D01*
X131445000Y-101599672D01*
X131431231Y-101704257D01*
X131394077Y-101793955D01*
X131334976Y-101870976D01*
X131257955Y-101930077D01*
X131168257Y-101967231D01*
X131063672Y-101981000D01*
X129032328Y-101981000D01*
X128927743Y-101967231D01*
X128838045Y-101930077D01*
X128761024Y-101870976D01*
X128701923Y-101793955D01*
X128664769Y-101704257D01*
X128651000Y-101599672D01*
X128651000Y-97020000D01*
X128649914Y-97003423D01*
X128632877Y-96874013D01*
X128624296Y-96841989D01*
X128574346Y-96721399D01*
X128557768Y-96692687D01*
X128478308Y-96589134D01*
X128454866Y-96565692D01*
X128351313Y-96486232D01*
X128322601Y-96469654D01*
X128202011Y-96419704D01*
X128169987Y-96411123D01*
X128040577Y-96394086D01*
X128024000Y-96393000D01*
X121404000Y-96393000D01*
X121387423Y-96394086D01*
X121258013Y-96411123D01*
X121225989Y-96419704D01*
X121105399Y-96469654D01*
X121076687Y-96486232D01*
X120973134Y-96565692D01*
X120949692Y-96589134D01*
X120870232Y-96692687D01*
X120853654Y-96721399D01*
X120803704Y-96841989D01*
X120795123Y-96874013D01*
X120778086Y-97003423D01*
X120777000Y-97020000D01*
X120777000Y-98043672D01*
X120763231Y-98148257D01*
X120726077Y-98237955D01*
X120666976Y-98314976D01*
X120589955Y-98374077D01*
X120500257Y-98411231D01*
X120395672Y-98425000D01*
X119380328Y-98425000D01*
X119275743Y-98411231D01*
X119186045Y-98374077D01*
X119109024Y-98314976D01*
X119049923Y-98237955D01*
X119012769Y-98148257D01*
X118999000Y-98043672D01*
X118999000Y-91948328D01*
X119012769Y-91843743D01*
X119049923Y-91754045D01*
X119109024Y-91677024D01*
X119186045Y-91617923D01*
X119275743Y-91580769D01*
X119380328Y-91567000D01*
X131063672Y-91567000D01*
X131168257Y-91580769D01*
G04 #@! TA.AperFunction,Conductor*
D26*
G36*
X131168257Y-91580769D02*
G01*
X131257955Y-91617923D01*
X131334976Y-91677024D01*
X131394077Y-91754045D01*
X131431231Y-91843743D01*
X131445000Y-91948328D01*
X131445000Y-101599672D01*
X131431231Y-101704257D01*
X131394077Y-101793955D01*
X131334976Y-101870976D01*
X131257955Y-101930077D01*
X131168257Y-101967231D01*
X131063672Y-101981000D01*
X129032328Y-101981000D01*
X128927743Y-101967231D01*
X128838045Y-101930077D01*
X128761024Y-101870976D01*
X128701923Y-101793955D01*
X128664769Y-101704257D01*
X128651000Y-101599672D01*
X128651000Y-97020000D01*
X128649914Y-97003423D01*
X128632877Y-96874013D01*
X128624296Y-96841989D01*
X128574346Y-96721399D01*
X128557768Y-96692687D01*
X128478308Y-96589134D01*
X128454866Y-96565692D01*
X128351313Y-96486232D01*
X128322601Y-96469654D01*
X128202011Y-96419704D01*
X128169987Y-96411123D01*
X128040577Y-96394086D01*
X128024000Y-96393000D01*
X121404000Y-96393000D01*
X121387423Y-96394086D01*
X121258013Y-96411123D01*
X121225989Y-96419704D01*
X121105399Y-96469654D01*
X121076687Y-96486232D01*
X120973134Y-96565692D01*
X120949692Y-96589134D01*
X120870232Y-96692687D01*
X120853654Y-96721399D01*
X120803704Y-96841989D01*
X120795123Y-96874013D01*
X120778086Y-97003423D01*
X120777000Y-97020000D01*
X120777000Y-98043672D01*
X120763231Y-98148257D01*
X120726077Y-98237955D01*
X120666976Y-98314976D01*
X120589955Y-98374077D01*
X120500257Y-98411231D01*
X120395672Y-98425000D01*
X119380328Y-98425000D01*
X119275743Y-98411231D01*
X119186045Y-98374077D01*
X119109024Y-98314976D01*
X119049923Y-98237955D01*
X119012769Y-98148257D01*
X118999000Y-98043672D01*
X118999000Y-91948328D01*
X119012769Y-91843743D01*
X119049923Y-91754045D01*
X119109024Y-91677024D01*
X119186045Y-91617923D01*
X119275743Y-91580769D01*
X119380328Y-91567000D01*
X131063672Y-91567000D01*
X131168257Y-91580769D01*
G37*
G04 #@! TD.AperFunction*
D24*
X123040257Y-97168769D02*
X123129955Y-97205923D01*
X123206976Y-97265024D01*
X123266077Y-97342045D01*
X123303231Y-97431743D01*
X123317000Y-97536328D01*
X123317000Y-100084000D01*
X123318086Y-100100577D01*
X123335123Y-100229987D01*
X123343704Y-100262011D01*
X123393654Y-100382601D01*
X123410232Y-100411313D01*
X123489692Y-100514866D01*
X123513134Y-100538308D01*
X123616687Y-100617768D01*
X123645399Y-100634346D01*
X123765989Y-100684296D01*
X123798013Y-100692877D01*
X123927423Y-100709914D01*
X123944000Y-100711000D01*
X123951672Y-100711000D01*
X124013773Y-100719176D01*
X124176376Y-100827824D01*
X124252338Y-100859288D01*
X124282077Y-100898045D01*
X124319231Y-100987743D01*
X124333000Y-101092328D01*
X124333000Y-105205537D01*
X124216176Y-105380376D01*
X124130617Y-105586933D01*
X124087000Y-105806212D01*
X124087000Y-106018497D01*
X124056257Y-106031231D01*
X123951672Y-106045000D01*
X118469692Y-106045000D01*
X118365067Y-105989077D01*
X118200816Y-105939252D01*
X118030000Y-105922428D01*
X117555000Y-105922428D01*
X117384184Y-105939252D01*
X117219933Y-105989077D01*
X117185896Y-106007270D01*
X117154045Y-105994077D01*
X117077024Y-105934976D01*
X117017923Y-105857955D01*
X116980769Y-105768257D01*
X116967000Y-105663672D01*
X116967000Y-103124328D01*
X116980769Y-103019743D01*
X117017923Y-102930045D01*
X117077024Y-102853024D01*
X117154045Y-102793923D01*
X117243743Y-102756769D01*
X117348328Y-102743000D01*
X120912000Y-102743000D01*
X120928577Y-102741914D01*
X121057987Y-102724877D01*
X121090011Y-102716296D01*
X121210601Y-102666346D01*
X121239313Y-102649768D01*
X121342866Y-102570308D01*
X121366308Y-102546866D01*
X121445768Y-102443313D01*
X121462346Y-102414601D01*
X121512296Y-102294011D01*
X121520877Y-102261987D01*
X121537914Y-102132577D01*
X121539000Y-102116000D01*
X121539000Y-97536328D01*
X121552769Y-97431743D01*
X121589923Y-97342045D01*
X121649024Y-97265024D01*
X121726045Y-97205923D01*
X121815743Y-97168769D01*
X121920328Y-97155000D01*
X122935672Y-97155000D01*
X123040257Y-97168769D01*
G04 #@! TA.AperFunction,Conductor*
D26*
G36*
X123040257Y-97168769D02*
G01*
X123129955Y-97205923D01*
X123206976Y-97265024D01*
X123266077Y-97342045D01*
X123303231Y-97431743D01*
X123317000Y-97536328D01*
X123317000Y-100084000D01*
X123318086Y-100100577D01*
X123335123Y-100229987D01*
X123343704Y-100262011D01*
X123393654Y-100382601D01*
X123410232Y-100411313D01*
X123489692Y-100514866D01*
X123513134Y-100538308D01*
X123616687Y-100617768D01*
X123645399Y-100634346D01*
X123765989Y-100684296D01*
X123798013Y-100692877D01*
X123927423Y-100709914D01*
X123944000Y-100711000D01*
X123951672Y-100711000D01*
X124013773Y-100719176D01*
X124176376Y-100827824D01*
X124252338Y-100859288D01*
X124282077Y-100898045D01*
X124319231Y-100987743D01*
X124333000Y-101092328D01*
X124333000Y-105205537D01*
X124216176Y-105380376D01*
X124130617Y-105586933D01*
X124087000Y-105806212D01*
X124087000Y-106018497D01*
X124056257Y-106031231D01*
X123951672Y-106045000D01*
X118469692Y-106045000D01*
X118365067Y-105989077D01*
X118200816Y-105939252D01*
X118030000Y-105922428D01*
X117555000Y-105922428D01*
X117384184Y-105939252D01*
X117219933Y-105989077D01*
X117185896Y-106007270D01*
X117154045Y-105994077D01*
X117077024Y-105934976D01*
X117017923Y-105857955D01*
X116980769Y-105768257D01*
X116967000Y-105663672D01*
X116967000Y-103124328D01*
X116980769Y-103019743D01*
X117017923Y-102930045D01*
X117077024Y-102853024D01*
X117154045Y-102793923D01*
X117243743Y-102756769D01*
X117348328Y-102743000D01*
X120912000Y-102743000D01*
X120928577Y-102741914D01*
X121057987Y-102724877D01*
X121090011Y-102716296D01*
X121210601Y-102666346D01*
X121239313Y-102649768D01*
X121342866Y-102570308D01*
X121366308Y-102546866D01*
X121445768Y-102443313D01*
X121462346Y-102414601D01*
X121512296Y-102294011D01*
X121520877Y-102261987D01*
X121537914Y-102132577D01*
X121539000Y-102116000D01*
X121539000Y-97536328D01*
X121552769Y-97431743D01*
X121589923Y-97342045D01*
X121649024Y-97265024D01*
X121726045Y-97205923D01*
X121815743Y-97168769D01*
X121920328Y-97155000D01*
X122935672Y-97155000D01*
X123040257Y-97168769D01*
G37*
G04 #@! TD.AperFunction*
D24*
X123040257Y-86500769D02*
X123129955Y-86537923D01*
X123206976Y-86597024D01*
X123266077Y-86674045D01*
X123303231Y-86763743D01*
X123317000Y-86868328D01*
X123317000Y-90423672D01*
X123303231Y-90528257D01*
X123266077Y-90617955D01*
X123206976Y-90694976D01*
X123129955Y-90754077D01*
X123040257Y-90791231D01*
X122935672Y-90805000D01*
X118864000Y-90805000D01*
X118847423Y-90806086D01*
X118718013Y-90823123D01*
X118685989Y-90831704D01*
X118565399Y-90881654D01*
X118536687Y-90898232D01*
X118433134Y-90977692D01*
X118409692Y-91001134D01*
X118330232Y-91104687D01*
X118313654Y-91133399D01*
X118263704Y-91253989D01*
X118255123Y-91286013D01*
X118238086Y-91415423D01*
X118237000Y-91432000D01*
X118237000Y-96011672D01*
X118223231Y-96116257D01*
X118186077Y-96205955D01*
X118126976Y-96282976D01*
X118049955Y-96342077D01*
X117960257Y-96379231D01*
X117855672Y-96393000D01*
X113792328Y-96393000D01*
X113687743Y-96379231D01*
X113598045Y-96342077D01*
X113521024Y-96282976D01*
X113461923Y-96205955D01*
X113424769Y-96116257D01*
X113411000Y-96011672D01*
X113411000Y-90424328D01*
X113424769Y-90319743D01*
X113461923Y-90230045D01*
X113521024Y-90153024D01*
X113598045Y-90093923D01*
X113687743Y-90056769D01*
X113792328Y-90043000D01*
X117356000Y-90043000D01*
X117372577Y-90041914D01*
X117501987Y-90024877D01*
X117534011Y-90016296D01*
X117654601Y-89966346D01*
X117683313Y-89949768D01*
X117786866Y-89870308D01*
X117810308Y-89846866D01*
X117889768Y-89743313D01*
X117906346Y-89714601D01*
X117956296Y-89594011D01*
X117964877Y-89561987D01*
X117981914Y-89432577D01*
X117983000Y-89416000D01*
X117983000Y-86868328D01*
X117996769Y-86763743D01*
X118033923Y-86674045D01*
X118093024Y-86597024D01*
X118170045Y-86537923D01*
X118259743Y-86500769D01*
X118364328Y-86487000D01*
X122935672Y-86487000D01*
X123040257Y-86500769D01*
G04 #@! TA.AperFunction,Conductor*
D26*
G36*
X123040257Y-86500769D02*
G01*
X123129955Y-86537923D01*
X123206976Y-86597024D01*
X123266077Y-86674045D01*
X123303231Y-86763743D01*
X123317000Y-86868328D01*
X123317000Y-90423672D01*
X123303231Y-90528257D01*
X123266077Y-90617955D01*
X123206976Y-90694976D01*
X123129955Y-90754077D01*
X123040257Y-90791231D01*
X122935672Y-90805000D01*
X118864000Y-90805000D01*
X118847423Y-90806086D01*
X118718013Y-90823123D01*
X118685989Y-90831704D01*
X118565399Y-90881654D01*
X118536687Y-90898232D01*
X118433134Y-90977692D01*
X118409692Y-91001134D01*
X118330232Y-91104687D01*
X118313654Y-91133399D01*
X118263704Y-91253989D01*
X118255123Y-91286013D01*
X118238086Y-91415423D01*
X118237000Y-91432000D01*
X118237000Y-96011672D01*
X118223231Y-96116257D01*
X118186077Y-96205955D01*
X118126976Y-96282976D01*
X118049955Y-96342077D01*
X117960257Y-96379231D01*
X117855672Y-96393000D01*
X113792328Y-96393000D01*
X113687743Y-96379231D01*
X113598045Y-96342077D01*
X113521024Y-96282976D01*
X113461923Y-96205955D01*
X113424769Y-96116257D01*
X113411000Y-96011672D01*
X113411000Y-90424328D01*
X113424769Y-90319743D01*
X113461923Y-90230045D01*
X113521024Y-90153024D01*
X113598045Y-90093923D01*
X113687743Y-90056769D01*
X113792328Y-90043000D01*
X117356000Y-90043000D01*
X117372577Y-90041914D01*
X117501987Y-90024877D01*
X117534011Y-90016296D01*
X117654601Y-89966346D01*
X117683313Y-89949768D01*
X117786866Y-89870308D01*
X117810308Y-89846866D01*
X117889768Y-89743313D01*
X117906346Y-89714601D01*
X117956296Y-89594011D01*
X117964877Y-89561987D01*
X117981914Y-89432577D01*
X117983000Y-89416000D01*
X117983000Y-86868328D01*
X117996769Y-86763743D01*
X118033923Y-86674045D01*
X118093024Y-86597024D01*
X118170045Y-86537923D01*
X118259743Y-86500769D01*
X118364328Y-86487000D01*
X122935672Y-86487000D01*
X123040257Y-86500769D01*
G37*
G04 #@! TD.AperFunction*
M02*
