G04 #@! TF.GenerationSoftware,KiCad,Pcbnew,(5.1.9)-1*
G04 #@! TF.CreationDate,2022-01-14T23:32:10+03:00*
G04 #@! TF.ProjectId,HW,48572e6b-6963-4616-945f-706362585858,rev?*
G04 #@! TF.SameCoordinates,Original*
G04 #@! TF.FileFunction,Copper,L2,Inr*
G04 #@! TF.FilePolarity,Positive*
%FSLAX46Y46*%
G04 Gerber Fmt 4.6, Leading zero omitted, Abs format (unit mm)*
G04 Created by KiCad (PCBNEW (5.1.9)-1) date 2022-01-14 23:32:10*
%MOMM*%
%LPD*%
G01*
G04 APERTURE LIST*
G04 #@! TA.AperFunction,ComponentPad*
%ADD10C,1.850000*%
G04 #@! TD*
G04 #@! TA.AperFunction,ComponentPad*
%ADD11R,1.850000X1.850000*%
G04 #@! TD*
G04 #@! TA.AperFunction,ComponentPad*
%ADD12O,1.700000X1.700000*%
G04 #@! TD*
G04 #@! TA.AperFunction,ComponentPad*
%ADD13R,1.700000X1.700000*%
G04 #@! TD*
G04 #@! TA.AperFunction,ComponentPad*
%ADD14R,3.500000X3.500000*%
G04 #@! TD*
G04 #@! TA.AperFunction,ViaPad*
%ADD15C,1.000000*%
G04 #@! TD*
G04 #@! TA.AperFunction,ViaPad*
%ADD16C,0.800000*%
G04 #@! TD*
G04 #@! TA.AperFunction,Conductor*
%ADD17C,0.254000*%
G04 #@! TD*
G04 #@! TA.AperFunction,Conductor*
%ADD18C,0.100000*%
G04 #@! TD*
G04 APERTURE END LIST*
D10*
X143383000Y-101092000D03*
X140843000Y-101092000D03*
X138303000Y-101092000D03*
X133223000Y-101092000D03*
D11*
X130683000Y-101092000D03*
D12*
X150622000Y-63754000D03*
X148082000Y-63754000D03*
X145542000Y-63754000D03*
D13*
X143002000Y-63754000D03*
D12*
X136779000Y-63754000D03*
X134239000Y-63754000D03*
X131699000Y-63754000D03*
D13*
X129159000Y-63754000D03*
G04 #@! TA.AperFunction,ComponentPad*
G36*
G01*
X110058000Y-79997000D02*
X110058000Y-78247000D01*
G75*
G02*
X110933000Y-77372000I875000J0D01*
G01*
X112683000Y-77372000D01*
G75*
G02*
X113558000Y-78247000I0J-875000D01*
G01*
X113558000Y-79997000D01*
G75*
G02*
X112683000Y-80872000I-875000J0D01*
G01*
X110933000Y-80872000D01*
G75*
G02*
X110058000Y-79997000I0J875000D01*
G01*
G37*
G04 #@! TD.AperFunction*
G04 #@! TA.AperFunction,ComponentPad*
G36*
G01*
X107308000Y-75422000D02*
X107308000Y-73422000D01*
G75*
G02*
X108058000Y-72672000I750000J0D01*
G01*
X109558000Y-72672000D01*
G75*
G02*
X110308000Y-73422000I0J-750000D01*
G01*
X110308000Y-75422000D01*
G75*
G02*
X109558000Y-76172000I-750000J0D01*
G01*
X108058000Y-76172000D01*
G75*
G02*
X107308000Y-75422000I0J750000D01*
G01*
G37*
G04 #@! TD.AperFunction*
D14*
X114808000Y-74422000D03*
D15*
X171577000Y-75565000D03*
D16*
X147193000Y-76390500D03*
D15*
X163258500Y-95123000D03*
X157988000Y-94297500D03*
X155702000Y-88138000D03*
X115443000Y-99822000D03*
X124714000Y-99822000D03*
X117856000Y-108394500D03*
X134747000Y-70104000D03*
X134747000Y-71882000D03*
X134747000Y-75438000D03*
X132715000Y-75438000D03*
X138303000Y-83947000D03*
X136144000Y-84963000D03*
X115824000Y-105918000D03*
X125222000Y-105918000D03*
X141732000Y-104648000D03*
X139827000Y-104648000D03*
X178562000Y-70485000D03*
X175133000Y-89662000D03*
X170815000Y-87503000D03*
X164973000Y-83947000D03*
X164973000Y-82677000D03*
X174879000Y-82677000D03*
X176657000Y-83947000D03*
X187198000Y-85852000D03*
X185039000Y-85852000D03*
X168275000Y-75438000D03*
X151257000Y-71882000D03*
X151257000Y-70104000D03*
X159385000Y-69088000D03*
X176403000Y-79629000D03*
X159385000Y-77851000D03*
X151892000Y-75438000D03*
D16*
X147129500Y-81597500D03*
X147193000Y-72517000D03*
X141478000Y-73660000D03*
X140843000Y-76771500D03*
X114300000Y-92964000D03*
X115824000Y-92964000D03*
X117348000Y-92964000D03*
X120396000Y-88392000D03*
X120396000Y-86868000D03*
X120396000Y-89916000D03*
X114300000Y-95504000D03*
X115824000Y-95504000D03*
X118872000Y-86868000D03*
X118872000Y-88392000D03*
D15*
X143002000Y-87630000D03*
X150114000Y-88138000D03*
X134747000Y-73660000D03*
X131064000Y-75438000D03*
X138303000Y-79756000D03*
D16*
X141414500Y-72263000D03*
X150304500Y-82931000D03*
D15*
X122428000Y-100076000D03*
X122428000Y-101092000D03*
X122428000Y-102108000D03*
X119380000Y-103124000D03*
X119380000Y-104140000D03*
X119380000Y-105156000D03*
D16*
X164084000Y-70104000D03*
X159004000Y-71628000D03*
D15*
X138176000Y-104648000D03*
X178181000Y-79629000D03*
X169799000Y-77851000D03*
X157607000Y-77851000D03*
D16*
X158014500Y-92609500D03*
X111887000Y-95758000D03*
D15*
X158623000Y-82931000D03*
X159893000Y-86487000D03*
X162433000Y-67945000D03*
X143510000Y-104648000D03*
X173355000Y-89662000D03*
X178562000Y-72263000D03*
D16*
X117856000Y-99568000D03*
X117856000Y-100584000D03*
X117856000Y-101600000D03*
D15*
X124000000Y-92000000D03*
D16*
X141478000Y-68580000D03*
X149606000Y-80264000D03*
X141478000Y-83566000D03*
X148844000Y-79502000D03*
X144526000Y-84201000D03*
X148082000Y-78740000D03*
X144526000Y-82905000D03*
X153035000Y-84772500D03*
X142049500Y-85026500D03*
D17*
X127670928Y-64604000D02*
X127683188Y-64728482D01*
X127719498Y-64848180D01*
X127778463Y-64958494D01*
X127857815Y-65055185D01*
X127954506Y-65134537D01*
X128064820Y-65193502D01*
X128184518Y-65229812D01*
X128309000Y-65242072D01*
X130009000Y-65242072D01*
X130133482Y-65229812D01*
X130253180Y-65193502D01*
X130363494Y-65134537D01*
X130460185Y-65055185D01*
X130539537Y-64958494D01*
X130598502Y-64848180D01*
X130620513Y-64775620D01*
X130752368Y-64907475D01*
X130995589Y-65069990D01*
X131265842Y-65181932D01*
X131552740Y-65239000D01*
X131845260Y-65239000D01*
X132132158Y-65181932D01*
X132402411Y-65069990D01*
X132645632Y-64907475D01*
X132852475Y-64700632D01*
X132969000Y-64526240D01*
X133085525Y-64700632D01*
X133292368Y-64907475D01*
X133535589Y-65069990D01*
X133805842Y-65181932D01*
X134092740Y-65239000D01*
X134385260Y-65239000D01*
X134672158Y-65181932D01*
X134942411Y-65069990D01*
X135185632Y-64907475D01*
X135392475Y-64700632D01*
X135554990Y-64457411D01*
X135666932Y-64187158D01*
X135724000Y-63900260D01*
X135724000Y-63607740D01*
X135666932Y-63320842D01*
X135598238Y-63155000D01*
X141513928Y-63155000D01*
X141513928Y-64604000D01*
X141526188Y-64728482D01*
X141562498Y-64848180D01*
X141621463Y-64958494D01*
X141700815Y-65055185D01*
X141797506Y-65134537D01*
X141907820Y-65193502D01*
X142027518Y-65229812D01*
X142152000Y-65242072D01*
X143852000Y-65242072D01*
X143976482Y-65229812D01*
X144096180Y-65193502D01*
X144206494Y-65134537D01*
X144303185Y-65055185D01*
X144382537Y-64958494D01*
X144441502Y-64848180D01*
X144463513Y-64775620D01*
X144595368Y-64907475D01*
X144838589Y-65069990D01*
X145108842Y-65181932D01*
X145395740Y-65239000D01*
X145688260Y-65239000D01*
X145975158Y-65181932D01*
X146245411Y-65069990D01*
X146488632Y-64907475D01*
X146695475Y-64700632D01*
X146812000Y-64526240D01*
X146928525Y-64700632D01*
X147135368Y-64907475D01*
X147378589Y-65069990D01*
X147648842Y-65181932D01*
X147935740Y-65239000D01*
X148228260Y-65239000D01*
X148515158Y-65181932D01*
X148785411Y-65069990D01*
X149028632Y-64907475D01*
X149235475Y-64700632D01*
X149397990Y-64457411D01*
X149509932Y-64187158D01*
X149567000Y-63900260D01*
X149567000Y-63607740D01*
X149509932Y-63320842D01*
X149441238Y-63155000D01*
X186514053Y-63155000D01*
X187028102Y-63205403D01*
X187487995Y-63344253D01*
X187912160Y-63569785D01*
X188284437Y-63873407D01*
X188590654Y-64243560D01*
X188819143Y-64666139D01*
X188961200Y-65125052D01*
X189015001Y-65636935D01*
X189015000Y-109184053D01*
X188964597Y-109698102D01*
X188825748Y-110157993D01*
X188600215Y-110582160D01*
X188296590Y-110954439D01*
X187926437Y-111260657D01*
X187503861Y-111489142D01*
X187044947Y-111631200D01*
X186533075Y-111685000D01*
X107985947Y-111685000D01*
X107471898Y-111634597D01*
X107012007Y-111495748D01*
X106587840Y-111270215D01*
X106215561Y-110966590D01*
X105909343Y-110596437D01*
X105680858Y-110173861D01*
X105538800Y-109714947D01*
X105485000Y-109203075D01*
X105485000Y-108989170D01*
X105606339Y-108989170D01*
X105606339Y-109450830D01*
X105696405Y-109903621D01*
X105873075Y-110330140D01*
X106129560Y-110713997D01*
X106456003Y-111040440D01*
X106839860Y-111296925D01*
X107266379Y-111473595D01*
X107719170Y-111563661D01*
X108180830Y-111563661D01*
X108633621Y-111473595D01*
X109060140Y-111296925D01*
X109443997Y-111040440D01*
X109770440Y-110713997D01*
X110026925Y-110330140D01*
X110203595Y-109903621D01*
X110293661Y-109450830D01*
X110293661Y-108989170D01*
X184206341Y-108989170D01*
X184206341Y-109450830D01*
X184296406Y-109903620D01*
X184473076Y-110330139D01*
X184729561Y-110713996D01*
X185056004Y-111040439D01*
X185439861Y-111296924D01*
X185866380Y-111473594D01*
X186319170Y-111563659D01*
X186780830Y-111563659D01*
X187233620Y-111473594D01*
X187660139Y-111296924D01*
X188043996Y-111040439D01*
X188370439Y-110713996D01*
X188626924Y-110330139D01*
X188803594Y-109903620D01*
X188893659Y-109450830D01*
X188893659Y-108989170D01*
X188803594Y-108536380D01*
X188626924Y-108109861D01*
X188370439Y-107726004D01*
X188043996Y-107399561D01*
X187660139Y-107143076D01*
X187233620Y-106966406D01*
X186780830Y-106876341D01*
X186319170Y-106876341D01*
X185866380Y-106966406D01*
X185439861Y-107143076D01*
X185056004Y-107399561D01*
X184729561Y-107726004D01*
X184473076Y-108109861D01*
X184296406Y-108536380D01*
X184206341Y-108989170D01*
X110293661Y-108989170D01*
X110203595Y-108536379D01*
X110026925Y-108109860D01*
X109770440Y-107726003D01*
X109443997Y-107399560D01*
X109060140Y-107143075D01*
X108633621Y-106966405D01*
X108180830Y-106876339D01*
X107719170Y-106876339D01*
X107266379Y-106966405D01*
X106839860Y-107143075D01*
X106456003Y-107399560D01*
X106129560Y-107726003D01*
X105873075Y-108109860D01*
X105696405Y-108536379D01*
X105606339Y-108989170D01*
X105485000Y-108989170D01*
X105485000Y-99466061D01*
X116821000Y-99466061D01*
X116821000Y-99669939D01*
X116860774Y-99869898D01*
X116938795Y-100058256D01*
X116950651Y-100076000D01*
X116938795Y-100093744D01*
X116860774Y-100282102D01*
X116821000Y-100482061D01*
X116821000Y-100685939D01*
X116860774Y-100885898D01*
X116938795Y-101074256D01*
X116950651Y-101092000D01*
X116938795Y-101109744D01*
X116860774Y-101298102D01*
X116821000Y-101498061D01*
X116821000Y-101701939D01*
X116860774Y-101901898D01*
X116938795Y-102090256D01*
X117052063Y-102259774D01*
X117196226Y-102403937D01*
X117365744Y-102517205D01*
X117554102Y-102595226D01*
X117754061Y-102635000D01*
X117957939Y-102635000D01*
X118157898Y-102595226D01*
X118346256Y-102517205D01*
X118480192Y-102427712D01*
X118374176Y-102586376D01*
X118288617Y-102792933D01*
X118245000Y-103012212D01*
X118245000Y-103235788D01*
X118288617Y-103455067D01*
X118361905Y-103632000D01*
X118288617Y-103808933D01*
X118245000Y-104028212D01*
X118245000Y-104251788D01*
X118288617Y-104471067D01*
X118361905Y-104648000D01*
X118288617Y-104824933D01*
X118245000Y-105044212D01*
X118245000Y-105267788D01*
X118288617Y-105487067D01*
X118374176Y-105693624D01*
X118498388Y-105879520D01*
X118656480Y-106037612D01*
X118842376Y-106161824D01*
X119048933Y-106247383D01*
X119268212Y-106291000D01*
X119491788Y-106291000D01*
X119711067Y-106247383D01*
X119917624Y-106161824D01*
X120103520Y-106037612D01*
X120261612Y-105879520D01*
X120385824Y-105693624D01*
X120471383Y-105487067D01*
X120515000Y-105267788D01*
X120515000Y-105044212D01*
X120471383Y-104824933D01*
X120398095Y-104648000D01*
X120444399Y-104536212D01*
X137041000Y-104536212D01*
X137041000Y-104759788D01*
X137084617Y-104979067D01*
X137170176Y-105185624D01*
X137294388Y-105371520D01*
X137452480Y-105529612D01*
X137638376Y-105653824D01*
X137844933Y-105739383D01*
X138064212Y-105783000D01*
X138287788Y-105783000D01*
X138507067Y-105739383D01*
X138713624Y-105653824D01*
X138899520Y-105529612D01*
X139057612Y-105371520D01*
X139181824Y-105185624D01*
X139267383Y-104979067D01*
X139311000Y-104759788D01*
X139311000Y-104536212D01*
X142375000Y-104536212D01*
X142375000Y-104759788D01*
X142418617Y-104979067D01*
X142504176Y-105185624D01*
X142628388Y-105371520D01*
X142786480Y-105529612D01*
X142972376Y-105653824D01*
X143178933Y-105739383D01*
X143398212Y-105783000D01*
X143621788Y-105783000D01*
X143841067Y-105739383D01*
X144047624Y-105653824D01*
X144233520Y-105529612D01*
X144391612Y-105371520D01*
X144515824Y-105185624D01*
X144601383Y-104979067D01*
X144645000Y-104759788D01*
X144645000Y-104536212D01*
X144601383Y-104316933D01*
X144515824Y-104110376D01*
X144391612Y-103924480D01*
X144233520Y-103766388D01*
X144047624Y-103642176D01*
X143841067Y-103556617D01*
X143621788Y-103513000D01*
X143398212Y-103513000D01*
X143178933Y-103556617D01*
X142972376Y-103642176D01*
X142786480Y-103766388D01*
X142628388Y-103924480D01*
X142504176Y-104110376D01*
X142418617Y-104316933D01*
X142375000Y-104536212D01*
X139311000Y-104536212D01*
X139267383Y-104316933D01*
X139181824Y-104110376D01*
X139057612Y-103924480D01*
X138899520Y-103766388D01*
X138713624Y-103642176D01*
X138507067Y-103556617D01*
X138287788Y-103513000D01*
X138064212Y-103513000D01*
X137844933Y-103556617D01*
X137638376Y-103642176D01*
X137452480Y-103766388D01*
X137294388Y-103924480D01*
X137170176Y-104110376D01*
X137084617Y-104316933D01*
X137041000Y-104536212D01*
X120444399Y-104536212D01*
X120471383Y-104471067D01*
X120515000Y-104251788D01*
X120515000Y-104028212D01*
X120471383Y-103808933D01*
X120398095Y-103632000D01*
X120471383Y-103455067D01*
X120515000Y-103235788D01*
X120515000Y-103012212D01*
X120471383Y-102792933D01*
X120385824Y-102586376D01*
X120261612Y-102400480D01*
X120103520Y-102242388D01*
X119917624Y-102118176D01*
X119711067Y-102032617D01*
X119491788Y-101989000D01*
X119268212Y-101989000D01*
X119048933Y-102032617D01*
X118842376Y-102118176D01*
X118683712Y-102224192D01*
X118773205Y-102090256D01*
X118851226Y-101901898D01*
X118891000Y-101701939D01*
X118891000Y-101498061D01*
X118851226Y-101298102D01*
X118773205Y-101109744D01*
X118761349Y-101092000D01*
X118773205Y-101074256D01*
X118851226Y-100885898D01*
X118891000Y-100685939D01*
X118891000Y-100482061D01*
X118851226Y-100282102D01*
X118773205Y-100093744D01*
X118761349Y-100076000D01*
X118773205Y-100058256D01*
X118812159Y-99964212D01*
X121293000Y-99964212D01*
X121293000Y-100187788D01*
X121336617Y-100407067D01*
X121409905Y-100584000D01*
X121336617Y-100760933D01*
X121293000Y-100980212D01*
X121293000Y-101203788D01*
X121336617Y-101423067D01*
X121409905Y-101600000D01*
X121336617Y-101776933D01*
X121293000Y-101996212D01*
X121293000Y-102219788D01*
X121336617Y-102439067D01*
X121422176Y-102645624D01*
X121546388Y-102831520D01*
X121704480Y-102989612D01*
X121890376Y-103113824D01*
X122096933Y-103199383D01*
X122316212Y-103243000D01*
X122539788Y-103243000D01*
X122759067Y-103199383D01*
X122965624Y-103113824D01*
X123151520Y-102989612D01*
X123309612Y-102831520D01*
X123433824Y-102645624D01*
X123519383Y-102439067D01*
X123563000Y-102219788D01*
X123563000Y-101996212D01*
X123519383Y-101776933D01*
X123446095Y-101600000D01*
X123519383Y-101423067D01*
X123563000Y-101203788D01*
X123563000Y-100980212D01*
X123519383Y-100760933D01*
X123446095Y-100584000D01*
X123519383Y-100407067D01*
X123563000Y-100187788D01*
X123563000Y-100167000D01*
X129119928Y-100167000D01*
X129119928Y-102017000D01*
X129132188Y-102141482D01*
X129168498Y-102261180D01*
X129227463Y-102371494D01*
X129306815Y-102468185D01*
X129403506Y-102547537D01*
X129513820Y-102606502D01*
X129633518Y-102642812D01*
X129758000Y-102655072D01*
X131608000Y-102655072D01*
X131732482Y-102642812D01*
X131852180Y-102606502D01*
X131962494Y-102547537D01*
X132059185Y-102468185D01*
X132138537Y-102371494D01*
X132197502Y-102261180D01*
X132233812Y-102141482D01*
X132246072Y-102017000D01*
X132246072Y-100938353D01*
X136743000Y-100938353D01*
X136743000Y-101245647D01*
X136802950Y-101547035D01*
X136920546Y-101830937D01*
X137091269Y-102086442D01*
X137308558Y-102303731D01*
X137564063Y-102474454D01*
X137847965Y-102592050D01*
X138149353Y-102652000D01*
X138456647Y-102652000D01*
X138758035Y-102592050D01*
X139041937Y-102474454D01*
X139297442Y-102303731D01*
X139514731Y-102086442D01*
X139685454Y-101830937D01*
X139803050Y-101547035D01*
X139863000Y-101245647D01*
X139863000Y-100938353D01*
X141823000Y-100938353D01*
X141823000Y-101245647D01*
X141882950Y-101547035D01*
X142000546Y-101830937D01*
X142171269Y-102086442D01*
X142388558Y-102303731D01*
X142644063Y-102474454D01*
X142927965Y-102592050D01*
X143229353Y-102652000D01*
X143536647Y-102652000D01*
X143838035Y-102592050D01*
X144121937Y-102474454D01*
X144377442Y-102303731D01*
X144594731Y-102086442D01*
X144765454Y-101830937D01*
X144883050Y-101547035D01*
X144943000Y-101245647D01*
X144943000Y-100938353D01*
X144883050Y-100636965D01*
X144765454Y-100353063D01*
X144594731Y-100097558D01*
X144377442Y-99880269D01*
X144121937Y-99709546D01*
X143838035Y-99591950D01*
X143536647Y-99532000D01*
X143229353Y-99532000D01*
X142927965Y-99591950D01*
X142644063Y-99709546D01*
X142388558Y-99880269D01*
X142171269Y-100097558D01*
X142000546Y-100353063D01*
X141882950Y-100636965D01*
X141823000Y-100938353D01*
X139863000Y-100938353D01*
X139803050Y-100636965D01*
X139685454Y-100353063D01*
X139514731Y-100097558D01*
X139297442Y-99880269D01*
X139041937Y-99709546D01*
X138758035Y-99591950D01*
X138456647Y-99532000D01*
X138149353Y-99532000D01*
X137847965Y-99591950D01*
X137564063Y-99709546D01*
X137308558Y-99880269D01*
X137091269Y-100097558D01*
X136920546Y-100353063D01*
X136802950Y-100636965D01*
X136743000Y-100938353D01*
X132246072Y-100938353D01*
X132246072Y-100167000D01*
X132233812Y-100042518D01*
X132197502Y-99922820D01*
X132138537Y-99812506D01*
X132059185Y-99715815D01*
X131962494Y-99636463D01*
X131852180Y-99577498D01*
X131732482Y-99541188D01*
X131608000Y-99528928D01*
X129758000Y-99528928D01*
X129633518Y-99541188D01*
X129513820Y-99577498D01*
X129403506Y-99636463D01*
X129306815Y-99715815D01*
X129227463Y-99812506D01*
X129168498Y-99922820D01*
X129132188Y-100042518D01*
X129119928Y-100167000D01*
X123563000Y-100167000D01*
X123563000Y-99964212D01*
X123519383Y-99744933D01*
X123433824Y-99538376D01*
X123309612Y-99352480D01*
X123151520Y-99194388D01*
X122965624Y-99070176D01*
X122759067Y-98984617D01*
X122539788Y-98941000D01*
X122316212Y-98941000D01*
X122096933Y-98984617D01*
X121890376Y-99070176D01*
X121704480Y-99194388D01*
X121546388Y-99352480D01*
X121422176Y-99538376D01*
X121336617Y-99744933D01*
X121293000Y-99964212D01*
X118812159Y-99964212D01*
X118851226Y-99869898D01*
X118891000Y-99669939D01*
X118891000Y-99466061D01*
X118851226Y-99266102D01*
X118773205Y-99077744D01*
X118659937Y-98908226D01*
X118515774Y-98764063D01*
X118346256Y-98650795D01*
X118157898Y-98572774D01*
X117957939Y-98533000D01*
X117754061Y-98533000D01*
X117554102Y-98572774D01*
X117365744Y-98650795D01*
X117196226Y-98764063D01*
X117052063Y-98908226D01*
X116938795Y-99077744D01*
X116860774Y-99266102D01*
X116821000Y-99466061D01*
X105485000Y-99466061D01*
X105485000Y-95656061D01*
X110852000Y-95656061D01*
X110852000Y-95859939D01*
X110891774Y-96059898D01*
X110969795Y-96248256D01*
X111083063Y-96417774D01*
X111227226Y-96561937D01*
X111396744Y-96675205D01*
X111585102Y-96753226D01*
X111785061Y-96793000D01*
X111988939Y-96793000D01*
X112188898Y-96753226D01*
X112377256Y-96675205D01*
X112546774Y-96561937D01*
X112690937Y-96417774D01*
X112804205Y-96248256D01*
X112882226Y-96059898D01*
X112922000Y-95859939D01*
X112922000Y-95656061D01*
X112882226Y-95456102D01*
X112804205Y-95267744D01*
X112690937Y-95098226D01*
X112546774Y-94954063D01*
X112377256Y-94840795D01*
X112188898Y-94762774D01*
X111988939Y-94723000D01*
X111785061Y-94723000D01*
X111585102Y-94762774D01*
X111396744Y-94840795D01*
X111227226Y-94954063D01*
X111083063Y-95098226D01*
X110969795Y-95267744D01*
X110891774Y-95456102D01*
X110852000Y-95656061D01*
X105485000Y-95656061D01*
X105485000Y-91888212D01*
X122865000Y-91888212D01*
X122865000Y-92111788D01*
X122908617Y-92331067D01*
X122994176Y-92537624D01*
X123118388Y-92723520D01*
X123276480Y-92881612D01*
X123462376Y-93005824D01*
X123668933Y-93091383D01*
X123888212Y-93135000D01*
X124111788Y-93135000D01*
X124331067Y-93091383D01*
X124537624Y-93005824D01*
X124723520Y-92881612D01*
X124881612Y-92723520D01*
X125005824Y-92537624D01*
X125018276Y-92507561D01*
X156979500Y-92507561D01*
X156979500Y-92711439D01*
X157019274Y-92911398D01*
X157097295Y-93099756D01*
X157210563Y-93269274D01*
X157354726Y-93413437D01*
X157524244Y-93526705D01*
X157712602Y-93604726D01*
X157912561Y-93644500D01*
X158116439Y-93644500D01*
X158316398Y-93604726D01*
X158504756Y-93526705D01*
X158674274Y-93413437D01*
X158818437Y-93269274D01*
X158931705Y-93099756D01*
X159009726Y-92911398D01*
X159049500Y-92711439D01*
X159049500Y-92507561D01*
X159009726Y-92307602D01*
X158931705Y-92119244D01*
X158818437Y-91949726D01*
X158674274Y-91805563D01*
X158504756Y-91692295D01*
X158316398Y-91614274D01*
X158116439Y-91574500D01*
X157912561Y-91574500D01*
X157712602Y-91614274D01*
X157524244Y-91692295D01*
X157354726Y-91805563D01*
X157210563Y-91949726D01*
X157097295Y-92119244D01*
X157019274Y-92307602D01*
X156979500Y-92507561D01*
X125018276Y-92507561D01*
X125091383Y-92331067D01*
X125135000Y-92111788D01*
X125135000Y-91888212D01*
X125091383Y-91668933D01*
X125005824Y-91462376D01*
X124881612Y-91276480D01*
X124723520Y-91118388D01*
X124537624Y-90994176D01*
X124331067Y-90908617D01*
X124111788Y-90865000D01*
X123888212Y-90865000D01*
X123668933Y-90908617D01*
X123462376Y-90994176D01*
X123276480Y-91118388D01*
X123118388Y-91276480D01*
X122994176Y-91462376D01*
X122908617Y-91668933D01*
X122865000Y-91888212D01*
X105485000Y-91888212D01*
X105485000Y-89550212D01*
X172220000Y-89550212D01*
X172220000Y-89773788D01*
X172263617Y-89993067D01*
X172349176Y-90199624D01*
X172473388Y-90385520D01*
X172631480Y-90543612D01*
X172817376Y-90667824D01*
X173023933Y-90753383D01*
X173243212Y-90797000D01*
X173466788Y-90797000D01*
X173686067Y-90753383D01*
X173892624Y-90667824D01*
X174078520Y-90543612D01*
X174236612Y-90385520D01*
X174360824Y-90199624D01*
X174446383Y-89993067D01*
X174490000Y-89773788D01*
X174490000Y-89550212D01*
X174446383Y-89330933D01*
X174360824Y-89124376D01*
X174236612Y-88938480D01*
X174078520Y-88780388D01*
X173892624Y-88656176D01*
X173686067Y-88570617D01*
X173466788Y-88527000D01*
X173243212Y-88527000D01*
X173023933Y-88570617D01*
X172817376Y-88656176D01*
X172631480Y-88780388D01*
X172473388Y-88938480D01*
X172349176Y-89124376D01*
X172263617Y-89330933D01*
X172220000Y-89550212D01*
X105485000Y-89550212D01*
X105485000Y-87518212D01*
X141867000Y-87518212D01*
X141867000Y-87741788D01*
X141910617Y-87961067D01*
X141996176Y-88167624D01*
X142120388Y-88353520D01*
X142278480Y-88511612D01*
X142464376Y-88635824D01*
X142670933Y-88721383D01*
X142890212Y-88765000D01*
X143113788Y-88765000D01*
X143333067Y-88721383D01*
X143539624Y-88635824D01*
X143725520Y-88511612D01*
X143883612Y-88353520D01*
X144007824Y-88167624D01*
X144066398Y-88026212D01*
X148979000Y-88026212D01*
X148979000Y-88249788D01*
X149022617Y-88469067D01*
X149108176Y-88675624D01*
X149232388Y-88861520D01*
X149390480Y-89019612D01*
X149576376Y-89143824D01*
X149782933Y-89229383D01*
X150002212Y-89273000D01*
X150225788Y-89273000D01*
X150445067Y-89229383D01*
X150651624Y-89143824D01*
X150837520Y-89019612D01*
X150995612Y-88861520D01*
X151119824Y-88675624D01*
X151205383Y-88469067D01*
X151249000Y-88249788D01*
X151249000Y-88026212D01*
X151205383Y-87806933D01*
X151119824Y-87600376D01*
X150995612Y-87414480D01*
X150837520Y-87256388D01*
X150651624Y-87132176D01*
X150445067Y-87046617D01*
X150225788Y-87003000D01*
X150002212Y-87003000D01*
X149782933Y-87046617D01*
X149576376Y-87132176D01*
X149390480Y-87256388D01*
X149232388Y-87414480D01*
X149108176Y-87600376D01*
X149022617Y-87806933D01*
X148979000Y-88026212D01*
X144066398Y-88026212D01*
X144093383Y-87961067D01*
X144137000Y-87741788D01*
X144137000Y-87518212D01*
X144093383Y-87298933D01*
X144007824Y-87092376D01*
X143883612Y-86906480D01*
X143725520Y-86748388D01*
X143539624Y-86624176D01*
X143333067Y-86538617D01*
X143113788Y-86495000D01*
X142890212Y-86495000D01*
X142670933Y-86538617D01*
X142464376Y-86624176D01*
X142278480Y-86748388D01*
X142120388Y-86906480D01*
X141996176Y-87092376D01*
X141910617Y-87298933D01*
X141867000Y-87518212D01*
X105485000Y-87518212D01*
X105485000Y-86375212D01*
X158758000Y-86375212D01*
X158758000Y-86598788D01*
X158801617Y-86818067D01*
X158887176Y-87024624D01*
X159011388Y-87210520D01*
X159169480Y-87368612D01*
X159355376Y-87492824D01*
X159561933Y-87578383D01*
X159781212Y-87622000D01*
X160004788Y-87622000D01*
X160224067Y-87578383D01*
X160430624Y-87492824D01*
X160616520Y-87368612D01*
X160774612Y-87210520D01*
X160898824Y-87024624D01*
X160984383Y-86818067D01*
X161028000Y-86598788D01*
X161028000Y-86375212D01*
X160984383Y-86155933D01*
X160898824Y-85949376D01*
X160774612Y-85763480D01*
X160616520Y-85605388D01*
X160430624Y-85481176D01*
X160224067Y-85395617D01*
X160004788Y-85352000D01*
X159781212Y-85352000D01*
X159561933Y-85395617D01*
X159355376Y-85481176D01*
X159169480Y-85605388D01*
X159011388Y-85763480D01*
X158887176Y-85949376D01*
X158801617Y-86155933D01*
X158758000Y-86375212D01*
X105485000Y-86375212D01*
X105485000Y-83464061D01*
X140443000Y-83464061D01*
X140443000Y-83667939D01*
X140482774Y-83867898D01*
X140560795Y-84056256D01*
X140674063Y-84225774D01*
X140818226Y-84369937D01*
X140987744Y-84483205D01*
X141129878Y-84542079D01*
X141054274Y-84724602D01*
X141014500Y-84924561D01*
X141014500Y-85128439D01*
X141054274Y-85328398D01*
X141132295Y-85516756D01*
X141245563Y-85686274D01*
X141389726Y-85830437D01*
X141559244Y-85943705D01*
X141747602Y-86021726D01*
X141947561Y-86061500D01*
X142151439Y-86061500D01*
X142351398Y-86021726D01*
X142539756Y-85943705D01*
X142709274Y-85830437D01*
X142853437Y-85686274D01*
X142966705Y-85516756D01*
X143044726Y-85328398D01*
X143084500Y-85128439D01*
X143084500Y-84924561D01*
X143044726Y-84724602D01*
X142966705Y-84536244D01*
X142853437Y-84366726D01*
X142709274Y-84222563D01*
X142539756Y-84109295D01*
X142397622Y-84050421D01*
X142473226Y-83867898D01*
X142513000Y-83667939D01*
X142513000Y-83464061D01*
X142473226Y-83264102D01*
X142395205Y-83075744D01*
X142281937Y-82906226D01*
X142178772Y-82803061D01*
X143491000Y-82803061D01*
X143491000Y-83006939D01*
X143530774Y-83206898D01*
X143608795Y-83395256D01*
X143714196Y-83553000D01*
X143608795Y-83710744D01*
X143530774Y-83899102D01*
X143491000Y-84099061D01*
X143491000Y-84302939D01*
X143530774Y-84502898D01*
X143608795Y-84691256D01*
X143722063Y-84860774D01*
X143866226Y-85004937D01*
X144035744Y-85118205D01*
X144224102Y-85196226D01*
X144424061Y-85236000D01*
X144627939Y-85236000D01*
X144827898Y-85196226D01*
X145016256Y-85118205D01*
X145185774Y-85004937D01*
X145329937Y-84860774D01*
X145443205Y-84691256D01*
X145451777Y-84670561D01*
X152000000Y-84670561D01*
X152000000Y-84874439D01*
X152039774Y-85074398D01*
X152117795Y-85262756D01*
X152231063Y-85432274D01*
X152375226Y-85576437D01*
X152544744Y-85689705D01*
X152733102Y-85767726D01*
X152933061Y-85807500D01*
X153136939Y-85807500D01*
X153336898Y-85767726D01*
X153525256Y-85689705D01*
X153694774Y-85576437D01*
X153838937Y-85432274D01*
X153952205Y-85262756D01*
X154030226Y-85074398D01*
X154070000Y-84874439D01*
X154070000Y-84670561D01*
X154030226Y-84470602D01*
X153952205Y-84282244D01*
X153838937Y-84112726D01*
X153694774Y-83968563D01*
X153525256Y-83855295D01*
X153336898Y-83777274D01*
X153136939Y-83737500D01*
X152933061Y-83737500D01*
X152733102Y-83777274D01*
X152544744Y-83855295D01*
X152375226Y-83968563D01*
X152231063Y-84112726D01*
X152117795Y-84282244D01*
X152039774Y-84470602D01*
X152000000Y-84670561D01*
X145451777Y-84670561D01*
X145521226Y-84502898D01*
X145561000Y-84302939D01*
X145561000Y-84099061D01*
X145521226Y-83899102D01*
X145443205Y-83710744D01*
X145337804Y-83553000D01*
X145443205Y-83395256D01*
X145521226Y-83206898D01*
X145561000Y-83006939D01*
X145561000Y-82829061D01*
X149269500Y-82829061D01*
X149269500Y-83032939D01*
X149309274Y-83232898D01*
X149387295Y-83421256D01*
X149500563Y-83590774D01*
X149644726Y-83734937D01*
X149814244Y-83848205D01*
X150002602Y-83926226D01*
X150202561Y-83966000D01*
X150406439Y-83966000D01*
X150606398Y-83926226D01*
X150794756Y-83848205D01*
X150964274Y-83734937D01*
X151108437Y-83590774D01*
X151221705Y-83421256D01*
X151299726Y-83232898D01*
X151339500Y-83032939D01*
X151339500Y-82829061D01*
X151337541Y-82819212D01*
X157488000Y-82819212D01*
X157488000Y-83042788D01*
X157531617Y-83262067D01*
X157617176Y-83468624D01*
X157741388Y-83654520D01*
X157899480Y-83812612D01*
X158085376Y-83936824D01*
X158291933Y-84022383D01*
X158511212Y-84066000D01*
X158734788Y-84066000D01*
X158954067Y-84022383D01*
X159160624Y-83936824D01*
X159346520Y-83812612D01*
X159504612Y-83654520D01*
X159628824Y-83468624D01*
X159714383Y-83262067D01*
X159758000Y-83042788D01*
X159758000Y-82819212D01*
X159714383Y-82599933D01*
X159628824Y-82393376D01*
X159504612Y-82207480D01*
X159346520Y-82049388D01*
X159160624Y-81925176D01*
X158954067Y-81839617D01*
X158734788Y-81796000D01*
X158511212Y-81796000D01*
X158291933Y-81839617D01*
X158085376Y-81925176D01*
X157899480Y-82049388D01*
X157741388Y-82207480D01*
X157617176Y-82393376D01*
X157531617Y-82599933D01*
X157488000Y-82819212D01*
X151337541Y-82819212D01*
X151299726Y-82629102D01*
X151221705Y-82440744D01*
X151108437Y-82271226D01*
X150964274Y-82127063D01*
X150794756Y-82013795D01*
X150606398Y-81935774D01*
X150406439Y-81896000D01*
X150202561Y-81896000D01*
X150002602Y-81935774D01*
X149814244Y-82013795D01*
X149644726Y-82127063D01*
X149500563Y-82271226D01*
X149387295Y-82440744D01*
X149309274Y-82629102D01*
X149269500Y-82829061D01*
X145561000Y-82829061D01*
X145561000Y-82803061D01*
X145521226Y-82603102D01*
X145443205Y-82414744D01*
X145329937Y-82245226D01*
X145185774Y-82101063D01*
X145016256Y-81987795D01*
X144827898Y-81909774D01*
X144627939Y-81870000D01*
X144424061Y-81870000D01*
X144224102Y-81909774D01*
X144035744Y-81987795D01*
X143866226Y-82101063D01*
X143722063Y-82245226D01*
X143608795Y-82414744D01*
X143530774Y-82603102D01*
X143491000Y-82803061D01*
X142178772Y-82803061D01*
X142137774Y-82762063D01*
X141968256Y-82648795D01*
X141779898Y-82570774D01*
X141579939Y-82531000D01*
X141376061Y-82531000D01*
X141176102Y-82570774D01*
X140987744Y-82648795D01*
X140818226Y-82762063D01*
X140674063Y-82906226D01*
X140560795Y-83075744D01*
X140482774Y-83264102D01*
X140443000Y-83464061D01*
X105485000Y-83464061D01*
X105485000Y-78247000D01*
X109419928Y-78247000D01*
X109419928Y-79997000D01*
X109449001Y-80292186D01*
X109535104Y-80576028D01*
X109674927Y-80837618D01*
X109863097Y-81066903D01*
X110092382Y-81255073D01*
X110353972Y-81394896D01*
X110637814Y-81480999D01*
X110933000Y-81510072D01*
X112683000Y-81510072D01*
X112978186Y-81480999D01*
X113262028Y-81394896D01*
X113523618Y-81255073D01*
X113752903Y-81066903D01*
X113941073Y-80837618D01*
X114080896Y-80576028D01*
X114166999Y-80292186D01*
X114196072Y-79997000D01*
X114196072Y-79644212D01*
X137168000Y-79644212D01*
X137168000Y-79867788D01*
X137211617Y-80087067D01*
X137297176Y-80293624D01*
X137421388Y-80479520D01*
X137579480Y-80637612D01*
X137765376Y-80761824D01*
X137971933Y-80847383D01*
X138191212Y-80891000D01*
X138414788Y-80891000D01*
X138634067Y-80847383D01*
X138840624Y-80761824D01*
X139026520Y-80637612D01*
X139184612Y-80479520D01*
X139308824Y-80293624D01*
X139394383Y-80087067D01*
X139438000Y-79867788D01*
X139438000Y-79644212D01*
X139394383Y-79424933D01*
X139308824Y-79218376D01*
X139184612Y-79032480D01*
X139026520Y-78874388D01*
X138840624Y-78750176D01*
X138634067Y-78664617D01*
X138500561Y-78638061D01*
X147047000Y-78638061D01*
X147047000Y-78841939D01*
X147086774Y-79041898D01*
X147164795Y-79230256D01*
X147278063Y-79399774D01*
X147422226Y-79543937D01*
X147591744Y-79657205D01*
X147780102Y-79735226D01*
X147837381Y-79746619D01*
X147848774Y-79803898D01*
X147926795Y-79992256D01*
X148040063Y-80161774D01*
X148184226Y-80305937D01*
X148353744Y-80419205D01*
X148542102Y-80497226D01*
X148599381Y-80508619D01*
X148610774Y-80565898D01*
X148688795Y-80754256D01*
X148802063Y-80923774D01*
X148946226Y-81067937D01*
X149115744Y-81181205D01*
X149304102Y-81259226D01*
X149504061Y-81299000D01*
X149707939Y-81299000D01*
X149907898Y-81259226D01*
X150096256Y-81181205D01*
X150265774Y-81067937D01*
X150409937Y-80923774D01*
X150523205Y-80754256D01*
X150601226Y-80565898D01*
X150641000Y-80365939D01*
X150641000Y-80162061D01*
X150601226Y-79962102D01*
X150523205Y-79773744D01*
X150409937Y-79604226D01*
X150322923Y-79517212D01*
X177046000Y-79517212D01*
X177046000Y-79740788D01*
X177089617Y-79960067D01*
X177175176Y-80166624D01*
X177299388Y-80352520D01*
X177457480Y-80510612D01*
X177643376Y-80634824D01*
X177849933Y-80720383D01*
X178069212Y-80764000D01*
X178292788Y-80764000D01*
X178512067Y-80720383D01*
X178718624Y-80634824D01*
X178904520Y-80510612D01*
X179062612Y-80352520D01*
X179186824Y-80166624D01*
X179272383Y-79960067D01*
X179316000Y-79740788D01*
X179316000Y-79517212D01*
X179272383Y-79297933D01*
X179186824Y-79091376D01*
X179062612Y-78905480D01*
X178904520Y-78747388D01*
X178718624Y-78623176D01*
X178512067Y-78537617D01*
X178292788Y-78494000D01*
X178069212Y-78494000D01*
X177849933Y-78537617D01*
X177643376Y-78623176D01*
X177457480Y-78747388D01*
X177299388Y-78905480D01*
X177175176Y-79091376D01*
X177089617Y-79297933D01*
X177046000Y-79517212D01*
X150322923Y-79517212D01*
X150265774Y-79460063D01*
X150096256Y-79346795D01*
X149907898Y-79268774D01*
X149850619Y-79257381D01*
X149839226Y-79200102D01*
X149761205Y-79011744D01*
X149647937Y-78842226D01*
X149503774Y-78698063D01*
X149334256Y-78584795D01*
X149145898Y-78506774D01*
X149088619Y-78495381D01*
X149077226Y-78438102D01*
X148999205Y-78249744D01*
X148885937Y-78080226D01*
X148741774Y-77936063D01*
X148572256Y-77822795D01*
X148383898Y-77744774D01*
X148355936Y-77739212D01*
X156472000Y-77739212D01*
X156472000Y-77962788D01*
X156515617Y-78182067D01*
X156601176Y-78388624D01*
X156725388Y-78574520D01*
X156883480Y-78732612D01*
X157069376Y-78856824D01*
X157275933Y-78942383D01*
X157495212Y-78986000D01*
X157718788Y-78986000D01*
X157938067Y-78942383D01*
X158144624Y-78856824D01*
X158330520Y-78732612D01*
X158488612Y-78574520D01*
X158612824Y-78388624D01*
X158698383Y-78182067D01*
X158742000Y-77962788D01*
X158742000Y-77739212D01*
X168664000Y-77739212D01*
X168664000Y-77962788D01*
X168707617Y-78182067D01*
X168793176Y-78388624D01*
X168917388Y-78574520D01*
X169075480Y-78732612D01*
X169261376Y-78856824D01*
X169467933Y-78942383D01*
X169687212Y-78986000D01*
X169910788Y-78986000D01*
X170130067Y-78942383D01*
X170336624Y-78856824D01*
X170522520Y-78732612D01*
X170680612Y-78574520D01*
X170804824Y-78388624D01*
X170890383Y-78182067D01*
X170934000Y-77962788D01*
X170934000Y-77739212D01*
X170890383Y-77519933D01*
X170804824Y-77313376D01*
X170680612Y-77127480D01*
X170522520Y-76969388D01*
X170336624Y-76845176D01*
X170130067Y-76759617D01*
X169910788Y-76716000D01*
X169687212Y-76716000D01*
X169467933Y-76759617D01*
X169261376Y-76845176D01*
X169075480Y-76969388D01*
X168917388Y-77127480D01*
X168793176Y-77313376D01*
X168707617Y-77519933D01*
X168664000Y-77739212D01*
X158742000Y-77739212D01*
X158698383Y-77519933D01*
X158612824Y-77313376D01*
X158488612Y-77127480D01*
X158330520Y-76969388D01*
X158144624Y-76845176D01*
X157938067Y-76759617D01*
X157718788Y-76716000D01*
X157495212Y-76716000D01*
X157275933Y-76759617D01*
X157069376Y-76845176D01*
X156883480Y-76969388D01*
X156725388Y-77127480D01*
X156601176Y-77313376D01*
X156515617Y-77519933D01*
X156472000Y-77739212D01*
X148355936Y-77739212D01*
X148183939Y-77705000D01*
X147980061Y-77705000D01*
X147780102Y-77744774D01*
X147591744Y-77822795D01*
X147422226Y-77936063D01*
X147278063Y-78080226D01*
X147164795Y-78249744D01*
X147086774Y-78438102D01*
X147047000Y-78638061D01*
X138500561Y-78638061D01*
X138414788Y-78621000D01*
X138191212Y-78621000D01*
X137971933Y-78664617D01*
X137765376Y-78750176D01*
X137579480Y-78874388D01*
X137421388Y-79032480D01*
X137297176Y-79218376D01*
X137211617Y-79424933D01*
X137168000Y-79644212D01*
X114196072Y-79644212D01*
X114196072Y-78247000D01*
X114166999Y-77951814D01*
X114080896Y-77667972D01*
X113941073Y-77406382D01*
X113752903Y-77177097D01*
X113523618Y-76988927D01*
X113262028Y-76849104D01*
X113133357Y-76810072D01*
X116558000Y-76810072D01*
X116682482Y-76797812D01*
X116802180Y-76761502D01*
X116912494Y-76702537D01*
X117009185Y-76623185D01*
X117088537Y-76526494D01*
X117147502Y-76416180D01*
X117183812Y-76296482D01*
X117196072Y-76172000D01*
X117196072Y-75326212D01*
X129929000Y-75326212D01*
X129929000Y-75549788D01*
X129972617Y-75769067D01*
X130058176Y-75975624D01*
X130182388Y-76161520D01*
X130340480Y-76319612D01*
X130526376Y-76443824D01*
X130732933Y-76529383D01*
X130952212Y-76573000D01*
X131175788Y-76573000D01*
X131395067Y-76529383D01*
X131601624Y-76443824D01*
X131787520Y-76319612D01*
X131945612Y-76161520D01*
X132069824Y-75975624D01*
X132155383Y-75769067D01*
X132199000Y-75549788D01*
X132199000Y-75326212D01*
X132155383Y-75106933D01*
X132069824Y-74900376D01*
X131945612Y-74714480D01*
X131787520Y-74556388D01*
X131601624Y-74432176D01*
X131395067Y-74346617D01*
X131175788Y-74303000D01*
X130952212Y-74303000D01*
X130732933Y-74346617D01*
X130526376Y-74432176D01*
X130340480Y-74556388D01*
X130182388Y-74714480D01*
X130058176Y-74900376D01*
X129972617Y-75106933D01*
X129929000Y-75326212D01*
X117196072Y-75326212D01*
X117196072Y-73548212D01*
X133612000Y-73548212D01*
X133612000Y-73771788D01*
X133655617Y-73991067D01*
X133741176Y-74197624D01*
X133865388Y-74383520D01*
X134023480Y-74541612D01*
X134209376Y-74665824D01*
X134415933Y-74751383D01*
X134635212Y-74795000D01*
X134858788Y-74795000D01*
X135078067Y-74751383D01*
X135284624Y-74665824D01*
X135470520Y-74541612D01*
X135628612Y-74383520D01*
X135752824Y-74197624D01*
X135838383Y-73991067D01*
X135882000Y-73771788D01*
X135882000Y-73548212D01*
X135838383Y-73328933D01*
X135752824Y-73122376D01*
X135628612Y-72936480D01*
X135470520Y-72778388D01*
X135284624Y-72654176D01*
X135078067Y-72568617D01*
X134858788Y-72525000D01*
X134635212Y-72525000D01*
X134415933Y-72568617D01*
X134209376Y-72654176D01*
X134023480Y-72778388D01*
X133865388Y-72936480D01*
X133741176Y-73122376D01*
X133655617Y-73328933D01*
X133612000Y-73548212D01*
X117196072Y-73548212D01*
X117196072Y-72672000D01*
X117183812Y-72547518D01*
X117147502Y-72427820D01*
X117088537Y-72317506D01*
X117009185Y-72220815D01*
X116936375Y-72161061D01*
X140379500Y-72161061D01*
X140379500Y-72364939D01*
X140419274Y-72564898D01*
X140497295Y-72753256D01*
X140610563Y-72922774D01*
X140754726Y-73066937D01*
X140924244Y-73180205D01*
X141112602Y-73258226D01*
X141312561Y-73298000D01*
X141516439Y-73298000D01*
X141716398Y-73258226D01*
X141904756Y-73180205D01*
X142074274Y-73066937D01*
X142218437Y-72922774D01*
X142331705Y-72753256D01*
X142409726Y-72564898D01*
X142449500Y-72364939D01*
X142449500Y-72161061D01*
X142409726Y-71961102D01*
X142331705Y-71772744D01*
X142218437Y-71603226D01*
X142141272Y-71526061D01*
X157969000Y-71526061D01*
X157969000Y-71729939D01*
X158008774Y-71929898D01*
X158086795Y-72118256D01*
X158200063Y-72287774D01*
X158344226Y-72431937D01*
X158513744Y-72545205D01*
X158702102Y-72623226D01*
X158902061Y-72663000D01*
X159105939Y-72663000D01*
X159305898Y-72623226D01*
X159494256Y-72545205D01*
X159663774Y-72431937D01*
X159807937Y-72287774D01*
X159899184Y-72151212D01*
X177427000Y-72151212D01*
X177427000Y-72374788D01*
X177470617Y-72594067D01*
X177556176Y-72800624D01*
X177680388Y-72986520D01*
X177838480Y-73144612D01*
X178024376Y-73268824D01*
X178230933Y-73354383D01*
X178450212Y-73398000D01*
X178673788Y-73398000D01*
X178893067Y-73354383D01*
X179099624Y-73268824D01*
X179285520Y-73144612D01*
X179443612Y-72986520D01*
X179567824Y-72800624D01*
X179653383Y-72594067D01*
X179697000Y-72374788D01*
X179697000Y-72151212D01*
X179653383Y-71931933D01*
X179567824Y-71725376D01*
X179443612Y-71539480D01*
X179285520Y-71381388D01*
X179099624Y-71257176D01*
X178893067Y-71171617D01*
X178673788Y-71128000D01*
X178450212Y-71128000D01*
X178230933Y-71171617D01*
X178024376Y-71257176D01*
X177838480Y-71381388D01*
X177680388Y-71539480D01*
X177556176Y-71725376D01*
X177470617Y-71931933D01*
X177427000Y-72151212D01*
X159899184Y-72151212D01*
X159921205Y-72118256D01*
X159999226Y-71929898D01*
X160039000Y-71729939D01*
X160039000Y-71526061D01*
X159999226Y-71326102D01*
X159921205Y-71137744D01*
X159807937Y-70968226D01*
X159663774Y-70824063D01*
X159494256Y-70710795D01*
X159305898Y-70632774D01*
X159105939Y-70593000D01*
X158902061Y-70593000D01*
X158702102Y-70632774D01*
X158513744Y-70710795D01*
X158344226Y-70824063D01*
X158200063Y-70968226D01*
X158086795Y-71137744D01*
X158008774Y-71326102D01*
X157969000Y-71526061D01*
X142141272Y-71526061D01*
X142074274Y-71459063D01*
X141904756Y-71345795D01*
X141716398Y-71267774D01*
X141516439Y-71228000D01*
X141312561Y-71228000D01*
X141112602Y-71267774D01*
X140924244Y-71345795D01*
X140754726Y-71459063D01*
X140610563Y-71603226D01*
X140497295Y-71772744D01*
X140419274Y-71961102D01*
X140379500Y-72161061D01*
X116936375Y-72161061D01*
X116912494Y-72141463D01*
X116802180Y-72082498D01*
X116682482Y-72046188D01*
X116558000Y-72033928D01*
X113058000Y-72033928D01*
X112933518Y-72046188D01*
X112813820Y-72082498D01*
X112703506Y-72141463D01*
X112606815Y-72220815D01*
X112527463Y-72317506D01*
X112468498Y-72427820D01*
X112432188Y-72547518D01*
X112419928Y-72672000D01*
X112419928Y-76172000D01*
X112432188Y-76296482D01*
X112468498Y-76416180D01*
X112527463Y-76526494D01*
X112606815Y-76623185D01*
X112703506Y-76702537D01*
X112780131Y-76743494D01*
X112683000Y-76733928D01*
X110933000Y-76733928D01*
X110637814Y-76763001D01*
X110353972Y-76849104D01*
X110092382Y-76988927D01*
X109863097Y-77177097D01*
X109674927Y-77406382D01*
X109535104Y-77667972D01*
X109449001Y-77951814D01*
X109419928Y-78247000D01*
X105485000Y-78247000D01*
X105485000Y-70002061D01*
X163049000Y-70002061D01*
X163049000Y-70205939D01*
X163088774Y-70405898D01*
X163166795Y-70594256D01*
X163280063Y-70763774D01*
X163424226Y-70907937D01*
X163593744Y-71021205D01*
X163782102Y-71099226D01*
X163982061Y-71139000D01*
X164185939Y-71139000D01*
X164385898Y-71099226D01*
X164574256Y-71021205D01*
X164743774Y-70907937D01*
X164887937Y-70763774D01*
X165001205Y-70594256D01*
X165079226Y-70405898D01*
X165119000Y-70205939D01*
X165119000Y-70002061D01*
X165079226Y-69802102D01*
X165001205Y-69613744D01*
X164887937Y-69444226D01*
X164743774Y-69300063D01*
X164574256Y-69186795D01*
X164385898Y-69108774D01*
X164185939Y-69069000D01*
X163982061Y-69069000D01*
X163782102Y-69108774D01*
X163593744Y-69186795D01*
X163424226Y-69300063D01*
X163280063Y-69444226D01*
X163166795Y-69613744D01*
X163088774Y-69802102D01*
X163049000Y-70002061D01*
X105485000Y-70002061D01*
X105485000Y-68478061D01*
X140443000Y-68478061D01*
X140443000Y-68681939D01*
X140482774Y-68881898D01*
X140560795Y-69070256D01*
X140674063Y-69239774D01*
X140818226Y-69383937D01*
X140987744Y-69497205D01*
X141176102Y-69575226D01*
X141376061Y-69615000D01*
X141579939Y-69615000D01*
X141779898Y-69575226D01*
X141968256Y-69497205D01*
X142137774Y-69383937D01*
X142281937Y-69239774D01*
X142395205Y-69070256D01*
X142473226Y-68881898D01*
X142513000Y-68681939D01*
X142513000Y-68478061D01*
X142473226Y-68278102D01*
X142395205Y-68089744D01*
X142281937Y-67920226D01*
X142194923Y-67833212D01*
X161298000Y-67833212D01*
X161298000Y-68056788D01*
X161341617Y-68276067D01*
X161427176Y-68482624D01*
X161551388Y-68668520D01*
X161709480Y-68826612D01*
X161895376Y-68950824D01*
X162101933Y-69036383D01*
X162321212Y-69080000D01*
X162544788Y-69080000D01*
X162764067Y-69036383D01*
X162970624Y-68950824D01*
X163156520Y-68826612D01*
X163314612Y-68668520D01*
X163438824Y-68482624D01*
X163524383Y-68276067D01*
X163568000Y-68056788D01*
X163568000Y-67833212D01*
X163524383Y-67613933D01*
X163438824Y-67407376D01*
X163314612Y-67221480D01*
X163156520Y-67063388D01*
X162970624Y-66939176D01*
X162764067Y-66853617D01*
X162544788Y-66810000D01*
X162321212Y-66810000D01*
X162101933Y-66853617D01*
X161895376Y-66939176D01*
X161709480Y-67063388D01*
X161551388Y-67221480D01*
X161427176Y-67407376D01*
X161341617Y-67613933D01*
X161298000Y-67833212D01*
X142194923Y-67833212D01*
X142137774Y-67776063D01*
X141968256Y-67662795D01*
X141779898Y-67584774D01*
X141579939Y-67545000D01*
X141376061Y-67545000D01*
X141176102Y-67584774D01*
X140987744Y-67662795D01*
X140818226Y-67776063D01*
X140674063Y-67920226D01*
X140560795Y-68089744D01*
X140482774Y-68278102D01*
X140443000Y-68478061D01*
X105485000Y-68478061D01*
X105485000Y-65655947D01*
X105511157Y-65389170D01*
X105606339Y-65389170D01*
X105606339Y-65850830D01*
X105696405Y-66303621D01*
X105873075Y-66730140D01*
X106129560Y-67113997D01*
X106456003Y-67440440D01*
X106839860Y-67696925D01*
X107266379Y-67873595D01*
X107719170Y-67963661D01*
X108180830Y-67963661D01*
X108633621Y-67873595D01*
X109060140Y-67696925D01*
X109443997Y-67440440D01*
X109770440Y-67113997D01*
X110026925Y-66730140D01*
X110203595Y-66303621D01*
X110293661Y-65850830D01*
X110293661Y-65389170D01*
X184206341Y-65389170D01*
X184206341Y-65850830D01*
X184296406Y-66303620D01*
X184473076Y-66730139D01*
X184729561Y-67113996D01*
X185056004Y-67440439D01*
X185439861Y-67696924D01*
X185866380Y-67873594D01*
X186319170Y-67963659D01*
X186780830Y-67963659D01*
X187233620Y-67873594D01*
X187660139Y-67696924D01*
X188043996Y-67440439D01*
X188370439Y-67113996D01*
X188626924Y-66730139D01*
X188803594Y-66303620D01*
X188893659Y-65850830D01*
X188893659Y-65389170D01*
X188803594Y-64936380D01*
X188626924Y-64509861D01*
X188370439Y-64126004D01*
X188043996Y-63799561D01*
X187660139Y-63543076D01*
X187233620Y-63366406D01*
X186780830Y-63276341D01*
X186319170Y-63276341D01*
X185866380Y-63366406D01*
X185439861Y-63543076D01*
X185056004Y-63799561D01*
X184729561Y-64126004D01*
X184473076Y-64509861D01*
X184296406Y-64936380D01*
X184206341Y-65389170D01*
X110293661Y-65389170D01*
X110203595Y-64936379D01*
X110026925Y-64509860D01*
X109770440Y-64126003D01*
X109443997Y-63799560D01*
X109060140Y-63543075D01*
X108633621Y-63366405D01*
X108180830Y-63276339D01*
X107719170Y-63276339D01*
X107266379Y-63366405D01*
X106839860Y-63543075D01*
X106456003Y-63799560D01*
X106129560Y-64126003D01*
X105873075Y-64509860D01*
X105696405Y-64936379D01*
X105606339Y-65389170D01*
X105511157Y-65389170D01*
X105535403Y-65141898D01*
X105674253Y-64682005D01*
X105899785Y-64257840D01*
X106203407Y-63885563D01*
X106573560Y-63579346D01*
X106996139Y-63350857D01*
X107455052Y-63208800D01*
X107966925Y-63155000D01*
X127670928Y-63155000D01*
X127670928Y-64604000D01*
G04 #@! TA.AperFunction,Conductor*
D18*
G36*
X127670928Y-64604000D02*
G01*
X127683188Y-64728482D01*
X127719498Y-64848180D01*
X127778463Y-64958494D01*
X127857815Y-65055185D01*
X127954506Y-65134537D01*
X128064820Y-65193502D01*
X128184518Y-65229812D01*
X128309000Y-65242072D01*
X130009000Y-65242072D01*
X130133482Y-65229812D01*
X130253180Y-65193502D01*
X130363494Y-65134537D01*
X130460185Y-65055185D01*
X130539537Y-64958494D01*
X130598502Y-64848180D01*
X130620513Y-64775620D01*
X130752368Y-64907475D01*
X130995589Y-65069990D01*
X131265842Y-65181932D01*
X131552740Y-65239000D01*
X131845260Y-65239000D01*
X132132158Y-65181932D01*
X132402411Y-65069990D01*
X132645632Y-64907475D01*
X132852475Y-64700632D01*
X132969000Y-64526240D01*
X133085525Y-64700632D01*
X133292368Y-64907475D01*
X133535589Y-65069990D01*
X133805842Y-65181932D01*
X134092740Y-65239000D01*
X134385260Y-65239000D01*
X134672158Y-65181932D01*
X134942411Y-65069990D01*
X135185632Y-64907475D01*
X135392475Y-64700632D01*
X135554990Y-64457411D01*
X135666932Y-64187158D01*
X135724000Y-63900260D01*
X135724000Y-63607740D01*
X135666932Y-63320842D01*
X135598238Y-63155000D01*
X141513928Y-63155000D01*
X141513928Y-64604000D01*
X141526188Y-64728482D01*
X141562498Y-64848180D01*
X141621463Y-64958494D01*
X141700815Y-65055185D01*
X141797506Y-65134537D01*
X141907820Y-65193502D01*
X142027518Y-65229812D01*
X142152000Y-65242072D01*
X143852000Y-65242072D01*
X143976482Y-65229812D01*
X144096180Y-65193502D01*
X144206494Y-65134537D01*
X144303185Y-65055185D01*
X144382537Y-64958494D01*
X144441502Y-64848180D01*
X144463513Y-64775620D01*
X144595368Y-64907475D01*
X144838589Y-65069990D01*
X145108842Y-65181932D01*
X145395740Y-65239000D01*
X145688260Y-65239000D01*
X145975158Y-65181932D01*
X146245411Y-65069990D01*
X146488632Y-64907475D01*
X146695475Y-64700632D01*
X146812000Y-64526240D01*
X146928525Y-64700632D01*
X147135368Y-64907475D01*
X147378589Y-65069990D01*
X147648842Y-65181932D01*
X147935740Y-65239000D01*
X148228260Y-65239000D01*
X148515158Y-65181932D01*
X148785411Y-65069990D01*
X149028632Y-64907475D01*
X149235475Y-64700632D01*
X149397990Y-64457411D01*
X149509932Y-64187158D01*
X149567000Y-63900260D01*
X149567000Y-63607740D01*
X149509932Y-63320842D01*
X149441238Y-63155000D01*
X186514053Y-63155000D01*
X187028102Y-63205403D01*
X187487995Y-63344253D01*
X187912160Y-63569785D01*
X188284437Y-63873407D01*
X188590654Y-64243560D01*
X188819143Y-64666139D01*
X188961200Y-65125052D01*
X189015001Y-65636935D01*
X189015000Y-109184053D01*
X188964597Y-109698102D01*
X188825748Y-110157993D01*
X188600215Y-110582160D01*
X188296590Y-110954439D01*
X187926437Y-111260657D01*
X187503861Y-111489142D01*
X187044947Y-111631200D01*
X186533075Y-111685000D01*
X107985947Y-111685000D01*
X107471898Y-111634597D01*
X107012007Y-111495748D01*
X106587840Y-111270215D01*
X106215561Y-110966590D01*
X105909343Y-110596437D01*
X105680858Y-110173861D01*
X105538800Y-109714947D01*
X105485000Y-109203075D01*
X105485000Y-108989170D01*
X105606339Y-108989170D01*
X105606339Y-109450830D01*
X105696405Y-109903621D01*
X105873075Y-110330140D01*
X106129560Y-110713997D01*
X106456003Y-111040440D01*
X106839860Y-111296925D01*
X107266379Y-111473595D01*
X107719170Y-111563661D01*
X108180830Y-111563661D01*
X108633621Y-111473595D01*
X109060140Y-111296925D01*
X109443997Y-111040440D01*
X109770440Y-110713997D01*
X110026925Y-110330140D01*
X110203595Y-109903621D01*
X110293661Y-109450830D01*
X110293661Y-108989170D01*
X184206341Y-108989170D01*
X184206341Y-109450830D01*
X184296406Y-109903620D01*
X184473076Y-110330139D01*
X184729561Y-110713996D01*
X185056004Y-111040439D01*
X185439861Y-111296924D01*
X185866380Y-111473594D01*
X186319170Y-111563659D01*
X186780830Y-111563659D01*
X187233620Y-111473594D01*
X187660139Y-111296924D01*
X188043996Y-111040439D01*
X188370439Y-110713996D01*
X188626924Y-110330139D01*
X188803594Y-109903620D01*
X188893659Y-109450830D01*
X188893659Y-108989170D01*
X188803594Y-108536380D01*
X188626924Y-108109861D01*
X188370439Y-107726004D01*
X188043996Y-107399561D01*
X187660139Y-107143076D01*
X187233620Y-106966406D01*
X186780830Y-106876341D01*
X186319170Y-106876341D01*
X185866380Y-106966406D01*
X185439861Y-107143076D01*
X185056004Y-107399561D01*
X184729561Y-107726004D01*
X184473076Y-108109861D01*
X184296406Y-108536380D01*
X184206341Y-108989170D01*
X110293661Y-108989170D01*
X110203595Y-108536379D01*
X110026925Y-108109860D01*
X109770440Y-107726003D01*
X109443997Y-107399560D01*
X109060140Y-107143075D01*
X108633621Y-106966405D01*
X108180830Y-106876339D01*
X107719170Y-106876339D01*
X107266379Y-106966405D01*
X106839860Y-107143075D01*
X106456003Y-107399560D01*
X106129560Y-107726003D01*
X105873075Y-108109860D01*
X105696405Y-108536379D01*
X105606339Y-108989170D01*
X105485000Y-108989170D01*
X105485000Y-99466061D01*
X116821000Y-99466061D01*
X116821000Y-99669939D01*
X116860774Y-99869898D01*
X116938795Y-100058256D01*
X116950651Y-100076000D01*
X116938795Y-100093744D01*
X116860774Y-100282102D01*
X116821000Y-100482061D01*
X116821000Y-100685939D01*
X116860774Y-100885898D01*
X116938795Y-101074256D01*
X116950651Y-101092000D01*
X116938795Y-101109744D01*
X116860774Y-101298102D01*
X116821000Y-101498061D01*
X116821000Y-101701939D01*
X116860774Y-101901898D01*
X116938795Y-102090256D01*
X117052063Y-102259774D01*
X117196226Y-102403937D01*
X117365744Y-102517205D01*
X117554102Y-102595226D01*
X117754061Y-102635000D01*
X117957939Y-102635000D01*
X118157898Y-102595226D01*
X118346256Y-102517205D01*
X118480192Y-102427712D01*
X118374176Y-102586376D01*
X118288617Y-102792933D01*
X118245000Y-103012212D01*
X118245000Y-103235788D01*
X118288617Y-103455067D01*
X118361905Y-103632000D01*
X118288617Y-103808933D01*
X118245000Y-104028212D01*
X118245000Y-104251788D01*
X118288617Y-104471067D01*
X118361905Y-104648000D01*
X118288617Y-104824933D01*
X118245000Y-105044212D01*
X118245000Y-105267788D01*
X118288617Y-105487067D01*
X118374176Y-105693624D01*
X118498388Y-105879520D01*
X118656480Y-106037612D01*
X118842376Y-106161824D01*
X119048933Y-106247383D01*
X119268212Y-106291000D01*
X119491788Y-106291000D01*
X119711067Y-106247383D01*
X119917624Y-106161824D01*
X120103520Y-106037612D01*
X120261612Y-105879520D01*
X120385824Y-105693624D01*
X120471383Y-105487067D01*
X120515000Y-105267788D01*
X120515000Y-105044212D01*
X120471383Y-104824933D01*
X120398095Y-104648000D01*
X120444399Y-104536212D01*
X137041000Y-104536212D01*
X137041000Y-104759788D01*
X137084617Y-104979067D01*
X137170176Y-105185624D01*
X137294388Y-105371520D01*
X137452480Y-105529612D01*
X137638376Y-105653824D01*
X137844933Y-105739383D01*
X138064212Y-105783000D01*
X138287788Y-105783000D01*
X138507067Y-105739383D01*
X138713624Y-105653824D01*
X138899520Y-105529612D01*
X139057612Y-105371520D01*
X139181824Y-105185624D01*
X139267383Y-104979067D01*
X139311000Y-104759788D01*
X139311000Y-104536212D01*
X142375000Y-104536212D01*
X142375000Y-104759788D01*
X142418617Y-104979067D01*
X142504176Y-105185624D01*
X142628388Y-105371520D01*
X142786480Y-105529612D01*
X142972376Y-105653824D01*
X143178933Y-105739383D01*
X143398212Y-105783000D01*
X143621788Y-105783000D01*
X143841067Y-105739383D01*
X144047624Y-105653824D01*
X144233520Y-105529612D01*
X144391612Y-105371520D01*
X144515824Y-105185624D01*
X144601383Y-104979067D01*
X144645000Y-104759788D01*
X144645000Y-104536212D01*
X144601383Y-104316933D01*
X144515824Y-104110376D01*
X144391612Y-103924480D01*
X144233520Y-103766388D01*
X144047624Y-103642176D01*
X143841067Y-103556617D01*
X143621788Y-103513000D01*
X143398212Y-103513000D01*
X143178933Y-103556617D01*
X142972376Y-103642176D01*
X142786480Y-103766388D01*
X142628388Y-103924480D01*
X142504176Y-104110376D01*
X142418617Y-104316933D01*
X142375000Y-104536212D01*
X139311000Y-104536212D01*
X139267383Y-104316933D01*
X139181824Y-104110376D01*
X139057612Y-103924480D01*
X138899520Y-103766388D01*
X138713624Y-103642176D01*
X138507067Y-103556617D01*
X138287788Y-103513000D01*
X138064212Y-103513000D01*
X137844933Y-103556617D01*
X137638376Y-103642176D01*
X137452480Y-103766388D01*
X137294388Y-103924480D01*
X137170176Y-104110376D01*
X137084617Y-104316933D01*
X137041000Y-104536212D01*
X120444399Y-104536212D01*
X120471383Y-104471067D01*
X120515000Y-104251788D01*
X120515000Y-104028212D01*
X120471383Y-103808933D01*
X120398095Y-103632000D01*
X120471383Y-103455067D01*
X120515000Y-103235788D01*
X120515000Y-103012212D01*
X120471383Y-102792933D01*
X120385824Y-102586376D01*
X120261612Y-102400480D01*
X120103520Y-102242388D01*
X119917624Y-102118176D01*
X119711067Y-102032617D01*
X119491788Y-101989000D01*
X119268212Y-101989000D01*
X119048933Y-102032617D01*
X118842376Y-102118176D01*
X118683712Y-102224192D01*
X118773205Y-102090256D01*
X118851226Y-101901898D01*
X118891000Y-101701939D01*
X118891000Y-101498061D01*
X118851226Y-101298102D01*
X118773205Y-101109744D01*
X118761349Y-101092000D01*
X118773205Y-101074256D01*
X118851226Y-100885898D01*
X118891000Y-100685939D01*
X118891000Y-100482061D01*
X118851226Y-100282102D01*
X118773205Y-100093744D01*
X118761349Y-100076000D01*
X118773205Y-100058256D01*
X118812159Y-99964212D01*
X121293000Y-99964212D01*
X121293000Y-100187788D01*
X121336617Y-100407067D01*
X121409905Y-100584000D01*
X121336617Y-100760933D01*
X121293000Y-100980212D01*
X121293000Y-101203788D01*
X121336617Y-101423067D01*
X121409905Y-101600000D01*
X121336617Y-101776933D01*
X121293000Y-101996212D01*
X121293000Y-102219788D01*
X121336617Y-102439067D01*
X121422176Y-102645624D01*
X121546388Y-102831520D01*
X121704480Y-102989612D01*
X121890376Y-103113824D01*
X122096933Y-103199383D01*
X122316212Y-103243000D01*
X122539788Y-103243000D01*
X122759067Y-103199383D01*
X122965624Y-103113824D01*
X123151520Y-102989612D01*
X123309612Y-102831520D01*
X123433824Y-102645624D01*
X123519383Y-102439067D01*
X123563000Y-102219788D01*
X123563000Y-101996212D01*
X123519383Y-101776933D01*
X123446095Y-101600000D01*
X123519383Y-101423067D01*
X123563000Y-101203788D01*
X123563000Y-100980212D01*
X123519383Y-100760933D01*
X123446095Y-100584000D01*
X123519383Y-100407067D01*
X123563000Y-100187788D01*
X123563000Y-100167000D01*
X129119928Y-100167000D01*
X129119928Y-102017000D01*
X129132188Y-102141482D01*
X129168498Y-102261180D01*
X129227463Y-102371494D01*
X129306815Y-102468185D01*
X129403506Y-102547537D01*
X129513820Y-102606502D01*
X129633518Y-102642812D01*
X129758000Y-102655072D01*
X131608000Y-102655072D01*
X131732482Y-102642812D01*
X131852180Y-102606502D01*
X131962494Y-102547537D01*
X132059185Y-102468185D01*
X132138537Y-102371494D01*
X132197502Y-102261180D01*
X132233812Y-102141482D01*
X132246072Y-102017000D01*
X132246072Y-100938353D01*
X136743000Y-100938353D01*
X136743000Y-101245647D01*
X136802950Y-101547035D01*
X136920546Y-101830937D01*
X137091269Y-102086442D01*
X137308558Y-102303731D01*
X137564063Y-102474454D01*
X137847965Y-102592050D01*
X138149353Y-102652000D01*
X138456647Y-102652000D01*
X138758035Y-102592050D01*
X139041937Y-102474454D01*
X139297442Y-102303731D01*
X139514731Y-102086442D01*
X139685454Y-101830937D01*
X139803050Y-101547035D01*
X139863000Y-101245647D01*
X139863000Y-100938353D01*
X141823000Y-100938353D01*
X141823000Y-101245647D01*
X141882950Y-101547035D01*
X142000546Y-101830937D01*
X142171269Y-102086442D01*
X142388558Y-102303731D01*
X142644063Y-102474454D01*
X142927965Y-102592050D01*
X143229353Y-102652000D01*
X143536647Y-102652000D01*
X143838035Y-102592050D01*
X144121937Y-102474454D01*
X144377442Y-102303731D01*
X144594731Y-102086442D01*
X144765454Y-101830937D01*
X144883050Y-101547035D01*
X144943000Y-101245647D01*
X144943000Y-100938353D01*
X144883050Y-100636965D01*
X144765454Y-100353063D01*
X144594731Y-100097558D01*
X144377442Y-99880269D01*
X144121937Y-99709546D01*
X143838035Y-99591950D01*
X143536647Y-99532000D01*
X143229353Y-99532000D01*
X142927965Y-99591950D01*
X142644063Y-99709546D01*
X142388558Y-99880269D01*
X142171269Y-100097558D01*
X142000546Y-100353063D01*
X141882950Y-100636965D01*
X141823000Y-100938353D01*
X139863000Y-100938353D01*
X139803050Y-100636965D01*
X139685454Y-100353063D01*
X139514731Y-100097558D01*
X139297442Y-99880269D01*
X139041937Y-99709546D01*
X138758035Y-99591950D01*
X138456647Y-99532000D01*
X138149353Y-99532000D01*
X137847965Y-99591950D01*
X137564063Y-99709546D01*
X137308558Y-99880269D01*
X137091269Y-100097558D01*
X136920546Y-100353063D01*
X136802950Y-100636965D01*
X136743000Y-100938353D01*
X132246072Y-100938353D01*
X132246072Y-100167000D01*
X132233812Y-100042518D01*
X132197502Y-99922820D01*
X132138537Y-99812506D01*
X132059185Y-99715815D01*
X131962494Y-99636463D01*
X131852180Y-99577498D01*
X131732482Y-99541188D01*
X131608000Y-99528928D01*
X129758000Y-99528928D01*
X129633518Y-99541188D01*
X129513820Y-99577498D01*
X129403506Y-99636463D01*
X129306815Y-99715815D01*
X129227463Y-99812506D01*
X129168498Y-99922820D01*
X129132188Y-100042518D01*
X129119928Y-100167000D01*
X123563000Y-100167000D01*
X123563000Y-99964212D01*
X123519383Y-99744933D01*
X123433824Y-99538376D01*
X123309612Y-99352480D01*
X123151520Y-99194388D01*
X122965624Y-99070176D01*
X122759067Y-98984617D01*
X122539788Y-98941000D01*
X122316212Y-98941000D01*
X122096933Y-98984617D01*
X121890376Y-99070176D01*
X121704480Y-99194388D01*
X121546388Y-99352480D01*
X121422176Y-99538376D01*
X121336617Y-99744933D01*
X121293000Y-99964212D01*
X118812159Y-99964212D01*
X118851226Y-99869898D01*
X118891000Y-99669939D01*
X118891000Y-99466061D01*
X118851226Y-99266102D01*
X118773205Y-99077744D01*
X118659937Y-98908226D01*
X118515774Y-98764063D01*
X118346256Y-98650795D01*
X118157898Y-98572774D01*
X117957939Y-98533000D01*
X117754061Y-98533000D01*
X117554102Y-98572774D01*
X117365744Y-98650795D01*
X117196226Y-98764063D01*
X117052063Y-98908226D01*
X116938795Y-99077744D01*
X116860774Y-99266102D01*
X116821000Y-99466061D01*
X105485000Y-99466061D01*
X105485000Y-95656061D01*
X110852000Y-95656061D01*
X110852000Y-95859939D01*
X110891774Y-96059898D01*
X110969795Y-96248256D01*
X111083063Y-96417774D01*
X111227226Y-96561937D01*
X111396744Y-96675205D01*
X111585102Y-96753226D01*
X111785061Y-96793000D01*
X111988939Y-96793000D01*
X112188898Y-96753226D01*
X112377256Y-96675205D01*
X112546774Y-96561937D01*
X112690937Y-96417774D01*
X112804205Y-96248256D01*
X112882226Y-96059898D01*
X112922000Y-95859939D01*
X112922000Y-95656061D01*
X112882226Y-95456102D01*
X112804205Y-95267744D01*
X112690937Y-95098226D01*
X112546774Y-94954063D01*
X112377256Y-94840795D01*
X112188898Y-94762774D01*
X111988939Y-94723000D01*
X111785061Y-94723000D01*
X111585102Y-94762774D01*
X111396744Y-94840795D01*
X111227226Y-94954063D01*
X111083063Y-95098226D01*
X110969795Y-95267744D01*
X110891774Y-95456102D01*
X110852000Y-95656061D01*
X105485000Y-95656061D01*
X105485000Y-91888212D01*
X122865000Y-91888212D01*
X122865000Y-92111788D01*
X122908617Y-92331067D01*
X122994176Y-92537624D01*
X123118388Y-92723520D01*
X123276480Y-92881612D01*
X123462376Y-93005824D01*
X123668933Y-93091383D01*
X123888212Y-93135000D01*
X124111788Y-93135000D01*
X124331067Y-93091383D01*
X124537624Y-93005824D01*
X124723520Y-92881612D01*
X124881612Y-92723520D01*
X125005824Y-92537624D01*
X125018276Y-92507561D01*
X156979500Y-92507561D01*
X156979500Y-92711439D01*
X157019274Y-92911398D01*
X157097295Y-93099756D01*
X157210563Y-93269274D01*
X157354726Y-93413437D01*
X157524244Y-93526705D01*
X157712602Y-93604726D01*
X157912561Y-93644500D01*
X158116439Y-93644500D01*
X158316398Y-93604726D01*
X158504756Y-93526705D01*
X158674274Y-93413437D01*
X158818437Y-93269274D01*
X158931705Y-93099756D01*
X159009726Y-92911398D01*
X159049500Y-92711439D01*
X159049500Y-92507561D01*
X159009726Y-92307602D01*
X158931705Y-92119244D01*
X158818437Y-91949726D01*
X158674274Y-91805563D01*
X158504756Y-91692295D01*
X158316398Y-91614274D01*
X158116439Y-91574500D01*
X157912561Y-91574500D01*
X157712602Y-91614274D01*
X157524244Y-91692295D01*
X157354726Y-91805563D01*
X157210563Y-91949726D01*
X157097295Y-92119244D01*
X157019274Y-92307602D01*
X156979500Y-92507561D01*
X125018276Y-92507561D01*
X125091383Y-92331067D01*
X125135000Y-92111788D01*
X125135000Y-91888212D01*
X125091383Y-91668933D01*
X125005824Y-91462376D01*
X124881612Y-91276480D01*
X124723520Y-91118388D01*
X124537624Y-90994176D01*
X124331067Y-90908617D01*
X124111788Y-90865000D01*
X123888212Y-90865000D01*
X123668933Y-90908617D01*
X123462376Y-90994176D01*
X123276480Y-91118388D01*
X123118388Y-91276480D01*
X122994176Y-91462376D01*
X122908617Y-91668933D01*
X122865000Y-91888212D01*
X105485000Y-91888212D01*
X105485000Y-89550212D01*
X172220000Y-89550212D01*
X172220000Y-89773788D01*
X172263617Y-89993067D01*
X172349176Y-90199624D01*
X172473388Y-90385520D01*
X172631480Y-90543612D01*
X172817376Y-90667824D01*
X173023933Y-90753383D01*
X173243212Y-90797000D01*
X173466788Y-90797000D01*
X173686067Y-90753383D01*
X173892624Y-90667824D01*
X174078520Y-90543612D01*
X174236612Y-90385520D01*
X174360824Y-90199624D01*
X174446383Y-89993067D01*
X174490000Y-89773788D01*
X174490000Y-89550212D01*
X174446383Y-89330933D01*
X174360824Y-89124376D01*
X174236612Y-88938480D01*
X174078520Y-88780388D01*
X173892624Y-88656176D01*
X173686067Y-88570617D01*
X173466788Y-88527000D01*
X173243212Y-88527000D01*
X173023933Y-88570617D01*
X172817376Y-88656176D01*
X172631480Y-88780388D01*
X172473388Y-88938480D01*
X172349176Y-89124376D01*
X172263617Y-89330933D01*
X172220000Y-89550212D01*
X105485000Y-89550212D01*
X105485000Y-87518212D01*
X141867000Y-87518212D01*
X141867000Y-87741788D01*
X141910617Y-87961067D01*
X141996176Y-88167624D01*
X142120388Y-88353520D01*
X142278480Y-88511612D01*
X142464376Y-88635824D01*
X142670933Y-88721383D01*
X142890212Y-88765000D01*
X143113788Y-88765000D01*
X143333067Y-88721383D01*
X143539624Y-88635824D01*
X143725520Y-88511612D01*
X143883612Y-88353520D01*
X144007824Y-88167624D01*
X144066398Y-88026212D01*
X148979000Y-88026212D01*
X148979000Y-88249788D01*
X149022617Y-88469067D01*
X149108176Y-88675624D01*
X149232388Y-88861520D01*
X149390480Y-89019612D01*
X149576376Y-89143824D01*
X149782933Y-89229383D01*
X150002212Y-89273000D01*
X150225788Y-89273000D01*
X150445067Y-89229383D01*
X150651624Y-89143824D01*
X150837520Y-89019612D01*
X150995612Y-88861520D01*
X151119824Y-88675624D01*
X151205383Y-88469067D01*
X151249000Y-88249788D01*
X151249000Y-88026212D01*
X151205383Y-87806933D01*
X151119824Y-87600376D01*
X150995612Y-87414480D01*
X150837520Y-87256388D01*
X150651624Y-87132176D01*
X150445067Y-87046617D01*
X150225788Y-87003000D01*
X150002212Y-87003000D01*
X149782933Y-87046617D01*
X149576376Y-87132176D01*
X149390480Y-87256388D01*
X149232388Y-87414480D01*
X149108176Y-87600376D01*
X149022617Y-87806933D01*
X148979000Y-88026212D01*
X144066398Y-88026212D01*
X144093383Y-87961067D01*
X144137000Y-87741788D01*
X144137000Y-87518212D01*
X144093383Y-87298933D01*
X144007824Y-87092376D01*
X143883612Y-86906480D01*
X143725520Y-86748388D01*
X143539624Y-86624176D01*
X143333067Y-86538617D01*
X143113788Y-86495000D01*
X142890212Y-86495000D01*
X142670933Y-86538617D01*
X142464376Y-86624176D01*
X142278480Y-86748388D01*
X142120388Y-86906480D01*
X141996176Y-87092376D01*
X141910617Y-87298933D01*
X141867000Y-87518212D01*
X105485000Y-87518212D01*
X105485000Y-86375212D01*
X158758000Y-86375212D01*
X158758000Y-86598788D01*
X158801617Y-86818067D01*
X158887176Y-87024624D01*
X159011388Y-87210520D01*
X159169480Y-87368612D01*
X159355376Y-87492824D01*
X159561933Y-87578383D01*
X159781212Y-87622000D01*
X160004788Y-87622000D01*
X160224067Y-87578383D01*
X160430624Y-87492824D01*
X160616520Y-87368612D01*
X160774612Y-87210520D01*
X160898824Y-87024624D01*
X160984383Y-86818067D01*
X161028000Y-86598788D01*
X161028000Y-86375212D01*
X160984383Y-86155933D01*
X160898824Y-85949376D01*
X160774612Y-85763480D01*
X160616520Y-85605388D01*
X160430624Y-85481176D01*
X160224067Y-85395617D01*
X160004788Y-85352000D01*
X159781212Y-85352000D01*
X159561933Y-85395617D01*
X159355376Y-85481176D01*
X159169480Y-85605388D01*
X159011388Y-85763480D01*
X158887176Y-85949376D01*
X158801617Y-86155933D01*
X158758000Y-86375212D01*
X105485000Y-86375212D01*
X105485000Y-83464061D01*
X140443000Y-83464061D01*
X140443000Y-83667939D01*
X140482774Y-83867898D01*
X140560795Y-84056256D01*
X140674063Y-84225774D01*
X140818226Y-84369937D01*
X140987744Y-84483205D01*
X141129878Y-84542079D01*
X141054274Y-84724602D01*
X141014500Y-84924561D01*
X141014500Y-85128439D01*
X141054274Y-85328398D01*
X141132295Y-85516756D01*
X141245563Y-85686274D01*
X141389726Y-85830437D01*
X141559244Y-85943705D01*
X141747602Y-86021726D01*
X141947561Y-86061500D01*
X142151439Y-86061500D01*
X142351398Y-86021726D01*
X142539756Y-85943705D01*
X142709274Y-85830437D01*
X142853437Y-85686274D01*
X142966705Y-85516756D01*
X143044726Y-85328398D01*
X143084500Y-85128439D01*
X143084500Y-84924561D01*
X143044726Y-84724602D01*
X142966705Y-84536244D01*
X142853437Y-84366726D01*
X142709274Y-84222563D01*
X142539756Y-84109295D01*
X142397622Y-84050421D01*
X142473226Y-83867898D01*
X142513000Y-83667939D01*
X142513000Y-83464061D01*
X142473226Y-83264102D01*
X142395205Y-83075744D01*
X142281937Y-82906226D01*
X142178772Y-82803061D01*
X143491000Y-82803061D01*
X143491000Y-83006939D01*
X143530774Y-83206898D01*
X143608795Y-83395256D01*
X143714196Y-83553000D01*
X143608795Y-83710744D01*
X143530774Y-83899102D01*
X143491000Y-84099061D01*
X143491000Y-84302939D01*
X143530774Y-84502898D01*
X143608795Y-84691256D01*
X143722063Y-84860774D01*
X143866226Y-85004937D01*
X144035744Y-85118205D01*
X144224102Y-85196226D01*
X144424061Y-85236000D01*
X144627939Y-85236000D01*
X144827898Y-85196226D01*
X145016256Y-85118205D01*
X145185774Y-85004937D01*
X145329937Y-84860774D01*
X145443205Y-84691256D01*
X145451777Y-84670561D01*
X152000000Y-84670561D01*
X152000000Y-84874439D01*
X152039774Y-85074398D01*
X152117795Y-85262756D01*
X152231063Y-85432274D01*
X152375226Y-85576437D01*
X152544744Y-85689705D01*
X152733102Y-85767726D01*
X152933061Y-85807500D01*
X153136939Y-85807500D01*
X153336898Y-85767726D01*
X153525256Y-85689705D01*
X153694774Y-85576437D01*
X153838937Y-85432274D01*
X153952205Y-85262756D01*
X154030226Y-85074398D01*
X154070000Y-84874439D01*
X154070000Y-84670561D01*
X154030226Y-84470602D01*
X153952205Y-84282244D01*
X153838937Y-84112726D01*
X153694774Y-83968563D01*
X153525256Y-83855295D01*
X153336898Y-83777274D01*
X153136939Y-83737500D01*
X152933061Y-83737500D01*
X152733102Y-83777274D01*
X152544744Y-83855295D01*
X152375226Y-83968563D01*
X152231063Y-84112726D01*
X152117795Y-84282244D01*
X152039774Y-84470602D01*
X152000000Y-84670561D01*
X145451777Y-84670561D01*
X145521226Y-84502898D01*
X145561000Y-84302939D01*
X145561000Y-84099061D01*
X145521226Y-83899102D01*
X145443205Y-83710744D01*
X145337804Y-83553000D01*
X145443205Y-83395256D01*
X145521226Y-83206898D01*
X145561000Y-83006939D01*
X145561000Y-82829061D01*
X149269500Y-82829061D01*
X149269500Y-83032939D01*
X149309274Y-83232898D01*
X149387295Y-83421256D01*
X149500563Y-83590774D01*
X149644726Y-83734937D01*
X149814244Y-83848205D01*
X150002602Y-83926226D01*
X150202561Y-83966000D01*
X150406439Y-83966000D01*
X150606398Y-83926226D01*
X150794756Y-83848205D01*
X150964274Y-83734937D01*
X151108437Y-83590774D01*
X151221705Y-83421256D01*
X151299726Y-83232898D01*
X151339500Y-83032939D01*
X151339500Y-82829061D01*
X151337541Y-82819212D01*
X157488000Y-82819212D01*
X157488000Y-83042788D01*
X157531617Y-83262067D01*
X157617176Y-83468624D01*
X157741388Y-83654520D01*
X157899480Y-83812612D01*
X158085376Y-83936824D01*
X158291933Y-84022383D01*
X158511212Y-84066000D01*
X158734788Y-84066000D01*
X158954067Y-84022383D01*
X159160624Y-83936824D01*
X159346520Y-83812612D01*
X159504612Y-83654520D01*
X159628824Y-83468624D01*
X159714383Y-83262067D01*
X159758000Y-83042788D01*
X159758000Y-82819212D01*
X159714383Y-82599933D01*
X159628824Y-82393376D01*
X159504612Y-82207480D01*
X159346520Y-82049388D01*
X159160624Y-81925176D01*
X158954067Y-81839617D01*
X158734788Y-81796000D01*
X158511212Y-81796000D01*
X158291933Y-81839617D01*
X158085376Y-81925176D01*
X157899480Y-82049388D01*
X157741388Y-82207480D01*
X157617176Y-82393376D01*
X157531617Y-82599933D01*
X157488000Y-82819212D01*
X151337541Y-82819212D01*
X151299726Y-82629102D01*
X151221705Y-82440744D01*
X151108437Y-82271226D01*
X150964274Y-82127063D01*
X150794756Y-82013795D01*
X150606398Y-81935774D01*
X150406439Y-81896000D01*
X150202561Y-81896000D01*
X150002602Y-81935774D01*
X149814244Y-82013795D01*
X149644726Y-82127063D01*
X149500563Y-82271226D01*
X149387295Y-82440744D01*
X149309274Y-82629102D01*
X149269500Y-82829061D01*
X145561000Y-82829061D01*
X145561000Y-82803061D01*
X145521226Y-82603102D01*
X145443205Y-82414744D01*
X145329937Y-82245226D01*
X145185774Y-82101063D01*
X145016256Y-81987795D01*
X144827898Y-81909774D01*
X144627939Y-81870000D01*
X144424061Y-81870000D01*
X144224102Y-81909774D01*
X144035744Y-81987795D01*
X143866226Y-82101063D01*
X143722063Y-82245226D01*
X143608795Y-82414744D01*
X143530774Y-82603102D01*
X143491000Y-82803061D01*
X142178772Y-82803061D01*
X142137774Y-82762063D01*
X141968256Y-82648795D01*
X141779898Y-82570774D01*
X141579939Y-82531000D01*
X141376061Y-82531000D01*
X141176102Y-82570774D01*
X140987744Y-82648795D01*
X140818226Y-82762063D01*
X140674063Y-82906226D01*
X140560795Y-83075744D01*
X140482774Y-83264102D01*
X140443000Y-83464061D01*
X105485000Y-83464061D01*
X105485000Y-78247000D01*
X109419928Y-78247000D01*
X109419928Y-79997000D01*
X109449001Y-80292186D01*
X109535104Y-80576028D01*
X109674927Y-80837618D01*
X109863097Y-81066903D01*
X110092382Y-81255073D01*
X110353972Y-81394896D01*
X110637814Y-81480999D01*
X110933000Y-81510072D01*
X112683000Y-81510072D01*
X112978186Y-81480999D01*
X113262028Y-81394896D01*
X113523618Y-81255073D01*
X113752903Y-81066903D01*
X113941073Y-80837618D01*
X114080896Y-80576028D01*
X114166999Y-80292186D01*
X114196072Y-79997000D01*
X114196072Y-79644212D01*
X137168000Y-79644212D01*
X137168000Y-79867788D01*
X137211617Y-80087067D01*
X137297176Y-80293624D01*
X137421388Y-80479520D01*
X137579480Y-80637612D01*
X137765376Y-80761824D01*
X137971933Y-80847383D01*
X138191212Y-80891000D01*
X138414788Y-80891000D01*
X138634067Y-80847383D01*
X138840624Y-80761824D01*
X139026520Y-80637612D01*
X139184612Y-80479520D01*
X139308824Y-80293624D01*
X139394383Y-80087067D01*
X139438000Y-79867788D01*
X139438000Y-79644212D01*
X139394383Y-79424933D01*
X139308824Y-79218376D01*
X139184612Y-79032480D01*
X139026520Y-78874388D01*
X138840624Y-78750176D01*
X138634067Y-78664617D01*
X138500561Y-78638061D01*
X147047000Y-78638061D01*
X147047000Y-78841939D01*
X147086774Y-79041898D01*
X147164795Y-79230256D01*
X147278063Y-79399774D01*
X147422226Y-79543937D01*
X147591744Y-79657205D01*
X147780102Y-79735226D01*
X147837381Y-79746619D01*
X147848774Y-79803898D01*
X147926795Y-79992256D01*
X148040063Y-80161774D01*
X148184226Y-80305937D01*
X148353744Y-80419205D01*
X148542102Y-80497226D01*
X148599381Y-80508619D01*
X148610774Y-80565898D01*
X148688795Y-80754256D01*
X148802063Y-80923774D01*
X148946226Y-81067937D01*
X149115744Y-81181205D01*
X149304102Y-81259226D01*
X149504061Y-81299000D01*
X149707939Y-81299000D01*
X149907898Y-81259226D01*
X150096256Y-81181205D01*
X150265774Y-81067937D01*
X150409937Y-80923774D01*
X150523205Y-80754256D01*
X150601226Y-80565898D01*
X150641000Y-80365939D01*
X150641000Y-80162061D01*
X150601226Y-79962102D01*
X150523205Y-79773744D01*
X150409937Y-79604226D01*
X150322923Y-79517212D01*
X177046000Y-79517212D01*
X177046000Y-79740788D01*
X177089617Y-79960067D01*
X177175176Y-80166624D01*
X177299388Y-80352520D01*
X177457480Y-80510612D01*
X177643376Y-80634824D01*
X177849933Y-80720383D01*
X178069212Y-80764000D01*
X178292788Y-80764000D01*
X178512067Y-80720383D01*
X178718624Y-80634824D01*
X178904520Y-80510612D01*
X179062612Y-80352520D01*
X179186824Y-80166624D01*
X179272383Y-79960067D01*
X179316000Y-79740788D01*
X179316000Y-79517212D01*
X179272383Y-79297933D01*
X179186824Y-79091376D01*
X179062612Y-78905480D01*
X178904520Y-78747388D01*
X178718624Y-78623176D01*
X178512067Y-78537617D01*
X178292788Y-78494000D01*
X178069212Y-78494000D01*
X177849933Y-78537617D01*
X177643376Y-78623176D01*
X177457480Y-78747388D01*
X177299388Y-78905480D01*
X177175176Y-79091376D01*
X177089617Y-79297933D01*
X177046000Y-79517212D01*
X150322923Y-79517212D01*
X150265774Y-79460063D01*
X150096256Y-79346795D01*
X149907898Y-79268774D01*
X149850619Y-79257381D01*
X149839226Y-79200102D01*
X149761205Y-79011744D01*
X149647937Y-78842226D01*
X149503774Y-78698063D01*
X149334256Y-78584795D01*
X149145898Y-78506774D01*
X149088619Y-78495381D01*
X149077226Y-78438102D01*
X148999205Y-78249744D01*
X148885937Y-78080226D01*
X148741774Y-77936063D01*
X148572256Y-77822795D01*
X148383898Y-77744774D01*
X148355936Y-77739212D01*
X156472000Y-77739212D01*
X156472000Y-77962788D01*
X156515617Y-78182067D01*
X156601176Y-78388624D01*
X156725388Y-78574520D01*
X156883480Y-78732612D01*
X157069376Y-78856824D01*
X157275933Y-78942383D01*
X157495212Y-78986000D01*
X157718788Y-78986000D01*
X157938067Y-78942383D01*
X158144624Y-78856824D01*
X158330520Y-78732612D01*
X158488612Y-78574520D01*
X158612824Y-78388624D01*
X158698383Y-78182067D01*
X158742000Y-77962788D01*
X158742000Y-77739212D01*
X168664000Y-77739212D01*
X168664000Y-77962788D01*
X168707617Y-78182067D01*
X168793176Y-78388624D01*
X168917388Y-78574520D01*
X169075480Y-78732612D01*
X169261376Y-78856824D01*
X169467933Y-78942383D01*
X169687212Y-78986000D01*
X169910788Y-78986000D01*
X170130067Y-78942383D01*
X170336624Y-78856824D01*
X170522520Y-78732612D01*
X170680612Y-78574520D01*
X170804824Y-78388624D01*
X170890383Y-78182067D01*
X170934000Y-77962788D01*
X170934000Y-77739212D01*
X170890383Y-77519933D01*
X170804824Y-77313376D01*
X170680612Y-77127480D01*
X170522520Y-76969388D01*
X170336624Y-76845176D01*
X170130067Y-76759617D01*
X169910788Y-76716000D01*
X169687212Y-76716000D01*
X169467933Y-76759617D01*
X169261376Y-76845176D01*
X169075480Y-76969388D01*
X168917388Y-77127480D01*
X168793176Y-77313376D01*
X168707617Y-77519933D01*
X168664000Y-77739212D01*
X158742000Y-77739212D01*
X158698383Y-77519933D01*
X158612824Y-77313376D01*
X158488612Y-77127480D01*
X158330520Y-76969388D01*
X158144624Y-76845176D01*
X157938067Y-76759617D01*
X157718788Y-76716000D01*
X157495212Y-76716000D01*
X157275933Y-76759617D01*
X157069376Y-76845176D01*
X156883480Y-76969388D01*
X156725388Y-77127480D01*
X156601176Y-77313376D01*
X156515617Y-77519933D01*
X156472000Y-77739212D01*
X148355936Y-77739212D01*
X148183939Y-77705000D01*
X147980061Y-77705000D01*
X147780102Y-77744774D01*
X147591744Y-77822795D01*
X147422226Y-77936063D01*
X147278063Y-78080226D01*
X147164795Y-78249744D01*
X147086774Y-78438102D01*
X147047000Y-78638061D01*
X138500561Y-78638061D01*
X138414788Y-78621000D01*
X138191212Y-78621000D01*
X137971933Y-78664617D01*
X137765376Y-78750176D01*
X137579480Y-78874388D01*
X137421388Y-79032480D01*
X137297176Y-79218376D01*
X137211617Y-79424933D01*
X137168000Y-79644212D01*
X114196072Y-79644212D01*
X114196072Y-78247000D01*
X114166999Y-77951814D01*
X114080896Y-77667972D01*
X113941073Y-77406382D01*
X113752903Y-77177097D01*
X113523618Y-76988927D01*
X113262028Y-76849104D01*
X113133357Y-76810072D01*
X116558000Y-76810072D01*
X116682482Y-76797812D01*
X116802180Y-76761502D01*
X116912494Y-76702537D01*
X117009185Y-76623185D01*
X117088537Y-76526494D01*
X117147502Y-76416180D01*
X117183812Y-76296482D01*
X117196072Y-76172000D01*
X117196072Y-75326212D01*
X129929000Y-75326212D01*
X129929000Y-75549788D01*
X129972617Y-75769067D01*
X130058176Y-75975624D01*
X130182388Y-76161520D01*
X130340480Y-76319612D01*
X130526376Y-76443824D01*
X130732933Y-76529383D01*
X130952212Y-76573000D01*
X131175788Y-76573000D01*
X131395067Y-76529383D01*
X131601624Y-76443824D01*
X131787520Y-76319612D01*
X131945612Y-76161520D01*
X132069824Y-75975624D01*
X132155383Y-75769067D01*
X132199000Y-75549788D01*
X132199000Y-75326212D01*
X132155383Y-75106933D01*
X132069824Y-74900376D01*
X131945612Y-74714480D01*
X131787520Y-74556388D01*
X131601624Y-74432176D01*
X131395067Y-74346617D01*
X131175788Y-74303000D01*
X130952212Y-74303000D01*
X130732933Y-74346617D01*
X130526376Y-74432176D01*
X130340480Y-74556388D01*
X130182388Y-74714480D01*
X130058176Y-74900376D01*
X129972617Y-75106933D01*
X129929000Y-75326212D01*
X117196072Y-75326212D01*
X117196072Y-73548212D01*
X133612000Y-73548212D01*
X133612000Y-73771788D01*
X133655617Y-73991067D01*
X133741176Y-74197624D01*
X133865388Y-74383520D01*
X134023480Y-74541612D01*
X134209376Y-74665824D01*
X134415933Y-74751383D01*
X134635212Y-74795000D01*
X134858788Y-74795000D01*
X135078067Y-74751383D01*
X135284624Y-74665824D01*
X135470520Y-74541612D01*
X135628612Y-74383520D01*
X135752824Y-74197624D01*
X135838383Y-73991067D01*
X135882000Y-73771788D01*
X135882000Y-73548212D01*
X135838383Y-73328933D01*
X135752824Y-73122376D01*
X135628612Y-72936480D01*
X135470520Y-72778388D01*
X135284624Y-72654176D01*
X135078067Y-72568617D01*
X134858788Y-72525000D01*
X134635212Y-72525000D01*
X134415933Y-72568617D01*
X134209376Y-72654176D01*
X134023480Y-72778388D01*
X133865388Y-72936480D01*
X133741176Y-73122376D01*
X133655617Y-73328933D01*
X133612000Y-73548212D01*
X117196072Y-73548212D01*
X117196072Y-72672000D01*
X117183812Y-72547518D01*
X117147502Y-72427820D01*
X117088537Y-72317506D01*
X117009185Y-72220815D01*
X116936375Y-72161061D01*
X140379500Y-72161061D01*
X140379500Y-72364939D01*
X140419274Y-72564898D01*
X140497295Y-72753256D01*
X140610563Y-72922774D01*
X140754726Y-73066937D01*
X140924244Y-73180205D01*
X141112602Y-73258226D01*
X141312561Y-73298000D01*
X141516439Y-73298000D01*
X141716398Y-73258226D01*
X141904756Y-73180205D01*
X142074274Y-73066937D01*
X142218437Y-72922774D01*
X142331705Y-72753256D01*
X142409726Y-72564898D01*
X142449500Y-72364939D01*
X142449500Y-72161061D01*
X142409726Y-71961102D01*
X142331705Y-71772744D01*
X142218437Y-71603226D01*
X142141272Y-71526061D01*
X157969000Y-71526061D01*
X157969000Y-71729939D01*
X158008774Y-71929898D01*
X158086795Y-72118256D01*
X158200063Y-72287774D01*
X158344226Y-72431937D01*
X158513744Y-72545205D01*
X158702102Y-72623226D01*
X158902061Y-72663000D01*
X159105939Y-72663000D01*
X159305898Y-72623226D01*
X159494256Y-72545205D01*
X159663774Y-72431937D01*
X159807937Y-72287774D01*
X159899184Y-72151212D01*
X177427000Y-72151212D01*
X177427000Y-72374788D01*
X177470617Y-72594067D01*
X177556176Y-72800624D01*
X177680388Y-72986520D01*
X177838480Y-73144612D01*
X178024376Y-73268824D01*
X178230933Y-73354383D01*
X178450212Y-73398000D01*
X178673788Y-73398000D01*
X178893067Y-73354383D01*
X179099624Y-73268824D01*
X179285520Y-73144612D01*
X179443612Y-72986520D01*
X179567824Y-72800624D01*
X179653383Y-72594067D01*
X179697000Y-72374788D01*
X179697000Y-72151212D01*
X179653383Y-71931933D01*
X179567824Y-71725376D01*
X179443612Y-71539480D01*
X179285520Y-71381388D01*
X179099624Y-71257176D01*
X178893067Y-71171617D01*
X178673788Y-71128000D01*
X178450212Y-71128000D01*
X178230933Y-71171617D01*
X178024376Y-71257176D01*
X177838480Y-71381388D01*
X177680388Y-71539480D01*
X177556176Y-71725376D01*
X177470617Y-71931933D01*
X177427000Y-72151212D01*
X159899184Y-72151212D01*
X159921205Y-72118256D01*
X159999226Y-71929898D01*
X160039000Y-71729939D01*
X160039000Y-71526061D01*
X159999226Y-71326102D01*
X159921205Y-71137744D01*
X159807937Y-70968226D01*
X159663774Y-70824063D01*
X159494256Y-70710795D01*
X159305898Y-70632774D01*
X159105939Y-70593000D01*
X158902061Y-70593000D01*
X158702102Y-70632774D01*
X158513744Y-70710795D01*
X158344226Y-70824063D01*
X158200063Y-70968226D01*
X158086795Y-71137744D01*
X158008774Y-71326102D01*
X157969000Y-71526061D01*
X142141272Y-71526061D01*
X142074274Y-71459063D01*
X141904756Y-71345795D01*
X141716398Y-71267774D01*
X141516439Y-71228000D01*
X141312561Y-71228000D01*
X141112602Y-71267774D01*
X140924244Y-71345795D01*
X140754726Y-71459063D01*
X140610563Y-71603226D01*
X140497295Y-71772744D01*
X140419274Y-71961102D01*
X140379500Y-72161061D01*
X116936375Y-72161061D01*
X116912494Y-72141463D01*
X116802180Y-72082498D01*
X116682482Y-72046188D01*
X116558000Y-72033928D01*
X113058000Y-72033928D01*
X112933518Y-72046188D01*
X112813820Y-72082498D01*
X112703506Y-72141463D01*
X112606815Y-72220815D01*
X112527463Y-72317506D01*
X112468498Y-72427820D01*
X112432188Y-72547518D01*
X112419928Y-72672000D01*
X112419928Y-76172000D01*
X112432188Y-76296482D01*
X112468498Y-76416180D01*
X112527463Y-76526494D01*
X112606815Y-76623185D01*
X112703506Y-76702537D01*
X112780131Y-76743494D01*
X112683000Y-76733928D01*
X110933000Y-76733928D01*
X110637814Y-76763001D01*
X110353972Y-76849104D01*
X110092382Y-76988927D01*
X109863097Y-77177097D01*
X109674927Y-77406382D01*
X109535104Y-77667972D01*
X109449001Y-77951814D01*
X109419928Y-78247000D01*
X105485000Y-78247000D01*
X105485000Y-70002061D01*
X163049000Y-70002061D01*
X163049000Y-70205939D01*
X163088774Y-70405898D01*
X163166795Y-70594256D01*
X163280063Y-70763774D01*
X163424226Y-70907937D01*
X163593744Y-71021205D01*
X163782102Y-71099226D01*
X163982061Y-71139000D01*
X164185939Y-71139000D01*
X164385898Y-71099226D01*
X164574256Y-71021205D01*
X164743774Y-70907937D01*
X164887937Y-70763774D01*
X165001205Y-70594256D01*
X165079226Y-70405898D01*
X165119000Y-70205939D01*
X165119000Y-70002061D01*
X165079226Y-69802102D01*
X165001205Y-69613744D01*
X164887937Y-69444226D01*
X164743774Y-69300063D01*
X164574256Y-69186795D01*
X164385898Y-69108774D01*
X164185939Y-69069000D01*
X163982061Y-69069000D01*
X163782102Y-69108774D01*
X163593744Y-69186795D01*
X163424226Y-69300063D01*
X163280063Y-69444226D01*
X163166795Y-69613744D01*
X163088774Y-69802102D01*
X163049000Y-70002061D01*
X105485000Y-70002061D01*
X105485000Y-68478061D01*
X140443000Y-68478061D01*
X140443000Y-68681939D01*
X140482774Y-68881898D01*
X140560795Y-69070256D01*
X140674063Y-69239774D01*
X140818226Y-69383937D01*
X140987744Y-69497205D01*
X141176102Y-69575226D01*
X141376061Y-69615000D01*
X141579939Y-69615000D01*
X141779898Y-69575226D01*
X141968256Y-69497205D01*
X142137774Y-69383937D01*
X142281937Y-69239774D01*
X142395205Y-69070256D01*
X142473226Y-68881898D01*
X142513000Y-68681939D01*
X142513000Y-68478061D01*
X142473226Y-68278102D01*
X142395205Y-68089744D01*
X142281937Y-67920226D01*
X142194923Y-67833212D01*
X161298000Y-67833212D01*
X161298000Y-68056788D01*
X161341617Y-68276067D01*
X161427176Y-68482624D01*
X161551388Y-68668520D01*
X161709480Y-68826612D01*
X161895376Y-68950824D01*
X162101933Y-69036383D01*
X162321212Y-69080000D01*
X162544788Y-69080000D01*
X162764067Y-69036383D01*
X162970624Y-68950824D01*
X163156520Y-68826612D01*
X163314612Y-68668520D01*
X163438824Y-68482624D01*
X163524383Y-68276067D01*
X163568000Y-68056788D01*
X163568000Y-67833212D01*
X163524383Y-67613933D01*
X163438824Y-67407376D01*
X163314612Y-67221480D01*
X163156520Y-67063388D01*
X162970624Y-66939176D01*
X162764067Y-66853617D01*
X162544788Y-66810000D01*
X162321212Y-66810000D01*
X162101933Y-66853617D01*
X161895376Y-66939176D01*
X161709480Y-67063388D01*
X161551388Y-67221480D01*
X161427176Y-67407376D01*
X161341617Y-67613933D01*
X161298000Y-67833212D01*
X142194923Y-67833212D01*
X142137774Y-67776063D01*
X141968256Y-67662795D01*
X141779898Y-67584774D01*
X141579939Y-67545000D01*
X141376061Y-67545000D01*
X141176102Y-67584774D01*
X140987744Y-67662795D01*
X140818226Y-67776063D01*
X140674063Y-67920226D01*
X140560795Y-68089744D01*
X140482774Y-68278102D01*
X140443000Y-68478061D01*
X105485000Y-68478061D01*
X105485000Y-65655947D01*
X105511157Y-65389170D01*
X105606339Y-65389170D01*
X105606339Y-65850830D01*
X105696405Y-66303621D01*
X105873075Y-66730140D01*
X106129560Y-67113997D01*
X106456003Y-67440440D01*
X106839860Y-67696925D01*
X107266379Y-67873595D01*
X107719170Y-67963661D01*
X108180830Y-67963661D01*
X108633621Y-67873595D01*
X109060140Y-67696925D01*
X109443997Y-67440440D01*
X109770440Y-67113997D01*
X110026925Y-66730140D01*
X110203595Y-66303621D01*
X110293661Y-65850830D01*
X110293661Y-65389170D01*
X184206341Y-65389170D01*
X184206341Y-65850830D01*
X184296406Y-66303620D01*
X184473076Y-66730139D01*
X184729561Y-67113996D01*
X185056004Y-67440439D01*
X185439861Y-67696924D01*
X185866380Y-67873594D01*
X186319170Y-67963659D01*
X186780830Y-67963659D01*
X187233620Y-67873594D01*
X187660139Y-67696924D01*
X188043996Y-67440439D01*
X188370439Y-67113996D01*
X188626924Y-66730139D01*
X188803594Y-66303620D01*
X188893659Y-65850830D01*
X188893659Y-65389170D01*
X188803594Y-64936380D01*
X188626924Y-64509861D01*
X188370439Y-64126004D01*
X188043996Y-63799561D01*
X187660139Y-63543076D01*
X187233620Y-63366406D01*
X186780830Y-63276341D01*
X186319170Y-63276341D01*
X185866380Y-63366406D01*
X185439861Y-63543076D01*
X185056004Y-63799561D01*
X184729561Y-64126004D01*
X184473076Y-64509861D01*
X184296406Y-64936380D01*
X184206341Y-65389170D01*
X110293661Y-65389170D01*
X110203595Y-64936379D01*
X110026925Y-64509860D01*
X109770440Y-64126003D01*
X109443997Y-63799560D01*
X109060140Y-63543075D01*
X108633621Y-63366405D01*
X108180830Y-63276339D01*
X107719170Y-63276339D01*
X107266379Y-63366405D01*
X106839860Y-63543075D01*
X106456003Y-63799560D01*
X106129560Y-64126003D01*
X105873075Y-64509860D01*
X105696405Y-64936379D01*
X105606339Y-65389170D01*
X105511157Y-65389170D01*
X105535403Y-65141898D01*
X105674253Y-64682005D01*
X105899785Y-64257840D01*
X106203407Y-63885563D01*
X106573560Y-63579346D01*
X106996139Y-63350857D01*
X107455052Y-63208800D01*
X107966925Y-63155000D01*
X127670928Y-63155000D01*
X127670928Y-64604000D01*
G37*
G04 #@! TD.AperFunction*
M02*
