%FSLAX45Y45*%
G04 Gerber Fmt 4.5, Leading zero omitted, Abs format (unit mm)*
G04 Created by KiCad (PCBNEW (5.1.9)-1) date 2022-01-14 23:33:00*
%MOMM*%
%LPD*%
G01*
G04 APERTURE LIST*
%TA.AperFunction,Profile*%
%ADD10C,0.200000*%
%TD*%
%ADD11C,0.200000*%
%ADD12C,0.300000*%
G04 APERTURE END LIST*
D10*
X10475000Y-10922000D02*
X10475000Y-6562000D01*
X18655000Y-6242000D02*
G75*
G02*
X18975000Y-6562000I0J-320000D01*
G01*
X10955000Y-6562000D02*
G75*
G03*
X10955000Y-6562000I-160000J0D01*
G01*
X18975000Y-10922000D02*
X18975000Y-6562000D01*
X10475000Y-6562000D02*
G75*
G02*
X10795000Y-6242000I320000J0D01*
G01*
X18815000Y-10922000D02*
G75*
G03*
X18815000Y-10922000I-160000J0D01*
G01*
X18815000Y-6562000D02*
G75*
G03*
X18815000Y-6562000I-160000J0D01*
G01*
X10795000Y-11242000D02*
X18655000Y-11242000D01*
X10955000Y-10922000D02*
G75*
G03*
X10955000Y-10922000I-160000J0D01*
G01*
X18975000Y-10922000D02*
G75*
G02*
X18655000Y-11242000I-320000J0D01*
G01*
X10795000Y-6242000D02*
X18655000Y-6242000D01*
X10795000Y-11242000D02*
G75*
G02*
X10475000Y-10922000I0J320000D01*
G01*
D11*
D12*
X10751428Y-11717714D02*
X10751428Y-11417714D01*
X10822857Y-11417714D01*
X10865714Y-11432000D01*
X10894286Y-11460571D01*
X10908571Y-11489143D01*
X10922857Y-11546286D01*
X10922857Y-11589143D01*
X10908571Y-11646286D01*
X10894286Y-11674857D01*
X10865714Y-11703429D01*
X10822857Y-11717714D01*
X10751428Y-11717714D01*
X11051428Y-11717714D02*
X11051428Y-11517714D01*
X11051428Y-11574857D02*
X11065714Y-11546286D01*
X11080000Y-11532000D01*
X11108571Y-11517714D01*
X11137143Y-11517714D01*
X11237143Y-11717714D02*
X11237143Y-11517714D01*
X11237143Y-11417714D02*
X11222857Y-11432000D01*
X11237143Y-11446286D01*
X11251428Y-11432000D01*
X11237143Y-11417714D01*
X11237143Y-11446286D01*
X11422857Y-11717714D02*
X11394286Y-11703429D01*
X11380000Y-11674857D01*
X11380000Y-11417714D01*
X11580000Y-11717714D02*
X11551428Y-11703429D01*
X11537143Y-11674857D01*
X11537143Y-11417714D01*
X11922857Y-11717714D02*
X11922857Y-11417714D01*
X12022857Y-11632000D01*
X12122857Y-11417714D01*
X12122857Y-11717714D01*
X12394286Y-11717714D02*
X12394286Y-11560571D01*
X12380000Y-11532000D01*
X12351428Y-11517714D01*
X12294286Y-11517714D01*
X12265714Y-11532000D01*
X12394286Y-11703429D02*
X12365714Y-11717714D01*
X12294286Y-11717714D01*
X12265714Y-11703429D01*
X12251428Y-11674857D01*
X12251428Y-11646286D01*
X12265714Y-11617714D01*
X12294286Y-11603429D01*
X12365714Y-11603429D01*
X12394286Y-11589143D01*
X12537143Y-11517714D02*
X12537143Y-11817714D01*
X12537143Y-11532000D02*
X12565714Y-11517714D01*
X12622857Y-11517714D01*
X12651428Y-11532000D01*
X12665714Y-11546286D01*
X12680000Y-11574857D01*
X12680000Y-11660571D01*
X12665714Y-11689143D01*
X12651428Y-11703429D01*
X12622857Y-11717714D01*
X12565714Y-11717714D01*
X12537143Y-11703429D01*
X12808571Y-11689143D02*
X12822857Y-11703429D01*
X12808571Y-11717714D01*
X12794286Y-11703429D01*
X12808571Y-11689143D01*
X12808571Y-11717714D01*
X12808571Y-11532000D02*
X12822857Y-11546286D01*
X12808571Y-11560571D01*
X12794286Y-11546286D01*
X12808571Y-11532000D01*
X12808571Y-11560571D01*
M02*
