%FSLAX45Y45*%
G04 Gerber Fmt 4.5, Leading zero omitted, Abs format (unit mm)*
G04 Created by KiCad (PCBNEW (5.1.9)-1) date 2022-01-14 23:33:00*
%MOMM*%
%LPD*%
G01*
G04 APERTURE LIST*
%TA.AperFunction,Profile*%
%ADD10C,0.200000*%
%TD*%
%ADD11C,0.200000*%
%ADD12C,0.300000*%
G04 APERTURE END LIST*
D10*
X10475000Y-10922000D02*
X10475000Y-6562000D01*
X18655000Y-6242000D02*
G75*
G02*
X18975000Y-6562000I0J-320000D01*
G01*
X10955000Y-6562000D02*
G75*
G03*
X10955000Y-6562000I-160000J0D01*
G01*
X18975000Y-10922000D02*
X18975000Y-6562000D01*
X10475000Y-6562000D02*
G75*
G02*
X10795000Y-6242000I320000J0D01*
G01*
X18815000Y-10922000D02*
G75*
G03*
X18815000Y-10922000I-160000J0D01*
G01*
X18815000Y-6562000D02*
G75*
G03*
X18815000Y-6562000I-160000J0D01*
G01*
X10795000Y-11242000D02*
X18655000Y-11242000D01*
X10955000Y-10922000D02*
G75*
G03*
X10955000Y-10922000I-160000J0D01*
G01*
X18975000Y-10922000D02*
G75*
G02*
X18655000Y-11242000I-320000J0D01*
G01*
X10795000Y-6242000D02*
X18655000Y-6242000D01*
X10795000Y-11242000D02*
G75*
G02*
X10475000Y-10922000I0J320000D01*
G01*
D11*
X11168700Y-9555800D02*
X11208700Y-9595800D01*
X11208700Y-9555800D02*
X11168700Y-9595800D01*
X11410000Y-9276400D02*
X11450000Y-9316400D01*
X11450000Y-9276400D02*
X11410000Y-9316400D01*
X11410000Y-9530400D02*
X11450000Y-9570400D01*
X11450000Y-9530400D02*
X11410000Y-9570400D01*
X11562400Y-9276400D02*
X11602400Y-9316400D01*
X11602400Y-9276400D02*
X11562400Y-9316400D01*
X11562400Y-9530400D02*
X11602400Y-9570400D01*
X11602400Y-9530400D02*
X11562400Y-9570400D01*
X11714800Y-9276400D02*
X11754800Y-9316400D01*
X11754800Y-9276400D02*
X11714800Y-9316400D01*
X11765600Y-9936800D02*
X11805600Y-9976800D01*
X11805600Y-9936800D02*
X11765600Y-9976800D01*
X11765600Y-10038400D02*
X11805600Y-10078400D01*
X11805600Y-10038400D02*
X11765600Y-10078400D01*
X11765600Y-10140000D02*
X11805600Y-10180000D01*
X11805600Y-10140000D02*
X11765600Y-10180000D01*
X11867200Y-8666800D02*
X11907200Y-8706800D01*
X11907200Y-8666800D02*
X11867200Y-8706800D01*
X11867200Y-8819200D02*
X11907200Y-8859200D01*
X11907200Y-8819200D02*
X11867200Y-8859200D01*
X12019600Y-8666800D02*
X12059600Y-8706800D01*
X12059600Y-8666800D02*
X12019600Y-8706800D01*
X12019600Y-8819200D02*
X12059600Y-8859200D01*
X12059600Y-8819200D02*
X12019600Y-8859200D01*
X12019600Y-8971600D02*
X12059600Y-9011600D01*
X12059600Y-8971600D02*
X12019600Y-9011600D01*
X14064300Y-7657150D02*
X14104300Y-7697150D01*
X14104300Y-7657150D02*
X14064300Y-7697150D01*
X14121450Y-7206300D02*
X14161450Y-7246300D01*
X14161450Y-7206300D02*
X14121450Y-7246300D01*
X14127800Y-6838000D02*
X14167800Y-6878000D01*
X14167800Y-6838000D02*
X14127800Y-6878000D01*
X14127800Y-7346000D02*
X14167800Y-7386000D01*
X14167800Y-7346000D02*
X14127800Y-7386000D01*
X14127800Y-8336600D02*
X14167800Y-8376600D01*
X14167800Y-8336600D02*
X14127800Y-8376600D01*
X14184950Y-8482650D02*
X14224950Y-8522650D01*
X14224950Y-8482650D02*
X14184950Y-8522650D01*
X14432600Y-8270500D02*
X14472600Y-8310500D01*
X14472600Y-8270500D02*
X14432600Y-8310500D01*
X14432600Y-8400100D02*
X14472600Y-8440100D01*
X14472600Y-8400100D02*
X14432600Y-8440100D01*
X14692950Y-8139750D02*
X14732950Y-8179750D01*
X14732950Y-8139750D02*
X14692950Y-8179750D01*
X14699300Y-7231700D02*
X14739300Y-7271700D01*
X14739300Y-7231700D02*
X14699300Y-7271700D01*
X14699300Y-7619050D02*
X14739300Y-7659050D01*
X14739300Y-7619050D02*
X14699300Y-7659050D01*
X14788200Y-7854000D02*
X14828200Y-7894000D01*
X14828200Y-7854000D02*
X14788200Y-7894000D01*
X14864400Y-7930200D02*
X14904400Y-7970200D01*
X14904400Y-7930200D02*
X14864400Y-7970200D01*
X14940600Y-8006400D02*
X14980600Y-8046400D01*
X14980600Y-8006400D02*
X14940600Y-8046400D01*
X15010450Y-8273100D02*
X15050450Y-8313100D01*
X15050450Y-8273100D02*
X15010450Y-8313100D01*
X15283500Y-8457250D02*
X15323500Y-8497250D01*
X15323500Y-8457250D02*
X15283500Y-8497250D01*
X15781450Y-9240950D02*
X15821450Y-9280950D01*
X15821450Y-9240950D02*
X15781450Y-9280950D01*
X15880400Y-7142800D02*
X15920400Y-7182800D01*
X15920400Y-7142800D02*
X15880400Y-7182800D01*
X16388400Y-6990400D02*
X16428400Y-7030400D01*
X16428400Y-6990400D02*
X16388400Y-7030400D01*
X11574300Y-9982200D02*
G75*
G03*
X11574300Y-9982200I-30000J0D01*
G01*
X11612400Y-10591800D02*
G75*
G03*
X11612400Y-10591800I-30000J0D01*
G01*
X11815600Y-10839450D02*
G75*
G03*
X11815600Y-10839450I-30000J0D01*
G01*
X11968000Y-10312400D02*
G75*
G03*
X11968000Y-10312400I-30000J0D01*
G01*
X11968000Y-10414000D02*
G75*
G03*
X11968000Y-10414000I-30000J0D01*
G01*
X11968000Y-10515600D02*
G75*
G03*
X11968000Y-10515600I-30000J0D01*
G01*
X12272800Y-10007600D02*
G75*
G03*
X12272800Y-10007600I-30000J0D01*
G01*
X12272800Y-10109200D02*
G75*
G03*
X12272800Y-10109200I-30000J0D01*
G01*
X12272800Y-10210800D02*
G75*
G03*
X12272800Y-10210800I-30000J0D01*
G01*
X12430000Y-9200000D02*
G75*
G03*
X12430000Y-9200000I-30000J0D01*
G01*
X12501400Y-9982200D02*
G75*
G03*
X12501400Y-9982200I-30000J0D01*
G01*
X12552200Y-10591800D02*
G75*
G03*
X12552200Y-10591800I-30000J0D01*
G01*
X13136400Y-7543800D02*
G75*
G03*
X13136400Y-7543800I-30000J0D01*
G01*
X13301500Y-7543800D02*
G75*
G03*
X13301500Y-7543800I-30000J0D01*
G01*
X13504700Y-7010400D02*
G75*
G03*
X13504700Y-7010400I-30000J0D01*
G01*
X13504700Y-7188200D02*
G75*
G03*
X13504700Y-7188200I-30000J0D01*
G01*
X13504700Y-7366000D02*
G75*
G03*
X13504700Y-7366000I-30000J0D01*
G01*
X13504700Y-7543800D02*
G75*
G03*
X13504700Y-7543800I-30000J0D01*
G01*
X13644400Y-8496300D02*
G75*
G03*
X13644400Y-8496300I-30000J0D01*
G01*
X13847600Y-10464800D02*
G75*
G03*
X13847600Y-10464800I-30000J0D01*
G01*
X13860300Y-7975600D02*
G75*
G03*
X13860300Y-7975600I-30000J0D01*
G01*
X13860300Y-8394700D02*
G75*
G03*
X13860300Y-8394700I-30000J0D01*
G01*
X14012700Y-10464800D02*
G75*
G03*
X14012700Y-10464800I-30000J0D01*
G01*
X14203200Y-10464800D02*
G75*
G03*
X14203200Y-10464800I-30000J0D01*
G01*
X14330200Y-8763000D02*
G75*
G03*
X14330200Y-8763000I-30000J0D01*
G01*
X14381000Y-10464800D02*
G75*
G03*
X14381000Y-10464800I-30000J0D01*
G01*
X15041400Y-8813800D02*
G75*
G03*
X15041400Y-8813800I-30000J0D01*
G01*
X15155700Y-7010400D02*
G75*
G03*
X15155700Y-7010400I-30000J0D01*
G01*
X15155700Y-7188200D02*
G75*
G03*
X15155700Y-7188200I-30000J0D01*
G01*
X15219200Y-7543800D02*
G75*
G03*
X15219200Y-7543800I-30000J0D01*
G01*
X15600200Y-8813800D02*
G75*
G03*
X15600200Y-8813800I-30000J0D01*
G01*
X15790700Y-7785100D02*
G75*
G03*
X15790700Y-7785100I-30000J0D01*
G01*
X15828800Y-9429750D02*
G75*
G03*
X15828800Y-9429750I-30000J0D01*
G01*
X15892300Y-8293100D02*
G75*
G03*
X15892300Y-8293100I-30000J0D01*
G01*
X15968500Y-6908800D02*
G75*
G03*
X15968500Y-6908800I-30000J0D01*
G01*
X15968500Y-7785100D02*
G75*
G03*
X15968500Y-7785100I-30000J0D01*
G01*
X16019300Y-8648700D02*
G75*
G03*
X16019300Y-8648700I-30000J0D01*
G01*
X16273300Y-6794500D02*
G75*
G03*
X16273300Y-6794500I-30000J0D01*
G01*
X16355850Y-9512300D02*
G75*
G03*
X16355850Y-9512300I-30000J0D01*
G01*
X16527300Y-8267700D02*
G75*
G03*
X16527300Y-8267700I-30000J0D01*
G01*
X16527300Y-8394700D02*
G75*
G03*
X16527300Y-8394700I-30000J0D01*
G01*
X16857500Y-7543800D02*
G75*
G03*
X16857500Y-7543800I-30000J0D01*
G01*
X17009900Y-7785100D02*
G75*
G03*
X17009900Y-7785100I-30000J0D01*
G01*
X17111500Y-8750300D02*
G75*
G03*
X17111500Y-8750300I-30000J0D01*
G01*
X17187700Y-7556500D02*
G75*
G03*
X17187700Y-7556500I-30000J0D01*
G01*
X17365500Y-8966200D02*
G75*
G03*
X17365500Y-8966200I-30000J0D01*
G01*
X17517900Y-8267700D02*
G75*
G03*
X17517900Y-8267700I-30000J0D01*
G01*
X17543300Y-8966200D02*
G75*
G03*
X17543300Y-8966200I-30000J0D01*
G01*
X17670300Y-7962900D02*
G75*
G03*
X17670300Y-7962900I-30000J0D01*
G01*
X17695700Y-8394700D02*
G75*
G03*
X17695700Y-8394700I-30000J0D01*
G01*
X17848100Y-7962900D02*
G75*
G03*
X17848100Y-7962900I-30000J0D01*
G01*
X17886200Y-7048500D02*
G75*
G03*
X17886200Y-7048500I-30000J0D01*
G01*
X17886200Y-7226300D02*
G75*
G03*
X17886200Y-7226300I-30000J0D01*
G01*
X18533900Y-8585200D02*
G75*
G03*
X18533900Y-8585200I-30000J0D01*
G01*
X18749800Y-8585200D02*
G75*
G03*
X18749800Y-8585200I-30000J0D01*
G01*
X13068300Y-10066700D02*
X13068300Y-10151700D01*
X13025800Y-10109200D02*
X13110800Y-10109200D01*
X13322300Y-10066700D02*
X13322300Y-10151700D01*
X13279800Y-10109200D02*
X13364800Y-10109200D01*
X13830300Y-10066700D02*
X13830300Y-10151700D01*
X13787800Y-10109200D02*
X13872800Y-10109200D01*
X14084300Y-10066700D02*
X14084300Y-10151700D01*
X14041800Y-10109200D02*
X14126800Y-10109200D01*
X14338300Y-10066700D02*
X14338300Y-10151700D01*
X14295800Y-10109200D02*
X14380800Y-10109200D01*
X10916156Y-7477556D02*
X10916156Y-7406844D01*
X10845444Y-7406844D01*
X10845444Y-7477556D01*
X10916156Y-7477556D01*
X10840800Y-7342200D02*
X10840800Y-7542200D01*
X10920800Y-7342200D02*
X10920800Y-7542200D01*
X10840800Y-7542200D02*
G75*
G03*
X10920800Y-7542200I40000J0D01*
G01*
X10920800Y-7342200D02*
G75*
G03*
X10840800Y-7342200I-40000J0D01*
G01*
X11216156Y-7947556D02*
X11216156Y-7876844D01*
X11145444Y-7876844D01*
X11145444Y-7947556D01*
X11216156Y-7947556D01*
X11080800Y-7952200D02*
X11280800Y-7952200D01*
X11080800Y-7872200D02*
X11280800Y-7872200D01*
X11280800Y-7952200D02*
G75*
G03*
X11280800Y-7872200I0J40000D01*
G01*
X11080800Y-7872200D02*
G75*
G03*
X11080800Y-7952200I0J-40000D01*
G01*
X11516156Y-7477556D02*
X11516156Y-7406844D01*
X11445444Y-7406844D01*
X11445444Y-7477556D01*
X11516156Y-7477556D01*
X11440800Y-7342200D02*
X11440800Y-7542200D01*
X11520800Y-7342200D02*
X11520800Y-7542200D01*
X11440800Y-7542200D02*
G75*
G03*
X11520800Y-7542200I40000J0D01*
G01*
X11520800Y-7342200D02*
G75*
G03*
X11440800Y-7342200I-40000J0D01*
G01*
X12951256Y-6410756D02*
X12951256Y-6340044D01*
X12880544Y-6340044D01*
X12880544Y-6410756D01*
X12951256Y-6410756D01*
X13205256Y-6410756D02*
X13205256Y-6340044D01*
X13134544Y-6340044D01*
X13134544Y-6410756D01*
X13205256Y-6410756D01*
X13459256Y-6410756D02*
X13459256Y-6340044D01*
X13388544Y-6340044D01*
X13388544Y-6410756D01*
X13459256Y-6410756D01*
X13713256Y-6410756D02*
X13713256Y-6340044D01*
X13642544Y-6340044D01*
X13642544Y-6410756D01*
X13713256Y-6410756D01*
X14335556Y-6410756D02*
X14335556Y-6340044D01*
X14264844Y-6340044D01*
X14264844Y-6410756D01*
X14335556Y-6410756D01*
X14589556Y-6410756D02*
X14589556Y-6340044D01*
X14518844Y-6340044D01*
X14518844Y-6410756D01*
X14589556Y-6410756D01*
X14843556Y-6410756D02*
X14843556Y-6340044D01*
X14772844Y-6340044D01*
X14772844Y-6410756D01*
X14843556Y-6410756D01*
X15097556Y-6410756D02*
X15097556Y-6340044D01*
X15026844Y-6340044D01*
X15026844Y-6410756D01*
X15097556Y-6410756D01*
D12*
X10751428Y-11717714D02*
X10751428Y-11417714D01*
X10822857Y-11417714D01*
X10865714Y-11432000D01*
X10894286Y-11460571D01*
X10908571Y-11489143D01*
X10922857Y-11546286D01*
X10922857Y-11589143D01*
X10908571Y-11646286D01*
X10894286Y-11674857D01*
X10865714Y-11703429D01*
X10822857Y-11717714D01*
X10751428Y-11717714D01*
X11051428Y-11717714D02*
X11051428Y-11517714D01*
X11051428Y-11574857D02*
X11065714Y-11546286D01*
X11080000Y-11532000D01*
X11108571Y-11517714D01*
X11137143Y-11517714D01*
X11237143Y-11717714D02*
X11237143Y-11517714D01*
X11237143Y-11417714D02*
X11222857Y-11432000D01*
X11237143Y-11446286D01*
X11251428Y-11432000D01*
X11237143Y-11417714D01*
X11237143Y-11446286D01*
X11422857Y-11717714D02*
X11394286Y-11703429D01*
X11380000Y-11674857D01*
X11380000Y-11417714D01*
X11580000Y-11717714D02*
X11551428Y-11703429D01*
X11537143Y-11674857D01*
X11537143Y-11417714D01*
X11922857Y-11717714D02*
X11922857Y-11417714D01*
X12022857Y-11632000D01*
X12122857Y-11417714D01*
X12122857Y-11717714D01*
X12394286Y-11717714D02*
X12394286Y-11560571D01*
X12380000Y-11532000D01*
X12351428Y-11517714D01*
X12294286Y-11517714D01*
X12265714Y-11532000D01*
X12394286Y-11703429D02*
X12365714Y-11717714D01*
X12294286Y-11717714D01*
X12265714Y-11703429D01*
X12251428Y-11674857D01*
X12251428Y-11646286D01*
X12265714Y-11617714D01*
X12294286Y-11603429D01*
X12365714Y-11603429D01*
X12394286Y-11589143D01*
X12537143Y-11517714D02*
X12537143Y-11817714D01*
X12537143Y-11532000D02*
X12565714Y-11517714D01*
X12622857Y-11517714D01*
X12651428Y-11532000D01*
X12665714Y-11546286D01*
X12680000Y-11574857D01*
X12680000Y-11660571D01*
X12665714Y-11689143D01*
X12651428Y-11703429D01*
X12622857Y-11717714D01*
X12565714Y-11717714D01*
X12537143Y-11703429D01*
X12808571Y-11689143D02*
X12822857Y-11703429D01*
X12808571Y-11717714D01*
X12794286Y-11703429D01*
X12808571Y-11689143D01*
X12808571Y-11717714D01*
X12808571Y-11532000D02*
X12822857Y-11546286D01*
X12808571Y-11560571D01*
X12794286Y-11546286D01*
X12808571Y-11532000D01*
X12808571Y-11560571D01*
X10425000Y-12192000D02*
X10465000Y-12232000D01*
X10465000Y-12192000D02*
X10425000Y-12232000D01*
X10808571Y-12047714D02*
X10837143Y-12047714D01*
X10865714Y-12062000D01*
X10880000Y-12076286D01*
X10894286Y-12104857D01*
X10908571Y-12162000D01*
X10908571Y-12233429D01*
X10894286Y-12290571D01*
X10880000Y-12319143D01*
X10865714Y-12333429D01*
X10837143Y-12347714D01*
X10808571Y-12347714D01*
X10780000Y-12333429D01*
X10765714Y-12319143D01*
X10751428Y-12290571D01*
X10737143Y-12233429D01*
X10737143Y-12162000D01*
X10751428Y-12104857D01*
X10765714Y-12076286D01*
X10780000Y-12062000D01*
X10808571Y-12047714D01*
X11037143Y-12319143D02*
X11051428Y-12333429D01*
X11037143Y-12347714D01*
X11022857Y-12333429D01*
X11037143Y-12319143D01*
X11037143Y-12347714D01*
X11308571Y-12147714D02*
X11308571Y-12347714D01*
X11237143Y-12033429D02*
X11165714Y-12247714D01*
X11351428Y-12247714D01*
X11522857Y-12047714D02*
X11551428Y-12047714D01*
X11580000Y-12062000D01*
X11594286Y-12076286D01*
X11608571Y-12104857D01*
X11622857Y-12162000D01*
X11622857Y-12233429D01*
X11608571Y-12290571D01*
X11594286Y-12319143D01*
X11580000Y-12333429D01*
X11551428Y-12347714D01*
X11522857Y-12347714D01*
X11494286Y-12333429D01*
X11480000Y-12319143D01*
X11465714Y-12290571D01*
X11451428Y-12233429D01*
X11451428Y-12162000D01*
X11465714Y-12104857D01*
X11480000Y-12076286D01*
X11494286Y-12062000D01*
X11522857Y-12047714D01*
X11751428Y-12347714D02*
X11751428Y-12147714D01*
X11751428Y-12176286D02*
X11765714Y-12162000D01*
X11794286Y-12147714D01*
X11837143Y-12147714D01*
X11865714Y-12162000D01*
X11880000Y-12190571D01*
X11880000Y-12347714D01*
X11880000Y-12190571D02*
X11894286Y-12162000D01*
X11922857Y-12147714D01*
X11965714Y-12147714D01*
X11994286Y-12162000D01*
X12008571Y-12190571D01*
X12008571Y-12347714D01*
X12151428Y-12347714D02*
X12151428Y-12147714D01*
X12151428Y-12176286D02*
X12165714Y-12162000D01*
X12194286Y-12147714D01*
X12237143Y-12147714D01*
X12265714Y-12162000D01*
X12280000Y-12190571D01*
X12280000Y-12347714D01*
X12280000Y-12190571D02*
X12294286Y-12162000D01*
X12322857Y-12147714D01*
X12365714Y-12147714D01*
X12394286Y-12162000D01*
X12408571Y-12190571D01*
X12408571Y-12347714D01*
X12994286Y-12033429D02*
X12737143Y-12419143D01*
X13380000Y-12047714D02*
X13408571Y-12047714D01*
X13437143Y-12062000D01*
X13451428Y-12076286D01*
X13465714Y-12104857D01*
X13480000Y-12162000D01*
X13480000Y-12233429D01*
X13465714Y-12290571D01*
X13451428Y-12319143D01*
X13437143Y-12333429D01*
X13408571Y-12347714D01*
X13380000Y-12347714D01*
X13351428Y-12333429D01*
X13337143Y-12319143D01*
X13322857Y-12290571D01*
X13308571Y-12233429D01*
X13308571Y-12162000D01*
X13322857Y-12104857D01*
X13337143Y-12076286D01*
X13351428Y-12062000D01*
X13380000Y-12047714D01*
X13608571Y-12319143D02*
X13622857Y-12333429D01*
X13608571Y-12347714D01*
X13594286Y-12333429D01*
X13608571Y-12319143D01*
X13608571Y-12347714D01*
X13808571Y-12047714D02*
X13837143Y-12047714D01*
X13865714Y-12062000D01*
X13880000Y-12076286D01*
X13894286Y-12104857D01*
X13908571Y-12162000D01*
X13908571Y-12233429D01*
X13894286Y-12290571D01*
X13880000Y-12319143D01*
X13865714Y-12333429D01*
X13837143Y-12347714D01*
X13808571Y-12347714D01*
X13780000Y-12333429D01*
X13765714Y-12319143D01*
X13751428Y-12290571D01*
X13737143Y-12233429D01*
X13737143Y-12162000D01*
X13751428Y-12104857D01*
X13765714Y-12076286D01*
X13780000Y-12062000D01*
X13808571Y-12047714D01*
X14194286Y-12347714D02*
X14022857Y-12347714D01*
X14108571Y-12347714D02*
X14108571Y-12047714D01*
X14080000Y-12090571D01*
X14051428Y-12119143D01*
X14022857Y-12133429D01*
X14451428Y-12047714D02*
X14394286Y-12047714D01*
X14365714Y-12062000D01*
X14351428Y-12076286D01*
X14322857Y-12119143D01*
X14308571Y-12176286D01*
X14308571Y-12290571D01*
X14322857Y-12319143D01*
X14337143Y-12333429D01*
X14365714Y-12347714D01*
X14422857Y-12347714D01*
X14451428Y-12333429D01*
X14465714Y-12319143D01*
X14480000Y-12290571D01*
X14480000Y-12219143D01*
X14465714Y-12190571D01*
X14451428Y-12176286D01*
X14422857Y-12162000D01*
X14365714Y-12162000D01*
X14337143Y-12176286D01*
X14322857Y-12190571D01*
X14308571Y-12219143D01*
X14594286Y-12047714D02*
X14594286Y-12104857D01*
X14708571Y-12047714D02*
X14708571Y-12104857D01*
X15151428Y-12462000D02*
X15137143Y-12447714D01*
X15108571Y-12404857D01*
X15094286Y-12376286D01*
X15080000Y-12333429D01*
X15065714Y-12262000D01*
X15065714Y-12204857D01*
X15080000Y-12133429D01*
X15094286Y-12090571D01*
X15108571Y-12062000D01*
X15137143Y-12019143D01*
X15151428Y-12004857D01*
X15237143Y-12047714D02*
X15422857Y-12047714D01*
X15322857Y-12162000D01*
X15365714Y-12162000D01*
X15394286Y-12176286D01*
X15408571Y-12190571D01*
X15422857Y-12219143D01*
X15422857Y-12290571D01*
X15408571Y-12319143D01*
X15394286Y-12333429D01*
X15365714Y-12347714D01*
X15280000Y-12347714D01*
X15251428Y-12333429D01*
X15237143Y-12319143D01*
X15522857Y-12047714D02*
X15708571Y-12047714D01*
X15608571Y-12162000D01*
X15651428Y-12162000D01*
X15680000Y-12176286D01*
X15694286Y-12190571D01*
X15708571Y-12219143D01*
X15708571Y-12290571D01*
X15694286Y-12319143D01*
X15680000Y-12333429D01*
X15651428Y-12347714D01*
X15565714Y-12347714D01*
X15537143Y-12333429D01*
X15522857Y-12319143D01*
X16065714Y-12347714D02*
X16065714Y-12047714D01*
X16194286Y-12347714D02*
X16194286Y-12190571D01*
X16180000Y-12162000D01*
X16151428Y-12147714D01*
X16108571Y-12147714D01*
X16080000Y-12162000D01*
X16065714Y-12176286D01*
X16380000Y-12347714D02*
X16351428Y-12333429D01*
X16337143Y-12319143D01*
X16322857Y-12290571D01*
X16322857Y-12204857D01*
X16337143Y-12176286D01*
X16351428Y-12162000D01*
X16380000Y-12147714D01*
X16422857Y-12147714D01*
X16451428Y-12162000D01*
X16465714Y-12176286D01*
X16480000Y-12204857D01*
X16480000Y-12290571D01*
X16465714Y-12319143D01*
X16451428Y-12333429D01*
X16422857Y-12347714D01*
X16380000Y-12347714D01*
X16651428Y-12347714D02*
X16622857Y-12333429D01*
X16608571Y-12304857D01*
X16608571Y-12047714D01*
X16880000Y-12333429D02*
X16851428Y-12347714D01*
X16794286Y-12347714D01*
X16765714Y-12333429D01*
X16751428Y-12304857D01*
X16751428Y-12190571D01*
X16765714Y-12162000D01*
X16794286Y-12147714D01*
X16851428Y-12147714D01*
X16880000Y-12162000D01*
X16894286Y-12190571D01*
X16894286Y-12219143D01*
X16751428Y-12247714D01*
X17008571Y-12333429D02*
X17037143Y-12347714D01*
X17094286Y-12347714D01*
X17122857Y-12333429D01*
X17137143Y-12304857D01*
X17137143Y-12290571D01*
X17122857Y-12262000D01*
X17094286Y-12247714D01*
X17051428Y-12247714D01*
X17022857Y-12233429D01*
X17008571Y-12204857D01*
X17008571Y-12190571D01*
X17022857Y-12162000D01*
X17051428Y-12147714D01*
X17094286Y-12147714D01*
X17122857Y-12162000D01*
X17237143Y-12462000D02*
X17251428Y-12447714D01*
X17280000Y-12404857D01*
X17294286Y-12376286D01*
X17308571Y-12333429D01*
X17322857Y-12262000D01*
X17322857Y-12204857D01*
X17308571Y-12133429D01*
X17294286Y-12090571D01*
X17280000Y-12062000D01*
X17251428Y-12019143D01*
X17237143Y-12004857D01*
X10465000Y-12608000D02*
G75*
G03*
X10465000Y-12608000I-30000J0D01*
G01*
X10808571Y-12443714D02*
X10837143Y-12443714D01*
X10865714Y-12458000D01*
X10880000Y-12472286D01*
X10894286Y-12500857D01*
X10908571Y-12558000D01*
X10908571Y-12629429D01*
X10894286Y-12686571D01*
X10880000Y-12715143D01*
X10865714Y-12729429D01*
X10837143Y-12743714D01*
X10808571Y-12743714D01*
X10780000Y-12729429D01*
X10765714Y-12715143D01*
X10751428Y-12686571D01*
X10737143Y-12629429D01*
X10737143Y-12558000D01*
X10751428Y-12500857D01*
X10765714Y-12472286D01*
X10780000Y-12458000D01*
X10808571Y-12443714D01*
X11037143Y-12715143D02*
X11051428Y-12729429D01*
X11037143Y-12743714D01*
X11022857Y-12729429D01*
X11037143Y-12715143D01*
X11037143Y-12743714D01*
X11308571Y-12443714D02*
X11251428Y-12443714D01*
X11222857Y-12458000D01*
X11208571Y-12472286D01*
X11180000Y-12515143D01*
X11165714Y-12572286D01*
X11165714Y-12686571D01*
X11180000Y-12715143D01*
X11194286Y-12729429D01*
X11222857Y-12743714D01*
X11280000Y-12743714D01*
X11308571Y-12729429D01*
X11322857Y-12715143D01*
X11337143Y-12686571D01*
X11337143Y-12615143D01*
X11322857Y-12586571D01*
X11308571Y-12572286D01*
X11280000Y-12558000D01*
X11222857Y-12558000D01*
X11194286Y-12572286D01*
X11180000Y-12586571D01*
X11165714Y-12615143D01*
X11522857Y-12443714D02*
X11551428Y-12443714D01*
X11580000Y-12458000D01*
X11594286Y-12472286D01*
X11608571Y-12500857D01*
X11622857Y-12558000D01*
X11622857Y-12629429D01*
X11608571Y-12686571D01*
X11594286Y-12715143D01*
X11580000Y-12729429D01*
X11551428Y-12743714D01*
X11522857Y-12743714D01*
X11494286Y-12729429D01*
X11480000Y-12715143D01*
X11465714Y-12686571D01*
X11451428Y-12629429D01*
X11451428Y-12558000D01*
X11465714Y-12500857D01*
X11480000Y-12472286D01*
X11494286Y-12458000D01*
X11522857Y-12443714D01*
X11751428Y-12743714D02*
X11751428Y-12543714D01*
X11751428Y-12572286D02*
X11765714Y-12558000D01*
X11794286Y-12543714D01*
X11837143Y-12543714D01*
X11865714Y-12558000D01*
X11880000Y-12586571D01*
X11880000Y-12743714D01*
X11880000Y-12586571D02*
X11894286Y-12558000D01*
X11922857Y-12543714D01*
X11965714Y-12543714D01*
X11994286Y-12558000D01*
X12008571Y-12586571D01*
X12008571Y-12743714D01*
X12151428Y-12743714D02*
X12151428Y-12543714D01*
X12151428Y-12572286D02*
X12165714Y-12558000D01*
X12194286Y-12543714D01*
X12237143Y-12543714D01*
X12265714Y-12558000D01*
X12280000Y-12586571D01*
X12280000Y-12743714D01*
X12280000Y-12586571D02*
X12294286Y-12558000D01*
X12322857Y-12543714D01*
X12365714Y-12543714D01*
X12394286Y-12558000D01*
X12408571Y-12586571D01*
X12408571Y-12743714D01*
X12994286Y-12429429D02*
X12737143Y-12815143D01*
X13380000Y-12443714D02*
X13408571Y-12443714D01*
X13437143Y-12458000D01*
X13451428Y-12472286D01*
X13465714Y-12500857D01*
X13480000Y-12558000D01*
X13480000Y-12629429D01*
X13465714Y-12686571D01*
X13451428Y-12715143D01*
X13437143Y-12729429D01*
X13408571Y-12743714D01*
X13380000Y-12743714D01*
X13351428Y-12729429D01*
X13337143Y-12715143D01*
X13322857Y-12686571D01*
X13308571Y-12629429D01*
X13308571Y-12558000D01*
X13322857Y-12500857D01*
X13337143Y-12472286D01*
X13351428Y-12458000D01*
X13380000Y-12443714D01*
X13608571Y-12715143D02*
X13622857Y-12729429D01*
X13608571Y-12743714D01*
X13594286Y-12729429D01*
X13608571Y-12715143D01*
X13608571Y-12743714D01*
X13808571Y-12443714D02*
X13837143Y-12443714D01*
X13865714Y-12458000D01*
X13880000Y-12472286D01*
X13894286Y-12500857D01*
X13908571Y-12558000D01*
X13908571Y-12629429D01*
X13894286Y-12686571D01*
X13880000Y-12715143D01*
X13865714Y-12729429D01*
X13837143Y-12743714D01*
X13808571Y-12743714D01*
X13780000Y-12729429D01*
X13765714Y-12715143D01*
X13751428Y-12686571D01*
X13737143Y-12629429D01*
X13737143Y-12558000D01*
X13751428Y-12500857D01*
X13765714Y-12472286D01*
X13780000Y-12458000D01*
X13808571Y-12443714D01*
X14022857Y-12472286D02*
X14037143Y-12458000D01*
X14065714Y-12443714D01*
X14137143Y-12443714D01*
X14165714Y-12458000D01*
X14180000Y-12472286D01*
X14194286Y-12500857D01*
X14194286Y-12529429D01*
X14180000Y-12572286D01*
X14008571Y-12743714D01*
X14194286Y-12743714D01*
X14451428Y-12543714D02*
X14451428Y-12743714D01*
X14380000Y-12429429D02*
X14308571Y-12643714D01*
X14494286Y-12643714D01*
X14594286Y-12443714D02*
X14594286Y-12500857D01*
X14708571Y-12443714D02*
X14708571Y-12500857D01*
X15151428Y-12858000D02*
X15137143Y-12843714D01*
X15108571Y-12800857D01*
X15094286Y-12772286D01*
X15080000Y-12729429D01*
X15065714Y-12658000D01*
X15065714Y-12600857D01*
X15080000Y-12529429D01*
X15094286Y-12486571D01*
X15108571Y-12458000D01*
X15137143Y-12415143D01*
X15151428Y-12400857D01*
X15408571Y-12443714D02*
X15265714Y-12443714D01*
X15251428Y-12586571D01*
X15265714Y-12572286D01*
X15294286Y-12558000D01*
X15365714Y-12558000D01*
X15394286Y-12572286D01*
X15408571Y-12586571D01*
X15422857Y-12615143D01*
X15422857Y-12686571D01*
X15408571Y-12715143D01*
X15394286Y-12729429D01*
X15365714Y-12743714D01*
X15294286Y-12743714D01*
X15265714Y-12729429D01*
X15251428Y-12715143D01*
X15694286Y-12443714D02*
X15551428Y-12443714D01*
X15537143Y-12586571D01*
X15551428Y-12572286D01*
X15580000Y-12558000D01*
X15651428Y-12558000D01*
X15680000Y-12572286D01*
X15694286Y-12586571D01*
X15708571Y-12615143D01*
X15708571Y-12686571D01*
X15694286Y-12715143D01*
X15680000Y-12729429D01*
X15651428Y-12743714D01*
X15580000Y-12743714D01*
X15551428Y-12729429D01*
X15537143Y-12715143D01*
X16065714Y-12743714D02*
X16065714Y-12443714D01*
X16194286Y-12743714D02*
X16194286Y-12586571D01*
X16180000Y-12558000D01*
X16151428Y-12543714D01*
X16108571Y-12543714D01*
X16080000Y-12558000D01*
X16065714Y-12572286D01*
X16380000Y-12743714D02*
X16351428Y-12729429D01*
X16337143Y-12715143D01*
X16322857Y-12686571D01*
X16322857Y-12600857D01*
X16337143Y-12572286D01*
X16351428Y-12558000D01*
X16380000Y-12543714D01*
X16422857Y-12543714D01*
X16451428Y-12558000D01*
X16465714Y-12572286D01*
X16480000Y-12600857D01*
X16480000Y-12686571D01*
X16465714Y-12715143D01*
X16451428Y-12729429D01*
X16422857Y-12743714D01*
X16380000Y-12743714D01*
X16651428Y-12743714D02*
X16622857Y-12729429D01*
X16608571Y-12700857D01*
X16608571Y-12443714D01*
X16880000Y-12729429D02*
X16851428Y-12743714D01*
X16794286Y-12743714D01*
X16765714Y-12729429D01*
X16751428Y-12700857D01*
X16751428Y-12586571D01*
X16765714Y-12558000D01*
X16794286Y-12543714D01*
X16851428Y-12543714D01*
X16880000Y-12558000D01*
X16894286Y-12586571D01*
X16894286Y-12615143D01*
X16751428Y-12643714D01*
X17008571Y-12729429D02*
X17037143Y-12743714D01*
X17094286Y-12743714D01*
X17122857Y-12729429D01*
X17137143Y-12700857D01*
X17137143Y-12686571D01*
X17122857Y-12658000D01*
X17094286Y-12643714D01*
X17051428Y-12643714D01*
X17022857Y-12629429D01*
X17008571Y-12600857D01*
X17008571Y-12586571D01*
X17022857Y-12558000D01*
X17051428Y-12543714D01*
X17094286Y-12543714D01*
X17122857Y-12558000D01*
X17237143Y-12858000D02*
X17251428Y-12843714D01*
X17280000Y-12800857D01*
X17294286Y-12772286D01*
X17308571Y-12729429D01*
X17322857Y-12658000D01*
X17322857Y-12600857D01*
X17308571Y-12529429D01*
X17294286Y-12486571D01*
X17280000Y-12458000D01*
X17251428Y-12415143D01*
X17237143Y-12400857D01*
X10422500Y-12961500D02*
X10422500Y-13046500D01*
X10380000Y-13004000D02*
X10465000Y-13004000D01*
X10808571Y-12839714D02*
X10837143Y-12839714D01*
X10865714Y-12854000D01*
X10880000Y-12868286D01*
X10894286Y-12896857D01*
X10908571Y-12954000D01*
X10908571Y-13025429D01*
X10894286Y-13082571D01*
X10880000Y-13111143D01*
X10865714Y-13125429D01*
X10837143Y-13139714D01*
X10808571Y-13139714D01*
X10780000Y-13125429D01*
X10765714Y-13111143D01*
X10751428Y-13082571D01*
X10737143Y-13025429D01*
X10737143Y-12954000D01*
X10751428Y-12896857D01*
X10765714Y-12868286D01*
X10780000Y-12854000D01*
X10808571Y-12839714D01*
X11037143Y-13111143D02*
X11051428Y-13125429D01*
X11037143Y-13139714D01*
X11022857Y-13125429D01*
X11037143Y-13111143D01*
X11037143Y-13139714D01*
X11222857Y-12968286D02*
X11194286Y-12954000D01*
X11180000Y-12939714D01*
X11165714Y-12911143D01*
X11165714Y-12896857D01*
X11180000Y-12868286D01*
X11194286Y-12854000D01*
X11222857Y-12839714D01*
X11280000Y-12839714D01*
X11308571Y-12854000D01*
X11322857Y-12868286D01*
X11337143Y-12896857D01*
X11337143Y-12911143D01*
X11322857Y-12939714D01*
X11308571Y-12954000D01*
X11280000Y-12968286D01*
X11222857Y-12968286D01*
X11194286Y-12982571D01*
X11180000Y-12996857D01*
X11165714Y-13025429D01*
X11165714Y-13082571D01*
X11180000Y-13111143D01*
X11194286Y-13125429D01*
X11222857Y-13139714D01*
X11280000Y-13139714D01*
X11308571Y-13125429D01*
X11322857Y-13111143D01*
X11337143Y-13082571D01*
X11337143Y-13025429D01*
X11322857Y-12996857D01*
X11308571Y-12982571D01*
X11280000Y-12968286D01*
X11608571Y-12839714D02*
X11465714Y-12839714D01*
X11451428Y-12982571D01*
X11465714Y-12968286D01*
X11494286Y-12954000D01*
X11565714Y-12954000D01*
X11594286Y-12968286D01*
X11608571Y-12982571D01*
X11622857Y-13011143D01*
X11622857Y-13082571D01*
X11608571Y-13111143D01*
X11594286Y-13125429D01*
X11565714Y-13139714D01*
X11494286Y-13139714D01*
X11465714Y-13125429D01*
X11451428Y-13111143D01*
X11751428Y-13139714D02*
X11751428Y-12939714D01*
X11751428Y-12968286D02*
X11765714Y-12954000D01*
X11794286Y-12939714D01*
X11837143Y-12939714D01*
X11865714Y-12954000D01*
X11880000Y-12982571D01*
X11880000Y-13139714D01*
X11880000Y-12982571D02*
X11894286Y-12954000D01*
X11922857Y-12939714D01*
X11965714Y-12939714D01*
X11994286Y-12954000D01*
X12008571Y-12982571D01*
X12008571Y-13139714D01*
X12151428Y-13139714D02*
X12151428Y-12939714D01*
X12151428Y-12968286D02*
X12165714Y-12954000D01*
X12194286Y-12939714D01*
X12237143Y-12939714D01*
X12265714Y-12954000D01*
X12280000Y-12982571D01*
X12280000Y-13139714D01*
X12280000Y-12982571D02*
X12294286Y-12954000D01*
X12322857Y-12939714D01*
X12365714Y-12939714D01*
X12394286Y-12954000D01*
X12408571Y-12982571D01*
X12408571Y-13139714D01*
X12994286Y-12825429D02*
X12737143Y-13211143D01*
X13380000Y-12839714D02*
X13408571Y-12839714D01*
X13437143Y-12854000D01*
X13451428Y-12868286D01*
X13465714Y-12896857D01*
X13480000Y-12954000D01*
X13480000Y-13025429D01*
X13465714Y-13082571D01*
X13451428Y-13111143D01*
X13437143Y-13125429D01*
X13408571Y-13139714D01*
X13380000Y-13139714D01*
X13351428Y-13125429D01*
X13337143Y-13111143D01*
X13322857Y-13082571D01*
X13308571Y-13025429D01*
X13308571Y-12954000D01*
X13322857Y-12896857D01*
X13337143Y-12868286D01*
X13351428Y-12854000D01*
X13380000Y-12839714D01*
X13608571Y-13111143D02*
X13622857Y-13125429D01*
X13608571Y-13139714D01*
X13594286Y-13125429D01*
X13608571Y-13111143D01*
X13608571Y-13139714D01*
X13808571Y-12839714D02*
X13837143Y-12839714D01*
X13865714Y-12854000D01*
X13880000Y-12868286D01*
X13894286Y-12896857D01*
X13908571Y-12954000D01*
X13908571Y-13025429D01*
X13894286Y-13082571D01*
X13880000Y-13111143D01*
X13865714Y-13125429D01*
X13837143Y-13139714D01*
X13808571Y-13139714D01*
X13780000Y-13125429D01*
X13765714Y-13111143D01*
X13751428Y-13082571D01*
X13737143Y-13025429D01*
X13737143Y-12954000D01*
X13751428Y-12896857D01*
X13765714Y-12868286D01*
X13780000Y-12854000D01*
X13808571Y-12839714D01*
X14008571Y-12839714D02*
X14194286Y-12839714D01*
X14094286Y-12954000D01*
X14137143Y-12954000D01*
X14165714Y-12968286D01*
X14180000Y-12982571D01*
X14194286Y-13011143D01*
X14194286Y-13082571D01*
X14180000Y-13111143D01*
X14165714Y-13125429D01*
X14137143Y-13139714D01*
X14051428Y-13139714D01*
X14022857Y-13125429D01*
X14008571Y-13111143D01*
X14294286Y-12839714D02*
X14480000Y-12839714D01*
X14380000Y-12954000D01*
X14422857Y-12954000D01*
X14451428Y-12968286D01*
X14465714Y-12982571D01*
X14480000Y-13011143D01*
X14480000Y-13082571D01*
X14465714Y-13111143D01*
X14451428Y-13125429D01*
X14422857Y-13139714D01*
X14337143Y-13139714D01*
X14308571Y-13125429D01*
X14294286Y-13111143D01*
X14594286Y-12839714D02*
X14594286Y-12896857D01*
X14708571Y-12839714D02*
X14708571Y-12896857D01*
X15151428Y-13254000D02*
X15137143Y-13239714D01*
X15108571Y-13196857D01*
X15094286Y-13168286D01*
X15080000Y-13125429D01*
X15065714Y-13054000D01*
X15065714Y-12996857D01*
X15080000Y-12925429D01*
X15094286Y-12882571D01*
X15108571Y-12854000D01*
X15137143Y-12811143D01*
X15151428Y-12796857D01*
X15408571Y-12839714D02*
X15265714Y-12839714D01*
X15251428Y-12982571D01*
X15265714Y-12968286D01*
X15294286Y-12954000D01*
X15365714Y-12954000D01*
X15394286Y-12968286D01*
X15408571Y-12982571D01*
X15422857Y-13011143D01*
X15422857Y-13082571D01*
X15408571Y-13111143D01*
X15394286Y-13125429D01*
X15365714Y-13139714D01*
X15294286Y-13139714D01*
X15265714Y-13125429D01*
X15251428Y-13111143D01*
X15780000Y-13139714D02*
X15780000Y-12839714D01*
X15908571Y-13139714D02*
X15908571Y-12982571D01*
X15894286Y-12954000D01*
X15865714Y-12939714D01*
X15822857Y-12939714D01*
X15794286Y-12954000D01*
X15780000Y-12968286D01*
X16094286Y-13139714D02*
X16065714Y-13125429D01*
X16051428Y-13111143D01*
X16037143Y-13082571D01*
X16037143Y-12996857D01*
X16051428Y-12968286D01*
X16065714Y-12954000D01*
X16094286Y-12939714D01*
X16137143Y-12939714D01*
X16165714Y-12954000D01*
X16180000Y-12968286D01*
X16194286Y-12996857D01*
X16194286Y-13082571D01*
X16180000Y-13111143D01*
X16165714Y-13125429D01*
X16137143Y-13139714D01*
X16094286Y-13139714D01*
X16365714Y-13139714D02*
X16337143Y-13125429D01*
X16322857Y-13096857D01*
X16322857Y-12839714D01*
X16594286Y-13125429D02*
X16565714Y-13139714D01*
X16508571Y-13139714D01*
X16480000Y-13125429D01*
X16465714Y-13096857D01*
X16465714Y-12982571D01*
X16480000Y-12954000D01*
X16508571Y-12939714D01*
X16565714Y-12939714D01*
X16594286Y-12954000D01*
X16608571Y-12982571D01*
X16608571Y-13011143D01*
X16465714Y-13039714D01*
X16722857Y-13125429D02*
X16751428Y-13139714D01*
X16808571Y-13139714D01*
X16837143Y-13125429D01*
X16851428Y-13096857D01*
X16851428Y-13082571D01*
X16837143Y-13054000D01*
X16808571Y-13039714D01*
X16765714Y-13039714D01*
X16737143Y-13025429D01*
X16722857Y-12996857D01*
X16722857Y-12982571D01*
X16737143Y-12954000D01*
X16765714Y-12939714D01*
X16808571Y-12939714D01*
X16837143Y-12954000D01*
X16951428Y-13254000D02*
X16965714Y-13239714D01*
X16994286Y-13196857D01*
X17008571Y-13168286D01*
X17022857Y-13125429D01*
X17037143Y-13054000D01*
X17037143Y-12996857D01*
X17022857Y-12925429D01*
X17008571Y-12882571D01*
X16994286Y-12854000D01*
X16965714Y-12811143D01*
X16951428Y-12796857D01*
X10450356Y-13435356D02*
X10450356Y-13364644D01*
X10379644Y-13364644D01*
X10379644Y-13435356D01*
X10450356Y-13435356D01*
X10908571Y-13535714D02*
X10737143Y-13535714D01*
X10822857Y-13535714D02*
X10822857Y-13235714D01*
X10794286Y-13278571D01*
X10765714Y-13307143D01*
X10737143Y-13321429D01*
X11037143Y-13507143D02*
X11051428Y-13521429D01*
X11037143Y-13535714D01*
X11022857Y-13521429D01*
X11037143Y-13507143D01*
X11037143Y-13535714D01*
X11237143Y-13235714D02*
X11265714Y-13235714D01*
X11294286Y-13250000D01*
X11308571Y-13264286D01*
X11322857Y-13292857D01*
X11337143Y-13350000D01*
X11337143Y-13421429D01*
X11322857Y-13478571D01*
X11308571Y-13507143D01*
X11294286Y-13521429D01*
X11265714Y-13535714D01*
X11237143Y-13535714D01*
X11208571Y-13521429D01*
X11194286Y-13507143D01*
X11180000Y-13478571D01*
X11165714Y-13421429D01*
X11165714Y-13350000D01*
X11180000Y-13292857D01*
X11194286Y-13264286D01*
X11208571Y-13250000D01*
X11237143Y-13235714D01*
X11522857Y-13235714D02*
X11551428Y-13235714D01*
X11580000Y-13250000D01*
X11594286Y-13264286D01*
X11608571Y-13292857D01*
X11622857Y-13350000D01*
X11622857Y-13421429D01*
X11608571Y-13478571D01*
X11594286Y-13507143D01*
X11580000Y-13521429D01*
X11551428Y-13535714D01*
X11522857Y-13535714D01*
X11494286Y-13521429D01*
X11480000Y-13507143D01*
X11465714Y-13478571D01*
X11451428Y-13421429D01*
X11451428Y-13350000D01*
X11465714Y-13292857D01*
X11480000Y-13264286D01*
X11494286Y-13250000D01*
X11522857Y-13235714D01*
X11751428Y-13535714D02*
X11751428Y-13335714D01*
X11751428Y-13364286D02*
X11765714Y-13350000D01*
X11794286Y-13335714D01*
X11837143Y-13335714D01*
X11865714Y-13350000D01*
X11880000Y-13378571D01*
X11880000Y-13535714D01*
X11880000Y-13378571D02*
X11894286Y-13350000D01*
X11922857Y-13335714D01*
X11965714Y-13335714D01*
X11994286Y-13350000D01*
X12008571Y-13378571D01*
X12008571Y-13535714D01*
X12151428Y-13535714D02*
X12151428Y-13335714D01*
X12151428Y-13364286D02*
X12165714Y-13350000D01*
X12194286Y-13335714D01*
X12237143Y-13335714D01*
X12265714Y-13350000D01*
X12280000Y-13378571D01*
X12280000Y-13535714D01*
X12280000Y-13378571D02*
X12294286Y-13350000D01*
X12322857Y-13335714D01*
X12365714Y-13335714D01*
X12394286Y-13350000D01*
X12408571Y-13378571D01*
X12408571Y-13535714D01*
X12994286Y-13221429D02*
X12737143Y-13607143D01*
X13380000Y-13235714D02*
X13408571Y-13235714D01*
X13437143Y-13250000D01*
X13451428Y-13264286D01*
X13465714Y-13292857D01*
X13480000Y-13350000D01*
X13480000Y-13421429D01*
X13465714Y-13478571D01*
X13451428Y-13507143D01*
X13437143Y-13521429D01*
X13408571Y-13535714D01*
X13380000Y-13535714D01*
X13351428Y-13521429D01*
X13337143Y-13507143D01*
X13322857Y-13478571D01*
X13308571Y-13421429D01*
X13308571Y-13350000D01*
X13322857Y-13292857D01*
X13337143Y-13264286D01*
X13351428Y-13250000D01*
X13380000Y-13235714D01*
X13608571Y-13507143D02*
X13622857Y-13521429D01*
X13608571Y-13535714D01*
X13594286Y-13521429D01*
X13608571Y-13507143D01*
X13608571Y-13535714D01*
X13808571Y-13235714D02*
X13837143Y-13235714D01*
X13865714Y-13250000D01*
X13880000Y-13264286D01*
X13894286Y-13292857D01*
X13908571Y-13350000D01*
X13908571Y-13421429D01*
X13894286Y-13478571D01*
X13880000Y-13507143D01*
X13865714Y-13521429D01*
X13837143Y-13535714D01*
X13808571Y-13535714D01*
X13780000Y-13521429D01*
X13765714Y-13507143D01*
X13751428Y-13478571D01*
X13737143Y-13421429D01*
X13737143Y-13350000D01*
X13751428Y-13292857D01*
X13765714Y-13264286D01*
X13780000Y-13250000D01*
X13808571Y-13235714D01*
X14008571Y-13235714D02*
X14194286Y-13235714D01*
X14094286Y-13350000D01*
X14137143Y-13350000D01*
X14165714Y-13364286D01*
X14180000Y-13378571D01*
X14194286Y-13407143D01*
X14194286Y-13478571D01*
X14180000Y-13507143D01*
X14165714Y-13521429D01*
X14137143Y-13535714D01*
X14051428Y-13535714D01*
X14022857Y-13521429D01*
X14008571Y-13507143D01*
X14337143Y-13535714D02*
X14394286Y-13535714D01*
X14422857Y-13521429D01*
X14437143Y-13507143D01*
X14465714Y-13464286D01*
X14480000Y-13407143D01*
X14480000Y-13292857D01*
X14465714Y-13264286D01*
X14451428Y-13250000D01*
X14422857Y-13235714D01*
X14365714Y-13235714D01*
X14337143Y-13250000D01*
X14322857Y-13264286D01*
X14308571Y-13292857D01*
X14308571Y-13364286D01*
X14322857Y-13392857D01*
X14337143Y-13407143D01*
X14365714Y-13421429D01*
X14422857Y-13421429D01*
X14451428Y-13407143D01*
X14465714Y-13392857D01*
X14480000Y-13364286D01*
X14594286Y-13235714D02*
X14594286Y-13292857D01*
X14708571Y-13235714D02*
X14708571Y-13292857D01*
X15151428Y-13650000D02*
X15137143Y-13635714D01*
X15108571Y-13592857D01*
X15094286Y-13564286D01*
X15080000Y-13521429D01*
X15065714Y-13450000D01*
X15065714Y-13392857D01*
X15080000Y-13321429D01*
X15094286Y-13278571D01*
X15108571Y-13250000D01*
X15137143Y-13207143D01*
X15151428Y-13192857D01*
X15308571Y-13364286D02*
X15280000Y-13350000D01*
X15265714Y-13335714D01*
X15251428Y-13307143D01*
X15251428Y-13292857D01*
X15265714Y-13264286D01*
X15280000Y-13250000D01*
X15308571Y-13235714D01*
X15365714Y-13235714D01*
X15394286Y-13250000D01*
X15408571Y-13264286D01*
X15422857Y-13292857D01*
X15422857Y-13307143D01*
X15408571Y-13335714D01*
X15394286Y-13350000D01*
X15365714Y-13364286D01*
X15308571Y-13364286D01*
X15280000Y-13378571D01*
X15265714Y-13392857D01*
X15251428Y-13421429D01*
X15251428Y-13478571D01*
X15265714Y-13507143D01*
X15280000Y-13521429D01*
X15308571Y-13535714D01*
X15365714Y-13535714D01*
X15394286Y-13521429D01*
X15408571Y-13507143D01*
X15422857Y-13478571D01*
X15422857Y-13421429D01*
X15408571Y-13392857D01*
X15394286Y-13378571D01*
X15365714Y-13364286D01*
X15780000Y-13535714D02*
X15780000Y-13235714D01*
X15908571Y-13535714D02*
X15908571Y-13378571D01*
X15894286Y-13350000D01*
X15865714Y-13335714D01*
X15822857Y-13335714D01*
X15794286Y-13350000D01*
X15780000Y-13364286D01*
X16094286Y-13535714D02*
X16065714Y-13521429D01*
X16051428Y-13507143D01*
X16037143Y-13478571D01*
X16037143Y-13392857D01*
X16051428Y-13364286D01*
X16065714Y-13350000D01*
X16094286Y-13335714D01*
X16137143Y-13335714D01*
X16165714Y-13350000D01*
X16180000Y-13364286D01*
X16194286Y-13392857D01*
X16194286Y-13478571D01*
X16180000Y-13507143D01*
X16165714Y-13521429D01*
X16137143Y-13535714D01*
X16094286Y-13535714D01*
X16365714Y-13535714D02*
X16337143Y-13521429D01*
X16322857Y-13492857D01*
X16322857Y-13235714D01*
X16594286Y-13521429D02*
X16565714Y-13535714D01*
X16508571Y-13535714D01*
X16480000Y-13521429D01*
X16465714Y-13492857D01*
X16465714Y-13378571D01*
X16480000Y-13350000D01*
X16508571Y-13335714D01*
X16565714Y-13335714D01*
X16594286Y-13350000D01*
X16608571Y-13378571D01*
X16608571Y-13407143D01*
X16465714Y-13435714D01*
X16722857Y-13521429D02*
X16751428Y-13535714D01*
X16808571Y-13535714D01*
X16837143Y-13521429D01*
X16851428Y-13492857D01*
X16851428Y-13478571D01*
X16837143Y-13450000D01*
X16808571Y-13435714D01*
X16765714Y-13435714D01*
X16737143Y-13421429D01*
X16722857Y-13392857D01*
X16722857Y-13378571D01*
X16737143Y-13350000D01*
X16765714Y-13335714D01*
X16808571Y-13335714D01*
X16837143Y-13350000D01*
X17208571Y-13421429D02*
X17437143Y-13421429D01*
X17322857Y-13535714D02*
X17322857Y-13307143D01*
X17780000Y-13235714D02*
X17965714Y-13235714D01*
X17865714Y-13350000D01*
X17908571Y-13350000D01*
X17937143Y-13364286D01*
X17951428Y-13378571D01*
X17965714Y-13407143D01*
X17965714Y-13478571D01*
X17951428Y-13507143D01*
X17937143Y-13521429D01*
X17908571Y-13535714D01*
X17822857Y-13535714D01*
X17794286Y-13521429D01*
X17780000Y-13507143D01*
X18308571Y-13521429D02*
X18337143Y-13535714D01*
X18394286Y-13535714D01*
X18422857Y-13521429D01*
X18437143Y-13492857D01*
X18437143Y-13478571D01*
X18422857Y-13450000D01*
X18394286Y-13435714D01*
X18351428Y-13435714D01*
X18322857Y-13421429D01*
X18308571Y-13392857D01*
X18308571Y-13378571D01*
X18322857Y-13350000D01*
X18351428Y-13335714D01*
X18394286Y-13335714D01*
X18422857Y-13350000D01*
X18608571Y-13535714D02*
X18580000Y-13521429D01*
X18565714Y-13492857D01*
X18565714Y-13235714D01*
X18765714Y-13535714D02*
X18737143Y-13521429D01*
X18722857Y-13507143D01*
X18708571Y-13478571D01*
X18708571Y-13392857D01*
X18722857Y-13364286D01*
X18737143Y-13350000D01*
X18765714Y-13335714D01*
X18808571Y-13335714D01*
X18837143Y-13350000D01*
X18851428Y-13364286D01*
X18865714Y-13392857D01*
X18865714Y-13478571D01*
X18851428Y-13507143D01*
X18837143Y-13521429D01*
X18808571Y-13535714D01*
X18765714Y-13535714D01*
X18951428Y-13335714D02*
X19065714Y-13335714D01*
X18994286Y-13235714D02*
X18994286Y-13492857D01*
X19008571Y-13521429D01*
X19037143Y-13535714D01*
X19065714Y-13535714D01*
X19151428Y-13521429D02*
X19180000Y-13535714D01*
X19237143Y-13535714D01*
X19265714Y-13521429D01*
X19280000Y-13492857D01*
X19280000Y-13478571D01*
X19265714Y-13450000D01*
X19237143Y-13435714D01*
X19194286Y-13435714D01*
X19165714Y-13421429D01*
X19151428Y-13392857D01*
X19151428Y-13378571D01*
X19165714Y-13350000D01*
X19194286Y-13335714D01*
X19237143Y-13335714D01*
X19265714Y-13350000D01*
X19380000Y-13650000D02*
X19394286Y-13635714D01*
X19422857Y-13592857D01*
X19437143Y-13564286D01*
X19451428Y-13521429D01*
X19465714Y-13450000D01*
X19465714Y-13392857D01*
X19451428Y-13321429D01*
X19437143Y-13278571D01*
X19422857Y-13250000D01*
X19394286Y-13207143D01*
X19380000Y-13192857D01*
M02*
