M48
; DRILL file {KiCad (5.1.9)-1} date 01/14/22 23:32:56
; FORMAT={-:-/ absolute / metric / decimal}
; #@! TF.CreationDate,2022-01-14T23:32:56+03:00
; #@! TF.GenerationSoftware,Kicad,Pcbnew,(5.1.9)-1
; #@! TF.FileFunction,Plated,1,4,PTH
FMAT,2
METRIC
T1C0.400
T2C0.600
T3C0.850
T4C1.000
%
G90
G05
T1
X111.887Y-95.758
X114.3Y-92.964
X114.3Y-95.504
X115.824Y-92.964
X115.824Y-95.504
X117.348Y-92.964
X117.856Y-99.568
X117.856Y-100.584
X117.856Y-101.6
X118.872Y-86.868
X118.872Y-88.392
X120.396Y-86.868
X120.396Y-88.392
X120.396Y-89.916
X140.843Y-76.772
X141.415Y-72.263
X141.478Y-68.58
X141.478Y-73.66
X141.478Y-83.566
X142.049Y-85.026
X144.526Y-82.905
X144.526Y-84.201
X147.13Y-81.597
X147.193Y-72.517
X147.193Y-76.391
X148.082Y-78.74
X148.844Y-79.502
X149.606Y-80.264
X150.304Y-82.931
X153.035Y-84.772
X158.014Y-92.609
X159.004Y-71.628
X164.084Y-70.104
T2
X115.443Y-99.822
X115.824Y-105.918
X117.856Y-108.394
X119.38Y-103.124
X119.38Y-104.14
X119.38Y-105.156
X122.428Y-100.076
X122.428Y-101.092
X122.428Y-102.108
X124.0Y-92.0
X124.714Y-99.822
X125.222Y-105.918
X131.064Y-75.438
X132.715Y-75.438
X134.747Y-70.104
X134.747Y-71.882
X134.747Y-73.66
X134.747Y-75.438
X136.144Y-84.963
X138.176Y-104.648
X138.303Y-79.756
X138.303Y-83.947
X139.827Y-104.648
X141.732Y-104.648
X143.002Y-87.63
X143.51Y-104.648
X150.114Y-88.138
X151.257Y-70.104
X151.257Y-71.882
X151.892Y-75.438
X155.702Y-88.138
X157.607Y-77.851
X157.988Y-94.297
X158.623Y-82.931
X159.385Y-69.088
X159.385Y-77.851
X159.893Y-86.487
X162.433Y-67.945
X163.258Y-95.123
X164.973Y-82.677
X164.973Y-83.947
X168.275Y-75.438
X169.799Y-77.851
X170.815Y-87.503
X171.577Y-75.565
X173.355Y-89.662
X174.879Y-82.677
X175.133Y-89.662
X176.403Y-79.629
X176.657Y-83.947
X178.181Y-79.629
X178.562Y-70.485
X178.562Y-72.263
X185.039Y-85.852
X187.198Y-85.852
T3
X130.683Y-101.092
X133.223Y-101.092
X138.303Y-101.092
X140.843Y-101.092
X143.383Y-101.092
T4
X129.159Y-63.754
X131.699Y-63.754
X134.239Y-63.754
X136.779Y-63.754
X143.002Y-63.754
X145.542Y-63.754
X148.082Y-63.754
X150.622Y-63.754
T4
X108.808Y-73.422G85X108.808Y-75.422
G05
X110.808Y-79.122G85X112.808Y-79.122
G05
X114.808Y-73.422G85X114.808Y-75.422
G05
T0
M30
